M48
; DRILL file {KiCad 9.0.6} date 2026-03-21T22:50:49-0400
; FORMAT={-:-/ absolute / metric / decimal}
; #@! TF.CreationDate,2026-03-21T22:50:49-04:00
; #@! TF.GenerationSoftware,Kicad,Pcbnew,9.0.6
; #@! TF.FileFunction,NonPlated,1,2,NPTH
FMAT,2
METRIC
; #@! TA.AperFunction,NonPlated,NPTH,ComponentDrill
T1C1.500
; #@! TA.AperFunction,NonPlated,NPTH,ComponentDrill
T2C1.700
; #@! TA.AperFunction,NonPlated,NPTH,ComponentDrill
T3C1.800
; #@! TA.AperFunction,NonPlated,NPTH,ComponentDrill
T4C3.050
; #@! TA.AperFunction,NonPlated,NPTH,ComponentDrill
T5C4.000
%
G90
G05
T1
X373.871Y-69.647
X373.871Y-74.498
T2
X39.211Y-47.784
X39.211Y-71.596
X41.593Y-147.796
X43.974Y-90.646
X46.355Y-109.696
X49.371Y-47.784
X49.371Y-71.596
X51.117Y-128.746
X51.752Y-147.796
X54.134Y-90.646
X56.515Y-109.696
X58.261Y-71.596
X61.277Y-128.746
X63.024Y-47.784
X65.405Y-147.796
X67.786Y-90.646
X68.421Y-71.596
X72.549Y-109.696
X73.184Y-47.784
X75.565Y-147.796
X77.311Y-71.596
X77.946Y-90.646
X82.074Y-47.784
X82.074Y-128.746
X82.709Y-109.696
X86.836Y-90.646
X87.471Y-71.596
X89.218Y-147.796
X91.599Y-109.696
X92.234Y-47.784
X92.234Y-128.746
X96.361Y-71.596
X96.996Y-90.646
X99.377Y-147.796
X101.124Y-47.784
X101.124Y-128.746
X101.759Y-109.696
X105.886Y-90.646
X106.521Y-71.596
X110.649Y-109.696
X111.284Y-47.784
X111.284Y-128.746
X115.411Y-71.596
X116.046Y-90.646
X120.174Y-47.784
X120.174Y-128.746
X120.809Y-109.696
X124.936Y-90.646
X125.571Y-71.596
X129.699Y-109.696
X130.334Y-47.784
X130.334Y-128.746
X134.461Y-71.596
X135.096Y-90.646
X139.224Y-128.746
X139.859Y-109.696
X143.986Y-47.784
X143.986Y-90.646
X144.621Y-71.596
X148.749Y-109.696
X149.384Y-128.746
X153.511Y-71.596
X154.146Y-47.784
X154.146Y-90.646
X158.274Y-128.746
X158.909Y-109.696
X160.655Y-147.796
X163.036Y-47.784
X163.036Y-90.646
X163.671Y-71.596
X167.799Y-109.696
X168.434Y-128.746
X170.815Y-147.796
X172.561Y-71.596
X173.196Y-47.784
X173.196Y-90.646
X177.324Y-128.746
X177.959Y-109.696
X182.086Y-47.784
X182.086Y-90.646
X182.721Y-71.596
X186.849Y-109.696
X187.484Y-128.746
X191.611Y-71.596
X192.246Y-47.784
X192.246Y-90.646
X196.374Y-128.746
X197.009Y-109.696
X201.136Y-47.784
X201.136Y-90.646
X201.771Y-71.596
X205.899Y-109.696
X206.534Y-128.746
X210.661Y-71.596
X211.296Y-47.784
X211.296Y-90.646
X215.424Y-128.746
X216.059Y-109.696
X220.186Y-90.646
X220.821Y-71.596
X224.949Y-47.784
X224.949Y-109.696
X225.584Y-128.746
X229.711Y-71.596
X230.346Y-90.646
X232.093Y-147.796
X234.474Y-128.746
X235.109Y-47.784
X235.109Y-109.696
X239.236Y-90.646
X239.871Y-71.596
X242.252Y-147.796
X243.999Y-47.784
X243.999Y-109.696
X244.634Y-128.746
X248.761Y-71.596
X249.396Y-90.646
X253.524Y-128.746
X254.159Y-47.784
X254.159Y-109.696
X255.905Y-147.796
X258.286Y-90.646
X258.921Y-71.596
X263.049Y-47.784
X263.049Y-109.696
X263.684Y-128.746
X266.065Y-147.796
X267.811Y-71.596
X268.446Y-90.646
X273.209Y-47.784
X273.209Y-109.696
X277.336Y-90.646
X277.971Y-71.596
X279.717Y-147.796
X282.099Y-47.784
X287.496Y-90.646
X289.243Y-128.746
X289.877Y-147.796
X292.259Y-47.784
X294.005Y-109.696
X296.386Y-71.596
X299.402Y-128.746
X301.149Y-90.646
X303.53Y-147.796
X304.165Y-109.696
X305.911Y-47.784
X306.546Y-71.596
X311.309Y-90.646
X313.69Y-147.796
X316.071Y-47.784
X329.724Y-147.796
X339.884Y-147.796
X348.774Y-128.746
X348.774Y-147.796
X358.934Y-128.746
X358.934Y-147.796
X367.824Y-147.796
X377.984Y-147.796
T3
X376.901Y-69.347
X376.901Y-74.797
T4
X44.297Y-121.746
X68.097Y-121.746
X115.735Y-140.796
X215.735Y-140.796
X282.423Y-121.746
X287.185Y-102.696
X289.566Y-64.596
X306.222Y-121.746
X310.985Y-102.696
X313.366Y-64.596
T5
X44.291Y-47.784
X44.291Y-71.596
X44.297Y-136.986
X46.672Y-147.796
X49.054Y-90.646
X51.435Y-109.696
X56.197Y-128.746
X63.341Y-71.596
X68.097Y-136.986
X68.104Y-47.784
X70.485Y-147.796
X72.866Y-90.646
X77.629Y-109.696
X82.391Y-71.596
X87.154Y-47.784
X87.154Y-128.746
X91.916Y-90.646
X94.297Y-147.796
X96.679Y-109.696
X101.441Y-71.596
X106.204Y-47.784
X106.204Y-128.746
X110.966Y-90.646
X115.729Y-109.696
X115.735Y-156.036
X120.491Y-71.596
X125.254Y-47.784
X125.254Y-128.746
X130.016Y-90.646
X134.779Y-109.696
X139.541Y-71.596
X144.304Y-128.746
X149.066Y-47.784
X149.066Y-90.646
X153.829Y-109.696
X158.591Y-71.596
X163.354Y-128.746
X165.735Y-147.796
X168.116Y-47.784
X168.116Y-90.646
X172.879Y-109.696
X177.641Y-71.596
X182.404Y-128.746
X187.166Y-47.784
X187.166Y-90.646
X191.929Y-109.696
X196.691Y-71.596
X201.454Y-128.746
X206.216Y-47.784
X206.216Y-90.646
X210.979Y-109.696
X215.735Y-156.036
X215.741Y-71.596
X220.504Y-128.746
X225.266Y-90.646
X230.029Y-47.784
X230.029Y-109.696
X234.791Y-71.596
X237.172Y-147.796
X239.554Y-128.746
X244.316Y-90.646
X249.079Y-47.784
X249.079Y-109.696
X253.841Y-71.596
X258.604Y-128.746
X260.985Y-147.796
X263.366Y-90.646
X268.129Y-47.784
X268.129Y-109.696
X272.891Y-71.596
X282.416Y-90.646
X282.423Y-136.986
X284.798Y-147.796
X287.179Y-47.784
X287.185Y-117.936
X289.566Y-79.836
X294.322Y-128.746
X299.085Y-109.696
X301.466Y-71.596
X306.222Y-136.986
X306.229Y-90.646
X308.61Y-147.796
X310.985Y-117.936
X310.991Y-47.784
X313.366Y-79.836
X334.804Y-147.796
X353.854Y-128.746
X353.854Y-147.796
X372.904Y-147.796
M30
