%TF.GenerationSoftware,KiCad,Pcbnew,9.0.6*%
%TF.CreationDate,2026-03-21T22:50:52-04:00*%
%TF.ProjectId,CapyBoard,43617079-426f-4617-9264-2e6b69636164,rev?*%
%TF.SameCoordinates,Original*%
%TF.FileFunction,Copper,L1,Top*%
%TF.FilePolarity,Positive*%
%FSLAX46Y46*%
G04 Gerber Fmt 4.6, Leading zero omitted, Abs format (unit mm)*
G04 Created by KiCad (PCBNEW 9.0.6) date 2026-03-21 22:50:52*
%MOMM*%
%LPD*%
G01*
G04 APERTURE LIST*
G04 Aperture macros list*
%AMRoundRect*
0 Rectangle with rounded corners*
0 $1 Rounding radius*
0 $2 $3 $4 $5 $6 $7 $8 $9 X,Y pos of 4 corners*
0 Add a 4 corners polygon primitive as box body*
4,1,4,$2,$3,$4,$5,$6,$7,$8,$9,$2,$3,0*
0 Add four circle primitives for the rounded corners*
1,1,$1+$1,$2,$3*
1,1,$1+$1,$4,$5*
1,1,$1+$1,$6,$7*
1,1,$1+$1,$8,$9*
0 Add four rect primitives between the rounded corners*
20,1,$1+$1,$2,$3,$4,$5,0*
20,1,$1+$1,$4,$5,$6,$7,0*
20,1,$1+$1,$6,$7,$8,$9,0*
20,1,$1+$1,$8,$9,$2,$3,0*%
G04 Aperture macros list end*
%TA.AperFunction,ComponentPad*%
%ADD10C,2.200000*%
%TD*%
%TA.AperFunction,ComponentPad*%
%ADD11C,3.800000*%
%TD*%
%TA.AperFunction,ComponentPad*%
%ADD12R,2.000000X2.000000*%
%TD*%
%TA.AperFunction,ComponentPad*%
%ADD13C,2.000000*%
%TD*%
%TA.AperFunction,ComponentPad*%
%ADD14C,3.200000*%
%TD*%
%TA.AperFunction,SMDPad,CuDef*%
%ADD15RoundRect,0.237500X-0.250000X-0.237500X0.250000X-0.237500X0.250000X0.237500X-0.250000X0.237500X0*%
%TD*%
%TA.AperFunction,ComponentPad*%
%ADD16O,1.600000X2.000000*%
%TD*%
%TA.AperFunction,ComponentPad*%
%ADD17O,1.700000X1.700000*%
%TD*%
%TA.AperFunction,SMDPad,CuDef*%
%ADD18R,1.700000X3.500000*%
%TD*%
%TA.AperFunction,ComponentPad*%
%ADD19R,1.700000X1.700000*%
%TD*%
%TA.AperFunction,SMDPad,CuDef*%
%ADD20R,3.500000X1.700000*%
%TD*%
%TA.AperFunction,SMDPad,CuDef*%
%ADD21RoundRect,0.152400X1.063600X0.609600X-1.063600X0.609600X-1.063600X-0.609600X1.063600X-0.609600X0*%
%TD*%
%TA.AperFunction,ComponentPad*%
%ADD22C,1.524000*%
%TD*%
%TA.AperFunction,SMDPad,CuDef*%
%ADD23RoundRect,0.152400X-1.063600X-0.609600X1.063600X-0.609600X1.063600X0.609600X-1.063600X0.609600X0*%
%TD*%
%TA.AperFunction,ComponentPad*%
%ADD24RoundRect,0.250000X-0.550000X0.550000X-0.550000X-0.550000X0.550000X-0.550000X0.550000X0.550000X0*%
%TD*%
%TA.AperFunction,ComponentPad*%
%ADD25C,1.600000*%
%TD*%
%TA.AperFunction,ViaPad*%
%ADD26C,0.600000*%
%TD*%
%TA.AperFunction,Conductor*%
%ADD27C,0.200000*%
%TD*%
G04 APERTURE END LIST*
D10*
%TO.P,SW3,1,1*%
%TO.N,Column 3*%
X89693750Y-42703750D03*
%TO.P,SW3,2,2*%
%TO.N,Net-(D3-A)*%
X83343750Y-45243750D03*
%TD*%
%TO.P,SW71,1,1*%
%TO.N,Column 3*%
X96837500Y-142716250D03*
%TO.P,SW71,2,2*%
%TO.N,Net-(D71-A)*%
X90487500Y-145256250D03*
%TD*%
%TO.P,SW11,1,1*%
%TO.N,Column 11*%
X251618750Y-42703750D03*
%TO.P,SW11,2,2*%
%TO.N,Net-(D11-A)*%
X245268750Y-45243750D03*
%TD*%
%TO.P,SW66,1,1*%
%TO.N,Column 11*%
X261143750Y-123666250D03*
%TO.P,SW66,2,2*%
%TO.N,Net-(D66-A)*%
X254793750Y-126206250D03*
%TD*%
%TO.P,SW46,1,1*%
%TO.N,Column 4*%
X118268750Y-104616250D03*
%TO.P,SW46,2,2*%
%TO.N,Net-(D46-A)*%
X111918750Y-107156250D03*
%TD*%
%TO.P,SW36,1,1*%
%TO.N,Column 8*%
X189706250Y-85566250D03*
%TO.P,SW36,2,2*%
%TO.N,Net-(D36-A)*%
X183356250Y-88106250D03*
%TD*%
%TO.P,SW14,1,1*%
%TO.N,Column 14*%
X313531250Y-42703750D03*
%TO.P,SW14,2,2*%
%TO.N,Net-(D14-A)*%
X307181250Y-45243750D03*
%TD*%
D11*
%TO.P,REF\u002A\u002A,1*%
%TO.N,N/C*%
X30000000Y-35000000D03*
%TD*%
D10*
%TO.P,SW5,1,1*%
%TO.N,Column 5*%
X127793750Y-42703750D03*
%TO.P,SW5,2,2*%
%TO.N,Net-(D5-A)*%
X121443750Y-45243750D03*
%TD*%
%TO.P,SW6,1,1*%
%TO.N,Column 6*%
X151606250Y-42703750D03*
%TO.P,SW6,2,2*%
%TO.N,Net-(D6-A)*%
X145256250Y-45243750D03*
%TD*%
%TO.P,SW40,1,1*%
%TO.N,Column 12*%
X265906250Y-85566250D03*
%TO.P,SW40,2,2*%
%TO.N,Net-(D40-A)*%
X259556250Y-88106250D03*
%TD*%
%TO.P,SW73,1,1*%
%TO.N,Column 8*%
X239712500Y-142716250D03*
%TO.P,SW73,2,2*%
%TO.N,Net-(D73-A)*%
X233362500Y-145256250D03*
%TD*%
%TO.P,SW21,1,1*%
%TO.N,Column 7*%
X161131250Y-66516250D03*
%TO.P,SW21,2,2*%
%TO.N,Net-(D21-A)*%
X154781250Y-69056250D03*
%TD*%
%TO.P,SW16,1,1*%
%TO.N,Column 2*%
X65881250Y-66516250D03*
%TO.P,SW16,2,2*%
%TO.N,Net-(D16-A)*%
X59531250Y-69056250D03*
%TD*%
%TO.P,SW55,1,1*%
%TO.N,Column 13*%
X301625000Y-104616250D03*
%TO.P,SW55,2,2*%
%TO.N,Net-(D55-A)*%
X295275000Y-107156250D03*
%TD*%
%TO.P,SW30,1,1*%
%TO.N,Column 2*%
X75406250Y-85566250D03*
%TO.P,SW30,2,2*%
%TO.N,Net-(D30-A)*%
X69056250Y-88106250D03*
%TD*%
%TO.P,SW43,1,1*%
%TO.N,Column 1*%
X53975000Y-104616250D03*
%TO.P,SW43,2,2*%
%TO.N,Net-(D43-A)*%
X47625000Y-107156250D03*
%TD*%
%TO.P,SW24,1,1*%
%TO.N,Column 10*%
X218281250Y-66516250D03*
%TO.P,SW24,2,2*%
%TO.N,Net-(D24-A)*%
X211931250Y-69056250D03*
%TD*%
%TO.P,SW41,1,1*%
%TO.N,Column 13*%
X284956250Y-85566250D03*
%TO.P,SW41,2,2*%
%TO.N,Net-(D41-A)*%
X278606250Y-88106250D03*
%TD*%
%TO.P,SW1,1,1*%
%TO.N,Column 1*%
X46831250Y-42703750D03*
%TO.P,SW1,2,2*%
%TO.N,Net-(D1-A)*%
X40481250Y-45243750D03*
%TD*%
%TO.P,SW60,1,1*%
%TO.N,Column 5*%
X146843750Y-123666250D03*
%TO.P,SW60,2,2*%
%TO.N,Net-(D60-A)*%
X140493750Y-126206250D03*
%TD*%
%TO.P,SW76,1,1*%
%TO.N,Column 11*%
X311150000Y-142716250D03*
%TO.P,SW76,2,2*%
%TO.N,Net-(D76-A)*%
X304800000Y-145256250D03*
%TD*%
%TO.P,SW31,1,1*%
%TO.N,Column 3*%
X94456250Y-85566250D03*
%TO.P,SW31,2,2*%
%TO.N,Net-(D31-A)*%
X88106250Y-88106250D03*
%TD*%
%TO.P,SW27,1,1*%
%TO.N,Column 13*%
X275431250Y-66516250D03*
%TO.P,SW27,2,2*%
%TO.N,Net-(D27-A)*%
X269081250Y-69056250D03*
%TD*%
%TO.P,SW64,1,1*%
%TO.N,Column 9*%
X223043750Y-123666250D03*
%TO.P,SW64,2,2*%
%TO.N,Net-(D64-A)*%
X216693750Y-126206250D03*
%TD*%
%TO.P,SW26,1,1*%
%TO.N,Column 12*%
X256381250Y-66516250D03*
%TO.P,SW26,2,2*%
%TO.N,Net-(D26-A)*%
X250031250Y-69056250D03*
%TD*%
%TO.P,SW72,1,1*%
%TO.N,Column 4*%
X168275000Y-142716250D03*
%TO.P,SW72,2,2*%
%TO.N,Net-(D72-A)*%
X161925000Y-145256250D03*
%TD*%
%TO.P,SW33,1,1*%
%TO.N,Column 5*%
X132556250Y-85566250D03*
%TO.P,SW33,2,2*%
%TO.N,Net-(D33-A)*%
X126206250Y-88106250D03*
%TD*%
D11*
%TO.P,REF\u002A\u002A,1*%
%TO.N,N/C*%
X385000000Y-165000000D03*
%TD*%
D10*
%TO.P,SW38,1,1*%
%TO.N,Column 10*%
X227806250Y-85566250D03*
%TO.P,SW38,2,2*%
%TO.N,Net-(D38-A)*%
X221456250Y-88106250D03*
%TD*%
%TO.P,SW39,1,1*%
%TO.N,Column 11*%
X246856250Y-85566250D03*
%TO.P,SW39,2,2*%
%TO.N,Net-(D39-A)*%
X240506250Y-88106250D03*
%TD*%
%TO.P,SW45,1,1*%
%TO.N,Column 3*%
X99218750Y-104616250D03*
%TO.P,SW45,2,2*%
%TO.N,Net-(D45-A)*%
X92868750Y-107156250D03*
%TD*%
D11*
%TO.P,REF\u002A\u002A,1*%
%TO.N,N/C*%
X30000000Y-165000000D03*
%TD*%
D10*
%TO.P,SW2,1,1*%
%TO.N,Column 2*%
X70643750Y-42703750D03*
%TO.P,SW2,2,2*%
%TO.N,Net-(D2-A)*%
X64293750Y-45243750D03*
%TD*%
%TO.P,SW8,1,1*%
%TO.N,Column 8*%
X189706250Y-42703750D03*
%TO.P,SW8,2,2*%
%TO.N,Net-(D8-A)*%
X183356250Y-45243750D03*
%TD*%
%TO.P,SW23,1,1*%
%TO.N,Column 9*%
X199231250Y-66516250D03*
%TO.P,SW23,2,2*%
%TO.N,Net-(D23-A)*%
X192881250Y-69056250D03*
%TD*%
%TO.P,SW9,1,1*%
%TO.N,Column 9*%
X208756250Y-42703750D03*
%TO.P,SW9,2,2*%
%TO.N,Net-(D9-A)*%
X202406250Y-45243750D03*
%TD*%
D12*
%TO.P,SW81,A,A*%
%TO.N,E2_A*%
X367500000Y-43500000D03*
D13*
%TO.P,SW81,B,B*%
%TO.N,E2_B*%
X367500000Y-48500000D03*
%TO.P,SW81,C,C*%
%TO.N,GND*%
X367500000Y-46000000D03*
D14*
%TO.P,SW81,MP*%
X375000000Y-40400000D03*
X375000000Y-51600000D03*
D13*
%TO.P,SW81,S1,S1*%
%TO.N,E2_SW*%
X382000000Y-48500000D03*
%TO.P,SW81,S2,S2*%
%TO.N,GND*%
X382000000Y-43500000D03*
%TD*%
D11*
%TO.P,REF\u002A\u002A,1*%
%TO.N,N/C*%
X385000000Y-35000000D03*
%TD*%
D10*
%TO.P,SW74,1,1*%
%TO.N,Column 9*%
X263525000Y-142716250D03*
%TO.P,SW74,2,2*%
%TO.N,Net-(D74-A)*%
X257175000Y-145256250D03*
%TD*%
%TO.P,SW57,1,1*%
%TO.N,Column 2*%
X89693750Y-123666250D03*
%TO.P,SW57,2,2*%
%TO.N,Net-(D57-A)*%
X83343750Y-126206250D03*
%TD*%
%TO.P,SW42,1,1*%
%TO.N,Column 14*%
X308768750Y-85566250D03*
%TO.P,SW42,2,2*%
%TO.N,Net-(D42-A)*%
X302418750Y-88106250D03*
%TD*%
%TO.P,SW52,1,1*%
%TO.N,Column 10*%
X232568750Y-104616250D03*
%TO.P,SW52,2,2*%
%TO.N,Net-(D52-A)*%
X226218750Y-107156250D03*
%TD*%
%TO.P,SW56,1,1*%
%TO.N,Column 1*%
X58737500Y-123666250D03*
%TO.P,SW56,2,2*%
%TO.N,Net-(D56-A)*%
X52387500Y-126206250D03*
%TD*%
%TO.P,SW10,1,1*%
%TO.N,Column 10*%
X232568750Y-42703750D03*
%TO.P,SW10,2,2*%
%TO.N,Net-(D10-A)*%
X226218750Y-45243750D03*
%TD*%
%TO.P,SW19,1,1*%
%TO.N,Column 5*%
X123031250Y-66516250D03*
%TO.P,SW19,2,2*%
%TO.N,Net-(D19-A)*%
X116681250Y-69056250D03*
%TD*%
D15*
%TO.P,R2,1*%
%TO.N,+3.3V*%
X376587500Y-104000000D03*
%TO.P,R2,2*%
%TO.N,I2C_SCL*%
X378412500Y-104000000D03*
%TD*%
D10*
%TO.P,SW68,1,1*%
%TO.N,Column 13*%
X356393750Y-123666250D03*
%TO.P,SW68,2,2*%
%TO.N,Net-(D68-A)*%
X350043750Y-126206250D03*
%TD*%
%TO.P,SW7,1,1*%
%TO.N,Column 7*%
X170656250Y-42703750D03*
%TO.P,SW7,2,2*%
%TO.N,Net-(D7-A)*%
X164306250Y-45243750D03*
%TD*%
%TO.P,SW18,1,1*%
%TO.N,Column 4*%
X103981250Y-66516250D03*
%TO.P,SW18,2,2*%
%TO.N,Net-(D18-A)*%
X97631250Y-69056250D03*
%TD*%
%TO.P,SW29,1,1*%
%TO.N,Column 1*%
X51593750Y-85566250D03*
%TO.P,SW29,2,2*%
%TO.N,Net-(D29-A)*%
X45243750Y-88106250D03*
%TD*%
%TO.P,SW78,1,1*%
%TO.N,Column 13*%
X356393750Y-142716250D03*
%TO.P,SW78,2,2*%
%TO.N,Net-(D78-A)*%
X350043750Y-145256250D03*
%TD*%
%TO.P,SW50,1,1*%
%TO.N,Column 8*%
X194468750Y-104616250D03*
%TO.P,SW50,2,2*%
%TO.N,Net-(D50-A)*%
X188118750Y-107156250D03*
%TD*%
%TO.P,SW34,1,1*%
%TO.N,Column 6*%
X151606250Y-85566250D03*
%TO.P,SW34,2,2*%
%TO.N,Net-(D34-A)*%
X145256250Y-88106250D03*
%TD*%
%TO.P,SW20,1,1*%
%TO.N,Column 6*%
X142081250Y-66516250D03*
%TO.P,SW20,2,2*%
%TO.N,Net-(D20-A)*%
X135731250Y-69056250D03*
%TD*%
%TO.P,SW65,1,1*%
%TO.N,Column 10*%
X242093750Y-123666250D03*
%TO.P,SW65,2,2*%
%TO.N,Net-(D65-A)*%
X235743750Y-126206250D03*
%TD*%
%TO.P,SW17,1,1*%
%TO.N,Column 3*%
X84931250Y-66516250D03*
%TO.P,SW17,2,2*%
%TO.N,Net-(D17-A)*%
X78581250Y-69056250D03*
%TD*%
%TO.P,SW35,1,1*%
%TO.N,Column 7*%
X170656250Y-85566250D03*
%TO.P,SW35,2,2*%
%TO.N,Net-(D35-A)*%
X164306250Y-88106250D03*
%TD*%
%TO.P,SW28,1,1*%
%TO.N,Column 14*%
X304006250Y-66516250D03*
%TO.P,SW28,2,2*%
%TO.N,Net-(D28-A)*%
X297656250Y-69056250D03*
%TD*%
%TO.P,SW75,1,1*%
%TO.N,Column 10*%
X287337500Y-142716250D03*
%TO.P,SW75,2,2*%
%TO.N,Net-(D75-A)*%
X280987500Y-145256250D03*
%TD*%
%TO.P,SW59,1,1*%
%TO.N,Column 4*%
X127793750Y-123666250D03*
%TO.P,SW59,2,2*%
%TO.N,Net-(D59-A)*%
X121443750Y-126206250D03*
%TD*%
%TO.P,SW22,1,1*%
%TO.N,Column 8*%
X180181250Y-66516250D03*
%TO.P,SW22,2,2*%
%TO.N,Net-(D22-A)*%
X173831250Y-69056250D03*
%TD*%
%TO.P,SW15,1,1*%
%TO.N,Column 1*%
X46831250Y-66516250D03*
%TO.P,SW15,2,2*%
%TO.N,Net-(D15-A)*%
X40481250Y-69056250D03*
%TD*%
%TO.P,SW47,1,1*%
%TO.N,Column 5*%
X137318750Y-104616250D03*
%TO.P,SW47,2,2*%
%TO.N,Net-(D47-A)*%
X130968750Y-107156250D03*
%TD*%
%TO.P,SW12,1,1*%
%TO.N,Column 12*%
X270668750Y-42703750D03*
%TO.P,SW12,2,2*%
%TO.N,Net-(D12-A)*%
X264318750Y-45243750D03*
%TD*%
%TO.P,SW37,1,1*%
%TO.N,Column 9*%
X208756250Y-85566250D03*
%TO.P,SW37,2,2*%
%TO.N,Net-(D37-A)*%
X202406250Y-88106250D03*
%TD*%
%TO.P,SW51,1,1*%
%TO.N,Column 9*%
X213518750Y-104616250D03*
%TO.P,SW51,2,2*%
%TO.N,Net-(D51-A)*%
X207168750Y-107156250D03*
%TD*%
%TO.P,SW70,1,1*%
%TO.N,Column 2*%
X73025000Y-142716250D03*
%TO.P,SW70,2,2*%
%TO.N,Net-(D70-A)*%
X66675000Y-145256250D03*
%TD*%
%TO.P,SW48,1,1*%
%TO.N,Column 6*%
X156368750Y-104616250D03*
%TO.P,SW48,2,2*%
%TO.N,Net-(D48-A)*%
X150018750Y-107156250D03*
%TD*%
%TO.P,SW63,1,1*%
%TO.N,Column 8*%
X203993750Y-123666250D03*
%TO.P,SW63,2,2*%
%TO.N,Net-(D63-A)*%
X197643750Y-126206250D03*
%TD*%
%TO.P,SW53,1,1*%
%TO.N,Column 11*%
X251618750Y-104616250D03*
%TO.P,SW53,2,2*%
%TO.N,Net-(D53-A)*%
X245268750Y-107156250D03*
%TD*%
%TO.P,SW13,1,1*%
%TO.N,Column 13*%
X289718750Y-42703750D03*
%TO.P,SW13,2,2*%
%TO.N,Net-(D13-A)*%
X283368750Y-45243750D03*
%TD*%
%TO.P,SW44,1,1*%
%TO.N,Column 2*%
X80168750Y-104616250D03*
%TO.P,SW44,2,2*%
%TO.N,Net-(D44-A)*%
X73818750Y-107156250D03*
%TD*%
%TO.P,SW54,1,1*%
%TO.N,Column 12*%
X270668750Y-104616250D03*
%TO.P,SW54,2,2*%
%TO.N,Net-(D54-A)*%
X264318750Y-107156250D03*
%TD*%
%TO.P,SW69,1,1*%
%TO.N,Column 1*%
X49212500Y-142716250D03*
%TO.P,SW69,2,2*%
%TO.N,Net-(D69-A)*%
X42862500Y-145256250D03*
%TD*%
%TO.P,SW4,1,1*%
%TO.N,Column 4*%
X108743750Y-42703750D03*
%TO.P,SW4,2,2*%
%TO.N,Net-(D4-A)*%
X102393750Y-45243750D03*
%TD*%
D16*
%TO.P,J1,1,Pin_1*%
%TO.N,GND*%
X350233750Y-91900000D03*
%TO.P,J1,2,Pin_2*%
%TO.N,+3.3V*%
X352773750Y-91900000D03*
%TO.P,J1,3,Pin_3*%
%TO.N,I2C_SCL*%
X355313750Y-91900000D03*
%TO.P,J1,4,Pin_4*%
%TO.N,I2C_SDA*%
X357853750Y-91900000D03*
%TD*%
D10*
%TO.P,SW79,1,1*%
%TO.N,Column 14*%
X375443750Y-142716250D03*
%TO.P,SW79,2,2*%
%TO.N,Net-(D79-A)*%
X369093750Y-145256250D03*
%TD*%
%TO.P,SW49,1,1*%
%TO.N,Column 7*%
X175418750Y-104616250D03*
%TO.P,SW49,2,2*%
%TO.N,Net-(D49-A)*%
X169068750Y-107156250D03*
%TD*%
%TO.P,SW77,1,1*%
%TO.N,Column 12*%
X337343750Y-142716250D03*
%TO.P,SW77,2,2*%
%TO.N,Net-(D77-A)*%
X330993750Y-145256250D03*
%TD*%
%TO.P,SW32,1,1*%
%TO.N,Column 4*%
X113506250Y-85566250D03*
%TO.P,SW32,2,2*%
%TO.N,Net-(D32-A)*%
X107156250Y-88106250D03*
%TD*%
%TO.P,SW25,1,1*%
%TO.N,Column 11*%
X237331250Y-66516250D03*
%TO.P,SW25,2,2*%
%TO.N,Net-(D25-A)*%
X230981250Y-69056250D03*
%TD*%
D17*
%TO.P,U2,1,GPIO0*%
%TO.N,I2C_SDA*%
X377031250Y-63182500D03*
D18*
X377031250Y-62282500D03*
D17*
%TO.P,U2,2,GPIO1*%
%TO.N,I2C_SCL*%
X374491250Y-63182500D03*
D18*
X374491250Y-62282500D03*
D19*
%TO.P,U2,3,GND*%
%TO.N,GND*%
X371951250Y-63182500D03*
D18*
X371951250Y-62282500D03*
D17*
%TO.P,U2,4,GPIO2*%
%TO.N,Column 14*%
X369411250Y-63182500D03*
D18*
X369411250Y-62282500D03*
D17*
%TO.P,U2,5,GPIO3*%
%TO.N,Column 13*%
X366871250Y-63182500D03*
D18*
X366871250Y-62282500D03*
D17*
%TO.P,U2,6,GPIO4*%
%TO.N,Column 12*%
X364331250Y-63182500D03*
D18*
X364331250Y-62282500D03*
D17*
%TO.P,U2,7,GPIO5*%
%TO.N,Column 11*%
X361791250Y-63182500D03*
D18*
X361791250Y-62282500D03*
D19*
%TO.P,U2,8,GND*%
%TO.N,GND*%
X359251250Y-63182500D03*
D18*
X359251250Y-62282500D03*
D17*
%TO.P,U2,9,GPIO6*%
%TO.N,Column 10*%
X356711250Y-63182500D03*
D18*
X356711250Y-62282500D03*
D17*
%TO.P,U2,10,GPIO7*%
%TO.N,Column 9*%
X354171250Y-63182500D03*
D18*
X354171250Y-62282500D03*
D17*
%TO.P,U2,11,GPIO8*%
%TO.N,Column 8*%
X351631250Y-63182500D03*
D18*
X351631250Y-62282500D03*
D17*
%TO.P,U2,12,GPIO9*%
%TO.N,Column 7*%
X349091250Y-63182500D03*
D18*
X349091250Y-62282500D03*
D19*
%TO.P,U2,13,GND*%
%TO.N,GND*%
X346551250Y-63182500D03*
D18*
X346551250Y-62282500D03*
D17*
%TO.P,U2,14,GPIO10*%
%TO.N,Column 6*%
X344011250Y-63182500D03*
D18*
X344011250Y-62282500D03*
D17*
%TO.P,U2,15,GPIO11*%
%TO.N,Column 5*%
X341471250Y-63182500D03*
D18*
X341471250Y-62282500D03*
D17*
%TO.P,U2,16,GPIO12*%
%TO.N,Column 4*%
X338931250Y-63182500D03*
D18*
X338931250Y-62282500D03*
D17*
%TO.P,U2,17,GPIO13*%
%TO.N,Column 3*%
X336391250Y-63182500D03*
D18*
X336391250Y-62282500D03*
D19*
%TO.P,U2,18,GND*%
%TO.N,GND*%
X333851250Y-63182500D03*
D18*
X333851250Y-62282500D03*
D17*
%TO.P,U2,19,GPIO14*%
%TO.N,Column 2*%
X331311250Y-63182500D03*
D18*
X331311250Y-62282500D03*
D17*
%TO.P,U2,20,GPIO15*%
%TO.N,Column 1*%
X328771250Y-63182500D03*
D18*
X328771250Y-62282500D03*
D17*
%TO.P,U2,21,GPIO16*%
%TO.N,Row 1*%
X328771250Y-80962500D03*
D18*
X328771250Y-81862500D03*
D17*
%TO.P,U2,22,GPIO17*%
%TO.N,Row 2*%
X331311250Y-80962500D03*
D18*
X331311250Y-81862500D03*
D19*
%TO.P,U2,23,GND*%
%TO.N,GND*%
X333851250Y-80962500D03*
D18*
X333851250Y-81862500D03*
D17*
%TO.P,U2,24,GPIO18*%
%TO.N,Row 3*%
X336391250Y-80962500D03*
D18*
X336391250Y-81862500D03*
D17*
%TO.P,U2,25,GPIO19*%
%TO.N,Row 4*%
X338931250Y-80962500D03*
D18*
X338931250Y-81862500D03*
D17*
%TO.P,U2,26,GPIO20*%
%TO.N,Row 5*%
X341471250Y-80962500D03*
D18*
X341471250Y-81862500D03*
D17*
%TO.P,U2,27,GPIO21*%
%TO.N,Row 6*%
X344011250Y-80962500D03*
D18*
X344011250Y-81862500D03*
D19*
%TO.P,U2,28,GND*%
%TO.N,GND*%
X346551250Y-80962500D03*
D18*
X346551250Y-81862500D03*
D17*
%TO.P,U2,29,GPIO22*%
%TO.N,unconnected-(U2-GPIO22-Pad29)*%
X349091250Y-80962500D03*
D18*
%TO.N,unconnected-(U2-GPIO22-Pad29)_1*%
X349091250Y-81862500D03*
D17*
%TO.P,U2,30,RUN*%
%TO.N,unconnected-(U2-RUN-Pad30)_1*%
X351631250Y-80962500D03*
D18*
%TO.N,unconnected-(U2-RUN-Pad30)*%
X351631250Y-81862500D03*
D17*
%TO.P,U2,31,GPIO26_ADC0*%
%TO.N,unconnected-(U2-GPIO26_ADC0-Pad31)*%
X354171250Y-80962500D03*
D18*
%TO.N,unconnected-(U2-GPIO26_ADC0-Pad31)_1*%
X354171250Y-81862500D03*
D17*
%TO.P,U2,32,GPIO27_ADC1*%
%TO.N,unconnected-(U2-GPIO27_ADC1-Pad32)_1*%
X356711250Y-80962500D03*
D18*
%TO.N,unconnected-(U2-GPIO27_ADC1-Pad32)*%
X356711250Y-81862500D03*
D19*
%TO.P,U2,33,AGND*%
%TO.N,GND*%
X359251250Y-80962500D03*
D18*
X359251250Y-81862500D03*
D17*
%TO.P,U2,34,GPIO28_ADC2*%
%TO.N,unconnected-(U2-GPIO28_ADC2-Pad34)*%
X361791250Y-80962500D03*
D18*
%TO.N,unconnected-(U2-GPIO28_ADC2-Pad34)_1*%
X361791250Y-81862500D03*
D17*
%TO.P,U2,35,ADC_VREF*%
%TO.N,unconnected-(U2-ADC_VREF-Pad35)*%
X364331250Y-80962500D03*
D18*
%TO.N,unconnected-(U2-ADC_VREF-Pad35)_1*%
X364331250Y-81862500D03*
D17*
%TO.P,U2,36,3V3*%
%TO.N,+3.3V*%
X366871250Y-80962500D03*
D18*
X366871250Y-81862500D03*
D17*
%TO.P,U2,37,3V3_EN*%
%TO.N,unconnected-(U2-3V3_EN-Pad37)*%
X369411250Y-80962500D03*
D18*
%TO.N,unconnected-(U2-3V3_EN-Pad37)_1*%
X369411250Y-81862500D03*
D19*
%TO.P,U2,38,GND*%
%TO.N,GND*%
X371951250Y-80962500D03*
D18*
X371951250Y-81862500D03*
D17*
%TO.P,U2,39,VSYS*%
%TO.N,unconnected-(U2-VSYS-Pad39)*%
X374491250Y-80962500D03*
D18*
%TO.N,unconnected-(U2-VSYS-Pad39)_1*%
X374491250Y-81862500D03*
D17*
%TO.P,U2,40,VBUS*%
%TO.N,+5V*%
X377031250Y-80962500D03*
D18*
X377031250Y-81862500D03*
D17*
%TO.P,U2,41,SWCLK*%
%TO.N,unconnected-(U2-SWCLK-Pad41)*%
X329001250Y-69532500D03*
D20*
%TO.N,unconnected-(U2-SWCLK-Pad41)_1*%
X328101250Y-69532500D03*
D19*
%TO.P,U2,42,GND*%
%TO.N,unconnected-(U2-GND-Pad42)*%
X329001250Y-72072500D03*
D20*
%TO.N,unconnected-(U2-GND-Pad42)_1*%
X328101250Y-72072500D03*
D17*
%TO.P,U2,43,SWDIO*%
%TO.N,unconnected-(U2-SWDIO-Pad43)*%
X329001250Y-74612500D03*
D20*
%TO.N,unconnected-(U2-SWDIO-Pad43)_1*%
X328101250Y-74612500D03*
%TD*%
D10*
%TO.P,SW62,1,1*%
%TO.N,Column 7*%
X184943750Y-123666250D03*
%TO.P,SW62,2,2*%
%TO.N,Net-(D62-A)*%
X178593750Y-126206250D03*
%TD*%
%TO.P,SW61,1,1*%
%TO.N,Column 6*%
X165893750Y-123666250D03*
%TO.P,SW61,2,2*%
%TO.N,Net-(D61-A)*%
X159543750Y-126206250D03*
%TD*%
%TO.P,SW67,1,1*%
%TO.N,Column 12*%
X296862500Y-123666250D03*
%TO.P,SW67,2,2*%
%TO.N,Net-(D67-A)*%
X290512500Y-126206250D03*
%TD*%
D21*
%TO.P,U1,1,P26_A0_D0*%
%TO.N,E1_A*%
X325835000Y-37850000D03*
D22*
X326670000Y-37850000D03*
D21*
%TO.P,U1,2,P27_A1_D1*%
%TO.N,E1_B*%
X325835000Y-40390000D03*
D22*
X326670000Y-40390000D03*
D21*
%TO.P,U1,3,P28_A2_D2*%
%TO.N,E1_SW*%
X325835000Y-42930000D03*
D22*
X326670000Y-42930000D03*
D21*
%TO.P,U1,4,P29_A3_D3*%
%TO.N,LED*%
X325835000Y-45470000D03*
D22*
X326670000Y-45470000D03*
D21*
%TO.P,U1,5,P6_SDA_D4*%
%TO.N,I2C_SDA*%
X325835000Y-48010000D03*
D22*
X326670000Y-48010000D03*
D21*
%TO.P,U1,6,P7_SCL_D5*%
%TO.N,I2C_SCL*%
X325835000Y-50550000D03*
D22*
X326670000Y-50550000D03*
D21*
%TO.P,U1,7,P0_D6_TX*%
%TO.N,unconnected-(U1-P0_D6_TX-Pad7)*%
X325835000Y-53090000D03*
D22*
%TO.N,unconnected-(U1-P0_D6_TX-Pad7)_1*%
X326670000Y-53090000D03*
%TO.P,U1,8,P1_D7_RX*%
%TO.N,E2_SW*%
X341910000Y-53090000D03*
D23*
X342745000Y-53090000D03*
D22*
%TO.P,U1,9,P2_D8_SCK*%
%TO.N,E2_B*%
X341910000Y-50550000D03*
D23*
X342745000Y-50550000D03*
D22*
%TO.P,U1,10,P4_D9_MISO*%
%TO.N,E2_A*%
X341910000Y-48010000D03*
D23*
X342745000Y-48010000D03*
D22*
%TO.P,U1,11,P3_D10_MOSI*%
%TO.N,unconnected-(U1-P3_D10_MOSI-Pad11)*%
X341910000Y-45470000D03*
D23*
%TO.N,unconnected-(U1-P3_D10_MOSI-Pad11)_1*%
X342745000Y-45470000D03*
D22*
%TO.P,U1,12,3V3*%
%TO.N,+3.3V*%
X341910000Y-42930000D03*
D23*
X342745000Y-42930000D03*
D22*
%TO.P,U1,13,GND*%
%TO.N,GND*%
X341910000Y-40390000D03*
D23*
X342745000Y-40390000D03*
D22*
%TO.P,U1,14,VBUS*%
%TO.N,+5V*%
X341910000Y-37850000D03*
D23*
X342745000Y-37850000D03*
%TD*%
D12*
%TO.P,SW80,A,A*%
%TO.N,E1_A*%
X350000000Y-43500000D03*
D13*
%TO.P,SW80,B,B*%
%TO.N,E1_B*%
X350000000Y-48500000D03*
%TO.P,SW80,C,C*%
%TO.N,GND*%
X350000000Y-46000000D03*
D14*
%TO.P,SW80,MP*%
X357500000Y-40400000D03*
X357500000Y-51600000D03*
D13*
%TO.P,SW80,S1,S1*%
%TO.N,E1_SW*%
X364500000Y-48500000D03*
%TO.P,SW80,S2,S2*%
%TO.N,GND*%
X364500000Y-43500000D03*
%TD*%
D10*
%TO.P,SW58,1,1*%
%TO.N,Column 3*%
X108743750Y-123666250D03*
%TO.P,SW58,2,2*%
%TO.N,Net-(D58-A)*%
X102393750Y-126206250D03*
%TD*%
D15*
%TO.P,R1,1*%
%TO.N,I2C_SDA*%
X376675000Y-99500000D03*
%TO.P,R1,2*%
%TO.N,+3.3V*%
X378500000Y-99500000D03*
%TD*%
D24*
%TO.P,D61,1,K*%
%TO.N,Row 5*%
X172878750Y-124936250D03*
D25*
%TO.P,D61,2,A*%
%TO.N,Net-(D61-A)*%
X172878750Y-132556250D03*
%TD*%
D24*
%TO.P,D44,1,K*%
%TO.N,Row 4*%
X87153750Y-105886250D03*
D25*
%TO.P,D44,2,A*%
%TO.N,Net-(D44-A)*%
X87153750Y-113506250D03*
%TD*%
D24*
%TO.P,D29,1,K*%
%TO.N,Row 3*%
X63341250Y-86836250D03*
D25*
%TO.P,D29,2,A*%
%TO.N,Net-(D29-A)*%
X63341250Y-94456250D03*
%TD*%
D24*
%TO.P,D28,1,K*%
%TO.N,Row 2*%
X320516250Y-67786250D03*
D25*
%TO.P,D28,2,A*%
%TO.N,Net-(D28-A)*%
X320516250Y-75406250D03*
%TD*%
D24*
%TO.P,D56,1,K*%
%TO.N,Row 5*%
X77628750Y-124936250D03*
D25*
%TO.P,D56,2,A*%
%TO.N,Net-(D56-A)*%
X77628750Y-132556250D03*
%TD*%
D24*
%TO.P,D25,1,K*%
%TO.N,Row 2*%
X244316250Y-67786250D03*
D25*
%TO.P,D25,2,A*%
%TO.N,Net-(D25-A)*%
X244316250Y-75406250D03*
%TD*%
D24*
%TO.P,D10,1,K*%
%TO.N,Row 1*%
X239553750Y-43973750D03*
D25*
%TO.P,D10,2,A*%
%TO.N,Net-(D10-A)*%
X239553750Y-51593750D03*
%TD*%
D24*
%TO.P,D60,1,K*%
%TO.N,Row 5*%
X153828750Y-124936250D03*
D25*
%TO.P,D60,2,A*%
%TO.N,Net-(D60-A)*%
X153828750Y-132556250D03*
%TD*%
D24*
%TO.P,D79,1,K*%
%TO.N,Row 6*%
X382428750Y-143986250D03*
D25*
%TO.P,D79,2,A*%
%TO.N,Net-(D79-A)*%
X382428750Y-151606250D03*
%TD*%
D24*
%TO.P,D23,1,K*%
%TO.N,Row 2*%
X206216250Y-67786250D03*
D25*
%TO.P,D23,2,A*%
%TO.N,Net-(D23-A)*%
X206216250Y-75406250D03*
%TD*%
D24*
%TO.P,D14,1,K*%
%TO.N,Row 1*%
X320516250Y-43973750D03*
D25*
%TO.P,D14,2,A*%
%TO.N,Net-(D14-A)*%
X320516250Y-51593750D03*
%TD*%
D24*
%TO.P,D34,1,K*%
%TO.N,Row 3*%
X158591250Y-86836250D03*
D25*
%TO.P,D34,2,A*%
%TO.N,Net-(D34-A)*%
X158591250Y-94456250D03*
%TD*%
D24*
%TO.P,D12,1,K*%
%TO.N,Row 1*%
X277653750Y-43973750D03*
D25*
%TO.P,D12,2,A*%
%TO.N,Net-(D12-A)*%
X277653750Y-51593750D03*
%TD*%
D24*
%TO.P,D16,1,K*%
%TO.N,Row 2*%
X72866250Y-67786250D03*
D25*
%TO.P,D16,2,A*%
%TO.N,Net-(D16-A)*%
X72866250Y-75406250D03*
%TD*%
D24*
%TO.P,D4,1,K*%
%TO.N,Row 1*%
X115728750Y-43973750D03*
D25*
%TO.P,D4,2,A*%
%TO.N,Net-(D4-A)*%
X115728750Y-51593750D03*
%TD*%
D24*
%TO.P,D57,1,K*%
%TO.N,Row 5*%
X96678750Y-124936250D03*
D25*
%TO.P,D57,2,A*%
%TO.N,Net-(D57-A)*%
X96678750Y-132556250D03*
%TD*%
D24*
%TO.P,D33,1,K*%
%TO.N,Row 3*%
X139541250Y-86836250D03*
D25*
%TO.P,D33,2,A*%
%TO.N,Net-(D33-A)*%
X139541250Y-94456250D03*
%TD*%
D24*
%TO.P,D22,1,K*%
%TO.N,Row 2*%
X187166250Y-67786250D03*
D25*
%TO.P,D22,2,A*%
%TO.N,Net-(D22-A)*%
X187166250Y-75406250D03*
%TD*%
D24*
%TO.P,D13,1,K*%
%TO.N,Row 1*%
X296703750Y-43973750D03*
D25*
%TO.P,D13,2,A*%
%TO.N,Net-(D13-A)*%
X296703750Y-51593750D03*
%TD*%
D24*
%TO.P,D43,1,K*%
%TO.N,Row 4*%
X68103750Y-105886250D03*
D25*
%TO.P,D43,2,A*%
%TO.N,Net-(D43-A)*%
X68103750Y-113506250D03*
%TD*%
D24*
%TO.P,D73,1,K*%
%TO.N,Row 6*%
X249078750Y-143986250D03*
D25*
%TO.P,D73,2,A*%
%TO.N,Net-(D73-A)*%
X249078750Y-151606250D03*
%TD*%
D24*
%TO.P,D27,1,K*%
%TO.N,Row 2*%
X282416250Y-67786250D03*
D25*
%TO.P,D27,2,A*%
%TO.N,Net-(D27-A)*%
X282416250Y-75406250D03*
%TD*%
D24*
%TO.P,D26,1,K*%
%TO.N,Row 2*%
X263366250Y-67786250D03*
D25*
%TO.P,D26,2,A*%
%TO.N,Net-(D26-A)*%
X263366250Y-75406250D03*
%TD*%
D24*
%TO.P,D54,1,K*%
%TO.N,Row 4*%
X277653750Y-105886250D03*
D25*
%TO.P,D54,2,A*%
%TO.N,Net-(D54-A)*%
X277653750Y-113506250D03*
%TD*%
D24*
%TO.P,D41,1,K*%
%TO.N,Row 3*%
X291941250Y-86836250D03*
D25*
%TO.P,D41,2,A*%
%TO.N,Net-(D41-A)*%
X291941250Y-94456250D03*
%TD*%
D24*
%TO.P,D51,1,K*%
%TO.N,Row 4*%
X220503750Y-105886250D03*
D25*
%TO.P,D51,2,A*%
%TO.N,Net-(D51-A)*%
X220503750Y-113506250D03*
%TD*%
D24*
%TO.P,D77,1,K*%
%TO.N,Row 6*%
X344328750Y-143986250D03*
D25*
%TO.P,D77,2,A*%
%TO.N,Net-(D77-A)*%
X344328750Y-151606250D03*
%TD*%
D24*
%TO.P,D74,1,K*%
%TO.N,Row 6*%
X272891250Y-143986250D03*
D25*
%TO.P,D74,2,A*%
%TO.N,Net-(D74-A)*%
X272891250Y-151606250D03*
%TD*%
D24*
%TO.P,D76,1,K*%
%TO.N,Row 6*%
X320516250Y-143986250D03*
D25*
%TO.P,D76,2,A*%
%TO.N,Net-(D76-A)*%
X320516250Y-151606250D03*
%TD*%
D24*
%TO.P,D63,1,K*%
%TO.N,Row 5*%
X210978750Y-124936250D03*
D25*
%TO.P,D63,2,A*%
%TO.N,Net-(D63-A)*%
X210978750Y-132556250D03*
%TD*%
D24*
%TO.P,D20,1,K*%
%TO.N,Row 2*%
X149066250Y-67786250D03*
D25*
%TO.P,D20,2,A*%
%TO.N,Net-(D20-A)*%
X149066250Y-75406250D03*
%TD*%
D24*
%TO.P,D3,1,K*%
%TO.N,Row 1*%
X96678750Y-43973750D03*
D25*
%TO.P,D3,2,A*%
%TO.N,Net-(D3-A)*%
X96678750Y-51593750D03*
%TD*%
D24*
%TO.P,D11,1,K*%
%TO.N,Row 1*%
X258603750Y-43973750D03*
D25*
%TO.P,D11,2,A*%
%TO.N,Net-(D11-A)*%
X258603750Y-51593750D03*
%TD*%
D24*
%TO.P,D15,1,K*%
%TO.N,Row 2*%
X53816250Y-67786250D03*
D25*
%TO.P,D15,2,A*%
%TO.N,Net-(D15-A)*%
X53816250Y-75406250D03*
%TD*%
D24*
%TO.P,D38,1,K*%
%TO.N,Row 3*%
X234791250Y-86836250D03*
D25*
%TO.P,D38,2,A*%
%TO.N,Net-(D38-A)*%
X234791250Y-94456250D03*
%TD*%
D24*
%TO.P,D36,1,K*%
%TO.N,Row 3*%
X196691250Y-86836250D03*
D25*
%TO.P,D36,2,A*%
%TO.N,Net-(D36-A)*%
X196691250Y-94456250D03*
%TD*%
D24*
%TO.P,D78,1,K*%
%TO.N,Row 6*%
X363378750Y-143986250D03*
D25*
%TO.P,D78,2,A*%
%TO.N,Net-(D78-A)*%
X363378750Y-151606250D03*
%TD*%
D24*
%TO.P,D59,1,K*%
%TO.N,Row 5*%
X134778750Y-124936250D03*
D25*
%TO.P,D59,2,A*%
%TO.N,Net-(D59-A)*%
X134778750Y-132556250D03*
%TD*%
D24*
%TO.P,D8,1,K*%
%TO.N,Row 1*%
X196691250Y-43973750D03*
D25*
%TO.P,D8,2,A*%
%TO.N,Net-(D8-A)*%
X196691250Y-51593750D03*
%TD*%
D24*
%TO.P,D64,1,K*%
%TO.N,Row 5*%
X230028750Y-124936250D03*
D25*
%TO.P,D64,2,A*%
%TO.N,Net-(D64-A)*%
X230028750Y-132556250D03*
%TD*%
D24*
%TO.P,D2,1,K*%
%TO.N,Row 1*%
X77628750Y-43973750D03*
D25*
%TO.P,D2,2,A*%
%TO.N,Net-(D2-A)*%
X77628750Y-51593750D03*
%TD*%
D24*
%TO.P,D70,1,K*%
%TO.N,Row 6*%
X82391250Y-143986250D03*
D25*
%TO.P,D70,2,A*%
%TO.N,Net-(D70-A)*%
X82391250Y-151606250D03*
%TD*%
D24*
%TO.P,D7,1,K*%
%TO.N,Row 1*%
X177641250Y-43973750D03*
D25*
%TO.P,D7,2,A*%
%TO.N,Net-(D7-A)*%
X177641250Y-51593750D03*
%TD*%
D24*
%TO.P,D55,1,K*%
%TO.N,Row 4*%
X320516250Y-105886250D03*
D25*
%TO.P,D55,2,A*%
%TO.N,Net-(D55-A)*%
X320516250Y-113506250D03*
%TD*%
D24*
%TO.P,D46,1,K*%
%TO.N,Row 4*%
X125253750Y-105886250D03*
D25*
%TO.P,D46,2,A*%
%TO.N,Net-(D46-A)*%
X125253750Y-113506250D03*
%TD*%
D24*
%TO.P,D35,1,K*%
%TO.N,Row 3*%
X177641250Y-86836250D03*
D25*
%TO.P,D35,2,A*%
%TO.N,Net-(D35-A)*%
X177641250Y-94456250D03*
%TD*%
D24*
%TO.P,D24,1,K*%
%TO.N,Row 2*%
X225266250Y-67786250D03*
D25*
%TO.P,D24,2,A*%
%TO.N,Net-(D24-A)*%
X225266250Y-75406250D03*
%TD*%
D24*
%TO.P,D18,1,K*%
%TO.N,Row 2*%
X110966250Y-67786250D03*
D25*
%TO.P,D18,2,A*%
%TO.N,Net-(D18-A)*%
X110966250Y-75406250D03*
%TD*%
D24*
%TO.P,D45,1,K*%
%TO.N,Row 4*%
X106203750Y-105886250D03*
D25*
%TO.P,D45,2,A*%
%TO.N,Net-(D45-A)*%
X106203750Y-113506250D03*
%TD*%
D24*
%TO.P,D67,1,K*%
%TO.N,Row 5*%
X320516250Y-124936250D03*
D25*
%TO.P,D67,2,A*%
%TO.N,Net-(D67-A)*%
X320516250Y-132556250D03*
%TD*%
D24*
%TO.P,D71,1,K*%
%TO.N,Row 6*%
X106203750Y-143986250D03*
D25*
%TO.P,D71,2,A*%
%TO.N,Net-(D71-A)*%
X106203750Y-151606250D03*
%TD*%
D24*
%TO.P,D1,1,K*%
%TO.N,Row 1*%
X53816250Y-43973750D03*
D25*
%TO.P,D1,2,A*%
%TO.N,Net-(D1-A)*%
X53816250Y-51593750D03*
%TD*%
D24*
%TO.P,D58,1,K*%
%TO.N,Row 5*%
X115728750Y-124936250D03*
D25*
%TO.P,D58,2,A*%
%TO.N,Net-(D58-A)*%
X115728750Y-132556250D03*
%TD*%
D24*
%TO.P,D52,1,K*%
%TO.N,Row 4*%
X239553750Y-105886250D03*
D25*
%TO.P,D52,2,A*%
%TO.N,Net-(D52-A)*%
X239553750Y-113506250D03*
%TD*%
D24*
%TO.P,D42,1,K*%
%TO.N,Row 3*%
X320516250Y-86836250D03*
D25*
%TO.P,D42,2,A*%
%TO.N,Net-(D42-A)*%
X320516250Y-94456250D03*
%TD*%
D24*
%TO.P,D5,1,K*%
%TO.N,Row 1*%
X134778750Y-43973750D03*
D25*
%TO.P,D5,2,A*%
%TO.N,Net-(D5-A)*%
X134778750Y-51593750D03*
%TD*%
D24*
%TO.P,D30,1,K*%
%TO.N,Row 3*%
X82391250Y-86836250D03*
D25*
%TO.P,D30,2,A*%
%TO.N,Net-(D30-A)*%
X82391250Y-94456250D03*
%TD*%
D24*
%TO.P,D39,1,K*%
%TO.N,Row 3*%
X253841250Y-86836250D03*
D25*
%TO.P,D39,2,A*%
%TO.N,Net-(D39-A)*%
X253841250Y-94456250D03*
%TD*%
D24*
%TO.P,D17,1,K*%
%TO.N,Row 2*%
X91916250Y-67786250D03*
D25*
%TO.P,D17,2,A*%
%TO.N,Net-(D17-A)*%
X91916250Y-75406250D03*
%TD*%
D24*
%TO.P,D62,1,K*%
%TO.N,Row 5*%
X191928750Y-124936250D03*
D25*
%TO.P,D62,2,A*%
%TO.N,Net-(D62-A)*%
X191928750Y-132556250D03*
%TD*%
D24*
%TO.P,D72,1,K*%
%TO.N,Row 6*%
X225266250Y-143986250D03*
D25*
%TO.P,D72,2,A*%
%TO.N,Net-(D72-A)*%
X225266250Y-151606250D03*
%TD*%
D24*
%TO.P,D21,1,K*%
%TO.N,Row 2*%
X168116250Y-67786250D03*
D25*
%TO.P,D21,2,A*%
%TO.N,Net-(D21-A)*%
X168116250Y-75406250D03*
%TD*%
D24*
%TO.P,D37,1,K*%
%TO.N,Row 3*%
X215741250Y-86836250D03*
D25*
%TO.P,D37,2,A*%
%TO.N,Net-(D37-A)*%
X215741250Y-94456250D03*
%TD*%
D24*
%TO.P,D49,1,K*%
%TO.N,Row 4*%
X182403750Y-105886250D03*
D25*
%TO.P,D49,2,A*%
%TO.N,Net-(D49-A)*%
X182403750Y-113506250D03*
%TD*%
D24*
%TO.P,D6,1,K*%
%TO.N,Row 1*%
X158591250Y-43973750D03*
D25*
%TO.P,D6,2,A*%
%TO.N,Net-(D6-A)*%
X158591250Y-51593750D03*
%TD*%
D24*
%TO.P,D69,1,K*%
%TO.N,Row 6*%
X58578750Y-143986250D03*
D25*
%TO.P,D69,2,A*%
%TO.N,Net-(D69-A)*%
X58578750Y-151606250D03*
%TD*%
D24*
%TO.P,D68,1,K*%
%TO.N,Row 5*%
X363378750Y-124936250D03*
D25*
%TO.P,D68,2,A*%
%TO.N,Net-(D68-A)*%
X363378750Y-132556250D03*
%TD*%
D24*
%TO.P,D75,1,K*%
%TO.N,Row 6*%
X296703750Y-143986250D03*
D25*
%TO.P,D75,2,A*%
%TO.N,Net-(D75-A)*%
X296703750Y-151606250D03*
%TD*%
D24*
%TO.P,D50,1,K*%
%TO.N,Row 4*%
X201453750Y-105886250D03*
D25*
%TO.P,D50,2,A*%
%TO.N,Net-(D50-A)*%
X201453750Y-113506250D03*
%TD*%
D24*
%TO.P,D53,1,K*%
%TO.N,Row 4*%
X258603750Y-105886250D03*
D25*
%TO.P,D53,2,A*%
%TO.N,Net-(D53-A)*%
X258603750Y-113506250D03*
%TD*%
D24*
%TO.P,D66,1,K*%
%TO.N,Row 5*%
X268128750Y-124936250D03*
D25*
%TO.P,D66,2,A*%
%TO.N,Net-(D66-A)*%
X268128750Y-132556250D03*
%TD*%
D24*
%TO.P,D48,1,K*%
%TO.N,Row 4*%
X163353750Y-105886250D03*
D25*
%TO.P,D48,2,A*%
%TO.N,Net-(D48-A)*%
X163353750Y-113506250D03*
%TD*%
D24*
%TO.P,D40,1,K*%
%TO.N,Row 3*%
X272891250Y-86836250D03*
D25*
%TO.P,D40,2,A*%
%TO.N,Net-(D40-A)*%
X272891250Y-94456250D03*
%TD*%
D24*
%TO.P,D32,1,K*%
%TO.N,Row 3*%
X120491250Y-86836250D03*
D25*
%TO.P,D32,2,A*%
%TO.N,Net-(D32-A)*%
X120491250Y-94456250D03*
%TD*%
D24*
%TO.P,D47,1,K*%
%TO.N,Row 4*%
X144303750Y-105886250D03*
D25*
%TO.P,D47,2,A*%
%TO.N,Net-(D47-A)*%
X144303750Y-113506250D03*
%TD*%
D24*
%TO.P,D9,1,K*%
%TO.N,Row 1*%
X215741250Y-43973750D03*
D25*
%TO.P,D9,2,A*%
%TO.N,Net-(D9-A)*%
X215741250Y-51593750D03*
%TD*%
D24*
%TO.P,D65,1,K*%
%TO.N,Row 5*%
X249078750Y-124936250D03*
D25*
%TO.P,D65,2,A*%
%TO.N,Net-(D65-A)*%
X249078750Y-132556250D03*
%TD*%
D24*
%TO.P,D31,1,K*%
%TO.N,Row 3*%
X101441250Y-86836250D03*
D25*
%TO.P,D31,2,A*%
%TO.N,Net-(D31-A)*%
X101441250Y-94456250D03*
%TD*%
D24*
%TO.P,D19,1,K*%
%TO.N,Row 2*%
X130016250Y-67786250D03*
D25*
%TO.P,D19,2,A*%
%TO.N,Net-(D19-A)*%
X130016250Y-75406250D03*
%TD*%
D26*
%TO.N,Row 2*%
X198400000Y-61912500D03*
X255370000Y-61912500D03*
X238040000Y-61912500D03*
X84331250Y-61912500D03*
X236590000Y-61912500D03*
X179040000Y-61912500D03*
X85531250Y-61912500D03*
X160330000Y-61912500D03*
X180910000Y-61912500D03*
X66570000Y-61912500D03*
X123670000Y-61912500D03*
X199980000Y-61912500D03*
X302890000Y-61912500D03*
X217530000Y-61912500D03*
X104581250Y-61914521D03*
X141180000Y-61912500D03*
X274340000Y-61912500D03*
X142780000Y-61912500D03*
X103300000Y-61912500D03*
X257170000Y-61912500D03*
X122280000Y-61912500D03*
X276090000Y-61912500D03*
X161740000Y-61912500D03*
X65170000Y-61912500D03*
X219110000Y-61912500D03*
X305340000Y-61912500D03*
%TO.N,Row 3*%
X209540000Y-80962500D03*
X152310000Y-80962500D03*
X171410000Y-80962500D03*
X74480000Y-81000000D03*
X264910000Y-80962500D03*
X247510000Y-80962500D03*
X133170000Y-80962500D03*
X190490000Y-80962500D03*
X285580000Y-80962500D03*
X228560000Y-80962500D03*
X188980000Y-80962500D03*
X112560000Y-80962500D03*
X284270000Y-80962500D03*
X150760000Y-80962500D03*
X309550000Y-80962500D03*
X266550000Y-80962500D03*
X169850000Y-80962500D03*
X307990000Y-80962500D03*
X245970000Y-80962500D03*
X207940000Y-80962500D03*
X93640000Y-80962500D03*
X95110000Y-80962500D03*
X76080000Y-80962500D03*
X131640000Y-80962500D03*
X227020000Y-80962500D03*
X114140000Y-80962500D03*
%TO.N,Row 4*%
X119040000Y-100012500D03*
X300810000Y-100012500D03*
X269580000Y-100012500D03*
X233300000Y-100012500D03*
X231500000Y-100012500D03*
X136330000Y-100012500D03*
X176140000Y-100012500D03*
X252320000Y-100012500D03*
X80880000Y-100012500D03*
X138060000Y-100012500D03*
X250410000Y-100012500D03*
X157100000Y-100012500D03*
X302380000Y-100012500D03*
X79280000Y-100012500D03*
X271390000Y-100012500D03*
X195210000Y-100012500D03*
X155240000Y-100012500D03*
X98450000Y-100012500D03*
X193530000Y-100012500D03*
X214260000Y-100012500D03*
X117510000Y-100012500D03*
X99900000Y-100012500D03*
X212290000Y-100012500D03*
X174330000Y-100012500D03*
%TO.N,Row 5*%
X88550000Y-119062500D03*
X333825000Y-117225000D03*
X295840000Y-119062500D03*
X259900000Y-119062500D03*
X164860000Y-119062500D03*
X90390000Y-119062500D03*
X183860000Y-119062500D03*
X261820000Y-119062500D03*
X147570000Y-119062500D03*
X357070000Y-119062500D03*
X145930000Y-119062500D03*
X355120000Y-119062500D03*
X128450000Y-119062500D03*
X204720000Y-119062500D03*
X297630000Y-119062500D03*
X241030000Y-119062500D03*
X126820000Y-119062500D03*
X223760000Y-119062500D03*
X242800000Y-119062500D03*
X331380000Y-119670000D03*
X222150000Y-119062500D03*
X202990000Y-119062500D03*
X185610000Y-119062500D03*
X107690000Y-119062500D03*
X109420000Y-119062500D03*
X166580000Y-119062500D03*
%TO.N,Row 6*%
X262520000Y-138112500D03*
X97700000Y-138112500D03*
X312150000Y-138112500D03*
X310270000Y-138112500D03*
X288230000Y-138112500D03*
X374170000Y-138112500D03*
X96030000Y-138112500D03*
X74810000Y-138112500D03*
X338030000Y-138112500D03*
X72380000Y-138112500D03*
X264540000Y-138112500D03*
X238760000Y-138112500D03*
X171790000Y-138112500D03*
X286590000Y-138112500D03*
X240670000Y-138112500D03*
X336320000Y-138112500D03*
X357140000Y-138112500D03*
X167410000Y-138112500D03*
X376130000Y-138112500D03*
X355460000Y-138112500D03*
%TO.N,+5V*%
X352150000Y-87260000D03*
X59650000Y-95070000D03*
X346620000Y-40190000D03*
X373736875Y-85816875D03*
X64750000Y-133180000D03*
X339620000Y-115780000D03*
X52320000Y-61870000D03*
X54860000Y-143760000D03*
X40080000Y-58010000D03*
X59650000Y-105860000D03*
%TO.N,GND*%
X300650000Y-39840000D03*
X350233750Y-88293677D03*
X349068566Y-87128493D03*
X300650000Y-48130000D03*
X300650000Y-52380000D03*
X359540000Y-85000000D03*
X327610000Y-57190000D03*
%TO.N,LED*%
X322990000Y-42940000D03*
%TO.N,+3.3V*%
X352773750Y-88226250D03*
X380000000Y-78000000D03*
X357000000Y-86500000D03*
X354000000Y-87000000D03*
X364000000Y-84541250D03*
X345883815Y-45826185D03*
%TO.N,Column 1*%
X387000000Y-162000000D03*
X40392500Y-162000000D03*
%TO.N,Column 9*%
X354171250Y-57858750D03*
X383210000Y-159340000D03*
%TO.N,Column 10*%
X382440000Y-158740000D03*
X356711250Y-57891250D03*
%TO.N,Column 11*%
X361790000Y-57890000D03*
X381640000Y-158140000D03*
%TO.N,Column 12*%
X380850000Y-157540000D03*
X364331250Y-57838750D03*
%TO.N,Column 13*%
X380050000Y-156940000D03*
X366871250Y-57948750D03*
%TO.N,Column 14*%
X324790000Y-105120000D03*
X369411250Y-57941250D03*
X379310000Y-156340000D03*
X324790000Y-106550000D03*
%TO.N,I2C_SDA*%
X358133125Y-89133125D03*
X347850000Y-86650000D03*
X323410000Y-54970000D03*
%TO.N,I2C_SCL*%
X322400000Y-53950000D03*
X350790000Y-86250000D03*
X355313750Y-88000000D03*
%TD*%
D27*
%TO.N,Row 1*%
X115728750Y-43973750D02*
X118398750Y-41303750D01*
X77628750Y-43973750D02*
X74958750Y-41303750D01*
X113058750Y-41303750D02*
X115728750Y-43973750D01*
X132108750Y-41303750D02*
X134778750Y-43973750D01*
X215741250Y-43973750D02*
X218411250Y-41303750D01*
X280323750Y-41303750D02*
X294033750Y-41303750D01*
X199361250Y-41303750D02*
X213071250Y-41303750D01*
X299373750Y-41303750D02*
X317846250Y-41303750D01*
X321640000Y-73831250D02*
X328771250Y-80962500D01*
X196691250Y-43973750D02*
X199361250Y-41303750D01*
X77628750Y-43973750D02*
X80298750Y-41303750D01*
X56486250Y-41303750D02*
X53816250Y-43973750D01*
X277653750Y-43973750D02*
X280323750Y-41303750D01*
X320516250Y-43973750D02*
X321640000Y-45097500D01*
X242223750Y-41303750D02*
X255933750Y-41303750D01*
X74958750Y-41303750D02*
X56486250Y-41303750D01*
X239553750Y-43973750D02*
X242223750Y-41303750D01*
X134778750Y-43973750D02*
X137448750Y-41303750D01*
X274983750Y-41303750D02*
X277653750Y-43973750D01*
X218411250Y-41303750D02*
X236883750Y-41303750D01*
X96678750Y-43973750D02*
X99348750Y-41303750D01*
X294033750Y-41303750D02*
X296703750Y-43973750D01*
X155921250Y-41303750D02*
X158591250Y-43973750D01*
X174971250Y-41303750D02*
X177641250Y-43973750D01*
X194021250Y-41303750D02*
X196691250Y-43973750D01*
X177641250Y-43973750D02*
X180311250Y-41303750D01*
X258603750Y-43973750D02*
X261273750Y-41303750D01*
X180311250Y-41303750D02*
X194021250Y-41303750D01*
X161261250Y-41303750D02*
X174971250Y-41303750D01*
X118398750Y-41303750D02*
X132108750Y-41303750D01*
X99348750Y-41303750D02*
X113058750Y-41303750D01*
X158591250Y-43973750D02*
X161261250Y-41303750D01*
X261273750Y-41303750D02*
X274983750Y-41303750D01*
X321640000Y-45097500D02*
X321640000Y-73831250D01*
X94008750Y-41303750D02*
X96678750Y-43973750D01*
X80298750Y-41303750D02*
X94008750Y-41303750D01*
X137448750Y-41303750D02*
X155921250Y-41303750D01*
X317846250Y-41303750D02*
X320516250Y-43973750D01*
X296703750Y-43973750D02*
X299373750Y-41303750D01*
X255933750Y-41303750D02*
X258603750Y-43973750D01*
X236883750Y-41303750D02*
X239553750Y-43973750D01*
X213071250Y-41303750D02*
X215741250Y-43973750D01*
%TO.N,Net-(D1-A)*%
X48597620Y-45243750D02*
X40481250Y-45243750D01*
X53816250Y-51593750D02*
X53816250Y-50462380D01*
X53816250Y-50462380D02*
X48597620Y-45243750D01*
%TO.N,Net-(D2-A)*%
X77628750Y-50462380D02*
X72410120Y-45243750D01*
X72410120Y-45243750D02*
X64293750Y-45243750D01*
X77628750Y-51593750D02*
X77628750Y-50462380D01*
%TO.N,Net-(D3-A)*%
X96678750Y-50462380D02*
X91460120Y-45243750D01*
X96678750Y-51593750D02*
X96678750Y-50462380D01*
X91460120Y-45243750D02*
X83343750Y-45243750D01*
%TO.N,Net-(D4-A)*%
X115728750Y-50462380D02*
X110510120Y-45243750D01*
X110510120Y-45243750D02*
X102393750Y-45243750D01*
X115728750Y-51593750D02*
X115728750Y-50462380D01*
%TO.N,Net-(D5-A)*%
X129560120Y-45243750D02*
X121443750Y-45243750D01*
X134778750Y-50462380D02*
X129560120Y-45243750D01*
X134778750Y-51593750D02*
X134778750Y-50462380D01*
%TO.N,Net-(D6-A)*%
X158591250Y-51593750D02*
X158591250Y-50462380D01*
X158591250Y-50462380D02*
X153372620Y-45243750D01*
X153372620Y-45243750D02*
X145256250Y-45243750D01*
%TO.N,Net-(D7-A)*%
X172422620Y-45243750D02*
X164306250Y-45243750D01*
X177641250Y-51593750D02*
X177641250Y-50462380D01*
X177641250Y-50462380D02*
X172422620Y-45243750D01*
%TO.N,Net-(D8-A)*%
X196691250Y-51593750D02*
X196691250Y-50462380D01*
X191472620Y-45243750D02*
X183356250Y-45243750D01*
X196691250Y-50462380D02*
X191472620Y-45243750D01*
%TO.N,Net-(D9-A)*%
X215741250Y-50462380D02*
X210522620Y-45243750D01*
X210522620Y-45243750D02*
X202406250Y-45243750D01*
X215741250Y-51593750D02*
X215741250Y-50462380D01*
%TO.N,Net-(D10-A)*%
X234335120Y-45243750D02*
X226218750Y-45243750D01*
X239553750Y-51593750D02*
X239553750Y-50462380D01*
X239553750Y-50462380D02*
X234335120Y-45243750D01*
%TO.N,Net-(D11-A)*%
X258603750Y-51593750D02*
X258603750Y-50462380D01*
X253385120Y-45243750D02*
X245268750Y-45243750D01*
X258603750Y-50462380D02*
X253385120Y-45243750D01*
%TO.N,Net-(D12-A)*%
X277653750Y-50462380D02*
X272435120Y-45243750D01*
X272435120Y-45243750D02*
X264318750Y-45243750D01*
X277653750Y-51593750D02*
X277653750Y-50462380D01*
%TO.N,Net-(D13-A)*%
X296703750Y-51593750D02*
X296703750Y-50462380D01*
X291485120Y-45243750D02*
X283368750Y-45243750D01*
X296703750Y-50462380D02*
X291485120Y-45243750D01*
%TO.N,Net-(D14-A)*%
X320516250Y-51593750D02*
X320516250Y-50462380D01*
X320516250Y-50462380D02*
X315297620Y-45243750D01*
X315297620Y-45243750D02*
X307181250Y-45243750D01*
%TO.N,Net-(D15-A)*%
X53816250Y-75406250D02*
X53816250Y-74344194D01*
X53816250Y-74344194D02*
X48528306Y-69056250D01*
X48528306Y-69056250D02*
X40481250Y-69056250D01*
%TO.N,Row 2*%
X135890000Y-61912500D02*
X141180000Y-61912500D01*
X257492500Y-61912500D02*
X263366250Y-67786250D01*
X154940000Y-61912500D02*
X149066250Y-67786250D01*
X219392500Y-61912500D02*
X225266250Y-67786250D01*
X66570000Y-61912500D02*
X66992500Y-61912500D01*
X288290000Y-61912500D02*
X282416250Y-67786250D01*
X103300000Y-61912500D02*
X97790000Y-61912500D01*
X274340000Y-61912500D02*
X269240000Y-61912500D01*
X219110000Y-61912500D02*
X219392500Y-61912500D01*
X84331250Y-61912500D02*
X78740000Y-61912500D01*
X85531250Y-61912500D02*
X86042500Y-61912500D01*
X327621250Y-83912500D02*
X329921250Y-83912500D01*
X329921250Y-83912500D02*
X331311250Y-82522500D01*
X238040000Y-61912500D02*
X238442500Y-61912500D01*
X269240000Y-61912500D02*
X263366250Y-67786250D01*
X179040000Y-61912500D02*
X173990000Y-61912500D01*
X276542500Y-61912500D02*
X282416250Y-67786250D01*
X305340000Y-61912500D02*
X314642500Y-61912500D01*
X66992500Y-61912500D02*
X72866250Y-67786250D01*
X123670000Y-61912500D02*
X124142500Y-61912500D01*
X231140000Y-61912500D02*
X225266250Y-67786250D01*
X86042500Y-61912500D02*
X91916250Y-67786250D01*
X173990000Y-61912500D02*
X168116250Y-67786250D01*
X53816250Y-67786250D02*
X59690000Y-61912500D01*
X302890000Y-61912500D02*
X288290000Y-61912500D01*
X116840000Y-61912500D02*
X122280000Y-61912500D01*
X78740000Y-61912500D02*
X72866250Y-67786250D01*
X160330000Y-61912500D02*
X154940000Y-61912500D01*
X143192500Y-61912500D02*
X149066250Y-67786250D01*
X331311250Y-82522500D02*
X331311250Y-80962500D01*
X59690000Y-61912500D02*
X65170000Y-61912500D01*
X105094521Y-61914521D02*
X110966250Y-67786250D01*
X200342500Y-61912500D02*
X206216250Y-67786250D01*
X257170000Y-61912500D02*
X257492500Y-61912500D01*
X162242500Y-61912500D02*
X168116250Y-67786250D01*
X255370000Y-61912500D02*
X250190000Y-61912500D01*
X314642500Y-61912500D02*
X320516250Y-67786250D01*
X320516250Y-73381154D02*
X327621250Y-80486154D01*
X236590000Y-61912500D02*
X231140000Y-61912500D01*
X104581250Y-61914521D02*
X105094521Y-61914521D01*
X181292500Y-61912500D02*
X187166250Y-67786250D01*
X320516250Y-67786250D02*
X320516250Y-73381154D01*
X206216250Y-67786250D02*
X212090000Y-61912500D01*
X110966250Y-67786250D02*
X116840000Y-61912500D01*
X142780000Y-61912500D02*
X143192500Y-61912500D01*
X276090000Y-61912500D02*
X276542500Y-61912500D01*
X327621250Y-80486154D02*
X327621250Y-83912500D01*
X250190000Y-61912500D02*
X244316250Y-67786250D01*
X97790000Y-61912500D02*
X91916250Y-67786250D01*
X124142500Y-61912500D02*
X130016250Y-67786250D01*
X199980000Y-61912500D02*
X200342500Y-61912500D01*
X193040000Y-61912500D02*
X198400000Y-61912500D01*
X130016250Y-67786250D02*
X135890000Y-61912500D01*
X238442500Y-61912500D02*
X244316250Y-67786250D01*
X187166250Y-67786250D02*
X193040000Y-61912500D01*
X161740000Y-61912500D02*
X162242500Y-61912500D01*
X180910000Y-61912500D02*
X181292500Y-61912500D01*
X212090000Y-61912500D02*
X217530000Y-61912500D01*
%TO.N,Net-(D16-A)*%
X67647620Y-69056250D02*
X59531250Y-69056250D01*
X72866250Y-74274880D02*
X67647620Y-69056250D01*
X72866250Y-75406250D02*
X72866250Y-74274880D01*
%TO.N,Net-(D17-A)*%
X91916250Y-74274880D02*
X86697620Y-69056250D01*
X91916250Y-75406250D02*
X91916250Y-74274880D01*
X86697620Y-69056250D02*
X78581250Y-69056250D01*
%TO.N,Net-(D18-A)*%
X105747620Y-69056250D02*
X97631250Y-69056250D01*
X110966250Y-74274880D02*
X105747620Y-69056250D01*
X110966250Y-75406250D02*
X110966250Y-74274880D01*
%TO.N,Net-(D19-A)*%
X130016250Y-74274880D02*
X124797620Y-69056250D01*
X124797620Y-69056250D02*
X116681250Y-69056250D01*
X130016250Y-75406250D02*
X130016250Y-74274880D01*
%TO.N,Net-(D20-A)*%
X149066250Y-74274880D02*
X143847620Y-69056250D01*
X149066250Y-75406250D02*
X149066250Y-74274880D01*
X143847620Y-69056250D02*
X135731250Y-69056250D01*
%TO.N,Net-(D21-A)*%
X168116250Y-74274880D02*
X162897620Y-69056250D01*
X162897620Y-69056250D02*
X154781250Y-69056250D01*
X168116250Y-75406250D02*
X168116250Y-74274880D01*
%TO.N,Net-(D22-A)*%
X187166250Y-75406250D02*
X187166250Y-74274880D01*
X181947620Y-69056250D02*
X173831250Y-69056250D01*
X187166250Y-74274880D02*
X181947620Y-69056250D01*
%TO.N,Net-(D23-A)*%
X200997620Y-69056250D02*
X192881250Y-69056250D01*
X206216250Y-75406250D02*
X206216250Y-74274880D01*
X206216250Y-74274880D02*
X200997620Y-69056250D01*
%TO.N,Net-(D24-A)*%
X220047620Y-69056250D02*
X211931250Y-69056250D01*
X225266250Y-75406250D02*
X225266250Y-74274880D01*
X225266250Y-74274880D02*
X220047620Y-69056250D01*
%TO.N,Net-(D25-A)*%
X244316250Y-74274880D02*
X239097620Y-69056250D01*
X244316250Y-75406250D02*
X244316250Y-74274880D01*
X239097620Y-69056250D02*
X230981250Y-69056250D01*
%TO.N,Net-(D26-A)*%
X263366250Y-75406250D02*
X263366250Y-74274880D01*
X263366250Y-74274880D02*
X258147620Y-69056250D01*
X258147620Y-69056250D02*
X250031250Y-69056250D01*
%TO.N,Net-(D27-A)*%
X282416250Y-75406250D02*
X282416250Y-74274880D01*
X282416250Y-74274880D02*
X277197620Y-69056250D01*
X277197620Y-69056250D02*
X269081250Y-69056250D01*
%TO.N,Net-(D28-A)*%
X320516250Y-75406250D02*
X314166250Y-69056250D01*
X314166250Y-69056250D02*
X297656250Y-69056250D01*
%TO.N,Row 3*%
X133170000Y-80962500D02*
X133667500Y-80962500D01*
X272891250Y-86836250D02*
X278765000Y-80962500D01*
X164465000Y-80962500D02*
X169850000Y-80962500D01*
X120491250Y-86836250D02*
X126365000Y-80962500D01*
X285580000Y-80962500D02*
X286067500Y-80962500D01*
X133667500Y-80962500D02*
X139541250Y-86836250D01*
X101441250Y-86836250D02*
X107315000Y-80962500D01*
X152717500Y-80962500D02*
X158591250Y-86836250D01*
X315102951Y-81422951D02*
X320516250Y-86836250D01*
X267017500Y-80962500D02*
X272891250Y-86836250D01*
X332077500Y-86836250D02*
X336391250Y-82522500D01*
X278765000Y-80962500D02*
X284270000Y-80962500D01*
X114617500Y-80962500D02*
X120491250Y-86836250D01*
X253841250Y-86836250D02*
X259715000Y-80962500D01*
X259715000Y-80962500D02*
X264910000Y-80962500D01*
X158591250Y-86836250D02*
X164465000Y-80962500D01*
X171767500Y-80962500D02*
X177641250Y-86836250D01*
X209867500Y-80962500D02*
X215741250Y-86836250D01*
X215741250Y-86836250D02*
X221615000Y-80962500D01*
X234791250Y-86836250D02*
X240665000Y-80962500D01*
X309550000Y-80962500D02*
X311169098Y-80962500D01*
X74480000Y-81000000D02*
X74442500Y-80962500D01*
X95567500Y-80962500D02*
X101441250Y-86836250D01*
X221615000Y-80962500D02*
X227020000Y-80962500D01*
X247967500Y-80962500D02*
X253841250Y-86836250D01*
X320516250Y-86836250D02*
X332077500Y-86836250D01*
X196691250Y-86836250D02*
X202565000Y-80962500D01*
X69215000Y-80962500D02*
X63341250Y-86836250D01*
X126365000Y-80962500D02*
X131640000Y-80962500D01*
X266550000Y-80962500D02*
X267017500Y-80962500D01*
X336391250Y-82522500D02*
X336391250Y-80962500D01*
X88265000Y-80962500D02*
X93640000Y-80962500D01*
X177641250Y-86836250D02*
X183515000Y-80962500D01*
X145415000Y-80962500D02*
X150760000Y-80962500D01*
X95110000Y-80962500D02*
X95567500Y-80962500D01*
X183515000Y-80962500D02*
X188980000Y-80962500D01*
X240665000Y-80962500D02*
X245970000Y-80962500D01*
X82391250Y-86836250D02*
X88265000Y-80962500D01*
X114140000Y-80962500D02*
X114617500Y-80962500D01*
X76080000Y-80962500D02*
X76517500Y-80962500D01*
X76517500Y-80962500D02*
X82391250Y-86836250D01*
X228560000Y-80962500D02*
X228917500Y-80962500D01*
X171410000Y-80962500D02*
X171767500Y-80962500D01*
X314339652Y-82186250D02*
X315102951Y-81422951D01*
X202565000Y-80962500D02*
X207940000Y-80962500D01*
X228917500Y-80962500D02*
X234791250Y-86836250D01*
X107315000Y-80962500D02*
X112560000Y-80962500D01*
X139541250Y-86836250D02*
X145415000Y-80962500D01*
X209540000Y-80962500D02*
X209867500Y-80962500D01*
X286067500Y-80962500D02*
X291941250Y-86836250D01*
X297815000Y-80962500D02*
X291941250Y-86836250D01*
X74442500Y-80962500D02*
X69215000Y-80962500D01*
X190817500Y-80962500D02*
X196691250Y-86836250D01*
X190490000Y-80962500D02*
X190817500Y-80962500D01*
X152310000Y-80962500D02*
X152717500Y-80962500D01*
X311169098Y-80962500D02*
X312392848Y-82186250D01*
X307990000Y-80962500D02*
X297815000Y-80962500D01*
X247510000Y-80962500D02*
X247967500Y-80962500D01*
X312392848Y-82186250D02*
X314339652Y-82186250D01*
%TO.N,Net-(D29-A)*%
X63341250Y-94456250D02*
X56991250Y-88106250D01*
X56991250Y-88106250D02*
X45243750Y-88106250D01*
%TO.N,Net-(D30-A)*%
X77172620Y-88106250D02*
X69056250Y-88106250D01*
X82391250Y-93324880D02*
X77172620Y-88106250D01*
X82391250Y-94456250D02*
X82391250Y-93324880D01*
%TO.N,Net-(D31-A)*%
X96222620Y-88106250D02*
X88106250Y-88106250D01*
X101441250Y-93324880D02*
X96222620Y-88106250D01*
X101441250Y-94456250D02*
X101441250Y-93324880D01*
%TO.N,Net-(D32-A)*%
X120491250Y-93324880D02*
X115272620Y-88106250D01*
X115272620Y-88106250D02*
X107156250Y-88106250D01*
X120491250Y-94456250D02*
X120491250Y-93324880D01*
%TO.N,Net-(D33-A)*%
X139541250Y-93324880D02*
X134322620Y-88106250D01*
X139541250Y-94456250D02*
X139541250Y-93324880D01*
X134322620Y-88106250D02*
X126206250Y-88106250D01*
%TO.N,Net-(D34-A)*%
X158591250Y-93324880D02*
X153372620Y-88106250D01*
X153372620Y-88106250D02*
X145256250Y-88106250D01*
X158591250Y-94456250D02*
X158591250Y-93324880D01*
%TO.N,Net-(D35-A)*%
X177641250Y-94456250D02*
X177641250Y-93324880D01*
X172422620Y-88106250D02*
X164306250Y-88106250D01*
X177641250Y-93324880D02*
X172422620Y-88106250D01*
%TO.N,Net-(D36-A)*%
X196691250Y-93324880D02*
X191472620Y-88106250D01*
X191472620Y-88106250D02*
X183356250Y-88106250D01*
X196691250Y-94456250D02*
X196691250Y-93324880D01*
%TO.N,Net-(D37-A)*%
X215741250Y-94456250D02*
X215741250Y-93324880D01*
X215741250Y-93324880D02*
X210522620Y-88106250D01*
X210522620Y-88106250D02*
X202406250Y-88106250D01*
%TO.N,Net-(D38-A)*%
X234791250Y-94456250D02*
X234791250Y-93324880D01*
X234791250Y-93324880D02*
X229572620Y-88106250D01*
X229572620Y-88106250D02*
X221456250Y-88106250D01*
%TO.N,Net-(D39-A)*%
X248622620Y-88106250D02*
X240506250Y-88106250D01*
X253841250Y-93324880D02*
X248622620Y-88106250D01*
X253841250Y-94456250D02*
X253841250Y-93324880D01*
%TO.N,Net-(D40-A)*%
X272891250Y-94456250D02*
X272891250Y-93324880D01*
X272891250Y-93324880D02*
X267672620Y-88106250D01*
X267672620Y-88106250D02*
X259556250Y-88106250D01*
%TO.N,Net-(D41-A)*%
X291941250Y-94456250D02*
X291941250Y-93324880D01*
X291941250Y-93324880D02*
X286722620Y-88106250D01*
X286722620Y-88106250D02*
X278606250Y-88106250D01*
%TO.N,Net-(D42-A)*%
X320516250Y-94456250D02*
X314166250Y-88106250D01*
X314166250Y-88106250D02*
X302418750Y-88106250D01*
%TO.N,Net-(D43-A)*%
X68103750Y-113506250D02*
X61753750Y-107156250D01*
X61753750Y-107156250D02*
X47625000Y-107156250D01*
%TO.N,Row 4*%
X220503750Y-105886250D02*
X226377500Y-100012500D01*
X314642500Y-100012500D02*
X320516250Y-105886250D01*
X325390000Y-105368529D02*
X325390000Y-88140000D01*
X283527500Y-100012500D02*
X300810000Y-100012500D01*
X157480000Y-100012500D02*
X163353750Y-105886250D01*
X99900000Y-100012500D02*
X100330000Y-100012500D01*
X326293750Y-87236250D02*
X334217500Y-87236250D01*
X195580000Y-100012500D02*
X201453750Y-105886250D01*
X150177500Y-100012500D02*
X155240000Y-100012500D01*
X112077500Y-100012500D02*
X117510000Y-100012500D01*
X258603750Y-105886250D02*
X264477500Y-100012500D01*
X239553750Y-105886250D02*
X245427500Y-100012500D01*
X188277500Y-100012500D02*
X193530000Y-100012500D01*
X334217500Y-87236250D02*
X338931250Y-82522500D01*
X176140000Y-100012500D02*
X176530000Y-100012500D01*
X271780000Y-100012500D02*
X277653750Y-105886250D01*
X214260000Y-100012500D02*
X214630000Y-100012500D01*
X138430000Y-100012500D02*
X144303750Y-105886250D01*
X119380000Y-100012500D02*
X125253750Y-105886250D01*
X277653750Y-105886250D02*
X283527500Y-100012500D01*
X80880000Y-100012500D02*
X81280000Y-100012500D01*
X68103750Y-105886250D02*
X73977500Y-100012500D01*
X233680000Y-100012500D02*
X239553750Y-105886250D01*
X233300000Y-100012500D02*
X233680000Y-100012500D01*
X157100000Y-100012500D02*
X157480000Y-100012500D01*
X144303750Y-105886250D02*
X150177500Y-100012500D01*
X169227500Y-100012500D02*
X174330000Y-100012500D01*
X252320000Y-100012500D02*
X252730000Y-100012500D01*
X73977500Y-100012500D02*
X79280000Y-100012500D01*
X156980000Y-100012500D02*
X157100000Y-100012500D01*
X245427500Y-100012500D02*
X250410000Y-100012500D01*
X338931250Y-82522500D02*
X338931250Y-80962500D01*
X93027500Y-100012500D02*
X98450000Y-100012500D01*
X119040000Y-100012500D02*
X119380000Y-100012500D01*
X138060000Y-100012500D02*
X138430000Y-100012500D01*
X106203750Y-105886250D02*
X112077500Y-100012500D01*
X252730000Y-100012500D02*
X258603750Y-105886250D01*
X214630000Y-100012500D02*
X220503750Y-105886250D01*
X176530000Y-100012500D02*
X182403750Y-105886250D01*
X182403750Y-105886250D02*
X188277500Y-100012500D01*
X264477500Y-100012500D02*
X269580000Y-100012500D01*
X226377500Y-100012500D02*
X231500000Y-100012500D01*
X201453750Y-105886250D02*
X207327500Y-100012500D01*
X81280000Y-100012500D02*
X87153750Y-105886250D01*
X207327500Y-100012500D02*
X212290000Y-100012500D01*
X302380000Y-100012500D02*
X314642500Y-100012500D01*
X125253750Y-105886250D02*
X131127500Y-100012500D01*
X131127500Y-100012500D02*
X136330000Y-100012500D01*
X195210000Y-100012500D02*
X195580000Y-100012500D01*
X271390000Y-100012500D02*
X271780000Y-100012500D01*
X320516250Y-105886250D02*
X324872279Y-105886250D01*
X325390000Y-88140000D02*
X326293750Y-87236250D01*
X100330000Y-100012500D02*
X106203750Y-105886250D01*
X163353750Y-105886250D02*
X169227500Y-100012500D01*
X324872279Y-105886250D02*
X325390000Y-105368529D01*
X87153750Y-105886250D02*
X93027500Y-100012500D01*
%TO.N,Net-(D44-A)*%
X87153750Y-112374880D02*
X81935120Y-107156250D01*
X87153750Y-113506250D02*
X87153750Y-112374880D01*
X81935120Y-107156250D02*
X73818750Y-107156250D01*
%TO.N,Net-(D45-A)*%
X106203750Y-112374880D02*
X100985120Y-107156250D01*
X106203750Y-113506250D02*
X106203750Y-112374880D01*
X100985120Y-107156250D02*
X92868750Y-107156250D01*
%TO.N,Net-(D46-A)*%
X125253750Y-113506250D02*
X125253750Y-112374880D01*
X125253750Y-112374880D02*
X120035120Y-107156250D01*
X120035120Y-107156250D02*
X111918750Y-107156250D01*
%TO.N,Net-(D47-A)*%
X144303750Y-112374880D02*
X139085120Y-107156250D01*
X139085120Y-107156250D02*
X130968750Y-107156250D01*
X144303750Y-113506250D02*
X144303750Y-112374880D01*
%TO.N,Net-(D48-A)*%
X158135120Y-107156250D02*
X150018750Y-107156250D01*
X163353750Y-113506250D02*
X163353750Y-112374880D01*
X163353750Y-112374880D02*
X158135120Y-107156250D01*
%TO.N,Net-(D49-A)*%
X182403750Y-113506250D02*
X182403750Y-112374880D01*
X182403750Y-112374880D02*
X177185120Y-107156250D01*
X177185120Y-107156250D02*
X169068750Y-107156250D01*
%TO.N,Net-(D50-A)*%
X196235120Y-107156250D02*
X188118750Y-107156250D01*
X201453750Y-112374880D02*
X196235120Y-107156250D01*
X201453750Y-113506250D02*
X201453750Y-112374880D01*
%TO.N,Net-(D51-A)*%
X220503750Y-113506250D02*
X220503750Y-112374880D01*
X215285120Y-107156250D02*
X207168750Y-107156250D01*
X220503750Y-112374880D02*
X215285120Y-107156250D01*
%TO.N,Net-(D52-A)*%
X234335120Y-107156250D02*
X226218750Y-107156250D01*
X239553750Y-113506250D02*
X239553750Y-112374880D01*
X239553750Y-112374880D02*
X234335120Y-107156250D01*
%TO.N,Net-(D53-A)*%
X258603750Y-112374880D02*
X253385120Y-107156250D01*
X258603750Y-113506250D02*
X258603750Y-112374880D01*
X253385120Y-107156250D02*
X245268750Y-107156250D01*
%TO.N,Net-(D54-A)*%
X272435120Y-107156250D02*
X264318750Y-107156250D01*
X277653750Y-113506250D02*
X277653750Y-112374880D01*
X277653750Y-112374880D02*
X272435120Y-107156250D01*
%TO.N,Net-(D55-A)*%
X314166250Y-107156250D02*
X295275000Y-107156250D01*
X320516250Y-113506250D02*
X314166250Y-107156250D01*
%TO.N,Row 5*%
X121602500Y-119062500D02*
X126820000Y-119062500D01*
X289382152Y-119062500D02*
X295840000Y-119062500D01*
X96678750Y-124936250D02*
X102552500Y-119062500D01*
X204720000Y-119062500D02*
X205105000Y-119062500D01*
X312396250Y-124936250D02*
X320516250Y-124936250D01*
X109420000Y-119062500D02*
X109855000Y-119062500D01*
X306522500Y-119062500D02*
X312396250Y-124936250D01*
X172878750Y-124936250D02*
X178752500Y-119062500D01*
X337700000Y-84733750D02*
X338521250Y-83912500D01*
X77628750Y-124936250D02*
X83502500Y-119062500D01*
X140652500Y-119062500D02*
X145930000Y-119062500D01*
X286211598Y-120286250D02*
X288158402Y-120286250D01*
X333825000Y-117225000D02*
X337700000Y-113350000D01*
X128450000Y-119062500D02*
X128905000Y-119062500D01*
X282357500Y-119062500D02*
X284987848Y-119062500D01*
X153828750Y-124936250D02*
X159702500Y-119062500D01*
X178752500Y-119062500D02*
X183860000Y-119062500D01*
X90805000Y-119062500D02*
X96678750Y-124936250D01*
X262255000Y-119062500D02*
X268128750Y-124936250D01*
X357505000Y-119062500D02*
X363378750Y-124936250D01*
X340081250Y-82352500D02*
X341471250Y-80962500D01*
X242800000Y-119062500D02*
X243205000Y-119062500D01*
X166580000Y-119062500D02*
X167005000Y-119062500D01*
X83502500Y-119062500D02*
X88550000Y-119062500D01*
X338521250Y-83912500D02*
X340081250Y-83912500D01*
X210978750Y-124936250D02*
X216852500Y-119062500D01*
X249078750Y-124936250D02*
X254952500Y-119062500D01*
X216852500Y-119062500D02*
X222150000Y-119062500D01*
X326390000Y-119062500D02*
X355120000Y-119062500D01*
X331380000Y-119670000D02*
X326113750Y-124936250D01*
X223760000Y-119062500D02*
X224155000Y-119062500D01*
X186055000Y-119062500D02*
X191928750Y-124936250D01*
X191928750Y-124936250D02*
X197802500Y-119062500D01*
X115728750Y-124936250D02*
X121602500Y-119062500D01*
X128905000Y-119062500D02*
X134778750Y-124936250D01*
X185610000Y-119062500D02*
X186055000Y-119062500D01*
X134778750Y-124936250D02*
X140652500Y-119062500D01*
X159702500Y-119062500D02*
X164860000Y-119062500D01*
X147955000Y-119062500D02*
X153828750Y-124936250D01*
X340081250Y-83912500D02*
X340081250Y-82352500D01*
X268128750Y-124936250D02*
X276483750Y-124936250D01*
X197802500Y-119062500D02*
X202990000Y-119062500D01*
X288158402Y-120286250D02*
X289382152Y-119062500D01*
X205105000Y-119062500D02*
X210978750Y-124936250D01*
X297630000Y-119062500D02*
X306522500Y-119062500D01*
X102552500Y-119062500D02*
X107690000Y-119062500D01*
X276483750Y-124936250D02*
X282357500Y-119062500D01*
X357070000Y-119062500D02*
X357505000Y-119062500D01*
X254952500Y-119062500D02*
X259900000Y-119062500D01*
X230028750Y-124936250D02*
X235902500Y-119062500D01*
X167005000Y-119062500D02*
X172878750Y-124936250D01*
X109855000Y-119062500D02*
X115728750Y-124936250D01*
X326113750Y-124936250D02*
X320516250Y-124936250D01*
X224155000Y-119062500D02*
X230028750Y-124936250D01*
X243205000Y-119062500D02*
X249078750Y-124936250D01*
X337700000Y-113350000D02*
X337700000Y-84733750D01*
X261820000Y-119062500D02*
X262255000Y-119062500D01*
X235902500Y-119062500D02*
X241030000Y-119062500D01*
X90390000Y-119062500D02*
X90805000Y-119062500D01*
X147570000Y-119062500D02*
X147955000Y-119062500D01*
X320516250Y-124936250D02*
X326390000Y-119062500D01*
X284987848Y-119062500D02*
X286211598Y-120286250D01*
%TO.N,Net-(D56-A)*%
X71278750Y-126206250D02*
X52387500Y-126206250D01*
X77628750Y-132556250D02*
X71278750Y-126206250D01*
%TO.N,Net-(D57-A)*%
X96678750Y-132556250D02*
X96678750Y-131424880D01*
X96678750Y-131424880D02*
X91460120Y-126206250D01*
X91460120Y-126206250D02*
X83343750Y-126206250D01*
%TO.N,Net-(D58-A)*%
X115728750Y-131424880D02*
X110510120Y-126206250D01*
X110510120Y-126206250D02*
X102393750Y-126206250D01*
X115728750Y-132556250D02*
X115728750Y-131424880D01*
%TO.N,Net-(D59-A)*%
X134778750Y-131424880D02*
X129560120Y-126206250D01*
X134778750Y-132556250D02*
X134778750Y-131424880D01*
X129560120Y-126206250D02*
X121443750Y-126206250D01*
%TO.N,Net-(D60-A)*%
X153828750Y-131424880D02*
X148610120Y-126206250D01*
X153828750Y-132556250D02*
X153828750Y-131424880D01*
X148610120Y-126206250D02*
X140493750Y-126206250D01*
%TO.N,Net-(D61-A)*%
X172878750Y-132556250D02*
X172878750Y-131424880D01*
X172878750Y-131424880D02*
X167660120Y-126206250D01*
X167660120Y-126206250D02*
X159543750Y-126206250D01*
%TO.N,Net-(D62-A)*%
X191928750Y-132556250D02*
X191928750Y-131424880D01*
X186710120Y-126206250D02*
X178593750Y-126206250D01*
X191928750Y-131424880D02*
X186710120Y-126206250D01*
%TO.N,Net-(D63-A)*%
X205760120Y-126206250D02*
X197643750Y-126206250D01*
X210978750Y-132556250D02*
X210978750Y-131424880D01*
X210978750Y-131424880D02*
X205760120Y-126206250D01*
%TO.N,Net-(D64-A)*%
X230028750Y-132556250D02*
X230028750Y-131494194D01*
X224740806Y-126206250D02*
X216693750Y-126206250D01*
X230028750Y-131494194D02*
X224740806Y-126206250D01*
%TO.N,Net-(D65-A)*%
X249078750Y-131424880D02*
X243860120Y-126206250D01*
X243860120Y-126206250D02*
X235743750Y-126206250D01*
X249078750Y-132556250D02*
X249078750Y-131424880D01*
%TO.N,Net-(D66-A)*%
X268128750Y-131424880D02*
X262910120Y-126206250D01*
X268128750Y-132556250D02*
X268128750Y-131424880D01*
X262910120Y-126206250D02*
X254793750Y-126206250D01*
%TO.N,Net-(D67-A)*%
X314166250Y-126206250D02*
X290512500Y-126206250D01*
X320516250Y-132556250D02*
X314166250Y-126206250D01*
%TO.N,Net-(D68-A)*%
X363378750Y-131471351D02*
X358113649Y-126206250D01*
X358113649Y-126206250D02*
X350043750Y-126206250D01*
X363378750Y-132556250D02*
X363378750Y-131471351D01*
%TO.N,Net-(D69-A)*%
X58578750Y-151606250D02*
X52228750Y-145256250D01*
X52228750Y-145256250D02*
X42862500Y-145256250D01*
%TO.N,Row 6*%
X312150000Y-138112500D02*
X314642500Y-138112500D01*
X296703750Y-143986250D02*
X302577500Y-138112500D01*
X264540000Y-138112500D02*
X267017500Y-138112500D01*
X283395902Y-139336250D02*
X284619652Y-138112500D01*
X314642500Y-138112500D02*
X320516250Y-143986250D01*
X344011250Y-82522500D02*
X344011250Y-80962500D01*
X70294652Y-138112500D02*
X72380000Y-138112500D01*
X58578750Y-143986250D02*
X64452500Y-138112500D01*
X88265000Y-138112500D02*
X96030000Y-138112500D01*
X97700000Y-138112500D02*
X100330000Y-138112500D01*
X280225348Y-138112500D02*
X281449098Y-139336250D01*
X382428750Y-140533064D02*
X359558186Y-117662500D01*
X326390000Y-138112500D02*
X336320000Y-138112500D01*
X369252500Y-138112500D02*
X374170000Y-138112500D01*
X112077500Y-138112500D02*
X167410000Y-138112500D01*
X272891250Y-143986250D02*
X278765000Y-138112500D01*
X106203750Y-143986250D02*
X112077500Y-138112500D01*
X249078750Y-143986250D02*
X254952500Y-138112500D01*
X254952500Y-138112500D02*
X262520000Y-138112500D01*
X338340000Y-88193750D02*
X344011250Y-82522500D01*
X357140000Y-138112500D02*
X357505000Y-138112500D01*
X243205000Y-138112500D02*
X249078750Y-143986250D01*
X307195902Y-139336250D02*
X308419652Y-138112500D01*
X76517500Y-138112500D02*
X82391250Y-143986250D01*
X290830000Y-138112500D02*
X296703750Y-143986250D01*
X308419652Y-138112500D02*
X310270000Y-138112500D01*
X225266250Y-143986250D02*
X231140000Y-138112500D01*
X350202500Y-138112500D02*
X355460000Y-138112500D01*
X97440000Y-138112500D02*
X97700000Y-138112500D01*
X82391250Y-143986250D02*
X88265000Y-138112500D01*
X171790000Y-138112500D02*
X219392500Y-138112500D01*
X278765000Y-138112500D02*
X280225348Y-138112500D01*
X357505000Y-138112500D02*
X363378750Y-143986250D01*
X304025348Y-138112500D02*
X305249098Y-139336250D01*
X363378750Y-143986250D02*
X369252500Y-138112500D01*
X320516250Y-143986250D02*
X326390000Y-138112500D01*
X382428750Y-143986250D02*
X382428750Y-140533064D01*
X359558186Y-117662500D02*
X338340000Y-117662500D01*
X305249098Y-139336250D02*
X307195902Y-139336250D01*
X100330000Y-138112500D02*
X106203750Y-143986250D01*
X344328750Y-143986250D02*
X350202500Y-138112500D01*
X231140000Y-138112500D02*
X238760000Y-138112500D01*
X74810000Y-138112500D02*
X76517500Y-138112500D01*
X67124098Y-139336250D02*
X69070902Y-139336250D01*
X376130000Y-138112500D02*
X376555000Y-138112500D01*
X338340000Y-117662500D02*
X338340000Y-88193750D01*
X64452500Y-138112500D02*
X65900348Y-138112500D01*
X376555000Y-138112500D02*
X382428750Y-143986250D01*
X338030000Y-138112500D02*
X338455000Y-138112500D01*
X219392500Y-138112500D02*
X225266250Y-143986250D01*
X338455000Y-138112500D02*
X344328750Y-143986250D01*
X284619652Y-138112500D02*
X286590000Y-138112500D01*
X69070902Y-139336250D02*
X70294652Y-138112500D01*
X65900348Y-138112500D02*
X67124098Y-139336250D01*
X267017500Y-138112500D02*
X272891250Y-143986250D01*
X240670000Y-138112500D02*
X243205000Y-138112500D01*
X288230000Y-138112500D02*
X290830000Y-138112500D01*
X302577500Y-138112500D02*
X304025348Y-138112500D01*
X281449098Y-139336250D02*
X283395902Y-139336250D01*
%TO.N,Net-(D70-A)*%
X76041250Y-145256250D02*
X66675000Y-145256250D01*
X82391250Y-151606250D02*
X76041250Y-145256250D01*
%TO.N,Net-(D71-A)*%
X99853750Y-145256250D02*
X90487500Y-145256250D01*
X106203750Y-151606250D02*
X99853750Y-145256250D01*
%TO.N,Net-(D72-A)*%
X219106250Y-145446250D02*
X162115000Y-145446250D01*
X162115000Y-145446250D02*
X161925000Y-145256250D01*
X225266250Y-151606250D02*
X219106250Y-145446250D01*
%TO.N,Net-(D73-A)*%
X249078750Y-151606250D02*
X242728750Y-145256250D01*
X242728750Y-145256250D02*
X233362500Y-145256250D01*
%TO.N,Net-(D74-A)*%
X266541250Y-145256250D02*
X257175000Y-145256250D01*
X272891250Y-151606250D02*
X266541250Y-145256250D01*
%TO.N,Net-(D75-A)*%
X296703750Y-151606250D02*
X290353750Y-145256250D01*
X290353750Y-145256250D02*
X280987500Y-145256250D01*
%TO.N,Net-(D76-A)*%
X314166250Y-145256250D02*
X304800000Y-145256250D01*
X320516250Y-151606250D02*
X314166250Y-145256250D01*
%TO.N,Net-(D77-A)*%
X344328750Y-150474880D02*
X339110120Y-145256250D01*
X344328750Y-151606250D02*
X344328750Y-150474880D01*
X339110120Y-145256250D02*
X330993750Y-145256250D01*
%TO.N,Net-(D78-A)*%
X363378750Y-150474880D02*
X358160120Y-145256250D01*
X363378750Y-151606250D02*
X363378750Y-150474880D01*
X358160120Y-145256250D02*
X350043750Y-145256250D01*
%TO.N,Net-(D79-A)*%
X377210120Y-145256250D02*
X369093750Y-145256250D01*
X382428750Y-150474880D02*
X377210120Y-145256250D01*
X382428750Y-151606250D02*
X382428750Y-150474880D01*
%TO.N,+5V*%
X339620000Y-87479436D02*
X339620000Y-115780000D01*
X52320000Y-61870000D02*
X44164899Y-61870000D01*
X377031250Y-80962500D02*
X377031250Y-82522500D01*
X344280000Y-37850000D02*
X346620000Y-40190000D01*
X349411250Y-86050000D02*
X347601471Y-86050000D01*
X44164899Y-61870000D02*
X40304899Y-58010000D01*
X64750000Y-133180000D02*
X54860000Y-143070000D01*
X341910000Y-37850000D02*
X344280000Y-37850000D01*
X346801471Y-86850000D02*
X340249436Y-86850000D01*
X59650000Y-95070000D02*
X59650000Y-105860000D01*
X347601471Y-86050000D02*
X346801471Y-86850000D01*
X377031250Y-82522500D02*
X373736875Y-85816875D01*
X340249436Y-86850000D02*
X339620000Y-87479436D01*
X350621250Y-87260000D02*
X349411250Y-86050000D01*
X54860000Y-143070000D02*
X54860000Y-143760000D01*
X40304899Y-58010000D02*
X40080000Y-58010000D01*
X352150000Y-87260000D02*
X350621250Y-87260000D01*
%TO.N,GND*%
X357437500Y-39643750D02*
X360793750Y-43000000D01*
X345401250Y-64332500D02*
X335001250Y-64332500D01*
X327610000Y-64261000D02*
X327610000Y-57190000D01*
X374986646Y-39651907D02*
X377834739Y-42500000D01*
X381734739Y-42500000D02*
X381986646Y-42751907D01*
X335001250Y-79812500D02*
X333851250Y-80962500D01*
X381986646Y-43851907D02*
X381986646Y-42751907D01*
X371951250Y-80962500D02*
X371951250Y-77451250D01*
X349243750Y-45243750D02*
X344390000Y-40390000D01*
X346551250Y-63182500D02*
X345401250Y-64332500D01*
X359251250Y-84711250D02*
X359540000Y-85000000D01*
X335001250Y-64332500D02*
X333851250Y-63182500D01*
X333851250Y-80962500D02*
X333851250Y-63182500D01*
X357917500Y-64332500D02*
X347701250Y-64332500D01*
X374986646Y-50851907D02*
X381986646Y-43851907D01*
X333851250Y-63182500D02*
X332701250Y-64332500D01*
X316948186Y-39840000D02*
X300650000Y-39840000D01*
X340432000Y-41868000D02*
X318976186Y-41868000D01*
X375000000Y-40400000D02*
X373803354Y-41596646D01*
X349198493Y-87128493D02*
X349250000Y-87180000D01*
X340840000Y-41460000D02*
X341910000Y-40390000D01*
X359251250Y-80962500D02*
X359251250Y-84711250D01*
X359067500Y-63182500D02*
X357917500Y-64332500D01*
X323550000Y-35674315D02*
X323550000Y-40422214D01*
X358101250Y-79812500D02*
X347701250Y-79812500D01*
X360793750Y-43000000D02*
X364000000Y-43000000D01*
X379486646Y-46000000D02*
X381986646Y-43500000D01*
X366000000Y-47486646D02*
X367486646Y-46000000D01*
X367500000Y-73000000D02*
X363500000Y-73000000D01*
X341910000Y-40390000D02*
X340432000Y-41868000D01*
X370801250Y-64332500D02*
X360401250Y-64332500D01*
X347701250Y-64332500D02*
X346551250Y-63182500D01*
X360401250Y-64332500D02*
X359251250Y-63182500D01*
X366000000Y-50843750D02*
X366000000Y-47486646D01*
X371951250Y-77451250D02*
X367500000Y-73000000D01*
X363500000Y-73000000D02*
X359251250Y-77248750D01*
X349068566Y-87128493D02*
X350233750Y-88293677D01*
X356370000Y-35370000D02*
X323854315Y-35370000D01*
X300650000Y-48130000D02*
X300650000Y-52380000D01*
X324587786Y-41460000D02*
X340840000Y-41460000D01*
X323854315Y-35370000D02*
X323550000Y-35674315D01*
X368786646Y-41596646D02*
X362290000Y-35100000D01*
X318976186Y-41868000D02*
X316948186Y-39840000D01*
X357437500Y-50843750D02*
X366000000Y-50843750D01*
X359251250Y-80962500D02*
X358101250Y-79812500D01*
X324124315Y-35100000D02*
X323550000Y-35674315D01*
X359251250Y-77248750D02*
X359251250Y-80962500D01*
X367486646Y-46000000D02*
X379486646Y-46000000D01*
X377834739Y-42500000D02*
X381734739Y-42500000D01*
X381986646Y-43500000D02*
X381986646Y-42751907D01*
X347701250Y-79812500D02*
X346551250Y-80962500D01*
X332701250Y-64332500D02*
X327681500Y-64332500D01*
X345401250Y-79812500D02*
X335001250Y-79812500D01*
X344390000Y-40390000D02*
X341910000Y-40390000D01*
X346551250Y-80962500D02*
X345401250Y-79812500D01*
X362290000Y-35100000D02*
X324124315Y-35100000D01*
X373803354Y-41596646D02*
X368786646Y-41596646D01*
X327681500Y-64332500D02*
X327610000Y-64261000D01*
X323550000Y-40422214D02*
X324587786Y-41460000D01*
X371951250Y-63182500D02*
X371951250Y-80962500D01*
X349068566Y-87128493D02*
X349198493Y-87128493D01*
X364000000Y-43000000D02*
X356370000Y-35370000D01*
X359251250Y-63182500D02*
X359067500Y-63182500D01*
X349937500Y-45243750D02*
X349243750Y-45243750D01*
X371951250Y-63182500D02*
X370801250Y-64332500D01*
%TO.N,LED*%
X322990000Y-42940000D02*
X325520000Y-45470000D01*
X325520000Y-45470000D02*
X326670000Y-45470000D01*
%TO.N,+3.3V*%
X364000000Y-84541250D02*
X364852500Y-84541250D01*
X342987630Y-42930000D02*
X345883815Y-45826185D01*
X364852500Y-84541250D02*
X366871250Y-82522500D01*
X341910000Y-42930000D02*
X342987630Y-42930000D01*
X362041250Y-86500000D02*
X364000000Y-84541250D01*
X378500000Y-99500000D02*
X378500000Y-102087500D01*
X354000000Y-87000000D02*
X352773750Y-88226250D01*
X357000000Y-86500000D02*
X362041250Y-86500000D01*
X380000000Y-98000000D02*
X378500000Y-99500000D01*
X376587500Y-104000000D02*
X376587500Y-103835000D01*
X378500000Y-102087500D02*
X376587500Y-104000000D01*
X366871250Y-82522500D02*
X366871250Y-80962500D01*
X380000000Y-78000000D02*
X380000000Y-98000000D01*
%TO.N,Column 1*%
X40392500Y-142716250D02*
X49212500Y-142716250D01*
X387000000Y-162000000D02*
X387000000Y-54390000D01*
X46831250Y-66516250D02*
X46805000Y-66490000D01*
X37910000Y-71992056D02*
X51484194Y-85566250D01*
X46805000Y-66490000D02*
X37910000Y-66490000D01*
X38011250Y-57696250D02*
X46831250Y-66516250D01*
X45140000Y-104616250D02*
X45140000Y-110178306D01*
X46831250Y-42703750D02*
X41041351Y-42703750D01*
X58627944Y-123666250D02*
X58737500Y-123666250D01*
X42773750Y-85560000D02*
X42773750Y-93415000D01*
X328771250Y-54390000D02*
X328771250Y-63182500D01*
X42773750Y-93415000D02*
X53975000Y-104616250D01*
X51587500Y-85560000D02*
X42773750Y-85560000D01*
X53975000Y-104616250D02*
X45140000Y-104616250D01*
X58737500Y-123666250D02*
X49212500Y-123666250D01*
X40392500Y-162000000D02*
X40392500Y-142716250D01*
X45140000Y-110178306D02*
X58627944Y-123666250D01*
X38011250Y-45733851D02*
X38011250Y-57696250D01*
X49212500Y-123666250D02*
X49212500Y-142716250D01*
X387000000Y-54390000D02*
X328771250Y-54390000D01*
X37910000Y-66490000D02*
X37910000Y-71992056D01*
X51484194Y-85566250D02*
X51593750Y-85566250D01*
X41041351Y-42703750D02*
X38011250Y-45733851D01*
X51593750Y-85566250D02*
X51587500Y-85560000D01*
%TO.N,Column 2*%
X73025000Y-142716250D02*
X67235101Y-142716250D01*
X79528529Y-99412500D02*
X80168750Y-100052721D01*
X75406250Y-81066250D02*
X75406250Y-85566250D01*
X75406250Y-85566250D02*
X69616351Y-85566250D01*
X80873750Y-126696351D02*
X80873750Y-130946250D01*
X67235101Y-142716250D02*
X64205000Y-145746351D01*
X74378851Y-104616250D02*
X71348750Y-107646351D01*
X60091351Y-66516250D02*
X57010000Y-69597601D01*
X88798529Y-118462500D02*
X89693750Y-119357721D01*
X80168750Y-104616250D02*
X74378851Y-104616250D01*
X61820000Y-57713971D02*
X65881250Y-61775221D01*
X89693750Y-123666250D02*
X83903851Y-123666250D01*
X65881250Y-61775221D02*
X65881250Y-66516250D01*
X71348750Y-110238750D02*
X79572500Y-118462500D01*
X331311250Y-54790000D02*
X331311250Y-63182500D01*
X80873750Y-130946250D02*
X73025000Y-138795000D01*
X65881250Y-66516250D02*
X60091351Y-66516250D01*
X73025000Y-138795000D02*
X73025000Y-142716250D01*
X64205000Y-161295000D02*
X65251114Y-162341114D01*
X61820000Y-45737601D02*
X61820000Y-57713971D01*
X74740000Y-80400000D02*
X75406250Y-81066250D01*
X79572500Y-118462500D02*
X88798529Y-118462500D01*
X89693750Y-119357721D02*
X89693750Y-123666250D01*
X66570000Y-88612601D02*
X66570000Y-91160000D01*
X386217975Y-54790000D02*
X331311250Y-54790000D01*
X71348750Y-107646351D02*
X71348750Y-110238750D01*
X57010000Y-72250000D02*
X65160000Y-80400000D01*
X83903851Y-123666250D02*
X80873750Y-126696351D01*
X66570000Y-91160000D02*
X74822500Y-99412500D01*
X386217975Y-162341114D02*
X386217975Y-54790000D01*
X80168750Y-100052721D02*
X80168750Y-104616250D01*
X57010000Y-69597601D02*
X57010000Y-72250000D01*
X64853851Y-42703750D02*
X61820000Y-45737601D01*
X65251114Y-162341114D02*
X386217975Y-162341114D01*
X69616351Y-85566250D02*
X66570000Y-88612601D01*
X74822500Y-99412500D02*
X79528529Y-99412500D01*
X65160000Y-80400000D02*
X74740000Y-80400000D01*
X70643750Y-42703750D02*
X64853851Y-42703750D01*
X64205000Y-145746351D02*
X64205000Y-161295000D01*
%TO.N,Column 3*%
X76111250Y-69546351D02*
X76111250Y-72311250D01*
X108743750Y-119267721D02*
X108743750Y-123666250D01*
X89693750Y-42703750D02*
X83903851Y-42703750D01*
X80873750Y-45733851D02*
X80873750Y-56784779D01*
X84931250Y-66516250D02*
X79141351Y-66516250D01*
X94080000Y-80310000D02*
X94456250Y-80686250D01*
X93428851Y-104616250D02*
X90398750Y-107646351D01*
X80873750Y-56784779D02*
X84931250Y-60842279D01*
X98698529Y-99412500D02*
X99218750Y-99932721D01*
X97778750Y-128695348D02*
X97778750Y-137185221D01*
X107938529Y-118462500D02*
X108743750Y-119267721D01*
X76111250Y-72311250D02*
X84110000Y-80310000D01*
X79141351Y-66516250D02*
X76111250Y-69546351D01*
X83903851Y-42703750D02*
X80873750Y-45733851D01*
X89087500Y-144676351D02*
X89087500Y-144682500D01*
X84110000Y-80310000D02*
X94080000Y-80310000D01*
X96837500Y-142716250D02*
X91047601Y-142716250D01*
X336391250Y-55190000D02*
X336391250Y-63182500D01*
X96837500Y-138126471D02*
X96837500Y-142716250D01*
X98667944Y-118462500D02*
X107938529Y-118462500D01*
X385817975Y-161941114D02*
X385817975Y-55190000D01*
X84931250Y-60842279D02*
X84931250Y-66516250D01*
X99218750Y-99932721D02*
X99218750Y-104616250D01*
X97778750Y-137185221D02*
X96837500Y-138126471D01*
X85636250Y-88596351D02*
X85636250Y-91143306D01*
X90398750Y-107646351D02*
X90398750Y-110193306D01*
X385817975Y-55190000D02*
X336391250Y-55190000D01*
X94456250Y-80686250D02*
X94456250Y-85566250D01*
X89087500Y-144682500D02*
X87173750Y-146596250D01*
X85636250Y-91143306D02*
X93905444Y-99412500D01*
X94456250Y-85566250D02*
X88666351Y-85566250D01*
X99218750Y-104616250D02*
X93428851Y-104616250D01*
X91047601Y-142716250D02*
X89087500Y-144676351D01*
X90398750Y-110193306D02*
X98667944Y-118462500D01*
X93905444Y-99412500D02*
X98698529Y-99412500D01*
X108743750Y-123666250D02*
X102807848Y-123666250D01*
X88666351Y-85566250D02*
X85636250Y-88596351D01*
X102807848Y-123666250D02*
X97778750Y-128695348D01*
X87173750Y-161941114D02*
X385817975Y-161941114D01*
X87173750Y-146596250D02*
X87173750Y-161941114D01*
%TO.N,Column 4*%
X109448750Y-107646351D02*
X109448750Y-110218750D01*
X385417975Y-55590000D02*
X338931250Y-55590000D01*
X127793750Y-119187721D02*
X127793750Y-123666250D01*
X95140000Y-69567601D02*
X95140000Y-72530000D01*
X112955444Y-99412500D02*
X117758529Y-99412500D01*
X112478851Y-104616250D02*
X109448750Y-107646351D01*
X102953851Y-42703750D02*
X99790000Y-45867601D01*
X117692500Y-118462500D02*
X127068529Y-118462500D01*
X109448750Y-110218750D02*
X117692500Y-118462500D01*
X127032500Y-137512500D02*
X167658529Y-137512500D01*
X167808750Y-142250000D02*
X156660000Y-142250000D01*
X127793750Y-123666250D02*
X122003851Y-123666250D01*
X108743750Y-42703750D02*
X102953851Y-42703750D01*
X99790000Y-45867601D02*
X99790000Y-57553971D01*
X103981250Y-66516250D02*
X98191351Y-66516250D01*
X122003851Y-123666250D02*
X118973750Y-126696351D01*
X156660000Y-161541114D02*
X385417975Y-161541114D01*
X95140000Y-72530000D02*
X102972500Y-80362500D01*
X118268750Y-99922721D02*
X118268750Y-104616250D01*
X168275000Y-142716250D02*
X167808750Y-142250000D01*
X385417975Y-161541114D02*
X385417975Y-55590000D01*
X102972500Y-80362500D02*
X112812500Y-80362500D01*
X338931250Y-55590000D02*
X338931250Y-63182500D01*
X98191351Y-66516250D02*
X95140000Y-69567601D01*
X168275000Y-138128971D02*
X168275000Y-142716250D01*
X113506250Y-81056250D02*
X113506250Y-85566250D01*
X103981250Y-61745221D02*
X103981250Y-66516250D01*
X117758529Y-99412500D02*
X118268750Y-99922721D01*
X118973750Y-129453750D02*
X127032500Y-137512500D01*
X112812500Y-80362500D02*
X113506250Y-81056250D01*
X156660000Y-142250000D02*
X156660000Y-161541114D01*
X127068529Y-118462500D02*
X127793750Y-119187721D01*
X107716351Y-85566250D02*
X104686250Y-88596351D01*
X118973750Y-126696351D02*
X118973750Y-129453750D01*
X113506250Y-85566250D02*
X107716351Y-85566250D01*
X104686250Y-91143306D02*
X112955444Y-99412500D01*
X118268750Y-104616250D02*
X112478851Y-104616250D01*
X99790000Y-57553971D02*
X103981250Y-61745221D01*
X167658529Y-137512500D02*
X168275000Y-138128971D01*
X104686250Y-88596351D02*
X104686250Y-91143306D01*
%TO.N,Column 5*%
X137318750Y-100152721D02*
X137318750Y-104616250D01*
X131922500Y-80362500D02*
X132556250Y-80996250D01*
X385010000Y-55990000D02*
X341471250Y-55990000D01*
X122402500Y-80362500D02*
X131922500Y-80362500D01*
X167695101Y-144116250D02*
X166875000Y-143296149D01*
X132556250Y-85566250D02*
X126766351Y-85566250D01*
X129346351Y-106798750D02*
X129346351Y-107646351D01*
X138023750Y-129513750D02*
X145622500Y-137112500D01*
X136578529Y-99412500D02*
X137318750Y-100152721D01*
X140162500Y-118462500D02*
X146178529Y-118462500D01*
X341471250Y-55990000D02*
X341471250Y-63182500D01*
X123736250Y-88596351D02*
X123736250Y-91376250D01*
X167824215Y-137112500D02*
X169675000Y-138963285D01*
X146178529Y-118462500D02*
X146843750Y-119127721D01*
X166875000Y-143296149D02*
X166875000Y-142650000D01*
X138023750Y-126696351D02*
X138023750Y-129513750D01*
X131772500Y-99412500D02*
X136578529Y-99412500D01*
X146843750Y-123666250D02*
X141053851Y-123666250D01*
X118973750Y-57187721D02*
X123031250Y-61245221D01*
X141053851Y-123666250D02*
X138023750Y-126696351D01*
X127793750Y-42703750D02*
X122003851Y-42703750D01*
X118973750Y-45733851D02*
X118973750Y-57187721D01*
X137318750Y-104616250D02*
X131528851Y-104616250D01*
X385010000Y-161141114D02*
X385010000Y-55990000D01*
X131528851Y-104616250D02*
X129346351Y-106798750D01*
X157060000Y-161141114D02*
X385010000Y-161141114D01*
X114211250Y-69546351D02*
X114211250Y-72171250D01*
X157060000Y-142650000D02*
X157060000Y-161141114D01*
X123031250Y-61245221D02*
X123031250Y-66516250D01*
X126766351Y-85566250D02*
X123736250Y-88596351D01*
X123031250Y-66516250D02*
X117241351Y-66516250D01*
X129346351Y-107646351D02*
X140162500Y-118462500D01*
X122003851Y-42703750D02*
X118973750Y-45733851D01*
X123736250Y-91376250D02*
X131772500Y-99412500D01*
X117241351Y-66516250D02*
X114211250Y-69546351D01*
X145622500Y-137112500D02*
X167824215Y-137112500D01*
X114211250Y-72171250D02*
X122402500Y-80362500D01*
X169675000Y-138963285D02*
X169675000Y-143296149D01*
X168854899Y-144116250D02*
X167695101Y-144116250D01*
X169675000Y-143296149D02*
X168854899Y-144116250D01*
X132556250Y-80996250D02*
X132556250Y-85566250D01*
X146843750Y-119127721D02*
X146843750Y-123666250D01*
X166875000Y-142650000D02*
X157060000Y-142650000D01*
%TO.N,Column 6*%
X170075000Y-143461835D02*
X169840685Y-143696149D01*
X167529415Y-144516250D02*
X167295101Y-144281935D01*
X165893750Y-123666250D02*
X160103851Y-123666250D01*
X165108529Y-118462500D02*
X165893750Y-119247721D01*
X155488529Y-99412500D02*
X156368750Y-100292721D01*
X151606250Y-42703750D02*
X145816351Y-42703750D01*
X150578851Y-104616250D02*
X147530000Y-107665101D01*
X150942500Y-99412500D02*
X155488529Y-99412500D01*
X155802500Y-118462500D02*
X165108529Y-118462500D01*
X156368750Y-100292721D02*
X156368750Y-104616250D01*
X344011250Y-56390000D02*
X344011250Y-63182500D01*
X141420000Y-80320000D02*
X150966029Y-80320000D01*
X157460000Y-160741114D02*
X384610000Y-160741114D01*
X160650000Y-136712500D02*
X167989901Y-136712500D01*
X384610000Y-160741114D02*
X384610000Y-56390000D01*
X169020585Y-144516250D02*
X167529415Y-144516250D01*
X157460000Y-143050000D02*
X157460000Y-160741114D01*
X165893750Y-119247721D02*
X165893750Y-123666250D01*
X147530000Y-107665101D02*
X147530000Y-110190000D01*
X170075000Y-138797599D02*
X170075000Y-143461835D01*
X167989901Y-136712500D02*
X170075000Y-138797599D01*
X136291351Y-66516250D02*
X133261250Y-69546351D01*
X151606250Y-85566250D02*
X145816351Y-85566250D01*
X133261250Y-69546351D02*
X133261250Y-72161250D01*
X166475000Y-143050000D02*
X157460000Y-143050000D01*
X157073750Y-133136250D02*
X160650000Y-136712500D01*
X384610000Y-56390000D02*
X344011250Y-56390000D01*
X145816351Y-85566250D02*
X142786250Y-88596351D01*
X151606250Y-80960221D02*
X151606250Y-85566250D01*
X150966029Y-80320000D02*
X151606250Y-80960221D01*
X142081250Y-46438851D02*
X142081250Y-66516250D01*
X147530000Y-110190000D02*
X155802500Y-118462500D01*
X133261250Y-72161250D02*
X141420000Y-80320000D01*
X142081250Y-66516250D02*
X136291351Y-66516250D01*
X142786250Y-91256250D02*
X150942500Y-99412500D01*
X142786250Y-88596351D02*
X142786250Y-91256250D01*
X156368750Y-104616250D02*
X150578851Y-104616250D01*
X145816351Y-42703750D02*
X142081250Y-46438851D01*
X157073750Y-126696351D02*
X157073750Y-133136250D01*
X167295101Y-144281935D02*
X166475000Y-143461835D01*
X169840685Y-143696149D02*
X169020585Y-144516250D01*
X160103851Y-123666250D02*
X157073750Y-126696351D01*
X166475000Y-143461835D02*
X166475000Y-143050000D01*
%TO.N,Column 7*%
X184943750Y-119244779D02*
X184943750Y-123666250D01*
X161836250Y-88596351D02*
X161836250Y-91156250D01*
X166075000Y-143450000D02*
X157860000Y-143450000D01*
X174578529Y-99412500D02*
X175418750Y-100252721D01*
X175418750Y-104616250D02*
X169628851Y-104616250D01*
X170098529Y-80362500D02*
X170656250Y-80920221D01*
X155273750Y-66516250D02*
X152311250Y-69478750D01*
X184108971Y-118410000D02*
X184943750Y-119244779D01*
X169186271Y-144916250D02*
X167363730Y-144916250D01*
X164866351Y-42703750D02*
X161131250Y-46438851D01*
X157860000Y-143450000D02*
X157860000Y-160341114D01*
X173978750Y-135075221D02*
X170475000Y-138578971D01*
X384210000Y-160341114D02*
X384210000Y-56790000D01*
X166520000Y-110340000D02*
X174590000Y-118410000D01*
X179153851Y-123666250D02*
X173978750Y-128841351D01*
X174590000Y-118410000D02*
X184108971Y-118410000D01*
X161131250Y-66516250D02*
X155273750Y-66516250D01*
X152311250Y-72181250D02*
X160492500Y-80362500D01*
X161131250Y-46438851D02*
X161131250Y-66516250D01*
X166520000Y-107725101D02*
X166520000Y-110340000D01*
X164866351Y-85566250D02*
X161836250Y-88596351D01*
X161836250Y-91156250D02*
X170092500Y-99412500D01*
X167363730Y-144916250D02*
X166075000Y-143627520D01*
X170475000Y-143627521D02*
X169186271Y-144916250D01*
X170656250Y-85566250D02*
X164866351Y-85566250D01*
X175418750Y-100252721D02*
X175418750Y-104616250D01*
X152311250Y-69478750D02*
X152311250Y-72181250D01*
X157860000Y-160341114D02*
X384210000Y-160341114D01*
X170092500Y-99412500D02*
X174578529Y-99412500D01*
X169628851Y-104616250D02*
X166520000Y-107725101D01*
X184943750Y-123666250D02*
X179153851Y-123666250D01*
X170475000Y-138578971D02*
X170475000Y-143627521D01*
X170656250Y-80920221D02*
X170656250Y-85566250D01*
X170656250Y-42703750D02*
X164866351Y-42703750D01*
X349091250Y-56790000D02*
X349091250Y-63182500D01*
X160492500Y-80362500D02*
X170098529Y-80362500D01*
X166075000Y-143627520D02*
X166075000Y-143450000D01*
X384210000Y-56790000D02*
X349091250Y-56790000D01*
X173978750Y-128841351D02*
X173978750Y-135075221D01*
%TO.N,Column 8*%
X233922601Y-142716250D02*
X230892500Y-145746351D01*
X189706250Y-42703750D02*
X183916351Y-42703750D01*
X189132500Y-99412500D02*
X193778529Y-99412500D01*
X179622500Y-80362500D02*
X189228529Y-80362500D01*
X180886250Y-88596351D02*
X180886250Y-91166250D01*
X188678851Y-104616250D02*
X186536351Y-106758750D01*
X174391351Y-66516250D02*
X171361250Y-69546351D01*
X203993750Y-123666250D02*
X198203851Y-123666250D01*
X194468750Y-100102721D02*
X194468750Y-104616250D01*
X195173750Y-129273750D02*
X203412500Y-137512500D01*
X351631250Y-57190000D02*
X351631250Y-63182500D01*
X197352500Y-118462500D02*
X203238529Y-118462500D01*
X383810000Y-57190000D02*
X351631250Y-57190000D01*
X230892500Y-145746351D02*
X230892500Y-159940000D01*
X203412500Y-137512500D02*
X239008529Y-137512500D01*
X193778529Y-99412500D02*
X194468750Y-100102721D01*
X171361250Y-72101250D02*
X179622500Y-80362500D01*
X195173750Y-126696351D02*
X195173750Y-129273750D01*
X180181250Y-66516250D02*
X174391351Y-66516250D01*
X183916351Y-85566250D02*
X180886250Y-88596351D01*
X230892500Y-159940000D02*
X383810000Y-159940000D01*
X383810000Y-159940000D02*
X383810000Y-57190000D01*
X186536351Y-106758750D02*
X186536351Y-107646351D01*
X189706250Y-80840221D02*
X189706250Y-85566250D01*
X189706250Y-85566250D02*
X183916351Y-85566250D01*
X180181250Y-46438851D02*
X180181250Y-66516250D01*
X194468750Y-104616250D02*
X188678851Y-104616250D01*
X189228529Y-80362500D02*
X189706250Y-80840221D01*
X239712500Y-138216471D02*
X239712500Y-142716250D01*
X203993750Y-119217721D02*
X203993750Y-123666250D01*
X180886250Y-91166250D02*
X189132500Y-99412500D01*
X186536351Y-107646351D02*
X197352500Y-118462500D01*
X239712500Y-142716250D02*
X233922601Y-142716250D01*
X183916351Y-42703750D02*
X180181250Y-46438851D01*
X171361250Y-69546351D02*
X171361250Y-72101250D01*
X239008529Y-137512500D02*
X239712500Y-138216471D01*
X198203851Y-123666250D02*
X195173750Y-126696351D01*
X203238529Y-118462500D02*
X203993750Y-119217721D01*
%TO.N,Column 9*%
X263525000Y-138268971D02*
X263525000Y-142716250D01*
X190411250Y-69546351D02*
X190411250Y-72151250D01*
X221952500Y-137112500D02*
X262368529Y-137112500D01*
X199936250Y-88455806D02*
X199936250Y-91143306D01*
X216372500Y-118462500D02*
X222402500Y-118462500D01*
X207728851Y-104616250D02*
X205655101Y-106690000D01*
X212538529Y-99412500D02*
X213518750Y-100392721D01*
X208756250Y-85566250D02*
X202825806Y-85566250D01*
X383210000Y-159340000D02*
X282180635Y-159340000D01*
X208756250Y-42703750D02*
X202966351Y-42703750D01*
X199231250Y-66516250D02*
X193441351Y-66516250D01*
X213518750Y-100392721D02*
X213518750Y-104616250D01*
X208756250Y-80930221D02*
X208756250Y-85566250D01*
X222402500Y-118462500D02*
X223043750Y-119103750D01*
X208205444Y-99412500D02*
X212538529Y-99412500D01*
X198622500Y-80362500D02*
X208188529Y-80362500D01*
X199936250Y-91143306D02*
X208205444Y-99412500D01*
X282180635Y-159340000D02*
X265556885Y-142716250D01*
X214223750Y-126696351D02*
X214223750Y-129383750D01*
X205655101Y-107745101D02*
X216372500Y-118462500D01*
X223043750Y-119103750D02*
X223043750Y-123666250D01*
X202966351Y-42703750D02*
X199231250Y-46438851D01*
X205655101Y-106690000D02*
X205655101Y-107745101D01*
X262368529Y-137112500D02*
X263525000Y-138268971D01*
X199231250Y-46438851D02*
X199231250Y-66516250D01*
X193441351Y-66516250D02*
X190411250Y-69546351D01*
X354171250Y-57858750D02*
X354171250Y-63182500D01*
X217253851Y-123666250D02*
X214223750Y-126696351D01*
X213518750Y-104616250D02*
X207728851Y-104616250D01*
X190411250Y-72151250D02*
X198622500Y-80362500D01*
X265556885Y-142716250D02*
X263525000Y-142716250D01*
X214223750Y-129383750D02*
X221952500Y-137112500D01*
X202825806Y-85566250D02*
X199936250Y-88455806D01*
X208188529Y-80362500D02*
X208756250Y-80930221D01*
X223043750Y-123666250D02*
X217253851Y-123666250D01*
%TO.N,Column 10*%
X227806250Y-85566250D02*
X222016351Y-85566250D01*
X242093750Y-119277721D02*
X242093750Y-123666250D01*
X223700000Y-107695101D02*
X223700000Y-110150000D01*
X222016351Y-85566250D02*
X218986250Y-88596351D01*
X232568750Y-104616250D02*
X226778851Y-104616250D01*
X236303851Y-123666250D02*
X233273750Y-126696351D01*
X231748529Y-99412500D02*
X232568750Y-100232721D01*
X212491351Y-66516250D02*
X209461250Y-69546351D01*
X218281250Y-51201351D02*
X218281250Y-66516250D01*
X218986250Y-91346250D02*
X227052500Y-99412500D01*
X283986250Y-134636250D02*
X287337500Y-137987500D01*
X242093750Y-123666250D02*
X236303851Y-123666250D01*
X218281250Y-66516250D02*
X212491351Y-66516250D01*
X218986250Y-88596351D02*
X218986250Y-91346250D01*
X305393135Y-158740000D02*
X289369385Y-142716250D01*
X227806250Y-80796250D02*
X227806250Y-85566250D01*
X226778851Y-42703750D02*
X218281250Y-51201351D01*
X209461250Y-69546351D02*
X209461250Y-72141250D01*
X217682500Y-80362500D02*
X227372500Y-80362500D01*
X227052500Y-99412500D02*
X231748529Y-99412500D01*
X223700000Y-110150000D02*
X232012500Y-118462500D01*
X233273750Y-126696351D02*
X233273750Y-129353750D01*
X241278529Y-118462500D02*
X242093750Y-119277721D01*
X232012500Y-118462500D02*
X241278529Y-118462500D01*
X232568750Y-100232721D02*
X232568750Y-104616250D01*
X382440000Y-158740000D02*
X305393135Y-158740000D01*
X233273750Y-129353750D02*
X238556250Y-134636250D01*
X289369385Y-142716250D02*
X287337500Y-142716250D01*
X226778851Y-104616250D02*
X223700000Y-107695101D01*
X209461250Y-72141250D02*
X217682500Y-80362500D01*
X227372500Y-80362500D02*
X227806250Y-80796250D01*
X287337500Y-137987500D02*
X287337500Y-142716250D01*
X238556250Y-134636250D02*
X283986250Y-134636250D01*
X356711250Y-57891250D02*
X356711250Y-63182500D01*
X232568750Y-42703750D02*
X226778851Y-42703750D01*
%TO.N,Column 11*%
X361790000Y-60450000D02*
X361791250Y-60451250D01*
X252323750Y-129253750D02*
X257170000Y-134100000D01*
X251055444Y-118450000D02*
X260200000Y-118450000D01*
X260200000Y-118450000D02*
X261143750Y-119393750D01*
X361791250Y-60451250D02*
X361791250Y-63182500D01*
X307106029Y-134100000D02*
X311150000Y-138143971D01*
X251618750Y-104616250D02*
X245828851Y-104616250D01*
X361790000Y-57890000D02*
X361790000Y-60450000D01*
X257170000Y-134100000D02*
X307106029Y-134100000D01*
X311150000Y-138143971D02*
X311150000Y-142716250D01*
X238036250Y-91196250D02*
X246252500Y-99412500D01*
X381640000Y-158140000D02*
X332470000Y-158140000D01*
X332470000Y-158140000D02*
X317046250Y-142716250D01*
X242798750Y-110193306D02*
X251055444Y-118450000D01*
X261143750Y-123666250D02*
X255353851Y-123666250D01*
X246856250Y-81000221D02*
X246856250Y-85566250D01*
X252323750Y-126696351D02*
X252323750Y-129253750D01*
X317046250Y-142716250D02*
X311150000Y-142716250D01*
X246856250Y-85566250D02*
X241066351Y-85566250D01*
X237331250Y-66516250D02*
X231541351Y-66516250D01*
X241066351Y-85566250D02*
X238036250Y-88596351D01*
X251618750Y-100372721D02*
X251618750Y-104616250D01*
X238036250Y-88596351D02*
X238036250Y-91196250D01*
X245828851Y-104616250D02*
X242798750Y-107646351D01*
X242798750Y-107646351D02*
X242798750Y-110193306D01*
X240780000Y-58250000D02*
X237331250Y-61698750D01*
X245828851Y-42703750D02*
X240780000Y-47752601D01*
X236560000Y-80350000D02*
X246206029Y-80350000D01*
X251618750Y-42703750D02*
X245828851Y-42703750D01*
X228511250Y-69546351D02*
X228511250Y-72301250D01*
X250658529Y-99412500D02*
X251618750Y-100372721D01*
X228511250Y-72301250D02*
X236560000Y-80350000D01*
X261143750Y-119393750D02*
X261143750Y-123666250D01*
X237331250Y-61698750D02*
X237331250Y-66516250D01*
X231541351Y-66516250D02*
X228511250Y-69546351D01*
X240780000Y-47752601D02*
X240780000Y-58250000D01*
X255353851Y-123666250D02*
X252323750Y-126696351D01*
X246206029Y-80350000D02*
X246856250Y-81000221D01*
X246252500Y-99412500D02*
X250658529Y-99412500D01*
%TO.N,Column 12*%
X256381250Y-66516250D02*
X250591351Y-66516250D01*
X264878851Y-104616250D02*
X261848750Y-107646351D01*
X265566029Y-80330000D02*
X265906250Y-80670221D01*
X293186029Y-115560000D02*
X296862500Y-119236471D01*
X264878851Y-42703750D02*
X259790000Y-47792601D01*
X259790000Y-58443971D02*
X256381250Y-61852721D01*
X332756029Y-133700000D02*
X337343750Y-138287721D01*
X341016250Y-142716250D02*
X337343750Y-142716250D01*
X291970000Y-133700000D02*
X332756029Y-133700000D01*
X270668750Y-42703750D02*
X264878851Y-42703750D01*
X261848750Y-110308750D02*
X267100000Y-115560000D01*
X256381250Y-61852721D02*
X256381250Y-66516250D01*
X265906250Y-85566250D02*
X260116351Y-85566250D01*
X260116351Y-85566250D02*
X257086250Y-88596351D01*
X380850000Y-157540000D02*
X355840000Y-157540000D01*
X296862500Y-119236471D02*
X296862500Y-123666250D01*
X364331250Y-57838750D02*
X364331250Y-63182500D01*
X270668750Y-104616250D02*
X264878851Y-104616250D01*
X269828529Y-99412500D02*
X270668750Y-100252721D01*
X257086250Y-91156250D02*
X265342500Y-99412500D01*
X355840000Y-157540000D02*
X341016250Y-142716250D01*
X257086250Y-88596351D02*
X257086250Y-91156250D01*
X265906250Y-80670221D02*
X265906250Y-85566250D01*
X270668750Y-100252721D02*
X270668750Y-104616250D01*
X247561250Y-72093306D02*
X255797944Y-80330000D01*
X288042500Y-126696351D02*
X288042500Y-129772500D01*
X259790000Y-47792601D02*
X259790000Y-58443971D01*
X247561250Y-69546351D02*
X247561250Y-72093306D01*
X265342500Y-99412500D02*
X269828529Y-99412500D01*
X288042500Y-129772500D02*
X291970000Y-133700000D01*
X296862500Y-123666250D02*
X291072601Y-123666250D01*
X291072601Y-123666250D02*
X288042500Y-126696351D01*
X255797944Y-80330000D02*
X265566029Y-80330000D01*
X250591351Y-66516250D02*
X247561250Y-69546351D01*
X261848750Y-107646351D02*
X261848750Y-110308750D01*
X267100000Y-115560000D02*
X293186029Y-115560000D01*
X337343750Y-138287721D02*
X337343750Y-142716250D01*
%TO.N,Column 13*%
X366871250Y-57948750D02*
X366871250Y-63182500D01*
X301625000Y-99978971D02*
X301625000Y-104616250D01*
X347460000Y-126810101D02*
X347460000Y-129263971D01*
X284518529Y-80362500D02*
X284956250Y-80800221D01*
X301625000Y-104616250D02*
X295835101Y-104616250D01*
X374300000Y-156940000D02*
X360076250Y-142716250D01*
X266480000Y-71962056D02*
X274880444Y-80362500D01*
X324570000Y-120290000D02*
X326397500Y-118462500D01*
X292805000Y-110325000D02*
X300890000Y-118410000D01*
X284956250Y-85566250D02*
X279166351Y-85566250D01*
X301058529Y-99412500D02*
X301625000Y-99978971D01*
X350603851Y-123666250D02*
X347460000Y-126810101D01*
X284956250Y-80800221D02*
X284956250Y-85566250D01*
X275431250Y-61722721D02*
X275431250Y-66516250D01*
X356393750Y-119487721D02*
X356393750Y-123666250D01*
X295835101Y-104616250D02*
X292805000Y-107646351D01*
X347460000Y-129263971D02*
X356393750Y-138197721D01*
X326397500Y-118462500D02*
X355368529Y-118462500D01*
X284405444Y-99412500D02*
X301058529Y-99412500D01*
X300890000Y-118410000D02*
X308135348Y-118410000D01*
X269641351Y-66516250D02*
X266480000Y-69677601D01*
X360076250Y-142716250D02*
X356393750Y-142716250D01*
X278753750Y-58400221D02*
X275431250Y-61722721D01*
X275910000Y-88822601D02*
X275910000Y-90917056D01*
X292805000Y-107646351D02*
X292805000Y-110325000D01*
X275910000Y-90917056D02*
X284405444Y-99412500D01*
X275431250Y-66516250D02*
X269641351Y-66516250D01*
X355368529Y-118462500D02*
X356393750Y-119487721D01*
X308135348Y-118410000D02*
X310015348Y-120290000D01*
X380050000Y-156940000D02*
X374300000Y-156940000D01*
X289718750Y-42703750D02*
X283928851Y-42703750D01*
X356393750Y-123666250D02*
X350603851Y-123666250D01*
X283928851Y-42703750D02*
X278753750Y-47878851D01*
X279166351Y-85566250D02*
X275910000Y-88822601D01*
X310015348Y-120290000D02*
X324570000Y-120290000D01*
X266480000Y-69677601D02*
X266480000Y-71962056D01*
X356393750Y-138197721D02*
X356393750Y-142716250D01*
X274880444Y-80362500D02*
X284518529Y-80362500D01*
X278753750Y-47878851D02*
X278753750Y-58400221D01*
%TO.N,Column 14*%
X304006250Y-66516250D02*
X298216351Y-66516250D01*
X299870000Y-88675101D02*
X299870000Y-91230000D01*
X302978851Y-85566250D02*
X299870000Y-88675101D01*
X307741351Y-42703750D02*
X304006250Y-46438851D01*
X367693750Y-145909652D02*
X367693750Y-144676351D01*
X313531250Y-42703750D02*
X307741351Y-42703750D01*
X294690000Y-71597056D02*
X303442944Y-80350000D01*
X359392500Y-118062500D02*
X375443750Y-134113750D01*
X308768750Y-80892721D02*
X308768750Y-85566250D01*
X324790000Y-106550000D02*
X324790000Y-118062500D01*
X324790000Y-118062500D02*
X359392500Y-118062500D01*
X375443750Y-134113750D02*
X375443750Y-142716250D01*
X308768750Y-85566250D02*
X302978851Y-85566250D01*
X369653851Y-142716250D02*
X375443750Y-142716250D01*
X303442944Y-80350000D02*
X308226029Y-80350000D01*
X320692500Y-99612500D02*
X324790000Y-103710000D01*
X299870000Y-91230000D02*
X308252500Y-99612500D01*
X378124098Y-156340000D02*
X367693750Y-145909652D01*
X308252500Y-99612500D02*
X320692500Y-99612500D01*
X379310000Y-156340000D02*
X378124098Y-156340000D01*
X308226029Y-80350000D02*
X308768750Y-80892721D01*
X304006250Y-46438851D02*
X304006250Y-66516250D01*
X369411250Y-57941250D02*
X369411250Y-63182500D01*
X324790000Y-103710000D02*
X324790000Y-105120000D01*
X298216351Y-66516250D02*
X294690000Y-70042601D01*
X367693750Y-144676351D02*
X369653851Y-142716250D01*
X294690000Y-70042601D02*
X294690000Y-71597056D01*
%TO.N,E1_B*%
X326057786Y-40390000D02*
X326670000Y-40390000D01*
X324020000Y-38352214D02*
X326057786Y-40390000D01*
X345563750Y-35770000D02*
X324020000Y-35770000D01*
X350000000Y-48500000D02*
X351500000Y-47000000D01*
X351500000Y-41706250D02*
X345563750Y-35770000D01*
X324020000Y-35770000D02*
X324020000Y-38352214D01*
X351500000Y-47000000D02*
X351500000Y-41706250D01*
%TO.N,E1_SW*%
X340847000Y-49500000D02*
X340847000Y-49487000D01*
X344000626Y-49487000D02*
X344013626Y-49500000D01*
X326670000Y-42930000D02*
X333240000Y-49500000D01*
X333240000Y-49500000D02*
X340847000Y-49500000D01*
X354594244Y-51000000D02*
X357850494Y-47743750D01*
X357850494Y-47743750D02*
X364437500Y-47743750D01*
X344013626Y-49500000D02*
X345932900Y-49500000D01*
X340847000Y-49487000D02*
X344000626Y-49487000D01*
X347432900Y-51000000D02*
X354594244Y-51000000D01*
X345932900Y-49500000D02*
X347432900Y-51000000D01*
%TO.N,E1_A*%
X327760000Y-36760000D02*
X326670000Y-37850000D01*
X345153750Y-36760000D02*
X327760000Y-36760000D01*
X350000000Y-42681250D02*
X350000000Y-41606250D01*
X349937500Y-42743750D02*
X350000000Y-42681250D01*
X350000000Y-41606250D02*
X345153750Y-36760000D01*
%TO.N,E2_B*%
X345050000Y-50550000D02*
X341910000Y-50550000D01*
X342745000Y-50550000D02*
X341910000Y-50550000D01*
X367486646Y-53500000D02*
X348000000Y-53500000D01*
X367486646Y-47751907D02*
X367486646Y-53500000D01*
X348000000Y-53500000D02*
X345050000Y-50550000D01*
%TO.N,E2_SW*%
X342809000Y-53989000D02*
X341910000Y-53090000D01*
X381986646Y-48513354D02*
X376511000Y-53989000D01*
X376511000Y-53989000D02*
X342809000Y-53989000D01*
X381986646Y-47751907D02*
X381986646Y-48513354D01*
%TO.N,E2_A*%
X344179726Y-49099000D02*
X344166726Y-49086000D01*
X344166726Y-49086000D02*
X343821000Y-49086000D01*
X346099000Y-49099000D02*
X344179726Y-49099000D01*
X363751447Y-47248553D02*
X357751447Y-47248553D01*
X357751447Y-47248553D02*
X354401000Y-50599000D01*
X354401000Y-50599000D02*
X347599000Y-50599000D01*
X343821000Y-49086000D02*
X342745000Y-48010000D01*
X367486646Y-42751907D02*
X367486646Y-43513354D01*
X347599000Y-50599000D02*
X346099000Y-49099000D01*
X367486646Y-43513354D02*
X363751447Y-47248553D01*
%TO.N,I2C_SDA*%
X323410000Y-50192370D02*
X325592370Y-48010000D01*
X375500000Y-98325000D02*
X375500000Y-89500000D01*
X325592370Y-48010000D02*
X326670000Y-48010000D01*
X357837500Y-89412500D02*
X357250000Y-90000000D01*
X378621000Y-66745150D02*
X378621000Y-86946100D01*
X358865250Y-88401000D02*
X358133125Y-89133125D01*
X375500000Y-89500000D02*
X375089375Y-89089375D01*
X377000000Y-63213750D02*
X377000000Y-65124150D01*
X349065615Y-90000000D02*
X347850000Y-88784385D01*
X377000000Y-65124150D02*
X378621000Y-66745150D01*
X375089375Y-89089375D02*
X358176875Y-89089375D01*
X377031250Y-63182500D02*
X377000000Y-63213750D01*
X358133125Y-89133125D02*
X357853750Y-89412500D01*
X323410000Y-54970000D02*
X323410000Y-50192370D01*
X378621000Y-86946100D02*
X377166100Y-88401000D01*
X358176875Y-89089375D02*
X357853750Y-89412500D01*
X357853750Y-89412500D02*
X357837500Y-89412500D01*
X376675000Y-99500000D02*
X375500000Y-98325000D01*
X347850000Y-88784385D02*
X347850000Y-86650000D01*
X377166100Y-88401000D02*
X358865250Y-88401000D01*
X357250000Y-90000000D02*
X349065615Y-90000000D01*
%TO.N,I2C_SCL*%
X322400000Y-53950000D02*
X322400000Y-49127786D01*
X350790000Y-86250000D02*
X354750000Y-86250000D01*
X378220000Y-66911250D02*
X374491250Y-63182500D01*
X355313750Y-86813750D02*
X355313750Y-88000000D01*
X381000000Y-101412500D02*
X381000000Y-63049250D01*
X322400000Y-49127786D02*
X324579786Y-46948000D01*
X354750000Y-86250000D02*
X355313750Y-86813750D01*
X381000000Y-63049250D02*
X378182250Y-60231500D01*
X375880250Y-60231500D02*
X374491250Y-61620500D01*
X378182250Y-60231500D02*
X375880250Y-60231500D01*
X327732000Y-49488000D02*
X326670000Y-50550000D01*
X378220000Y-86780000D02*
X378220000Y-66911250D01*
X327109895Y-46948000D02*
X327732000Y-47570105D01*
X355313750Y-88000000D02*
X377000000Y-88000000D01*
X378412500Y-104000000D02*
X381000000Y-101412500D01*
X324579786Y-46948000D02*
X327109895Y-46948000D01*
X377000000Y-88000000D02*
X378220000Y-86780000D01*
X374491250Y-61620500D02*
X374491250Y-63182500D01*
X327732000Y-47570105D02*
X327732000Y-49488000D01*
%TD*%
M02*
