ISO-10303-21;
HEADER;
/* Generated by software containing ST-Developer
 * from STEP Tools, Inc. (www.steptools.com) 
 */

FILE_DESCRIPTION(
/* description */ (''),
/* implementation_level */ '2;1');

FILE_NAME(
/* name */ 'CapyBoard Bottom.step',
/* time_stamp */ '2026-03-21T20:55:57-04:00',
/* author */ (''),
/* organization */ (''),
/* preprocessor_version */ 'ST-DEVELOPER v20.1',
/* originating_system */ 'Autodesk Translation Framework v14.10.0.0',
/* authorisation */ '');

FILE_SCHEMA (('AUTOMOTIVE_DESIGN { 1 0 10303 214 3 1 1 }'));
ENDSEC;

DATA;
#10=MECHANICAL_DESIGN_GEOMETRIC_PRESENTATION_REPRESENTATION('',(#13),#981);
#11=SHAPE_REPRESENTATION_RELATIONSHIP('SRR','None',#988,#12);
#12=ADVANCED_BREP_SHAPE_REPRESENTATION('',(#14),#980);
#13=STYLED_ITEM('',(#997),#14);
#14=MANIFOLD_SOLID_BREP('Body1',#565);
#15=FACE_BOUND('',#89,.T.);
#16=FACE_BOUND('',#90,.T.);
#17=FACE_BOUND('',#91,.T.);
#18=FACE_BOUND('',#92,.T.);
#19=FACE_BOUND('',#101,.T.);
#20=FACE_BOUND('',#103,.T.);
#21=FACE_BOUND('',#104,.T.);
#22=FACE_BOUND('',#105,.T.);
#23=FACE_BOUND('',#106,.T.);
#24=FACE_BOUND('',#110,.T.);
#25=FACE_BOUND('',#115,.T.);
#26=FACE_BOUND('',#120,.T.);
#27=FACE_BOUND('',#133,.T.);
#28=FACE_BOUND('',#134,.T.);
#29=FACE_BOUND('',#135,.T.);
#30=FACE_BOUND('',#136,.T.);
#31=FACE_BOUND('',#137,.T.);
#32=PLANE('',#582);
#33=PLANE('',#583);
#34=PLANE('',#593);
#35=PLANE('',#596);
#36=PLANE('',#605);
#37=PLANE('',#606);
#38=PLANE('',#615);
#39=PLANE('',#616);
#40=PLANE('',#622);
#41=PLANE('',#623);
#42=PLANE('',#629);
#43=PLANE('',#630);
#44=PLANE('',#631);
#45=PLANE('',#632);
#46=PLANE('',#633);
#47=PLANE('',#638);
#48=PLANE('',#639);
#49=PLANE('',#644);
#50=PLANE('',#645);
#51=FACE_OUTER_BOUND('',#86,.T.);
#52=FACE_OUTER_BOUND('',#87,.T.);
#53=FACE_OUTER_BOUND('',#88,.T.);
#54=FACE_OUTER_BOUND('',#93,.T.);
#55=FACE_OUTER_BOUND('',#94,.T.);
#56=FACE_OUTER_BOUND('',#95,.T.);
#57=FACE_OUTER_BOUND('',#96,.T.);
#58=FACE_OUTER_BOUND('',#97,.T.);
#59=FACE_OUTER_BOUND('',#98,.T.);
#60=FACE_OUTER_BOUND('',#99,.T.);
#61=FACE_OUTER_BOUND('',#100,.T.);
#62=FACE_OUTER_BOUND('',#102,.T.);
#63=FACE_OUTER_BOUND('',#107,.T.);
#64=FACE_OUTER_BOUND('',#108,.T.);
#65=FACE_OUTER_BOUND('',#109,.T.);
#66=FACE_OUTER_BOUND('',#111,.T.);
#67=FACE_OUTER_BOUND('',#112,.T.);
#68=FACE_OUTER_BOUND('',#113,.T.);
#69=FACE_OUTER_BOUND('',#114,.T.);
#70=FACE_OUTER_BOUND('',#116,.T.);
#71=FACE_OUTER_BOUND('',#117,.T.);
#72=FACE_OUTER_BOUND('',#118,.T.);
#73=FACE_OUTER_BOUND('',#119,.T.);
#74=FACE_OUTER_BOUND('',#121,.T.);
#75=FACE_OUTER_BOUND('',#122,.T.);
#76=FACE_OUTER_BOUND('',#123,.T.);
#77=FACE_OUTER_BOUND('',#124,.T.);
#78=FACE_OUTER_BOUND('',#125,.T.);
#79=FACE_OUTER_BOUND('',#126,.T.);
#80=FACE_OUTER_BOUND('',#127,.T.);
#81=FACE_OUTER_BOUND('',#128,.T.);
#82=FACE_OUTER_BOUND('',#129,.T.);
#83=FACE_OUTER_BOUND('',#130,.T.);
#84=FACE_OUTER_BOUND('',#131,.T.);
#85=FACE_OUTER_BOUND('',#132,.T.);
#86=EDGE_LOOP('',(#370,#371,#372,#373));
#87=EDGE_LOOP('',(#374,#375,#376,#377));
#88=EDGE_LOOP('',(#378,#379,#380,#381,#382,#383,#384,#385));
#89=EDGE_LOOP('',(#386));
#90=EDGE_LOOP('',(#387));
#91=EDGE_LOOP('',(#388));
#92=EDGE_LOOP('',(#389));
#93=EDGE_LOOP('',(#390,#391,#392,#393));
#94=EDGE_LOOP('',(#394,#395,#396,#397));
#95=EDGE_LOOP('',(#398,#399,#400,#401));
#96=EDGE_LOOP('',(#402,#403,#404,#405));
#97=EDGE_LOOP('',(#406,#407,#408,#409));
#98=EDGE_LOOP('',(#410,#411,#412,#413));
#99=EDGE_LOOP('',(#414,#415,#416,#417));
#100=EDGE_LOOP('',(#418));
#101=EDGE_LOOP('',(#419));
#102=EDGE_LOOP('',(#420,#421,#422,#423));
#103=EDGE_LOOP('',(#424));
#104=EDGE_LOOP('',(#425));
#105=EDGE_LOOP('',(#426));
#106=EDGE_LOOP('',(#427));
#107=EDGE_LOOP('',(#428,#429,#430,#431));
#108=EDGE_LOOP('',(#432,#433,#434,#435));
#109=EDGE_LOOP('',(#436));
#110=EDGE_LOOP('',(#437));
#111=EDGE_LOOP('',(#438));
#112=EDGE_LOOP('',(#439,#440,#441,#442));
#113=EDGE_LOOP('',(#443,#444,#445,#446));
#114=EDGE_LOOP('',(#447));
#115=EDGE_LOOP('',(#448));
#116=EDGE_LOOP('',(#449));
#117=EDGE_LOOP('',(#450,#451,#452,#453));
#118=EDGE_LOOP('',(#454,#455,#456,#457));
#119=EDGE_LOOP('',(#458));
#120=EDGE_LOOP('',(#459));
#121=EDGE_LOOP('',(#460));
#122=EDGE_LOOP('',(#461));
#123=EDGE_LOOP('',(#462,#463,#464,#465));
#124=EDGE_LOOP('',(#466,#467,#468,#469));
#125=EDGE_LOOP('',(#470,#471,#472,#473));
#126=EDGE_LOOP('',(#474,#475,#476,#477));
#127=EDGE_LOOP('',(#478,#479,#480,#481));
#128=EDGE_LOOP('',(#482,#483,#484,#485));
#129=EDGE_LOOP('',(#486,#487,#488,#489));
#130=EDGE_LOOP('',(#490,#491,#492,#493));
#131=EDGE_LOOP('',(#494,#495,#496,#497));
#132=EDGE_LOOP('',(#498,#499,#500,#501,#502,#503,#504,#505));
#133=EDGE_LOOP('',(#506));
#134=EDGE_LOOP('',(#507));
#135=EDGE_LOOP('',(#508,#509,#510,#511));
#136=EDGE_LOOP('',(#512));
#137=EDGE_LOOP('',(#513));
#138=LINE('',#828,#178);
#139=LINE('',#831,#179);
#140=LINE('',#834,#180);
#141=LINE('',#836,#181);
#142=LINE('',#837,#182);
#143=LINE('',#840,#183);
#144=LINE('',#844,#184);
#145=LINE('',#848,#185);
#146=LINE('',#861,#186);
#147=LINE('',#864,#187);
#148=LINE('',#865,#188);
#149=LINE('',#869,#189);
#150=LINE('',#872,#190);
#151=LINE('',#873,#191);
#152=LINE('',#877,#192);
#153=LINE('',#882,#193);
#154=LINE('',#888,#194);
#155=LINE('',#894,#195);
#156=LINE('',#896,#196);
#157=LINE('',#898,#197);
#158=LINE('',#899,#198);
#159=LINE('',#910,#199);
#160=LINE('',#915,#200);
#161=LINE('',#922,#201);
#162=LINE('',#927,#202);
#163=LINE('',#934,#203);
#164=LINE('',#939,#204);
#165=LINE('',#945,#205);
#166=LINE('',#947,#206);
#167=LINE('',#948,#207);
#168=LINE('',#951,#208);
#169=LINE('',#952,#209);
#170=LINE('',#956,#210);
#171=LINE('',#960,#211);
#172=LINE('',#963,#212);
#173=LINE('',#964,#213);
#174=LINE('',#966,#214);
#175=LINE('',#970,#215);
#176=LINE('',#974,#216);
#177=LINE('',#976,#217);
#178=VECTOR('',#652,10.);
#179=VECTOR('',#655,10.);
#180=VECTOR('',#658,10.);
#181=VECTOR('',#659,10.);
#182=VECTOR('',#660,10.);
#183=VECTOR('',#663,10.);
#184=VECTOR('',#666,10.);
#185=VECTOR('',#669,10.);
#186=VECTOR('',#684,10.);
#187=VECTOR('',#687,10.);
#188=VECTOR('',#688,10.);
#189=VECTOR('',#693,10.);
#190=VECTOR('',#696,10.);
#191=VECTOR('',#697,10.);
#192=VECTOR('',#702,10.);
#193=VECTOR('',#707,1.30000000000003);
#194=VECTOR('',#714,3.29999999999998);
#195=VECTOR('',#721,10.);
#196=VECTOR('',#722,10.);
#197=VECTOR('',#723,10.);
#198=VECTOR('',#724,10.);
#199=VECTOR('',#735,1.3);
#200=VECTOR('',#742,3.3);
#201=VECTOR('',#751,1.30000000000003);
#202=VECTOR('',#758,3.29999999999998);
#203=VECTOR('',#767,1.3);
#204=VECTOR('',#774,3.3);
#205=VECTOR('',#783,10.);
#206=VECTOR('',#784,10.);
#207=VECTOR('',#785,10.);
#208=VECTOR('',#788,10.);
#209=VECTOR('',#789,10.);
#210=VECTOR('',#794,1.45);
#211=VECTOR('',#799,1.45000000000003);
#212=VECTOR('',#802,10.);
#213=VECTOR('',#803,10.);
#214=VECTOR('',#806,10.);
#215=VECTOR('',#811,1.45000000000003);
#216=VECTOR('',#816,1.45);
#217=VECTOR('',#819,10.);
#218=CIRCLE('',#580,4.);
#219=CIRCLE('',#581,4.);
#220=CIRCLE('',#584,4.);
#221=CIRCLE('',#585,4.);
#222=CIRCLE('',#586,4.);
#223=CIRCLE('',#587,1.45);
#224=CIRCLE('',#588,1.45000000000003);
#225=CIRCLE('',#589,1.45000000000003);
#226=CIRCLE('',#590,1.45);
#227=CIRCLE('',#592,4.);
#228=CIRCLE('',#595,4.);
#229=CIRCLE('',#598,4.);
#230=CIRCLE('',#600,1.30000000000003);
#231=CIRCLE('',#601,1.30000000000003);
#232=CIRCLE('',#603,3.29999999999998);
#233=CIRCLE('',#604,3.29999999999998);
#234=CIRCLE('',#607,3.3);
#235=CIRCLE('',#608,3.3);
#236=CIRCLE('',#609,3.29999999999998);
#237=CIRCLE('',#611,1.3);
#238=CIRCLE('',#612,1.3);
#239=CIRCLE('',#614,3.3);
#240=CIRCLE('',#618,1.30000000000003);
#241=CIRCLE('',#619,1.30000000000003);
#242=CIRCLE('',#621,3.29999999999998);
#243=CIRCLE('',#625,1.3);
#244=CIRCLE('',#626,1.3);
#245=CIRCLE('',#628,3.3);
#246=CIRCLE('',#635,1.45);
#247=CIRCLE('',#637,1.45000000000003);
#248=CIRCLE('',#641,1.45000000000003);
#249=CIRCLE('',#643,1.45);
#250=VERTEX_POINT('',#824);
#251=VERTEX_POINT('',#825);
#252=VERTEX_POINT('',#827);
#253=VERTEX_POINT('',#829);
#254=VERTEX_POINT('',#833);
#255=VERTEX_POINT('',#835);
#256=VERTEX_POINT('',#839);
#257=VERTEX_POINT('',#841);
#258=VERTEX_POINT('',#843);
#259=VERTEX_POINT('',#845);
#260=VERTEX_POINT('',#847);
#261=VERTEX_POINT('',#850);
#262=VERTEX_POINT('',#852);
#263=VERTEX_POINT('',#854);
#264=VERTEX_POINT('',#856);
#265=VERTEX_POINT('',#859);
#266=VERTEX_POINT('',#863);
#267=VERTEX_POINT('',#867);
#268=VERTEX_POINT('',#871);
#269=VERTEX_POINT('',#875);
#270=VERTEX_POINT('',#879);
#271=VERTEX_POINT('',#881);
#272=VERTEX_POINT('',#885);
#273=VERTEX_POINT('',#887);
#274=VERTEX_POINT('',#892);
#275=VERTEX_POINT('',#893);
#276=VERTEX_POINT('',#895);
#277=VERTEX_POINT('',#897);
#278=VERTEX_POINT('',#900);
#279=VERTEX_POINT('',#902);
#280=VERTEX_POINT('',#904);
#281=VERTEX_POINT('',#907);
#282=VERTEX_POINT('',#909);
#283=VERTEX_POINT('',#913);
#284=VERTEX_POINT('',#919);
#285=VERTEX_POINT('',#921);
#286=VERTEX_POINT('',#925);
#287=VERTEX_POINT('',#931);
#288=VERTEX_POINT('',#933);
#289=VERTEX_POINT('',#937);
#290=VERTEX_POINT('',#944);
#291=VERTEX_POINT('',#946);
#292=VERTEX_POINT('',#950);
#293=VERTEX_POINT('',#954);
#294=VERTEX_POINT('',#958);
#295=VERTEX_POINT('',#962);
#296=VERTEX_POINT('',#968);
#297=VERTEX_POINT('',#972);
#298=EDGE_CURVE('',#250,#251,#218,.T.);
#299=EDGE_CURVE('',#251,#252,#138,.T.);
#300=EDGE_CURVE('',#252,#253,#219,.T.);
#301=EDGE_CURVE('',#253,#250,#139,.T.);
#302=EDGE_CURVE('',#253,#254,#140,.T.);
#303=EDGE_CURVE('',#255,#254,#141,.T.);
#304=EDGE_CURVE('',#250,#255,#142,.T.);
#305=EDGE_CURVE('',#256,#252,#143,.T.);
#306=EDGE_CURVE('',#257,#256,#220,.T.);
#307=EDGE_CURVE('',#258,#257,#144,.T.);
#308=EDGE_CURVE('',#259,#258,#221,.T.);
#309=EDGE_CURVE('',#260,#259,#145,.T.);
#310=EDGE_CURVE('',#254,#260,#222,.T.);
#311=EDGE_CURVE('',#261,#261,#223,.T.);
#312=EDGE_CURVE('',#262,#262,#224,.T.);
#313=EDGE_CURVE('',#263,#263,#225,.T.);
#314=EDGE_CURVE('',#264,#264,#226,.T.);
#315=EDGE_CURVE('',#265,#255,#227,.T.);
#316=EDGE_CURVE('',#260,#265,#146,.T.);
#317=EDGE_CURVE('',#266,#259,#147,.T.);
#318=EDGE_CURVE('',#265,#266,#148,.T.);
#319=EDGE_CURVE('',#267,#266,#228,.T.);
#320=EDGE_CURVE('',#258,#267,#149,.T.);
#321=EDGE_CURVE('',#268,#257,#150,.T.);
#322=EDGE_CURVE('',#267,#268,#151,.T.);
#323=EDGE_CURVE('',#269,#268,#229,.T.);
#324=EDGE_CURVE('',#256,#269,#152,.T.);
#325=EDGE_CURVE('',#270,#270,#230,.T.);
#326=EDGE_CURVE('',#270,#271,#153,.T.);
#327=EDGE_CURVE('',#271,#271,#231,.T.);
#328=EDGE_CURVE('',#272,#272,#232,.T.);
#329=EDGE_CURVE('',#272,#273,#154,.T.);
#330=EDGE_CURVE('',#273,#273,#233,.T.);
#331=EDGE_CURVE('',#274,#275,#155,.T.);
#332=EDGE_CURVE('',#276,#274,#156,.T.);
#333=EDGE_CURVE('',#277,#276,#157,.T.);
#334=EDGE_CURVE('',#275,#277,#158,.T.);
#335=EDGE_CURVE('',#278,#278,#234,.T.);
#336=EDGE_CURVE('',#279,#279,#235,.T.);
#337=EDGE_CURVE('',#280,#280,#236,.T.);
#338=EDGE_CURVE('',#281,#281,#237,.T.);
#339=EDGE_CURVE('',#281,#282,#159,.T.);
#340=EDGE_CURVE('',#282,#282,#238,.T.);
#341=EDGE_CURVE('',#283,#283,#239,.T.);
#342=EDGE_CURVE('',#283,#278,#160,.T.);
#343=EDGE_CURVE('',#284,#284,#240,.T.);
#344=EDGE_CURVE('',#284,#285,#161,.T.);
#345=EDGE_CURVE('',#285,#285,#241,.T.);
#346=EDGE_CURVE('',#286,#286,#242,.T.);
#347=EDGE_CURVE('',#286,#280,#162,.T.);
#348=EDGE_CURVE('',#287,#287,#243,.T.);
#349=EDGE_CURVE('',#287,#288,#163,.T.);
#350=EDGE_CURVE('',#288,#288,#244,.T.);
#351=EDGE_CURVE('',#289,#289,#245,.T.);
#352=EDGE_CURVE('',#289,#279,#164,.T.);
#353=EDGE_CURVE('',#276,#290,#165,.T.);
#354=EDGE_CURVE('',#291,#290,#166,.T.);
#355=EDGE_CURVE('',#277,#291,#167,.T.);
#356=EDGE_CURVE('',#274,#292,#168,.T.);
#357=EDGE_CURVE('',#290,#292,#169,.T.);
#358=EDGE_CURVE('',#293,#293,#246,.T.);
#359=EDGE_CURVE('',#293,#264,#170,.T.);
#360=EDGE_CURVE('',#294,#294,#247,.T.);
#361=EDGE_CURVE('',#294,#263,#171,.T.);
#362=EDGE_CURVE('',#295,#291,#172,.T.);
#363=EDGE_CURVE('',#275,#295,#173,.T.);
#364=EDGE_CURVE('',#292,#295,#174,.T.);
#365=EDGE_CURVE('',#296,#296,#248,.T.);
#366=EDGE_CURVE('',#296,#262,#175,.T.);
#367=EDGE_CURVE('',#297,#297,#249,.T.);
#368=EDGE_CURVE('',#297,#261,#176,.T.);
#369=EDGE_CURVE('',#269,#251,#177,.T.);
#370=ORIENTED_EDGE('',*,*,#298,.T.);
#371=ORIENTED_EDGE('',*,*,#299,.T.);
#372=ORIENTED_EDGE('',*,*,#300,.T.);
#373=ORIENTED_EDGE('',*,*,#301,.T.);
#374=ORIENTED_EDGE('',*,*,#301,.F.);
#375=ORIENTED_EDGE('',*,*,#302,.T.);
#376=ORIENTED_EDGE('',*,*,#303,.F.);
#377=ORIENTED_EDGE('',*,*,#304,.F.);
#378=ORIENTED_EDGE('',*,*,#300,.F.);
#379=ORIENTED_EDGE('',*,*,#305,.F.);
#380=ORIENTED_EDGE('',*,*,#306,.F.);
#381=ORIENTED_EDGE('',*,*,#307,.F.);
#382=ORIENTED_EDGE('',*,*,#308,.F.);
#383=ORIENTED_EDGE('',*,*,#309,.F.);
#384=ORIENTED_EDGE('',*,*,#310,.F.);
#385=ORIENTED_EDGE('',*,*,#302,.F.);
#386=ORIENTED_EDGE('',*,*,#311,.F.);
#387=ORIENTED_EDGE('',*,*,#312,.F.);
#388=ORIENTED_EDGE('',*,*,#313,.F.);
#389=ORIENTED_EDGE('',*,*,#314,.F.);
#390=ORIENTED_EDGE('',*,*,#315,.T.);
#391=ORIENTED_EDGE('',*,*,#303,.T.);
#392=ORIENTED_EDGE('',*,*,#310,.T.);
#393=ORIENTED_EDGE('',*,*,#316,.T.);
#394=ORIENTED_EDGE('',*,*,#316,.F.);
#395=ORIENTED_EDGE('',*,*,#309,.T.);
#396=ORIENTED_EDGE('',*,*,#317,.F.);
#397=ORIENTED_EDGE('',*,*,#318,.F.);
#398=ORIENTED_EDGE('',*,*,#319,.T.);
#399=ORIENTED_EDGE('',*,*,#317,.T.);
#400=ORIENTED_EDGE('',*,*,#308,.T.);
#401=ORIENTED_EDGE('',*,*,#320,.T.);
#402=ORIENTED_EDGE('',*,*,#320,.F.);
#403=ORIENTED_EDGE('',*,*,#307,.T.);
#404=ORIENTED_EDGE('',*,*,#321,.F.);
#405=ORIENTED_EDGE('',*,*,#322,.F.);
#406=ORIENTED_EDGE('',*,*,#323,.T.);
#407=ORIENTED_EDGE('',*,*,#321,.T.);
#408=ORIENTED_EDGE('',*,*,#306,.T.);
#409=ORIENTED_EDGE('',*,*,#324,.T.);
#410=ORIENTED_EDGE('',*,*,#325,.F.);
#411=ORIENTED_EDGE('',*,*,#326,.T.);
#412=ORIENTED_EDGE('',*,*,#327,.F.);
#413=ORIENTED_EDGE('',*,*,#326,.F.);
#414=ORIENTED_EDGE('',*,*,#328,.F.);
#415=ORIENTED_EDGE('',*,*,#329,.T.);
#416=ORIENTED_EDGE('',*,*,#330,.F.);
#417=ORIENTED_EDGE('',*,*,#329,.F.);
#418=ORIENTED_EDGE('',*,*,#328,.T.);
#419=ORIENTED_EDGE('',*,*,#325,.T.);
#420=ORIENTED_EDGE('',*,*,#331,.F.);
#421=ORIENTED_EDGE('',*,*,#332,.F.);
#422=ORIENTED_EDGE('',*,*,#333,.F.);
#423=ORIENTED_EDGE('',*,*,#334,.F.);
#424=ORIENTED_EDGE('',*,*,#335,.T.);
#425=ORIENTED_EDGE('',*,*,#336,.T.);
#426=ORIENTED_EDGE('',*,*,#337,.T.);
#427=ORIENTED_EDGE('',*,*,#330,.T.);
#428=ORIENTED_EDGE('',*,*,#338,.F.);
#429=ORIENTED_EDGE('',*,*,#339,.T.);
#430=ORIENTED_EDGE('',*,*,#340,.F.);
#431=ORIENTED_EDGE('',*,*,#339,.F.);
#432=ORIENTED_EDGE('',*,*,#341,.F.);
#433=ORIENTED_EDGE('',*,*,#342,.T.);
#434=ORIENTED_EDGE('',*,*,#335,.F.);
#435=ORIENTED_EDGE('',*,*,#342,.F.);
#436=ORIENTED_EDGE('',*,*,#341,.T.);
#437=ORIENTED_EDGE('',*,*,#338,.T.);
#438=ORIENTED_EDGE('',*,*,#327,.T.);
#439=ORIENTED_EDGE('',*,*,#343,.F.);
#440=ORIENTED_EDGE('',*,*,#344,.T.);
#441=ORIENTED_EDGE('',*,*,#345,.F.);
#442=ORIENTED_EDGE('',*,*,#344,.F.);
#443=ORIENTED_EDGE('',*,*,#346,.F.);
#444=ORIENTED_EDGE('',*,*,#347,.T.);
#445=ORIENTED_EDGE('',*,*,#337,.F.);
#446=ORIENTED_EDGE('',*,*,#347,.F.);
#447=ORIENTED_EDGE('',*,*,#346,.T.);
#448=ORIENTED_EDGE('',*,*,#343,.T.);
#449=ORIENTED_EDGE('',*,*,#340,.T.);
#450=ORIENTED_EDGE('',*,*,#348,.F.);
#451=ORIENTED_EDGE('',*,*,#349,.T.);
#452=ORIENTED_EDGE('',*,*,#350,.F.);
#453=ORIENTED_EDGE('',*,*,#349,.F.);
#454=ORIENTED_EDGE('',*,*,#351,.F.);
#455=ORIENTED_EDGE('',*,*,#352,.T.);
#456=ORIENTED_EDGE('',*,*,#336,.F.);
#457=ORIENTED_EDGE('',*,*,#352,.F.);
#458=ORIENTED_EDGE('',*,*,#351,.T.);
#459=ORIENTED_EDGE('',*,*,#348,.T.);
#460=ORIENTED_EDGE('',*,*,#345,.T.);
#461=ORIENTED_EDGE('',*,*,#350,.T.);
#462=ORIENTED_EDGE('',*,*,#333,.T.);
#463=ORIENTED_EDGE('',*,*,#353,.T.);
#464=ORIENTED_EDGE('',*,*,#354,.F.);
#465=ORIENTED_EDGE('',*,*,#355,.F.);
#466=ORIENTED_EDGE('',*,*,#332,.T.);
#467=ORIENTED_EDGE('',*,*,#356,.T.);
#468=ORIENTED_EDGE('',*,*,#357,.F.);
#469=ORIENTED_EDGE('',*,*,#353,.F.);
#470=ORIENTED_EDGE('',*,*,#358,.F.);
#471=ORIENTED_EDGE('',*,*,#359,.T.);
#472=ORIENTED_EDGE('',*,*,#314,.T.);
#473=ORIENTED_EDGE('',*,*,#359,.F.);
#474=ORIENTED_EDGE('',*,*,#360,.F.);
#475=ORIENTED_EDGE('',*,*,#361,.T.);
#476=ORIENTED_EDGE('',*,*,#313,.T.);
#477=ORIENTED_EDGE('',*,*,#361,.F.);
#478=ORIENTED_EDGE('',*,*,#334,.T.);
#479=ORIENTED_EDGE('',*,*,#355,.T.);
#480=ORIENTED_EDGE('',*,*,#362,.F.);
#481=ORIENTED_EDGE('',*,*,#363,.F.);
#482=ORIENTED_EDGE('',*,*,#331,.T.);
#483=ORIENTED_EDGE('',*,*,#363,.T.);
#484=ORIENTED_EDGE('',*,*,#364,.F.);
#485=ORIENTED_EDGE('',*,*,#356,.F.);
#486=ORIENTED_EDGE('',*,*,#365,.F.);
#487=ORIENTED_EDGE('',*,*,#366,.T.);
#488=ORIENTED_EDGE('',*,*,#312,.T.);
#489=ORIENTED_EDGE('',*,*,#366,.F.);
#490=ORIENTED_EDGE('',*,*,#367,.F.);
#491=ORIENTED_EDGE('',*,*,#368,.T.);
#492=ORIENTED_EDGE('',*,*,#311,.T.);
#493=ORIENTED_EDGE('',*,*,#368,.F.);
#494=ORIENTED_EDGE('',*,*,#299,.F.);
#495=ORIENTED_EDGE('',*,*,#369,.F.);
#496=ORIENTED_EDGE('',*,*,#324,.F.);
#497=ORIENTED_EDGE('',*,*,#305,.T.);
#498=ORIENTED_EDGE('',*,*,#298,.F.);
#499=ORIENTED_EDGE('',*,*,#304,.T.);
#500=ORIENTED_EDGE('',*,*,#315,.F.);
#501=ORIENTED_EDGE('',*,*,#318,.T.);
#502=ORIENTED_EDGE('',*,*,#319,.F.);
#503=ORIENTED_EDGE('',*,*,#322,.T.);
#504=ORIENTED_EDGE('',*,*,#323,.F.);
#505=ORIENTED_EDGE('',*,*,#369,.T.);
#506=ORIENTED_EDGE('',*,*,#367,.T.);
#507=ORIENTED_EDGE('',*,*,#365,.T.);
#508=ORIENTED_EDGE('',*,*,#354,.T.);
#509=ORIENTED_EDGE('',*,*,#357,.T.);
#510=ORIENTED_EDGE('',*,*,#364,.T.);
#511=ORIENTED_EDGE('',*,*,#362,.T.);
#512=ORIENTED_EDGE('',*,*,#360,.T.);
#513=ORIENTED_EDGE('',*,*,#358,.T.);
#514=CYLINDRICAL_SURFACE('',#579,4.);
#515=CYLINDRICAL_SURFACE('',#591,4.);
#516=CYLINDRICAL_SURFACE('',#594,4.);
#517=CYLINDRICAL_SURFACE('',#597,4.);
#518=CYLINDRICAL_SURFACE('',#599,1.30000000000003);
#519=CYLINDRICAL_SURFACE('',#602,3.29999999999998);
#520=CYLINDRICAL_SURFACE('',#610,1.3);
#521=CYLINDRICAL_SURFACE('',#613,3.3);
#522=CYLINDRICAL_SURFACE('',#617,1.30000000000003);
#523=CYLINDRICAL_SURFACE('',#620,3.29999999999998);
#524=CYLINDRICAL_SURFACE('',#624,1.3);
#525=CYLINDRICAL_SURFACE('',#627,3.3);
#526=CYLINDRICAL_SURFACE('',#634,1.45);
#527=CYLINDRICAL_SURFACE('',#636,1.45000000000003);
#528=CYLINDRICAL_SURFACE('',#640,1.45000000000003);
#529=CYLINDRICAL_SURFACE('',#642,1.45);
#530=ADVANCED_FACE('',(#51),#514,.T.);
#531=ADVANCED_FACE('',(#52),#32,.T.);
#532=ADVANCED_FACE('',(#53,#15,#16,#17,#18),#33,.F.);
#533=ADVANCED_FACE('',(#54),#515,.T.);
#534=ADVANCED_FACE('',(#55),#34,.T.);
#535=ADVANCED_FACE('',(#56),#516,.T.);
#536=ADVANCED_FACE('',(#57),#35,.T.);
#537=ADVANCED_FACE('',(#58),#517,.T.);
#538=ADVANCED_FACE('',(#59),#518,.F.);
#539=ADVANCED_FACE('',(#60),#519,.T.);
#540=ADVANCED_FACE('',(#61,#19),#36,.T.);
#541=ADVANCED_FACE('',(#62,#20,#21,#22,#23),#37,.T.);
#542=ADVANCED_FACE('',(#63),#520,.F.);
#543=ADVANCED_FACE('',(#64),#521,.T.);
#544=ADVANCED_FACE('',(#65,#24),#38,.T.);
#545=ADVANCED_FACE('',(#66),#39,.T.);
#546=ADVANCED_FACE('',(#67),#522,.F.);
#547=ADVANCED_FACE('',(#68),#523,.T.);
#548=ADVANCED_FACE('',(#69,#25),#40,.T.);
#549=ADVANCED_FACE('',(#70),#41,.T.);
#550=ADVANCED_FACE('',(#71),#524,.F.);
#551=ADVANCED_FACE('',(#72),#525,.T.);
#552=ADVANCED_FACE('',(#73,#26),#42,.T.);
#553=ADVANCED_FACE('',(#74),#43,.T.);
#554=ADVANCED_FACE('',(#75),#44,.T.);
#555=ADVANCED_FACE('',(#76),#45,.T.);
#556=ADVANCED_FACE('',(#77),#46,.T.);
#557=ADVANCED_FACE('',(#78),#526,.F.);
#558=ADVANCED_FACE('',(#79),#527,.F.);
#559=ADVANCED_FACE('',(#80),#47,.T.);
#560=ADVANCED_FACE('',(#81),#48,.T.);
#561=ADVANCED_FACE('',(#82),#528,.F.);
#562=ADVANCED_FACE('',(#83),#529,.F.);
#563=ADVANCED_FACE('',(#84),#49,.T.);
#564=ADVANCED_FACE('',(#85,#27,#28,#29,#30,#31),#50,.T.);
#565=CLOSED_SHELL('',(#530,#531,#532,#533,#534,#535,#536,#537,#538,#539,
#540,#541,#542,#543,#544,#545,#546,#547,#548,#549,#550,#551,#552,#553,#554,
#555,#556,#557,#558,#559,#560,#561,#562,#563,#564));
#566=DERIVED_UNIT_ELEMENT(#568,1.);
#567=DERIVED_UNIT_ELEMENT(#983,-3.);
#568=(
MASS_UNIT()
NAMED_UNIT(*)
SI_UNIT(.KILO.,.GRAM.)
);
#569=DERIVED_UNIT((#566,#567));
#570=MEASURE_REPRESENTATION_ITEM('density measure',
POSITIVE_RATIO_MEASURE(7850.),#569);
#571=PROPERTY_DEFINITION_REPRESENTATION(#576,#573);
#572=PROPERTY_DEFINITION_REPRESENTATION(#577,#574);
#573=REPRESENTATION('material name',(#575),#980);
#574=REPRESENTATION('density',(#570),#980);
#575=DESCRIPTIVE_REPRESENTATION_ITEM('Steel','Steel');
#576=PROPERTY_DEFINITION('material property','material name',#990);
#577=PROPERTY_DEFINITION('material property','density of part',#990);
#578=AXIS2_PLACEMENT_3D('',#822,#646,#647);
#579=AXIS2_PLACEMENT_3D('',#823,#648,#649);
#580=AXIS2_PLACEMENT_3D('',#826,#650,#651);
#581=AXIS2_PLACEMENT_3D('',#830,#653,#654);
#582=AXIS2_PLACEMENT_3D('',#832,#656,#657);
#583=AXIS2_PLACEMENT_3D('',#838,#661,#662);
#584=AXIS2_PLACEMENT_3D('',#842,#664,#665);
#585=AXIS2_PLACEMENT_3D('',#846,#667,#668);
#586=AXIS2_PLACEMENT_3D('',#849,#670,#671);
#587=AXIS2_PLACEMENT_3D('',#851,#672,#673);
#588=AXIS2_PLACEMENT_3D('',#853,#674,#675);
#589=AXIS2_PLACEMENT_3D('',#855,#676,#677);
#590=AXIS2_PLACEMENT_3D('',#857,#678,#679);
#591=AXIS2_PLACEMENT_3D('',#858,#680,#681);
#592=AXIS2_PLACEMENT_3D('',#860,#682,#683);
#593=AXIS2_PLACEMENT_3D('',#862,#685,#686);
#594=AXIS2_PLACEMENT_3D('',#866,#689,#690);
#595=AXIS2_PLACEMENT_3D('',#868,#691,#692);
#596=AXIS2_PLACEMENT_3D('',#870,#694,#695);
#597=AXIS2_PLACEMENT_3D('',#874,#698,#699);
#598=AXIS2_PLACEMENT_3D('',#876,#700,#701);
#599=AXIS2_PLACEMENT_3D('',#878,#703,#704);
#600=AXIS2_PLACEMENT_3D('',#880,#705,#706);
#601=AXIS2_PLACEMENT_3D('',#883,#708,#709);
#602=AXIS2_PLACEMENT_3D('',#884,#710,#711);
#603=AXIS2_PLACEMENT_3D('',#886,#712,#713);
#604=AXIS2_PLACEMENT_3D('',#889,#715,#716);
#605=AXIS2_PLACEMENT_3D('',#890,#717,#718);
#606=AXIS2_PLACEMENT_3D('',#891,#719,#720);
#607=AXIS2_PLACEMENT_3D('',#901,#725,#726);
#608=AXIS2_PLACEMENT_3D('',#903,#727,#728);
#609=AXIS2_PLACEMENT_3D('',#905,#729,#730);
#610=AXIS2_PLACEMENT_3D('',#906,#731,#732);
#611=AXIS2_PLACEMENT_3D('',#908,#733,#734);
#612=AXIS2_PLACEMENT_3D('',#911,#736,#737);
#613=AXIS2_PLACEMENT_3D('',#912,#738,#739);
#614=AXIS2_PLACEMENT_3D('',#914,#740,#741);
#615=AXIS2_PLACEMENT_3D('',#916,#743,#744);
#616=AXIS2_PLACEMENT_3D('',#917,#745,#746);
#617=AXIS2_PLACEMENT_3D('',#918,#747,#748);
#618=AXIS2_PLACEMENT_3D('',#920,#749,#750);
#619=AXIS2_PLACEMENT_3D('',#923,#752,#753);
#620=AXIS2_PLACEMENT_3D('',#924,#754,#755);
#621=AXIS2_PLACEMENT_3D('',#926,#756,#757);
#622=AXIS2_PLACEMENT_3D('',#928,#759,#760);
#623=AXIS2_PLACEMENT_3D('',#929,#761,#762);
#624=AXIS2_PLACEMENT_3D('',#930,#763,#764);
#625=AXIS2_PLACEMENT_3D('',#932,#765,#766);
#626=AXIS2_PLACEMENT_3D('',#935,#768,#769);
#627=AXIS2_PLACEMENT_3D('',#936,#770,#771);
#628=AXIS2_PLACEMENT_3D('',#938,#772,#773);
#629=AXIS2_PLACEMENT_3D('',#940,#775,#776);
#630=AXIS2_PLACEMENT_3D('',#941,#777,#778);
#631=AXIS2_PLACEMENT_3D('',#942,#779,#780);
#632=AXIS2_PLACEMENT_3D('',#943,#781,#782);
#633=AXIS2_PLACEMENT_3D('',#949,#786,#787);
#634=AXIS2_PLACEMENT_3D('',#953,#790,#791);
#635=AXIS2_PLACEMENT_3D('',#955,#792,#793);
#636=AXIS2_PLACEMENT_3D('',#957,#795,#796);
#637=AXIS2_PLACEMENT_3D('',#959,#797,#798);
#638=AXIS2_PLACEMENT_3D('',#961,#800,#801);
#639=AXIS2_PLACEMENT_3D('',#965,#804,#805);
#640=AXIS2_PLACEMENT_3D('',#967,#807,#808);
#641=AXIS2_PLACEMENT_3D('',#969,#809,#810);
#642=AXIS2_PLACEMENT_3D('',#971,#812,#813);
#643=AXIS2_PLACEMENT_3D('',#973,#814,#815);
#644=AXIS2_PLACEMENT_3D('',#975,#817,#818);
#645=AXIS2_PLACEMENT_3D('',#977,#820,#821);
#646=DIRECTION('axis',(0.,0.,1.));
#647=DIRECTION('refdir',(1.,0.,0.));
#648=DIRECTION('center_axis',(4.86790095412569E-15,0.,1.));
#649=DIRECTION('ref_axis',(0.707106781186553,-0.707106781186543,-3.44212577480669E-15));
#650=DIRECTION('center_axis',(-4.86400996263525E-15,0.,-1.));
#651=DIRECTION('ref_axis',(0.707106781186553,-0.707106781186543,-3.44212577480669E-15));
#652=DIRECTION('',(-4.86790095412569E-15,0.,-1.));
#653=DIRECTION('center_axis',(4.86400996263525E-15,0.,1.));
#654=DIRECTION('ref_axis',(0.707106781186553,-0.707106781186543,-3.44212577480669E-15));
#655=DIRECTION('',(4.86790095412569E-15,0.,1.));
#656=DIRECTION('center_axis',(1.,0.,-4.86790095412569E-15));
#657=DIRECTION('ref_axis',(0.,1.,0.));
#658=DIRECTION('',(0.,1.,0.));
#659=DIRECTION('',(-4.86790095412569E-15,0.,-1.));
#660=DIRECTION('',(0.,1.,0.));
#661=DIRECTION('center_axis',(4.86400996263525E-15,0.,1.));
#662=DIRECTION('ref_axis',(1.,0.,-4.86400996263525E-15));
#663=DIRECTION('',(1.,0.,-4.86400996263525E-15));
#664=DIRECTION('center_axis',(4.86400996263525E-15,0.,1.));
#665=DIRECTION('ref_axis',(-0.707106781186547,-0.707106781186548,3.44212577480672E-15));
#666=DIRECTION('',(0.,-1.,1.16827155177314E-14));
#667=DIRECTION('center_axis',(4.86400996263525E-15,0.,1.));
#668=DIRECTION('ref_axis',(-0.707106781186548,0.707106781186548,3.44212577480673E-15));
#669=DIRECTION('',(-1.,0.,0.));
#670=DIRECTION('center_axis',(4.86400996263525E-15,0.,1.));
#671=DIRECTION('ref_axis',(0.707106781186551,0.707106781186544,-3.44212577480668E-15));
#672=DIRECTION('center_axis',(0.,0.,-1.));
#673=DIRECTION('ref_axis',(1.,0.,0.));
#674=DIRECTION('center_axis',(0.,0.,-1.));
#675=DIRECTION('ref_axis',(1.,0.,0.));
#676=DIRECTION('center_axis',(0.,0.,-1.));
#677=DIRECTION('ref_axis',(1.,0.,0.));
#678=DIRECTION('center_axis',(0.,0.,-1.));
#679=DIRECTION('ref_axis',(1.,0.,0.));
#680=DIRECTION('center_axis',(4.86790095412569E-15,0.,1.));
#681=DIRECTION('ref_axis',(0.707106781186551,0.707106781186544,-3.44212577480668E-15));
#682=DIRECTION('center_axis',(-4.86400996263525E-15,0.,-1.));
#683=DIRECTION('ref_axis',(0.707106781186551,0.707106781186544,-3.44212577480668E-15));
#684=DIRECTION('',(4.86790095412569E-15,0.,1.));
#685=DIRECTION('center_axis',(0.,1.,0.));
#686=DIRECTION('ref_axis',(-1.,0.,0.));
#687=DIRECTION('',(-4.86790095412569E-15,0.,-1.));
#688=DIRECTION('',(-1.,0.,0.));
#689=DIRECTION('center_axis',(4.86790095412569E-15,0.,1.));
#690=DIRECTION('ref_axis',(-0.707106781186548,0.707106781186548,3.44212577480673E-15));
#691=DIRECTION('center_axis',(-4.86400996263525E-15,0.,-1.));
#692=DIRECTION('ref_axis',(-0.707106781186548,0.707106781186548,3.44212577480673E-15));
#693=DIRECTION('',(4.86790095412569E-15,0.,1.));
#694=DIRECTION('center_axis',(-1.,5.68703020155436E-29,4.86790095412569E-15));
#695=DIRECTION('ref_axis',(0.,-1.,1.16827155177314E-14));
#696=DIRECTION('',(-4.86790095412569E-15,0.,-1.));
#697=DIRECTION('',(0.,-1.,1.16827155177314E-14));
#698=DIRECTION('center_axis',(4.86790095412569E-15,0.,1.));
#699=DIRECTION('ref_axis',(-0.707106781186547,-0.707106781186548,3.44212577480672E-15));
#700=DIRECTION('center_axis',(-4.86400996263525E-15,0.,-1.));
#701=DIRECTION('ref_axis',(-0.707106781186547,-0.707106781186548,3.44212577480672E-15));
#702=DIRECTION('',(4.86790095412569E-15,0.,1.));
#703=DIRECTION('center_axis',(0.,0.,1.));
#704=DIRECTION('ref_axis',(-1.,0.,0.));
#705=DIRECTION('center_axis',(0.,0.,-1.));
#706=DIRECTION('ref_axis',(-1.,0.,0.));
#707=DIRECTION('',(0.,0.,-1.));
#708=DIRECTION('center_axis',(0.,0.,1.));
#709=DIRECTION('ref_axis',(-1.,0.,0.));
#710=DIRECTION('center_axis',(0.,0.,1.));
#711=DIRECTION('ref_axis',(-1.,0.,0.));
#712=DIRECTION('center_axis',(0.,0.,1.));
#713=DIRECTION('ref_axis',(-1.,0.,0.));
#714=DIRECTION('',(0.,0.,-1.));
#715=DIRECTION('center_axis',(0.,0.,-1.));
#716=DIRECTION('ref_axis',(-1.,0.,0.));
#717=DIRECTION('center_axis',(0.,0.,1.));
#718=DIRECTION('ref_axis',(-1.,0.,0.));
#719=DIRECTION('center_axis',(0.,0.,1.));
#720=DIRECTION('ref_axis',(1.,0.,0.));
#721=DIRECTION('',(1.,0.,0.));
#722=DIRECTION('',(0.,1.,0.));
#723=DIRECTION('',(-1.,0.,0.));
#724=DIRECTION('',(0.,-1.,0.));
#725=DIRECTION('center_axis',(0.,0.,-1.));
#726=DIRECTION('ref_axis',(-1.,0.,0.));
#727=DIRECTION('center_axis',(0.,0.,-1.));
#728=DIRECTION('ref_axis',(-1.,0.,0.));
#729=DIRECTION('center_axis',(0.,0.,-1.));
#730=DIRECTION('ref_axis',(-1.,0.,0.));
#731=DIRECTION('center_axis',(0.,0.,1.));
#732=DIRECTION('ref_axis',(-1.,0.,0.));
#733=DIRECTION('center_axis',(0.,0.,-1.));
#734=DIRECTION('ref_axis',(-1.,0.,0.));
#735=DIRECTION('',(0.,0.,-1.));
#736=DIRECTION('center_axis',(0.,0.,1.));
#737=DIRECTION('ref_axis',(-1.,0.,0.));
#738=DIRECTION('center_axis',(0.,0.,1.));
#739=DIRECTION('ref_axis',(-1.,0.,0.));
#740=DIRECTION('center_axis',(0.,0.,1.));
#741=DIRECTION('ref_axis',(-1.,0.,0.));
#742=DIRECTION('',(0.,0.,-1.));
#743=DIRECTION('center_axis',(0.,0.,1.));
#744=DIRECTION('ref_axis',(-1.,0.,0.));
#745=DIRECTION('center_axis',(0.,0.,1.));
#746=DIRECTION('ref_axis',(1.,0.,0.));
#747=DIRECTION('center_axis',(0.,0.,1.));
#748=DIRECTION('ref_axis',(-1.,0.,0.));
#749=DIRECTION('center_axis',(0.,0.,-1.));
#750=DIRECTION('ref_axis',(-1.,0.,0.));
#751=DIRECTION('',(0.,0.,-1.));
#752=DIRECTION('center_axis',(0.,0.,1.));
#753=DIRECTION('ref_axis',(-1.,0.,0.));
#754=DIRECTION('center_axis',(0.,0.,1.));
#755=DIRECTION('ref_axis',(-1.,0.,0.));
#756=DIRECTION('center_axis',(0.,0.,1.));
#757=DIRECTION('ref_axis',(-1.,0.,0.));
#758=DIRECTION('',(0.,0.,-1.));
#759=DIRECTION('center_axis',(0.,0.,1.));
#760=DIRECTION('ref_axis',(-1.,0.,0.));
#761=DIRECTION('center_axis',(0.,0.,1.));
#762=DIRECTION('ref_axis',(1.,0.,0.));
#763=DIRECTION('center_axis',(0.,0.,1.));
#764=DIRECTION('ref_axis',(-1.,0.,0.));
#765=DIRECTION('center_axis',(0.,0.,-1.));
#766=DIRECTION('ref_axis',(-1.,0.,0.));
#767=DIRECTION('',(0.,0.,-1.));
#768=DIRECTION('center_axis',(0.,0.,1.));
#769=DIRECTION('ref_axis',(-1.,0.,0.));
#770=DIRECTION('center_axis',(0.,0.,1.));
#771=DIRECTION('ref_axis',(-1.,0.,0.));
#772=DIRECTION('center_axis',(0.,0.,1.));
#773=DIRECTION('ref_axis',(-1.,0.,0.));
#774=DIRECTION('',(0.,0.,-1.));
#775=DIRECTION('center_axis',(0.,0.,1.));
#776=DIRECTION('ref_axis',(-1.,0.,0.));
#777=DIRECTION('center_axis',(0.,0.,1.));
#778=DIRECTION('ref_axis',(1.,0.,0.));
#779=DIRECTION('center_axis',(0.,0.,1.));
#780=DIRECTION('ref_axis',(1.,0.,0.));
#781=DIRECTION('center_axis',(0.,1.,0.));
#782=DIRECTION('ref_axis',(-1.,0.,0.));
#783=DIRECTION('',(4.86790095412569E-15,0.,1.));
#784=DIRECTION('',(-1.,0.,0.));
#785=DIRECTION('',(4.86790095412569E-15,0.,1.));
#786=DIRECTION('center_axis',(1.,0.,-4.86790095412569E-15));
#787=DIRECTION('ref_axis',(0.,1.,0.));
#788=DIRECTION('',(4.86790095412569E-15,0.,1.));
#789=DIRECTION('',(0.,1.,0.));
#790=DIRECTION('center_axis',(4.86790095412569E-15,0.,1.));
#791=DIRECTION('ref_axis',(1.,0.,-4.86790095412569E-15));
#792=DIRECTION('center_axis',(0.,0.,-1.));
#793=DIRECTION('ref_axis',(1.,0.,0.));
#794=DIRECTION('',(-4.86790095412569E-15,0.,-1.));
#795=DIRECTION('center_axis',(4.86790095412569E-15,0.,1.));
#796=DIRECTION('ref_axis',(1.,0.,-4.86790095412569E-15));
#797=DIRECTION('center_axis',(0.,0.,-1.));
#798=DIRECTION('ref_axis',(1.,0.,0.));
#799=DIRECTION('',(-4.86790095412569E-15,0.,-1.));
#800=DIRECTION('center_axis',(-1.,0.,4.86790095412569E-15));
#801=DIRECTION('ref_axis',(0.,-1.,0.));
#802=DIRECTION('',(0.,-1.,0.));
#803=DIRECTION('',(4.86790095412569E-15,0.,1.));
#804=DIRECTION('center_axis',(0.,-1.,0.));
#805=DIRECTION('ref_axis',(1.,0.,0.));
#806=DIRECTION('',(1.,0.,0.));
#807=DIRECTION('center_axis',(4.86790095412569E-15,0.,1.));
#808=DIRECTION('ref_axis',(1.,0.,-4.86790095412569E-15));
#809=DIRECTION('center_axis',(0.,0.,-1.));
#810=DIRECTION('ref_axis',(1.,0.,0.));
#811=DIRECTION('',(-4.86790095412569E-15,0.,-1.));
#812=DIRECTION('center_axis',(4.86790095412569E-15,0.,1.));
#813=DIRECTION('ref_axis',(1.,0.,-4.86790095412569E-15));
#814=DIRECTION('center_axis',(0.,0.,-1.));
#815=DIRECTION('ref_axis',(1.,0.,0.));
#816=DIRECTION('',(-4.86790095412569E-15,0.,-1.));
#817=DIRECTION('center_axis',(0.,-1.,0.));
#818=DIRECTION('ref_axis',(1.,0.,-4.86400996263525E-15));
#819=DIRECTION('',(1.,0.,-4.86400996263525E-15));
#820=DIRECTION('center_axis',(4.86400996263525E-15,0.,1.));
#821=DIRECTION('ref_axis',(1.,0.,-4.86400996263525E-15));
#822=CARTESIAN_POINT('',(0.,0.,0.));
#823=CARTESIAN_POINT('Origin',(381.5,4.,-1.85635422538917E-12));
#824=CARTESIAN_POINT('',(385.5,4.,12.9999999999981));
#825=CARTESIAN_POINT('',(381.5,0.,12.9999999999981));
#826=CARTESIAN_POINT('Origin',(381.5,4.,12.9999999999981));
#827=CARTESIAN_POINT('',(381.5,0.,-1.85561980074535E-12));
#828=CARTESIAN_POINT('',(381.5,0.,-1.85635422538917E-12));
#829=CARTESIAN_POINT('',(385.5,4.,-1.87507584059589E-12));
#830=CARTESIAN_POINT('Origin',(381.5,4.,-1.85635422538917E-12));
#831=CARTESIAN_POINT('',(385.5,4.,-1.87582582920567E-12));
#832=CARTESIAN_POINT('Origin',(385.5,0.,-1.87507584059589E-12));
#833=CARTESIAN_POINT('',(385.5,156.5,-1.87507584059589E-12));
#834=CARTESIAN_POINT('',(385.5,0.,-1.87507584059589E-12));
#835=CARTESIAN_POINT('',(385.5,156.5,12.9999999999981));
#836=CARTESIAN_POINT('',(385.5,156.5,-1.87507584059589E-12));
#837=CARTESIAN_POINT('',(385.5,0.,12.9999999999981));
#838=CARTESIAN_POINT('Origin',(192.75,80.25,-9.37537920297944E-13));
#839=CARTESIAN_POINT('',(4.,0.,-1.9456039850541E-14));
#840=CARTESIAN_POINT('',(0.,0.,0.));
#841=CARTESIAN_POINT('',(0.,4.,-4.67308620709255E-14));
#842=CARTESIAN_POINT('Origin',(4.,4.,-1.87216152067208E-14));
#843=CARTESIAN_POINT('',(0.,156.5,-1.82834497852496E-12));
#844=CARTESIAN_POINT('',(0.,160.5,-1.87507584059589E-12));
#845=CARTESIAN_POINT('',(3.99999999999999,160.5,-1.87507584059589E-12));
#846=CARTESIAN_POINT('Origin',(3.99999999999999,156.5,-1.87216152067208E-14));
#847=CARTESIAN_POINT('',(381.5,160.5,-1.87507584059589E-12));
#848=CARTESIAN_POINT('',(385.5,160.5,-1.87507584059589E-12));
#849=CARTESIAN_POINT('Origin',(381.5,156.5,-1.85635422538917E-12));
#850=CARTESIAN_POINT('',(3.55,5.,0.));
#851=CARTESIAN_POINT('Origin',(5.,5.,0.));
#852=CARTESIAN_POINT('',(379.05,155.5,0.));
#853=CARTESIAN_POINT('Origin',(380.5,155.5,0.));
#854=CARTESIAN_POINT('',(379.05,5.,0.));
#855=CARTESIAN_POINT('Origin',(380.5,5.,0.));
#856=CARTESIAN_POINT('',(3.5500000745058,155.5,0.));
#857=CARTESIAN_POINT('Origin',(5.00000007450581,155.5,0.));
#858=CARTESIAN_POINT('Origin',(381.5,156.5,-1.85560423677939E-12));
#859=CARTESIAN_POINT('',(381.5,160.5,12.9999999999981));
#860=CARTESIAN_POINT('Origin',(381.5,156.5,12.9999999999981));
#861=CARTESIAN_POINT('',(381.5,160.5,-1.85560423677939E-12));
#862=CARTESIAN_POINT('Origin',(385.5,160.5,-1.87507584059589E-12));
#863=CARTESIAN_POINT('',(4.00000000000006,160.5,12.9999999999981));
#864=CARTESIAN_POINT('',(3.99999999999999,160.5,-9.56259535504665E-13));
#865=CARTESIAN_POINT('',(385.5,160.5,12.9999999999981));
#866=CARTESIAN_POINT('Origin',(3.99999999999999,156.5,-9.56259535504665E-13));
#867=CARTESIAN_POINT('',(6.32827124036339E-14,156.5,12.9999999999982));
#868=CARTESIAN_POINT('Origin',(4.00000000000005,156.5,13.));
#869=CARTESIAN_POINT('',(0.,156.5,-9.36787931688162E-13));
#870=CARTESIAN_POINT('Origin',(0.,160.5,-1.87507584059589E-12));
#871=CARTESIAN_POINT('',(6.32827124036339E-14,4.,13.));
#872=CARTESIAN_POINT('',(0.,4.,-9.37537920297944E-13));
#873=CARTESIAN_POINT('',(6.32827124036339E-14,160.5,12.9999999999981));
#874=CARTESIAN_POINT('Origin',(4.,4.,-9.57009524114447E-13));
#875=CARTESIAN_POINT('',(4.00000000000006,0.,13.));
#876=CARTESIAN_POINT('Origin',(4.00000000000006,4.,13.));
#877=CARTESIAN_POINT('',(4.,0.,-9.57009524114447E-13));
#878=CARTESIAN_POINT('Origin',(370.,15.5,3.));
#879=CARTESIAN_POINT('',(371.3,15.5,7.));
#880=CARTESIAN_POINT('Origin',(370.,15.5,7.));
#881=CARTESIAN_POINT('',(371.3,15.5,3.));
#882=CARTESIAN_POINT('',(371.3,15.5,3.));
#883=CARTESIAN_POINT('Origin',(370.,15.5,3.));
#884=CARTESIAN_POINT('Origin',(370.,15.5,3.));
#885=CARTESIAN_POINT('',(373.3,15.5,7.));
#886=CARTESIAN_POINT('Origin',(370.,15.5,7.));
#887=CARTESIAN_POINT('',(373.3,15.5,3.));
#888=CARTESIAN_POINT('',(373.3,15.5,3.));
#889=CARTESIAN_POINT('Origin',(370.,15.5,3.));
#890=CARTESIAN_POINT('Origin',(370.,15.5,7.));
#891=CARTESIAN_POINT('Origin',(192.75,80.25,3.));
#892=CARTESIAN_POINT('',(10.,150.5,3.));
#893=CARTESIAN_POINT('',(375.5,150.5,3.));
#894=CARTESIAN_POINT('',(101.375,150.5,3.));
#895=CARTESIAN_POINT('',(10.,10.,3.));
#896=CARTESIAN_POINT('',(10.,45.125,3.));
#897=CARTESIAN_POINT('',(375.5,10.,3.));
#898=CARTESIAN_POINT('',(284.125,10.,3.));
#899=CARTESIAN_POINT('',(375.5,115.375,3.));
#900=CARTESIAN_POINT('',(18.8,15.5,3.));
#901=CARTESIAN_POINT('Origin',(15.5,15.5,3.));
#902=CARTESIAN_POINT('',(18.8,145.,3.));
#903=CARTESIAN_POINT('Origin',(15.5,145.,3.));
#904=CARTESIAN_POINT('',(373.30000551343,145.000002160668,3.));
#905=CARTESIAN_POINT('Origin',(370.00000551343,145.000002160668,3.));
#906=CARTESIAN_POINT('Origin',(15.5,15.5,3.));
#907=CARTESIAN_POINT('',(16.8,15.5,7.));
#908=CARTESIAN_POINT('Origin',(15.5,15.5,7.));
#909=CARTESIAN_POINT('',(16.8,15.5,3.));
#910=CARTESIAN_POINT('',(16.8,15.5,3.));
#911=CARTESIAN_POINT('Origin',(15.5,15.5,3.));
#912=CARTESIAN_POINT('Origin',(15.5,15.5,3.));
#913=CARTESIAN_POINT('',(18.8,15.5,7.));
#914=CARTESIAN_POINT('Origin',(15.5,15.5,7.));
#915=CARTESIAN_POINT('',(18.8,15.5,3.));
#916=CARTESIAN_POINT('Origin',(15.5,15.5,7.));
#917=CARTESIAN_POINT('Origin',(192.75,80.25,3.));
#918=CARTESIAN_POINT('Origin',(370.00000551343,145.000002160668,3.));
#919=CARTESIAN_POINT('',(371.30000551343,145.000002160668,7.));
#920=CARTESIAN_POINT('Origin',(370.00000551343,145.000002160668,7.));
#921=CARTESIAN_POINT('',(371.30000551343,145.000002160668,3.));
#922=CARTESIAN_POINT('',(371.30000551343,145.000002160668,3.));
#923=CARTESIAN_POINT('Origin',(370.00000551343,145.000002160668,3.));
#924=CARTESIAN_POINT('Origin',(370.00000551343,145.000002160668,3.));
#925=CARTESIAN_POINT('',(373.30000551343,145.000002160668,7.));
#926=CARTESIAN_POINT('Origin',(370.00000551343,145.000002160668,7.));
#927=CARTESIAN_POINT('',(373.30000551343,145.000002160668,3.));
#928=CARTESIAN_POINT('Origin',(370.00000551343,145.000002160668,7.));
#929=CARTESIAN_POINT('Origin',(192.75,80.25,3.));
#930=CARTESIAN_POINT('Origin',(15.5,145.,3.));
#931=CARTESIAN_POINT('',(16.8,145.,7.));
#932=CARTESIAN_POINT('Origin',(15.5,145.,7.));
#933=CARTESIAN_POINT('',(16.8,145.,3.));
#934=CARTESIAN_POINT('',(16.8,145.,3.));
#935=CARTESIAN_POINT('Origin',(15.5,145.,3.));
#936=CARTESIAN_POINT('Origin',(15.5,145.,3.));
#937=CARTESIAN_POINT('',(18.8,145.,7.));
#938=CARTESIAN_POINT('Origin',(15.5,145.,7.));
#939=CARTESIAN_POINT('',(18.8,145.,3.));
#940=CARTESIAN_POINT('Origin',(15.5,145.,7.));
#941=CARTESIAN_POINT('Origin',(192.75,80.25,3.));
#942=CARTESIAN_POINT('Origin',(192.75,80.25,3.));
#943=CARTESIAN_POINT('Origin',(375.5,10.,0.));
#944=CARTESIAN_POINT('',(10.0000000000001,10.,13.));
#945=CARTESIAN_POINT('',(10.,10.,0.));
#946=CARTESIAN_POINT('',(375.5,10.,13.));
#947=CARTESIAN_POINT('',(375.5,10.,13.));
#948=CARTESIAN_POINT('',(375.5,10.,0.));
#949=CARTESIAN_POINT('Origin',(10.,10.,0.));
#950=CARTESIAN_POINT('',(10.0000000000001,150.5,13.));
#951=CARTESIAN_POINT('',(10.,150.5,0.));
#952=CARTESIAN_POINT('',(10.0000000000001,10.,13.));
#953=CARTESIAN_POINT('Origin',(5.00000007450581,155.5,0.));
#954=CARTESIAN_POINT('',(3.55000007450587,155.5,13.));
#955=CARTESIAN_POINT('Origin',(5.00000007450587,155.5,13.));
#956=CARTESIAN_POINT('',(3.5500000745058,155.5,7.05845638348226E-15));
#957=CARTESIAN_POINT('Origin',(380.5,5.,0.));
#958=CARTESIAN_POINT('',(379.05,5.,13.));
#959=CARTESIAN_POINT('Origin',(380.5,5.,13.));
#960=CARTESIAN_POINT('',(379.05,5.,7.0584563834824E-15));
#961=CARTESIAN_POINT('Origin',(375.5,150.5,0.));
#962=CARTESIAN_POINT('',(375.5,150.5,13.));
#963=CARTESIAN_POINT('',(375.5,150.5,13.));
#964=CARTESIAN_POINT('',(375.5,150.5,0.));
#965=CARTESIAN_POINT('Origin',(10.,150.5,0.));
#966=CARTESIAN_POINT('',(10.0000000000001,150.5,13.));
#967=CARTESIAN_POINT('Origin',(380.5,155.5,0.));
#968=CARTESIAN_POINT('',(379.05,155.5,13.));
#969=CARTESIAN_POINT('Origin',(380.5,155.5,13.));
#970=CARTESIAN_POINT('',(379.05,155.5,7.0584563834824E-15));
#971=CARTESIAN_POINT('Origin',(5.,5.,0.));
#972=CARTESIAN_POINT('',(3.55000000000006,5.,13.));
#973=CARTESIAN_POINT('Origin',(5.00000000000006,5.,13.));
#974=CARTESIAN_POINT('',(3.55,5.,7.05845638348225E-15));
#975=CARTESIAN_POINT('Origin',(0.,0.,0.));
#976=CARTESIAN_POINT('',(6.32827124036339E-14,0.,13.));
#977=CARTESIAN_POINT('Origin',(192.75,80.25,12.9999999999991));
#978=UNCERTAINTY_MEASURE_WITH_UNIT(LENGTH_MEASURE(0.01),#982,
'DISTANCE_ACCURACY_VALUE',
'Maximum model space distance between geometric entities at asserted c
onnectivities');
#979=UNCERTAINTY_MEASURE_WITH_UNIT(LENGTH_MEASURE(0.01),#982,
'DISTANCE_ACCURACY_VALUE',
'Maximum model space distance between geometric entities at asserted c
onnectivities');
#980=(
GEOMETRIC_REPRESENTATION_CONTEXT(3)
GLOBAL_UNCERTAINTY_ASSIGNED_CONTEXT((#978))
GLOBAL_UNIT_ASSIGNED_CONTEXT((#982,#984,#985))
REPRESENTATION_CONTEXT('','3D')
);
#981=(
GEOMETRIC_REPRESENTATION_CONTEXT(3)
GLOBAL_UNCERTAINTY_ASSIGNED_CONTEXT((#979))
GLOBAL_UNIT_ASSIGNED_CONTEXT((#982,#984,#985))
REPRESENTATION_CONTEXT('','3D')
);
#982=(
LENGTH_UNIT()
NAMED_UNIT(*)
SI_UNIT(.MILLI.,.METRE.)
);
#983=(
LENGTH_UNIT()
NAMED_UNIT(*)
SI_UNIT($,.METRE.)
);
#984=(
NAMED_UNIT(*)
PLANE_ANGLE_UNIT()
SI_UNIT($,.RADIAN.)
);
#985=(
NAMED_UNIT(*)
SI_UNIT($,.STERADIAN.)
SOLID_ANGLE_UNIT()
);
#986=SHAPE_DEFINITION_REPRESENTATION(#987,#988);
#987=PRODUCT_DEFINITION_SHAPE('',$,#990);
#988=SHAPE_REPRESENTATION('',(#578),#980);
#989=PRODUCT_DEFINITION_CONTEXT('part definition',#994,'design');
#990=PRODUCT_DEFINITION('CapyBoard Bottom','CapyBoard Bottom v2',#991,#989);
#991=PRODUCT_DEFINITION_FORMATION('',$,#996);
#992=PRODUCT_RELATED_PRODUCT_CATEGORY('CapyBoard Bottom v2',
'CapyBoard Bottom v2',(#996));
#993=APPLICATION_PROTOCOL_DEFINITION('international standard',
'automotive_design',2009,#994);
#994=APPLICATION_CONTEXT(
'Core Data for Automotive Mechanical Design Process');
#995=PRODUCT_CONTEXT('part definition',#994,'mechanical');
#996=PRODUCT('CapyBoard Bottom','CapyBoard Bottom v2',$,(#995));
#997=PRESENTATION_STYLE_ASSIGNMENT((#998));
#998=SURFACE_STYLE_USAGE(.BOTH.,#999);
#999=SURFACE_SIDE_STYLE('',(#1000));
#1000=SURFACE_STYLE_FILL_AREA(#1001);
#1001=FILL_AREA_STYLE('Steel - Satin',(#1002));
#1002=FILL_AREA_STYLE_COLOUR('Steel - Satin',#1003);
#1003=COLOUR_RGB('Steel - Satin',0.627450980392157,0.627450980392157,0.627450980392157);
ENDSEC;
END-ISO-10303-21;
