ISO-10303-21;
HEADER;
/* Generated by software containing ST-Developer
 * from STEP Tools, Inc. (www.steptools.com) 
 */

FILE_DESCRIPTION(
/* description */ (''),
/* implementation_level */ '2;1');

FILE_NAME(
/* name */ 'CapyBoard Top.step',
/* time_stamp */ '2026-03-21T20:55:36-04:00',
/* author */ (''),
/* organization */ (''),
/* preprocessor_version */ 'ST-DEVELOPER v20.1',
/* originating_system */ 'Autodesk Translation Framework v14.10.0.0',
/* authorisation */ '');

FILE_SCHEMA (('AUTOMOTIVE_DESIGN { 1 0 10303 214 3 1 1 }'));
ENDSEC;

DATA;
#10=MECHANICAL_DESIGN_GEOMETRIC_PRESENTATION_REPRESENTATION('',(#13),#615);
#11=SHAPE_REPRESENTATION_RELATIONSHIP('SRR','None',#622,#12);
#12=ADVANCED_BREP_SHAPE_REPRESENTATION('',(#14),#614);
#13=STYLED_ITEM('',(#631),#14);
#14=MANIFOLD_SOLID_BREP('Body2',#363);
#15=FACE_BOUND('',#56,.T.);
#16=FACE_BOUND('',#57,.T.);
#17=FACE_BOUND('',#58,.T.);
#18=FACE_BOUND('',#59,.T.);
#19=FACE_BOUND('',#60,.T.);
#20=FACE_BOUND('',#76,.T.);
#21=FACE_BOUND('',#77,.T.);
#22=FACE_BOUND('',#78,.T.);
#23=FACE_BOUND('',#79,.T.);
#24=FACE_BOUND('',#80,.T.);
#25=PLANE('',#380);
#26=PLANE('',#381);
#27=PLANE('',#391);
#28=PLANE('',#394);
#29=PLANE('',#397);
#30=PLANE('',#398);
#31=PLANE('',#399);
#32=PLANE('',#400);
#33=PLANE('',#409);
#34=PLANE('',#410);
#35=FACE_OUTER_BOUND('',#53,.T.);
#36=FACE_OUTER_BOUND('',#54,.T.);
#37=FACE_OUTER_BOUND('',#55,.T.);
#38=FACE_OUTER_BOUND('',#61,.T.);
#39=FACE_OUTER_BOUND('',#62,.T.);
#40=FACE_OUTER_BOUND('',#63,.T.);
#41=FACE_OUTER_BOUND('',#64,.T.);
#42=FACE_OUTER_BOUND('',#65,.T.);
#43=FACE_OUTER_BOUND('',#66,.T.);
#44=FACE_OUTER_BOUND('',#67,.T.);
#45=FACE_OUTER_BOUND('',#68,.T.);
#46=FACE_OUTER_BOUND('',#69,.T.);
#47=FACE_OUTER_BOUND('',#70,.T.);
#48=FACE_OUTER_BOUND('',#71,.T.);
#49=FACE_OUTER_BOUND('',#72,.T.);
#50=FACE_OUTER_BOUND('',#73,.T.);
#51=FACE_OUTER_BOUND('',#74,.T.);
#52=FACE_OUTER_BOUND('',#75,.T.);
#53=EDGE_LOOP('',(#241,#242,#243,#244));
#54=EDGE_LOOP('',(#245,#246,#247,#248));
#55=EDGE_LOOP('',(#249,#250,#251,#252,#253,#254,#255,#256));
#56=EDGE_LOOP('',(#257,#258,#259,#260));
#57=EDGE_LOOP('',(#261));
#58=EDGE_LOOP('',(#262));
#59=EDGE_LOOP('',(#263));
#60=EDGE_LOOP('',(#264));
#61=EDGE_LOOP('',(#265,#266,#267,#268));
#62=EDGE_LOOP('',(#269,#270,#271,#272));
#63=EDGE_LOOP('',(#273,#274,#275,#276));
#64=EDGE_LOOP('',(#277,#278,#279,#280));
#65=EDGE_LOOP('',(#281,#282,#283,#284));
#66=EDGE_LOOP('',(#285,#286,#287,#288));
#67=EDGE_LOOP('',(#289,#290,#291,#292));
#68=EDGE_LOOP('',(#293,#294,#295,#296));
#69=EDGE_LOOP('',(#297,#298,#299,#300));
#70=EDGE_LOOP('',(#301,#302,#303,#304));
#71=EDGE_LOOP('',(#305,#306,#307,#308));
#72=EDGE_LOOP('',(#309,#310,#311,#312));
#73=EDGE_LOOP('',(#313,#314,#315,#316));
#74=EDGE_LOOP('',(#317,#318,#319,#320));
#75=EDGE_LOOP('',(#321,#322,#323,#324,#325,#326,#327,#328));
#76=EDGE_LOOP('',(#329,#330,#331,#332));
#77=EDGE_LOOP('',(#333));
#78=EDGE_LOOP('',(#334));
#79=EDGE_LOOP('',(#335));
#80=EDGE_LOOP('',(#336));
#81=LINE('',#519,#113);
#82=LINE('',#522,#114);
#83=LINE('',#525,#115);
#84=LINE('',#527,#116);
#85=LINE('',#528,#117);
#86=LINE('',#531,#118);
#87=LINE('',#535,#119);
#88=LINE('',#539,#120);
#89=LINE('',#543,#121);
#90=LINE('',#545,#122);
#91=LINE('',#547,#123);
#92=LINE('',#548,#124);
#93=LINE('',#560,#125);
#94=LINE('',#563,#126);
#95=LINE('',#564,#127);
#96=LINE('',#569,#128);
#97=LINE('',#570,#129);
#98=LINE('',#572,#130);
#99=LINE('',#576,#131);
#100=LINE('',#580,#132);
#101=LINE('',#581,#133);
#102=LINE('',#582,#134);
#103=LINE('',#585,#135);
#104=LINE('',#586,#136);
#105=LINE('',#589,#137);
#106=LINE('',#590,#138);
#107=LINE('',#592,#139);
#108=LINE('',#596,#140);
#109=LINE('',#600,#141);
#110=LINE('',#604,#142);
#111=LINE('',#608,#143);
#112=LINE('',#610,#144);
#113=VECTOR('',#417,10.);
#114=VECTOR('',#420,10.);
#115=VECTOR('',#423,10.);
#116=VECTOR('',#424,10.);
#117=VECTOR('',#425,10.);
#118=VECTOR('',#428,10.);
#119=VECTOR('',#431,10.);
#120=VECTOR('',#434,10.);
#121=VECTOR('',#437,10.);
#122=VECTOR('',#438,10.);
#123=VECTOR('',#439,10.);
#124=VECTOR('',#440,10.);
#125=VECTOR('',#453,10.);
#126=VECTOR('',#456,10.);
#127=VECTOR('',#457,10.);
#128=VECTOR('',#462,10.);
#129=VECTOR('',#463,10.);
#130=VECTOR('',#466,10.);
#131=VECTOR('',#471,10.);
#132=VECTOR('',#474,10.);
#133=VECTOR('',#475,10.);
#134=VECTOR('',#476,10.);
#135=VECTOR('',#479,10.);
#136=VECTOR('',#480,10.);
#137=VECTOR('',#483,10.);
#138=VECTOR('',#484,10.);
#139=VECTOR('',#487,10.);
#140=VECTOR('',#492,1.45000000000003);
#141=VECTOR('',#497,1.45000000000003);
#142=VECTOR('',#502,1.45);
#143=VECTOR('',#507,1.45);
#144=VECTOR('',#510,10.);
#145=CIRCLE('',#378,4.);
#146=CIRCLE('',#379,4.);
#147=CIRCLE('',#382,4.);
#148=CIRCLE('',#383,4.);
#149=CIRCLE('',#384,4.);
#150=CIRCLE('',#385,1.45);
#151=CIRCLE('',#386,1.45);
#152=CIRCLE('',#387,1.45000000000003);
#153=CIRCLE('',#388,1.45000000000003);
#154=CIRCLE('',#390,4.);
#155=CIRCLE('',#393,4.);
#156=CIRCLE('',#396,4.);
#157=CIRCLE('',#402,1.45000000000003);
#158=CIRCLE('',#404,1.45000000000003);
#159=CIRCLE('',#406,1.45);
#160=CIRCLE('',#408,1.45);
#161=VERTEX_POINT('',#515);
#162=VERTEX_POINT('',#516);
#163=VERTEX_POINT('',#518);
#164=VERTEX_POINT('',#520);
#165=VERTEX_POINT('',#524);
#166=VERTEX_POINT('',#526);
#167=VERTEX_POINT('',#530);
#168=VERTEX_POINT('',#532);
#169=VERTEX_POINT('',#534);
#170=VERTEX_POINT('',#536);
#171=VERTEX_POINT('',#538);
#172=VERTEX_POINT('',#541);
#173=VERTEX_POINT('',#542);
#174=VERTEX_POINT('',#544);
#175=VERTEX_POINT('',#546);
#176=VERTEX_POINT('',#549);
#177=VERTEX_POINT('',#551);
#178=VERTEX_POINT('',#553);
#179=VERTEX_POINT('',#555);
#180=VERTEX_POINT('',#558);
#181=VERTEX_POINT('',#562);
#182=VERTEX_POINT('',#566);
#183=VERTEX_POINT('',#567);
#184=VERTEX_POINT('',#574);
#185=VERTEX_POINT('',#578);
#186=VERTEX_POINT('',#579);
#187=VERTEX_POINT('',#584);
#188=VERTEX_POINT('',#588);
#189=VERTEX_POINT('',#594);
#190=VERTEX_POINT('',#598);
#191=VERTEX_POINT('',#602);
#192=VERTEX_POINT('',#606);
#193=EDGE_CURVE('',#161,#162,#145,.T.);
#194=EDGE_CURVE('',#162,#163,#81,.T.);
#195=EDGE_CURVE('',#163,#164,#146,.T.);
#196=EDGE_CURVE('',#164,#161,#82,.T.);
#197=EDGE_CURVE('',#165,#164,#83,.T.);
#198=EDGE_CURVE('',#166,#165,#84,.T.);
#199=EDGE_CURVE('',#161,#166,#85,.T.);
#200=EDGE_CURVE('',#163,#167,#86,.T.);
#201=EDGE_CURVE('',#168,#167,#147,.T.);
#202=EDGE_CURVE('',#168,#169,#87,.T.);
#203=EDGE_CURVE('',#170,#169,#148,.T.);
#204=EDGE_CURVE('',#170,#171,#88,.T.);
#205=EDGE_CURVE('',#165,#171,#149,.T.);
#206=EDGE_CURVE('',#172,#173,#89,.T.);
#207=EDGE_CURVE('',#173,#174,#90,.T.);
#208=EDGE_CURVE('',#174,#175,#91,.T.);
#209=EDGE_CURVE('',#175,#172,#92,.T.);
#210=EDGE_CURVE('',#176,#176,#150,.T.);
#211=EDGE_CURVE('',#177,#177,#151,.T.);
#212=EDGE_CURVE('',#178,#178,#152,.T.);
#213=EDGE_CURVE('',#179,#179,#153,.T.);
#214=EDGE_CURVE('',#180,#166,#154,.T.);
#215=EDGE_CURVE('',#171,#180,#93,.T.);
#216=EDGE_CURVE('',#181,#170,#94,.T.);
#217=EDGE_CURVE('',#180,#181,#95,.T.);
#218=EDGE_CURVE('',#182,#183,#155,.T.);
#219=EDGE_CURVE('',#183,#168,#96,.T.);
#220=EDGE_CURVE('',#167,#182,#97,.T.);
#221=EDGE_CURVE('',#182,#162,#98,.T.);
#222=EDGE_CURVE('',#184,#181,#156,.T.);
#223=EDGE_CURVE('',#169,#184,#99,.T.);
#224=EDGE_CURVE('',#185,#186,#100,.T.);
#225=EDGE_CURVE('',#175,#185,#101,.T.);
#226=EDGE_CURVE('',#174,#186,#102,.T.);
#227=EDGE_CURVE('',#186,#187,#103,.T.);
#228=EDGE_CURVE('',#173,#187,#104,.T.);
#229=EDGE_CURVE('',#187,#188,#105,.T.);
#230=EDGE_CURVE('',#172,#188,#106,.T.);
#231=EDGE_CURVE('',#188,#185,#107,.T.);
#232=EDGE_CURVE('',#189,#189,#157,.T.);
#233=EDGE_CURVE('',#189,#179,#108,.T.);
#234=EDGE_CURVE('',#190,#190,#158,.T.);
#235=EDGE_CURVE('',#190,#178,#109,.T.);
#236=EDGE_CURVE('',#191,#191,#159,.T.);
#237=EDGE_CURVE('',#191,#177,#110,.T.);
#238=EDGE_CURVE('',#192,#192,#160,.T.);
#239=EDGE_CURVE('',#192,#176,#111,.T.);
#240=EDGE_CURVE('',#184,#183,#112,.T.);
#241=ORIENTED_EDGE('',*,*,#193,.T.);
#242=ORIENTED_EDGE('',*,*,#194,.T.);
#243=ORIENTED_EDGE('',*,*,#195,.T.);
#244=ORIENTED_EDGE('',*,*,#196,.T.);
#245=ORIENTED_EDGE('',*,*,#196,.F.);
#246=ORIENTED_EDGE('',*,*,#197,.F.);
#247=ORIENTED_EDGE('',*,*,#198,.F.);
#248=ORIENTED_EDGE('',*,*,#199,.F.);
#249=ORIENTED_EDGE('',*,*,#195,.F.);
#250=ORIENTED_EDGE('',*,*,#200,.T.);
#251=ORIENTED_EDGE('',*,*,#201,.F.);
#252=ORIENTED_EDGE('',*,*,#202,.T.);
#253=ORIENTED_EDGE('',*,*,#203,.F.);
#254=ORIENTED_EDGE('',*,*,#204,.T.);
#255=ORIENTED_EDGE('',*,*,#205,.F.);
#256=ORIENTED_EDGE('',*,*,#197,.T.);
#257=ORIENTED_EDGE('',*,*,#206,.T.);
#258=ORIENTED_EDGE('',*,*,#207,.T.);
#259=ORIENTED_EDGE('',*,*,#208,.T.);
#260=ORIENTED_EDGE('',*,*,#209,.T.);
#261=ORIENTED_EDGE('',*,*,#210,.F.);
#262=ORIENTED_EDGE('',*,*,#211,.F.);
#263=ORIENTED_EDGE('',*,*,#212,.F.);
#264=ORIENTED_EDGE('',*,*,#213,.F.);
#265=ORIENTED_EDGE('',*,*,#214,.T.);
#266=ORIENTED_EDGE('',*,*,#198,.T.);
#267=ORIENTED_EDGE('',*,*,#205,.T.);
#268=ORIENTED_EDGE('',*,*,#215,.T.);
#269=ORIENTED_EDGE('',*,*,#215,.F.);
#270=ORIENTED_EDGE('',*,*,#204,.F.);
#271=ORIENTED_EDGE('',*,*,#216,.F.);
#272=ORIENTED_EDGE('',*,*,#217,.F.);
#273=ORIENTED_EDGE('',*,*,#218,.T.);
#274=ORIENTED_EDGE('',*,*,#219,.T.);
#275=ORIENTED_EDGE('',*,*,#201,.T.);
#276=ORIENTED_EDGE('',*,*,#220,.T.);
#277=ORIENTED_EDGE('',*,*,#194,.F.);
#278=ORIENTED_EDGE('',*,*,#221,.F.);
#279=ORIENTED_EDGE('',*,*,#220,.F.);
#280=ORIENTED_EDGE('',*,*,#200,.F.);
#281=ORIENTED_EDGE('',*,*,#222,.T.);
#282=ORIENTED_EDGE('',*,*,#216,.T.);
#283=ORIENTED_EDGE('',*,*,#203,.T.);
#284=ORIENTED_EDGE('',*,*,#223,.T.);
#285=ORIENTED_EDGE('',*,*,#224,.F.);
#286=ORIENTED_EDGE('',*,*,#225,.F.);
#287=ORIENTED_EDGE('',*,*,#208,.F.);
#288=ORIENTED_EDGE('',*,*,#226,.T.);
#289=ORIENTED_EDGE('',*,*,#227,.F.);
#290=ORIENTED_EDGE('',*,*,#226,.F.);
#291=ORIENTED_EDGE('',*,*,#207,.F.);
#292=ORIENTED_EDGE('',*,*,#228,.T.);
#293=ORIENTED_EDGE('',*,*,#229,.F.);
#294=ORIENTED_EDGE('',*,*,#228,.F.);
#295=ORIENTED_EDGE('',*,*,#206,.F.);
#296=ORIENTED_EDGE('',*,*,#230,.T.);
#297=ORIENTED_EDGE('',*,*,#231,.F.);
#298=ORIENTED_EDGE('',*,*,#230,.F.);
#299=ORIENTED_EDGE('',*,*,#209,.F.);
#300=ORIENTED_EDGE('',*,*,#225,.T.);
#301=ORIENTED_EDGE('',*,*,#232,.F.);
#302=ORIENTED_EDGE('',*,*,#233,.T.);
#303=ORIENTED_EDGE('',*,*,#213,.T.);
#304=ORIENTED_EDGE('',*,*,#233,.F.);
#305=ORIENTED_EDGE('',*,*,#234,.F.);
#306=ORIENTED_EDGE('',*,*,#235,.T.);
#307=ORIENTED_EDGE('',*,*,#212,.T.);
#308=ORIENTED_EDGE('',*,*,#235,.F.);
#309=ORIENTED_EDGE('',*,*,#236,.F.);
#310=ORIENTED_EDGE('',*,*,#237,.T.);
#311=ORIENTED_EDGE('',*,*,#211,.T.);
#312=ORIENTED_EDGE('',*,*,#237,.F.);
#313=ORIENTED_EDGE('',*,*,#238,.F.);
#314=ORIENTED_EDGE('',*,*,#239,.T.);
#315=ORIENTED_EDGE('',*,*,#210,.T.);
#316=ORIENTED_EDGE('',*,*,#239,.F.);
#317=ORIENTED_EDGE('',*,*,#219,.F.);
#318=ORIENTED_EDGE('',*,*,#240,.F.);
#319=ORIENTED_EDGE('',*,*,#223,.F.);
#320=ORIENTED_EDGE('',*,*,#202,.F.);
#321=ORIENTED_EDGE('',*,*,#193,.F.);
#322=ORIENTED_EDGE('',*,*,#199,.T.);
#323=ORIENTED_EDGE('',*,*,#214,.F.);
#324=ORIENTED_EDGE('',*,*,#217,.T.);
#325=ORIENTED_EDGE('',*,*,#222,.F.);
#326=ORIENTED_EDGE('',*,*,#240,.T.);
#327=ORIENTED_EDGE('',*,*,#218,.F.);
#328=ORIENTED_EDGE('',*,*,#221,.T.);
#329=ORIENTED_EDGE('',*,*,#229,.T.);
#330=ORIENTED_EDGE('',*,*,#231,.T.);
#331=ORIENTED_EDGE('',*,*,#224,.T.);
#332=ORIENTED_EDGE('',*,*,#227,.T.);
#333=ORIENTED_EDGE('',*,*,#238,.T.);
#334=ORIENTED_EDGE('',*,*,#236,.T.);
#335=ORIENTED_EDGE('',*,*,#234,.T.);
#336=ORIENTED_EDGE('',*,*,#232,.T.);
#337=CYLINDRICAL_SURFACE('',#377,4.);
#338=CYLINDRICAL_SURFACE('',#389,4.);
#339=CYLINDRICAL_SURFACE('',#392,4.);
#340=CYLINDRICAL_SURFACE('',#395,4.);
#341=CYLINDRICAL_SURFACE('',#401,1.45000000000003);
#342=CYLINDRICAL_SURFACE('',#403,1.45000000000003);
#343=CYLINDRICAL_SURFACE('',#405,1.45);
#344=CYLINDRICAL_SURFACE('',#407,1.45);
#345=ADVANCED_FACE('',(#35),#337,.T.);
#346=ADVANCED_FACE('',(#36),#25,.T.);
#347=ADVANCED_FACE('',(#37,#15,#16,#17,#18,#19),#26,.F.);
#348=ADVANCED_FACE('',(#38),#338,.T.);
#349=ADVANCED_FACE('',(#39),#27,.T.);
#350=ADVANCED_FACE('',(#40),#339,.T.);
#351=ADVANCED_FACE('',(#41),#28,.T.);
#352=ADVANCED_FACE('',(#42),#340,.T.);
#353=ADVANCED_FACE('',(#43),#29,.F.);
#354=ADVANCED_FACE('',(#44),#30,.F.);
#355=ADVANCED_FACE('',(#45),#31,.F.);
#356=ADVANCED_FACE('',(#46),#32,.F.);
#357=ADVANCED_FACE('',(#47),#341,.F.);
#358=ADVANCED_FACE('',(#48),#342,.F.);
#359=ADVANCED_FACE('',(#49),#343,.F.);
#360=ADVANCED_FACE('',(#50),#344,.F.);
#361=ADVANCED_FACE('',(#51),#33,.T.);
#362=ADVANCED_FACE('',(#52,#20,#21,#22,#23,#24),#34,.T.);
#363=CLOSED_SHELL('',(#345,#346,#347,#348,#349,#350,#351,#352,#353,#354,
#355,#356,#357,#358,#359,#360,#361,#362));
#364=DERIVED_UNIT_ELEMENT(#366,1.);
#365=DERIVED_UNIT_ELEMENT(#617,-3.);
#366=(
MASS_UNIT()
NAMED_UNIT(*)
SI_UNIT(.KILO.,.GRAM.)
);
#367=DERIVED_UNIT((#364,#365));
#368=MEASURE_REPRESENTATION_ITEM('density measure',
POSITIVE_RATIO_MEASURE(7850.),#367);
#369=PROPERTY_DEFINITION_REPRESENTATION(#374,#371);
#370=PROPERTY_DEFINITION_REPRESENTATION(#375,#372);
#371=REPRESENTATION('material name',(#373),#614);
#372=REPRESENTATION('density',(#368),#614);
#373=DESCRIPTIVE_REPRESENTATION_ITEM('Steel','Steel');
#374=PROPERTY_DEFINITION('material property','material name',#624);
#375=PROPERTY_DEFINITION('material property','density of part',#624);
#376=AXIS2_PLACEMENT_3D('',#513,#411,#412);
#377=AXIS2_PLACEMENT_3D('',#514,#413,#414);
#378=AXIS2_PLACEMENT_3D('',#517,#415,#416);
#379=AXIS2_PLACEMENT_3D('',#521,#418,#419);
#380=AXIS2_PLACEMENT_3D('',#523,#421,#422);
#381=AXIS2_PLACEMENT_3D('',#529,#426,#427);
#382=AXIS2_PLACEMENT_3D('',#533,#429,#430);
#383=AXIS2_PLACEMENT_3D('',#537,#432,#433);
#384=AXIS2_PLACEMENT_3D('',#540,#435,#436);
#385=AXIS2_PLACEMENT_3D('',#550,#441,#442);
#386=AXIS2_PLACEMENT_3D('',#552,#443,#444);
#387=AXIS2_PLACEMENT_3D('',#554,#445,#446);
#388=AXIS2_PLACEMENT_3D('',#556,#447,#448);
#389=AXIS2_PLACEMENT_3D('',#557,#449,#450);
#390=AXIS2_PLACEMENT_3D('',#559,#451,#452);
#391=AXIS2_PLACEMENT_3D('',#561,#454,#455);
#392=AXIS2_PLACEMENT_3D('',#565,#458,#459);
#393=AXIS2_PLACEMENT_3D('',#568,#460,#461);
#394=AXIS2_PLACEMENT_3D('',#571,#464,#465);
#395=AXIS2_PLACEMENT_3D('',#573,#467,#468);
#396=AXIS2_PLACEMENT_3D('',#575,#469,#470);
#397=AXIS2_PLACEMENT_3D('',#577,#472,#473);
#398=AXIS2_PLACEMENT_3D('',#583,#477,#478);
#399=AXIS2_PLACEMENT_3D('',#587,#481,#482);
#400=AXIS2_PLACEMENT_3D('',#591,#485,#486);
#401=AXIS2_PLACEMENT_3D('',#593,#488,#489);
#402=AXIS2_PLACEMENT_3D('',#595,#490,#491);
#403=AXIS2_PLACEMENT_3D('',#597,#493,#494);
#404=AXIS2_PLACEMENT_3D('',#599,#495,#496);
#405=AXIS2_PLACEMENT_3D('',#601,#498,#499);
#406=AXIS2_PLACEMENT_3D('',#603,#500,#501);
#407=AXIS2_PLACEMENT_3D('',#605,#503,#504);
#408=AXIS2_PLACEMENT_3D('',#607,#505,#506);
#409=AXIS2_PLACEMENT_3D('',#609,#508,#509);
#410=AXIS2_PLACEMENT_3D('',#611,#511,#512);
#411=DIRECTION('axis',(0.,0.,1.));
#412=DIRECTION('refdir',(1.,0.,0.));
#413=DIRECTION('center_axis',(0.,0.,1.));
#414=DIRECTION('ref_axis',(-0.707106781186546,0.707106781186549,0.));
#415=DIRECTION('center_axis',(0.,0.,-1.));
#416=DIRECTION('ref_axis',(-0.707106781186546,0.707106781186549,0.));
#417=DIRECTION('',(0.,0.,-1.));
#418=DIRECTION('center_axis',(0.,0.,1.));
#419=DIRECTION('ref_axis',(-0.707106781186546,0.707106781186549,0.));
#420=DIRECTION('',(0.,0.,1.));
#421=DIRECTION('center_axis',(-1.,0.,0.));
#422=DIRECTION('ref_axis',(0.,-1.,0.));
#423=DIRECTION('',(0.,1.,0.));
#424=DIRECTION('',(0.,0.,-1.));
#425=DIRECTION('',(0.,-1.,0.));
#426=DIRECTION('center_axis',(0.,0.,1.));
#427=DIRECTION('ref_axis',(1.,0.,0.));
#428=DIRECTION('',(1.,0.,0.));
#429=DIRECTION('center_axis',(0.,0.,1.));
#430=DIRECTION('ref_axis',(0.707106781186552,0.707106781186543,0.));
#431=DIRECTION('',(0.,-1.,0.));
#432=DIRECTION('center_axis',(0.,0.,1.));
#433=DIRECTION('ref_axis',(0.707106781186554,-0.707106781186541,0.));
#434=DIRECTION('',(-1.,0.,0.));
#435=DIRECTION('center_axis',(0.,0.,1.));
#436=DIRECTION('ref_axis',(-0.707106781186549,-0.707106781186546,0.));
#437=DIRECTION('',(0.,1.,0.));
#438=DIRECTION('',(-1.,0.,0.));
#439=DIRECTION('',(0.,-1.,0.));
#440=DIRECTION('',(1.,0.,0.));
#441=DIRECTION('center_axis',(0.,0.,-1.));
#442=DIRECTION('ref_axis',(1.,0.,0.));
#443=DIRECTION('center_axis',(0.,0.,-1.));
#444=DIRECTION('ref_axis',(1.,0.,0.));
#445=DIRECTION('center_axis',(0.,0.,-1.));
#446=DIRECTION('ref_axis',(1.,0.,0.));
#447=DIRECTION('center_axis',(0.,0.,-1.));
#448=DIRECTION('ref_axis',(1.,0.,0.));
#449=DIRECTION('center_axis',(0.,0.,1.));
#450=DIRECTION('ref_axis',(-0.707106781186549,-0.707106781186546,0.));
#451=DIRECTION('center_axis',(0.,0.,-1.));
#452=DIRECTION('ref_axis',(-0.707106781186549,-0.707106781186546,0.));
#453=DIRECTION('',(0.,0.,1.));
#454=DIRECTION('center_axis',(0.,-1.,0.));
#455=DIRECTION('ref_axis',(1.,0.,0.));
#456=DIRECTION('',(0.,0.,-1.));
#457=DIRECTION('',(1.,0.,0.));
#458=DIRECTION('center_axis',(0.,0.,1.));
#459=DIRECTION('ref_axis',(0.707106781186552,0.707106781186543,0.));
#460=DIRECTION('center_axis',(0.,0.,-1.));
#461=DIRECTION('ref_axis',(0.707106781186552,0.707106781186543,0.));
#462=DIRECTION('',(0.,0.,-1.));
#463=DIRECTION('',(0.,0.,1.));
#464=DIRECTION('center_axis',(0.,1.,0.));
#465=DIRECTION('ref_axis',(-1.,0.,0.));
#466=DIRECTION('',(-1.,0.,0.));
#467=DIRECTION('center_axis',(0.,0.,1.));
#468=DIRECTION('ref_axis',(0.707106781186554,-0.707106781186541,0.));
#469=DIRECTION('center_axis',(0.,0.,-1.));
#470=DIRECTION('ref_axis',(0.707106781186554,-0.707106781186541,0.));
#471=DIRECTION('',(0.,0.,1.));
#472=DIRECTION('center_axis',(-1.,0.,0.));
#473=DIRECTION('ref_axis',(0.,-1.,0.));
#474=DIRECTION('',(0.,1.,0.));
#475=DIRECTION('',(0.,0.,1.));
#476=DIRECTION('',(0.,0.,1.));
#477=DIRECTION('center_axis',(0.,1.,0.));
#478=DIRECTION('ref_axis',(-1.,0.,0.));
#479=DIRECTION('',(1.,0.,0.));
#480=DIRECTION('',(0.,0.,1.));
#481=DIRECTION('center_axis',(1.,0.,0.));
#482=DIRECTION('ref_axis',(0.,1.,0.));
#483=DIRECTION('',(0.,-1.,0.));
#484=DIRECTION('',(0.,0.,1.));
#485=DIRECTION('center_axis',(0.,-1.,0.));
#486=DIRECTION('ref_axis',(1.,0.,0.));
#487=DIRECTION('',(-1.,0.,0.));
#488=DIRECTION('center_axis',(0.,0.,1.));
#489=DIRECTION('ref_axis',(1.,0.,0.));
#490=DIRECTION('center_axis',(0.,0.,-1.));
#491=DIRECTION('ref_axis',(1.,0.,0.));
#492=DIRECTION('',(0.,0.,-1.));
#493=DIRECTION('center_axis',(0.,0.,1.));
#494=DIRECTION('ref_axis',(1.,0.,0.));
#495=DIRECTION('center_axis',(0.,0.,-1.));
#496=DIRECTION('ref_axis',(1.,0.,0.));
#497=DIRECTION('',(0.,0.,-1.));
#498=DIRECTION('center_axis',(0.,0.,1.));
#499=DIRECTION('ref_axis',(1.,0.,0.));
#500=DIRECTION('center_axis',(0.,0.,-1.));
#501=DIRECTION('ref_axis',(1.,0.,0.));
#502=DIRECTION('',(0.,0.,-1.));
#503=DIRECTION('center_axis',(0.,0.,1.));
#504=DIRECTION('ref_axis',(1.,0.,0.));
#505=DIRECTION('center_axis',(0.,0.,-1.));
#506=DIRECTION('ref_axis',(1.,0.,0.));
#507=DIRECTION('',(0.,0.,-1.));
#508=DIRECTION('center_axis',(1.,0.,0.));
#509=DIRECTION('ref_axis',(0.,1.,0.));
#510=DIRECTION('',(0.,1.,0.));
#511=DIRECTION('center_axis',(0.,0.,1.));
#512=DIRECTION('ref_axis',(1.,0.,0.));
#513=CARTESIAN_POINT('',(0.,0.,0.));
#514=CARTESIAN_POINT('Origin',(3.99999999999999,-24.0000002980232,0.));
#515=CARTESIAN_POINT('',(0.,-24.0000002980232,3.));
#516=CARTESIAN_POINT('',(3.99999999999999,-20.0000002980232,3.));
#517=CARTESIAN_POINT('Origin',(3.99999999999999,-24.0000002980232,3.));
#518=CARTESIAN_POINT('',(3.99999999999999,-20.0000002980232,0.));
#519=CARTESIAN_POINT('',(3.99999999999999,-20.0000002980232,0.));
#520=CARTESIAN_POINT('',(0.,-24.0000002980232,0.));
#521=CARTESIAN_POINT('Origin',(3.99999999999999,-24.0000002980232,0.));
#522=CARTESIAN_POINT('',(0.,-24.0000002980232,0.));
#523=CARTESIAN_POINT('Origin',(0.,-20.0000002980232,0.));
#524=CARTESIAN_POINT('',(0.,-176.500000298023,0.));
#525=CARTESIAN_POINT('',(0.,-180.500000298023,0.));
#526=CARTESIAN_POINT('',(0.,-176.500000298023,3.));
#527=CARTESIAN_POINT('',(0.,-176.500000298023,0.));
#528=CARTESIAN_POINT('',(0.,-180.500000298023,3.));
#529=CARTESIAN_POINT('Origin',(192.75,-100.250000298023,0.));
#530=CARTESIAN_POINT('',(381.5,-20.0000002980232,0.));
#531=CARTESIAN_POINT('',(0.,-20.0000002980232,0.));
#532=CARTESIAN_POINT('',(385.5,-24.0000002980232,0.));
#533=CARTESIAN_POINT('Origin',(381.5,-24.0000002980232,0.));
#534=CARTESIAN_POINT('',(385.5,-176.500000298023,0.));
#535=CARTESIAN_POINT('',(385.5,-20.0000002980232,0.));
#536=CARTESIAN_POINT('',(381.5,-180.500000298023,0.));
#537=CARTESIAN_POINT('Origin',(381.5,-176.500000298023,0.));
#538=CARTESIAN_POINT('',(3.99999999999999,-180.500000298023,0.));
#539=CARTESIAN_POINT('',(385.5,-180.500000298023,0.));
#540=CARTESIAN_POINT('Origin',(4.,-176.500000298023,0.));
#541=CARTESIAN_POINT('',(370.,-165.000000298023,0.));
#542=CARTESIAN_POINT('',(370.,-35.5000002980232,0.));
#543=CARTESIAN_POINT('',(370.,-132.625000298023,0.));
#544=CARTESIAN_POINT('',(15.5,-35.5000002980232,0.));
#545=CARTESIAN_POINT('',(281.375,-35.5000002980232,0.));
#546=CARTESIAN_POINT('',(15.5,-165.000000298023,0.));
#547=CARTESIAN_POINT('',(15.5,-67.8750002980232,0.));
#548=CARTESIAN_POINT('',(104.125,-165.000000298023,0.));
#549=CARTESIAN_POINT('',(3.55000007450581,-25.000000372529,0.));
#550=CARTESIAN_POINT('Origin',(5.00000007450581,-25.000000372529,0.));
#551=CARTESIAN_POINT('',(3.55,-175.500000298023,0.));
#552=CARTESIAN_POINT('Origin',(5.,-175.500000298023,0.));
#553=CARTESIAN_POINT('',(379.05,-25.000000372529,0.));
#554=CARTESIAN_POINT('Origin',(380.5,-25.000000372529,0.));
#555=CARTESIAN_POINT('',(379.05,-175.500000298023,0.));
#556=CARTESIAN_POINT('Origin',(380.5,-175.500000298023,0.));
#557=CARTESIAN_POINT('Origin',(4.,-176.500000298023,0.));
#558=CARTESIAN_POINT('',(3.99999999999999,-180.500000298023,3.));
#559=CARTESIAN_POINT('Origin',(4.,-176.500000298023,3.));
#560=CARTESIAN_POINT('',(4.,-180.500000298023,0.));
#561=CARTESIAN_POINT('Origin',(0.,-180.500000298023,0.));
#562=CARTESIAN_POINT('',(381.5,-180.500000298023,3.));
#563=CARTESIAN_POINT('',(381.5,-180.500000298023,0.));
#564=CARTESIAN_POINT('',(385.5,-180.500000298023,3.));
#565=CARTESIAN_POINT('Origin',(381.5,-24.0000002980232,0.));
#566=CARTESIAN_POINT('',(381.5,-20.0000002980232,3.));
#567=CARTESIAN_POINT('',(385.5,-24.0000002980232,3.));
#568=CARTESIAN_POINT('Origin',(381.5,-24.0000002980232,3.));
#569=CARTESIAN_POINT('',(385.5,-24.0000002980232,0.));
#570=CARTESIAN_POINT('',(381.5,-20.0000002980232,0.));
#571=CARTESIAN_POINT('Origin',(385.5,-20.0000002980232,0.));
#572=CARTESIAN_POINT('',(0.,-20.0000002980232,3.));
#573=CARTESIAN_POINT('Origin',(381.5,-176.500000298023,0.));
#574=CARTESIAN_POINT('',(385.5,-176.500000298023,3.));
#575=CARTESIAN_POINT('Origin',(381.5,-176.500000298023,3.));
#576=CARTESIAN_POINT('',(385.5,-176.500000298023,0.));
#577=CARTESIAN_POINT('Origin',(15.5,-35.5000002980232,0.));
#578=CARTESIAN_POINT('',(15.5,-165.000000298023,3.));
#579=CARTESIAN_POINT('',(15.5,-35.5000002980232,3.));
#580=CARTESIAN_POINT('',(15.5,-67.8750002980232,3.));
#581=CARTESIAN_POINT('',(15.5,-165.000000298023,0.));
#582=CARTESIAN_POINT('',(15.5,-35.5000002980232,0.));
#583=CARTESIAN_POINT('Origin',(370.,-35.5000002980232,0.));
#584=CARTESIAN_POINT('',(370.,-35.5000002980232,3.));
#585=CARTESIAN_POINT('',(281.375,-35.5000002980232,3.));
#586=CARTESIAN_POINT('',(370.,-35.5000002980232,0.));
#587=CARTESIAN_POINT('Origin',(370.,-165.000000298023,0.));
#588=CARTESIAN_POINT('',(370.,-165.000000298023,3.));
#589=CARTESIAN_POINT('',(370.,-132.625000298023,3.));
#590=CARTESIAN_POINT('',(370.,-165.000000298023,0.));
#591=CARTESIAN_POINT('Origin',(15.5,-165.000000298023,0.));
#592=CARTESIAN_POINT('',(104.125,-165.000000298023,3.));
#593=CARTESIAN_POINT('Origin',(380.5,-175.500000298023,0.));
#594=CARTESIAN_POINT('',(379.05,-175.500000298023,3.));
#595=CARTESIAN_POINT('Origin',(380.5,-175.500000298023,3.));
#596=CARTESIAN_POINT('',(379.05,-175.500000298023,0.));
#597=CARTESIAN_POINT('Origin',(380.5,-25.000000372529,0.));
#598=CARTESIAN_POINT('',(379.05,-25.000000372529,3.));
#599=CARTESIAN_POINT('Origin',(380.5,-25.000000372529,3.));
#600=CARTESIAN_POINT('',(379.05,-25.000000372529,0.));
#601=CARTESIAN_POINT('Origin',(5.,-175.500000298023,0.));
#602=CARTESIAN_POINT('',(3.55,-175.500000298023,3.));
#603=CARTESIAN_POINT('Origin',(5.,-175.500000298023,3.));
#604=CARTESIAN_POINT('',(3.55,-175.500000298023,0.));
#605=CARTESIAN_POINT('Origin',(5.00000007450581,-25.000000372529,0.));
#606=CARTESIAN_POINT('',(3.55000007450581,-25.000000372529,3.));
#607=CARTESIAN_POINT('Origin',(5.00000007450581,-25.000000372529,3.));
#608=CARTESIAN_POINT('',(3.55000007450581,-25.000000372529,0.));
#609=CARTESIAN_POINT('Origin',(385.5,-180.500000298023,0.));
#610=CARTESIAN_POINT('',(385.5,-20.0000002980232,3.));
#611=CARTESIAN_POINT('Origin',(192.75,-100.250000298023,3.));
#612=UNCERTAINTY_MEASURE_WITH_UNIT(LENGTH_MEASURE(0.01),#616,
'DISTANCE_ACCURACY_VALUE',
'Maximum model space distance between geometric entities at asserted c
onnectivities');
#613=UNCERTAINTY_MEASURE_WITH_UNIT(LENGTH_MEASURE(0.01),#616,
'DISTANCE_ACCURACY_VALUE',
'Maximum model space distance between geometric entities at asserted c
onnectivities');
#614=(
GEOMETRIC_REPRESENTATION_CONTEXT(3)
GLOBAL_UNCERTAINTY_ASSIGNED_CONTEXT((#612))
GLOBAL_UNIT_ASSIGNED_CONTEXT((#616,#618,#619))
REPRESENTATION_CONTEXT('','3D')
);
#615=(
GEOMETRIC_REPRESENTATION_CONTEXT(3)
GLOBAL_UNCERTAINTY_ASSIGNED_CONTEXT((#613))
GLOBAL_UNIT_ASSIGNED_CONTEXT((#616,#618,#619))
REPRESENTATION_CONTEXT('','3D')
);
#616=(
LENGTH_UNIT()
NAMED_UNIT(*)
SI_UNIT(.MILLI.,.METRE.)
);
#617=(
LENGTH_UNIT()
NAMED_UNIT(*)
SI_UNIT($,.METRE.)
);
#618=(
NAMED_UNIT(*)
PLANE_ANGLE_UNIT()
SI_UNIT($,.RADIAN.)
);
#619=(
NAMED_UNIT(*)
SI_UNIT($,.STERADIAN.)
SOLID_ANGLE_UNIT()
);
#620=SHAPE_DEFINITION_REPRESENTATION(#621,#622);
#621=PRODUCT_DEFINITION_SHAPE('',$,#624);
#622=SHAPE_REPRESENTATION('',(#376),#614);
#623=PRODUCT_DEFINITION_CONTEXT('part definition',#628,'design');
#624=PRODUCT_DEFINITION('CapyBoard Top','CapyBoard Top v3',#625,#623);
#625=PRODUCT_DEFINITION_FORMATION('',$,#630);
#626=PRODUCT_RELATED_PRODUCT_CATEGORY('CapyBoard Top v3',
'CapyBoard Top v3',(#630));
#627=APPLICATION_PROTOCOL_DEFINITION('international standard',
'automotive_design',2009,#628);
#628=APPLICATION_CONTEXT(
'Core Data for Automotive Mechanical Design Process');
#629=PRODUCT_CONTEXT('part definition',#628,'mechanical');
#630=PRODUCT('CapyBoard Top','CapyBoard Top v3',$,(#629));
#631=PRESENTATION_STYLE_ASSIGNMENT((#632));
#632=SURFACE_STYLE_USAGE(.BOTH.,#633);
#633=SURFACE_SIDE_STYLE('',(#634));
#634=SURFACE_STYLE_FILL_AREA(#635);
#635=FILL_AREA_STYLE('Steel - Satin',(#636));
#636=FILL_AREA_STYLE_COLOUR('Steel - Satin',#637);
#637=COLOUR_RGB('Steel - Satin',0.627450980392157,0.627450980392157,0.627450980392157);
ENDSEC;
END-ISO-10303-21;
