M48
; DRILL file {KiCad 9.0.6} date 2026-03-21T21:07:41-0400
; FORMAT={-:-/ absolute / metric / decimal}
; #@! TF.CreationDate,2026-03-21T21:07:41-04:00
; #@! TF.GenerationSoftware,Kicad,Pcbnew,9.0.6
; #@! TF.FileFunction,Plated,1,2,PTH
FMAT,2
METRIC
; #@! TA.AperFunction,Plated,PTH,ViaDrill
T1C0.300
; #@! TA.AperFunction,Plated,PTH,ComponentDrill
T2C0.800
; #@! TA.AperFunction,Plated,PTH,ComponentDrill
T3C0.889
; #@! TA.AperFunction,Plated,PTH,ComponentDrill
T4C1.000
; #@! TA.AperFunction,Plated,PTH,ComponentDrill
T5C1.020
; #@! TA.AperFunction,Plated,PTH,ComponentDrill
T6C1.500
; #@! TA.AperFunction,Plated,PTH,ComponentDrill
T7C2.200
; #@! TA.AperFunction,Plated,PTH,ComponentDrill
T8C2.600
%
G90
G05
T1
X40.08Y-58.01
X40.392Y-162.0
X52.32Y-61.87
X54.86Y-143.76
X59.65Y-95.07
X59.65Y-105.86
X64.75Y-133.18
X65.17Y-61.912
X66.57Y-61.912
X72.38Y-138.112
X74.48Y-81.0
X74.81Y-138.112
X76.08Y-80.962
X79.28Y-100.012
X80.88Y-100.012
X84.331Y-61.912
X85.531Y-61.912
X88.55Y-119.062
X90.39Y-119.062
X93.64Y-80.962
X95.11Y-80.962
X96.03Y-138.112
X97.7Y-138.112
X98.45Y-100.012
X99.9Y-100.012
X103.3Y-61.912
X104.581Y-61.915
X107.69Y-119.062
X109.42Y-119.062
X112.56Y-80.962
X114.14Y-80.962
X117.51Y-100.012
X119.04Y-100.012
X122.28Y-61.912
X123.67Y-61.912
X126.82Y-119.062
X128.45Y-119.062
X131.64Y-80.962
X133.17Y-80.962
X136.33Y-100.012
X138.06Y-100.012
X141.18Y-61.912
X142.78Y-61.912
X145.93Y-119.062
X147.57Y-119.062
X150.76Y-80.962
X152.31Y-80.962
X155.24Y-100.012
X157.1Y-100.012
X160.33Y-61.912
X161.74Y-61.912
X164.86Y-119.062
X166.58Y-119.062
X167.41Y-138.112
X169.85Y-80.962
X171.41Y-80.962
X171.79Y-138.112
X174.33Y-100.012
X176.14Y-100.012
X179.04Y-61.912
X180.91Y-61.912
X183.86Y-119.062
X185.61Y-119.062
X188.98Y-80.962
X190.49Y-80.962
X193.53Y-100.012
X195.21Y-100.012
X198.4Y-61.912
X199.98Y-61.912
X202.99Y-119.062
X204.72Y-119.062
X207.94Y-80.962
X209.54Y-80.962
X212.29Y-100.012
X214.26Y-100.012
X217.53Y-61.912
X219.11Y-61.912
X222.15Y-119.062
X223.76Y-119.062
X227.02Y-80.962
X228.56Y-80.962
X231.5Y-100.012
X233.3Y-100.012
X236.59Y-61.912
X238.04Y-61.912
X238.76Y-138.112
X240.67Y-138.112
X241.03Y-119.062
X242.8Y-119.062
X245.97Y-80.962
X247.51Y-80.962
X250.41Y-100.012
X252.32Y-100.012
X255.37Y-61.912
X257.17Y-61.912
X259.9Y-119.062
X261.82Y-119.062
X262.52Y-138.112
X264.54Y-138.112
X264.91Y-80.962
X266.55Y-80.962
X269.58Y-100.012
X271.39Y-100.012
X274.34Y-61.912
X276.09Y-61.912
X284.27Y-80.962
X285.58Y-80.962
X286.59Y-138.112
X288.23Y-138.112
X295.84Y-119.062
X297.63Y-119.062
X300.65Y-39.84
X300.65Y-48.13
X300.65Y-52.38
X300.81Y-100.012
X302.38Y-100.012
X302.89Y-61.912
X305.34Y-61.912
X307.99Y-80.962
X309.55Y-80.962
X310.27Y-138.112
X312.15Y-138.112
X322.4Y-53.95
X322.99Y-42.94
X323.41Y-54.97
X324.79Y-105.12
X324.79Y-106.55
X327.61Y-57.19
X331.38Y-119.67
X333.825Y-117.225
X336.32Y-138.112
X338.03Y-138.112
X339.62Y-115.78
X345.884Y-45.826
X346.62Y-40.19
X347.85Y-86.65
X349.069Y-87.128
X350.234Y-88.294
X350.79Y-86.25
X352.15Y-87.26
X352.774Y-88.226
X354.0Y-87.0
X354.171Y-57.859
X355.12Y-119.062
X355.314Y-88.0
X355.46Y-138.112
X356.711Y-57.891
X357.0Y-86.5
X357.07Y-119.062
X357.14Y-138.112
X358.133Y-89.133
X359.54Y-85.0
X361.79Y-57.89
X364.0Y-84.541
X364.331Y-57.839
X366.871Y-57.949
X369.411Y-57.941
X373.737Y-85.817
X374.17Y-138.112
X376.13Y-138.112
X379.31Y-156.34
X380.0Y-78.0
X380.05Y-156.94
X380.85Y-157.54
X381.64Y-158.14
X382.44Y-158.74
X383.21Y-159.34
X387.0Y-162.0
T2
X53.816Y-43.974
X53.816Y-51.594
X53.816Y-67.786
X53.816Y-75.406
X58.579Y-143.986
X58.579Y-151.606
X63.341Y-86.836
X63.341Y-94.456
X68.104Y-105.886
X68.104Y-113.506
X72.866Y-67.786
X72.866Y-75.406
X77.629Y-43.974
X77.629Y-51.594
X77.629Y-124.936
X77.629Y-132.556
X82.391Y-86.836
X82.391Y-94.456
X82.391Y-143.986
X82.391Y-151.606
X87.154Y-105.886
X87.154Y-113.506
X91.916Y-67.786
X91.916Y-75.406
X96.679Y-43.974
X96.679Y-51.594
X96.679Y-124.936
X96.679Y-132.556
X101.441Y-86.836
X101.441Y-94.456
X106.204Y-105.886
X106.204Y-113.506
X106.204Y-143.986
X106.204Y-151.606
X110.966Y-67.786
X110.966Y-75.406
X115.729Y-43.974
X115.729Y-51.594
X115.729Y-124.936
X115.729Y-132.556
X120.491Y-86.836
X120.491Y-94.456
X125.254Y-105.886
X125.254Y-113.506
X130.016Y-67.786
X130.016Y-75.406
X134.779Y-43.974
X134.779Y-51.594
X134.779Y-124.936
X134.779Y-132.556
X139.541Y-86.836
X139.541Y-94.456
X144.304Y-105.886
X144.304Y-113.506
X149.066Y-67.786
X149.066Y-75.406
X153.829Y-124.936
X153.829Y-132.556
X158.591Y-43.974
X158.591Y-51.594
X158.591Y-86.836
X158.591Y-94.456
X163.354Y-105.886
X163.354Y-113.506
X168.116Y-67.786
X168.116Y-75.406
X172.879Y-124.936
X172.879Y-132.556
X177.641Y-43.974
X177.641Y-51.594
X177.641Y-86.836
X177.641Y-94.456
X182.404Y-105.886
X182.404Y-113.506
X187.166Y-67.786
X187.166Y-75.406
X191.929Y-124.936
X191.929Y-132.556
X196.691Y-43.974
X196.691Y-51.594
X196.691Y-86.836
X196.691Y-94.456
X201.454Y-105.886
X201.454Y-113.506
X206.216Y-67.786
X206.216Y-75.406
X210.979Y-124.936
X210.979Y-132.556
X215.741Y-43.974
X215.741Y-51.594
X215.741Y-86.836
X215.741Y-94.456
X220.504Y-105.886
X220.504Y-113.506
X225.266Y-67.786
X225.266Y-75.406
X225.266Y-143.986
X225.266Y-151.606
X230.029Y-124.936
X230.029Y-132.556
X234.791Y-86.836
X234.791Y-94.456
X239.554Y-43.974
X239.554Y-51.594
X239.554Y-105.886
X239.554Y-113.506
X244.316Y-67.786
X244.316Y-75.406
X249.079Y-124.936
X249.079Y-132.556
X249.079Y-143.986
X249.079Y-151.606
X253.841Y-86.836
X253.841Y-94.456
X258.604Y-43.974
X258.604Y-51.594
X258.604Y-105.886
X258.604Y-113.506
X263.366Y-67.786
X263.366Y-75.406
X268.129Y-124.936
X268.129Y-132.556
X272.891Y-86.836
X272.891Y-94.456
X272.891Y-143.986
X272.891Y-151.606
X277.654Y-43.974
X277.654Y-51.594
X277.654Y-105.886
X277.654Y-113.506
X282.416Y-67.786
X282.416Y-75.406
X291.941Y-86.836
X291.941Y-94.456
X296.704Y-43.974
X296.704Y-51.594
X296.704Y-143.986
X296.704Y-151.606
X320.516Y-43.974
X320.516Y-51.594
X320.516Y-67.786
X320.516Y-75.406
X320.516Y-86.836
X320.516Y-94.456
X320.516Y-105.886
X320.516Y-113.506
X320.516Y-124.936
X320.516Y-132.556
X320.516Y-143.986
X320.516Y-151.606
X344.329Y-143.986
X344.329Y-151.606
X363.379Y-124.936
X363.379Y-132.556
X363.379Y-143.986
X363.379Y-151.606
X382.429Y-143.986
X382.429Y-151.606
T3
X326.67Y-37.85
X326.67Y-40.39
X326.67Y-42.93
X326.67Y-45.47
X326.67Y-48.01
X326.67Y-50.55
X326.67Y-53.09
X341.91Y-37.85
X341.91Y-40.39
X341.91Y-42.93
X341.91Y-45.47
X341.91Y-48.01
X341.91Y-50.55
X341.91Y-53.09
T4
X350.0Y-43.5
X350.0Y-46.0
X350.0Y-48.5
X350.234Y-91.9
X352.774Y-91.9
X355.314Y-91.9
X357.854Y-91.9
X364.5Y-43.5
X364.5Y-48.5
X367.5Y-43.5
X367.5Y-46.0
X367.5Y-48.5
X382.0Y-43.5
X382.0Y-48.5
T5
X328.771Y-63.182
X328.771Y-80.962
X329.001Y-69.532
X329.001Y-72.072
X329.001Y-74.612
X331.311Y-63.182
X331.311Y-80.962
X333.851Y-63.182
X333.851Y-80.962
X336.391Y-63.182
X336.391Y-80.962
X338.931Y-63.182
X338.931Y-80.962
X341.471Y-63.182
X341.471Y-80.962
X344.011Y-63.182
X344.011Y-80.962
X346.551Y-63.182
X346.551Y-80.962
X349.091Y-63.182
X349.091Y-80.962
X351.631Y-63.182
X351.631Y-80.962
X354.171Y-63.182
X354.171Y-80.962
X356.711Y-63.182
X356.711Y-80.962
X359.251Y-63.182
X359.251Y-80.962
X361.791Y-63.182
X361.791Y-80.962
X364.331Y-63.182
X364.331Y-80.962
X366.871Y-63.182
X366.871Y-80.962
X369.411Y-63.182
X369.411Y-80.962
X371.951Y-63.182
X371.951Y-80.962
X374.491Y-63.182
X374.491Y-80.962
X377.031Y-63.182
X377.031Y-80.962
T6
X40.481Y-45.244
X40.481Y-69.056
X42.862Y-145.256
X45.244Y-88.106
X46.831Y-42.704
X46.831Y-66.516
X47.625Y-107.156
X49.212Y-142.716
X51.594Y-85.566
X52.387Y-126.206
X53.975Y-104.616
X58.737Y-123.666
X59.531Y-69.056
X64.294Y-45.244
X65.881Y-66.516
X66.675Y-145.256
X69.056Y-88.106
X70.644Y-42.704
X73.025Y-142.716
X73.819Y-107.156
X75.406Y-85.566
X78.581Y-69.056
X80.169Y-104.616
X83.344Y-45.244
X83.344Y-126.206
X84.931Y-66.516
X88.106Y-88.106
X89.694Y-42.704
X89.694Y-123.666
X90.487Y-145.256
X92.869Y-107.156
X94.456Y-85.566
X96.837Y-142.716
X97.631Y-69.056
X99.219Y-104.616
X102.394Y-45.244
X102.394Y-126.206
X103.981Y-66.516
X107.156Y-88.106
X108.744Y-42.704
X108.744Y-123.666
X111.919Y-107.156
X113.506Y-85.566
X116.681Y-69.056
X118.269Y-104.616
X121.444Y-45.244
X121.444Y-126.206
X123.031Y-66.516
X126.206Y-88.106
X127.794Y-42.704
X127.794Y-123.666
X130.969Y-107.156
X132.556Y-85.566
X135.731Y-69.056
X137.319Y-104.616
X140.494Y-126.206
X142.081Y-66.516
X145.256Y-45.244
X145.256Y-88.106
X146.844Y-123.666
X150.019Y-107.156
X151.606Y-42.704
X151.606Y-85.566
X154.781Y-69.056
X156.369Y-104.616
X159.544Y-126.206
X161.131Y-66.516
X161.925Y-145.256
X164.306Y-45.244
X164.306Y-88.106
X165.894Y-123.666
X168.275Y-142.716
X169.069Y-107.156
X170.656Y-42.704
X170.656Y-85.566
X173.831Y-69.056
X175.419Y-104.616
X178.594Y-126.206
X180.181Y-66.516
X183.356Y-45.244
X183.356Y-88.106
X184.944Y-123.666
X188.119Y-107.156
X189.706Y-42.704
X189.706Y-85.566
X192.881Y-69.056
X194.469Y-104.616
X197.644Y-126.206
X199.231Y-66.516
X202.406Y-45.244
X202.406Y-88.106
X203.994Y-123.666
X207.169Y-107.156
X208.756Y-42.704
X208.756Y-85.566
X211.931Y-69.056
X213.519Y-104.616
X216.694Y-126.206
X218.281Y-66.516
X221.456Y-88.106
X223.044Y-123.666
X226.219Y-45.244
X226.219Y-107.156
X227.806Y-85.566
X230.981Y-69.056
X232.569Y-42.704
X232.569Y-104.616
X233.362Y-145.256
X235.744Y-126.206
X237.331Y-66.516
X239.712Y-142.716
X240.506Y-88.106
X242.094Y-123.666
X245.269Y-45.244
X245.269Y-107.156
X246.856Y-85.566
X250.031Y-69.056
X251.619Y-42.704
X251.619Y-104.616
X254.794Y-126.206
X256.381Y-66.516
X257.175Y-145.256
X259.556Y-88.106
X261.144Y-123.666
X263.525Y-142.716
X264.319Y-45.244
X264.319Y-107.156
X265.906Y-85.566
X269.081Y-69.056
X270.669Y-42.704
X270.669Y-104.616
X275.431Y-66.516
X278.606Y-88.106
X280.988Y-145.256
X283.369Y-45.244
X284.956Y-85.566
X287.337Y-142.716
X289.719Y-42.704
X290.512Y-126.206
X295.275Y-107.156
X296.863Y-123.666
X297.656Y-69.056
X301.625Y-104.616
X302.419Y-88.106
X304.006Y-66.516
X304.8Y-145.256
X307.181Y-45.244
X308.769Y-85.566
X311.15Y-142.716
X313.531Y-42.704
X330.994Y-145.256
X337.344Y-142.716
X350.044Y-126.206
X350.044Y-145.256
X356.394Y-123.666
X356.394Y-142.716
X369.094Y-145.256
X375.444Y-142.716
T7
X30.0Y-35.0
X30.0Y-165.0
X385.0Y-35.0
X385.0Y-165.0
T8
X357.5Y-40.4
X357.5Y-51.6
X375.0Y-40.4
X375.0Y-51.6
M30
