%TF.GenerationSoftware,KiCad,Pcbnew,9.0.6*%
%TF.CreationDate,2026-03-21T22:50:53-04:00*%
%TF.ProjectId,CapyBoard,43617079-426f-4617-9264-2e6b69636164,rev?*%
%TF.SameCoordinates,Original*%
%TF.FileFunction,Soldermask,Bot*%
%TF.FilePolarity,Negative*%
%FSLAX46Y46*%
G04 Gerber Fmt 4.6, Leading zero omitted, Abs format (unit mm)*
G04 Created by KiCad (PCBNEW 9.0.6) date 2026-03-21 22:50:53*
%MOMM*%
%LPD*%
G01*
G04 APERTURE LIST*
G04 Aperture macros list*
%AMRoundRect*
0 Rectangle with rounded corners*
0 $1 Rounding radius*
0 $2 $3 $4 $5 $6 $7 $8 $9 X,Y pos of 4 corners*
0 Add a 4 corners polygon primitive as box body*
4,1,4,$2,$3,$4,$5,$6,$7,$8,$9,$2,$3,0*
0 Add four circle primitives for the rounded corners*
1,1,$1+$1,$2,$3*
1,1,$1+$1,$4,$5*
1,1,$1+$1,$6,$7*
1,1,$1+$1,$8,$9*
0 Add four rect primitives between the rounded corners*
20,1,$1+$1,$2,$3,$4,$5,0*
20,1,$1+$1,$4,$5,$6,$7,0*
20,1,$1+$1,$6,$7,$8,$9,0*
20,1,$1+$1,$8,$9,$2,$3,0*%
G04 Aperture macros list end*
%ADD10C,1.700000*%
%ADD11C,4.000000*%
%ADD12C,2.200000*%
%ADD13C,3.800000*%
%ADD14C,3.050000*%
%ADD15R,2.000000X2.000000*%
%ADD16C,2.000000*%
%ADD17C,3.200000*%
%ADD18O,1.600000X2.000000*%
%ADD19O,1.800000X1.800000*%
%ADD20O,1.500000X1.500000*%
%ADD21O,1.700000X1.700000*%
%ADD22R,1.700000X1.700000*%
%ADD23C,1.524000*%
%ADD24R,1.600000X0.850000*%
%ADD25RoundRect,0.250000X-0.550000X0.550000X-0.550000X-0.550000X0.550000X-0.550000X0.550000X0.550000X0*%
%ADD26C,1.600000*%
G04 APERTURE END LIST*
D10*
%TO.C,SW3*%
X82073750Y-47783750D03*
D11*
X87153750Y-47783750D03*
D10*
X92233750Y-47783750D03*
D12*
X89693750Y-42703750D03*
X83343750Y-45243750D03*
%TD*%
D10*
%TO.C,SW71*%
X89217500Y-147796250D03*
D11*
X94297500Y-147796250D03*
D10*
X99377500Y-147796250D03*
D12*
X96837500Y-142716250D03*
X90487500Y-145256250D03*
%TD*%
D10*
%TO.C,SW11*%
X243998750Y-47783750D03*
D11*
X249078750Y-47783750D03*
D10*
X254158750Y-47783750D03*
D12*
X251618750Y-42703750D03*
X245268750Y-45243750D03*
%TD*%
D10*
%TO.C,SW66*%
X253523750Y-128746250D03*
D11*
X258603750Y-128746250D03*
D10*
X263683750Y-128746250D03*
D12*
X261143750Y-123666250D03*
X254793750Y-126206250D03*
%TD*%
D10*
%TO.C,SW46*%
X110648750Y-109696250D03*
D11*
X115728750Y-109696250D03*
D10*
X120808750Y-109696250D03*
D12*
X118268750Y-104616250D03*
X111918750Y-107156250D03*
%TD*%
D10*
%TO.C,SW36*%
X182086250Y-90646250D03*
D11*
X187166250Y-90646250D03*
D10*
X192246250Y-90646250D03*
D12*
X189706250Y-85566250D03*
X183356250Y-88106250D03*
%TD*%
D10*
%TO.C,SW14*%
X305911250Y-47783750D03*
D11*
X310991250Y-47783750D03*
D10*
X316071250Y-47783750D03*
D12*
X313531250Y-42703750D03*
X307181250Y-45243750D03*
%TD*%
D13*
%TO.C,REF\u002A\u002A*%
X30000000Y-35000000D03*
%TD*%
D10*
%TO.C,SW5*%
X120173750Y-47783750D03*
D11*
X125253750Y-47783750D03*
D10*
X130333750Y-47783750D03*
D12*
X127793750Y-42703750D03*
X121443750Y-45243750D03*
%TD*%
D10*
%TO.C,SW6*%
X143986250Y-47783750D03*
D11*
X149066250Y-47783750D03*
D10*
X154146250Y-47783750D03*
D12*
X151606250Y-42703750D03*
X145256250Y-45243750D03*
%TD*%
D10*
%TO.C,SW40*%
X258286250Y-90646250D03*
D11*
X263366250Y-90646250D03*
D10*
X268446250Y-90646250D03*
D12*
X265906250Y-85566250D03*
X259556250Y-88106250D03*
%TD*%
D10*
%TO.C,SW73*%
X232092500Y-147796250D03*
D11*
X237172500Y-147796250D03*
D10*
X242252500Y-147796250D03*
D12*
X239712500Y-142716250D03*
X233362500Y-145256250D03*
%TD*%
D10*
%TO.C,SW21*%
X153511250Y-71596250D03*
D11*
X158591250Y-71596250D03*
D10*
X163671250Y-71596250D03*
D12*
X161131250Y-66516250D03*
X154781250Y-69056250D03*
%TD*%
D10*
%TO.C,SW16*%
X58261250Y-71596250D03*
D11*
X63341250Y-71596250D03*
D10*
X68421250Y-71596250D03*
D12*
X65881250Y-66516250D03*
X59531250Y-69056250D03*
%TD*%
D14*
%TO.C,SW55*%
X287185000Y-102696250D03*
D11*
X287185000Y-117936250D03*
D10*
X294005000Y-109696250D03*
D11*
X299085000Y-109696250D03*
D10*
X304165000Y-109696250D03*
D14*
X310985000Y-102696250D03*
D11*
X310985000Y-117936250D03*
D12*
X301625000Y-104616250D03*
X295275000Y-107156250D03*
%TD*%
D10*
%TO.C,SW30*%
X67786250Y-90646250D03*
D11*
X72866250Y-90646250D03*
D10*
X77946250Y-90646250D03*
D12*
X75406250Y-85566250D03*
X69056250Y-88106250D03*
%TD*%
D10*
%TO.C,SW43*%
X46355000Y-109696250D03*
D11*
X51435000Y-109696250D03*
D10*
X56515000Y-109696250D03*
D12*
X53975000Y-104616250D03*
X47625000Y-107156250D03*
%TD*%
D10*
%TO.C,SW24*%
X210661250Y-71596250D03*
D11*
X215741250Y-71596250D03*
D10*
X220821250Y-71596250D03*
D12*
X218281250Y-66516250D03*
X211931250Y-69056250D03*
%TD*%
D10*
%TO.C,SW41*%
X277336250Y-90646250D03*
D11*
X282416250Y-90646250D03*
D10*
X287496250Y-90646250D03*
D12*
X284956250Y-85566250D03*
X278606250Y-88106250D03*
%TD*%
D10*
%TO.C,SW1*%
X39211250Y-47783750D03*
D11*
X44291250Y-47783750D03*
D10*
X49371250Y-47783750D03*
D12*
X46831250Y-42703750D03*
X40481250Y-45243750D03*
%TD*%
D10*
%TO.C,SW60*%
X139223750Y-128746250D03*
D11*
X144303750Y-128746250D03*
D10*
X149383750Y-128746250D03*
D12*
X146843750Y-123666250D03*
X140493750Y-126206250D03*
%TD*%
D10*
%TO.C,SW76*%
X303530000Y-147796250D03*
D11*
X308610000Y-147796250D03*
D10*
X313690000Y-147796250D03*
D12*
X311150000Y-142716250D03*
X304800000Y-145256250D03*
%TD*%
D10*
%TO.C,SW31*%
X86836250Y-90646250D03*
D11*
X91916250Y-90646250D03*
D10*
X96996250Y-90646250D03*
D12*
X94456250Y-85566250D03*
X88106250Y-88106250D03*
%TD*%
D10*
%TO.C,SW27*%
X267811250Y-71596250D03*
D11*
X272891250Y-71596250D03*
D10*
X277971250Y-71596250D03*
D12*
X275431250Y-66516250D03*
X269081250Y-69056250D03*
%TD*%
D10*
%TO.C,SW64*%
X215423750Y-128746250D03*
D11*
X220503750Y-128746250D03*
D10*
X225583750Y-128746250D03*
D12*
X223043750Y-123666250D03*
X216693750Y-126206250D03*
%TD*%
D10*
%TO.C,SW26*%
X248761250Y-71596250D03*
D11*
X253841250Y-71596250D03*
D10*
X258921250Y-71596250D03*
D12*
X256381250Y-66516250D03*
X250031250Y-69056250D03*
%TD*%
D14*
%TO.C,SW72*%
X115735000Y-140796250D03*
D11*
X115735000Y-156036250D03*
D10*
X160655000Y-147796250D03*
D11*
X165735000Y-147796250D03*
D10*
X170815000Y-147796250D03*
D14*
X215735000Y-140796250D03*
D11*
X215735000Y-156036250D03*
D12*
X168275000Y-142716250D03*
X161925000Y-145256250D03*
%TD*%
D10*
%TO.C,SW33*%
X124936250Y-90646250D03*
D11*
X130016250Y-90646250D03*
D10*
X135096250Y-90646250D03*
D12*
X132556250Y-85566250D03*
X126206250Y-88106250D03*
%TD*%
D13*
%TO.C,REF\u002A\u002A*%
X385000000Y-165000000D03*
%TD*%
D10*
%TO.C,SW38*%
X220186250Y-90646250D03*
D11*
X225266250Y-90646250D03*
D10*
X230346250Y-90646250D03*
D12*
X227806250Y-85566250D03*
X221456250Y-88106250D03*
%TD*%
D10*
%TO.C,SW39*%
X239236250Y-90646250D03*
D11*
X244316250Y-90646250D03*
D10*
X249396250Y-90646250D03*
D12*
X246856250Y-85566250D03*
X240506250Y-88106250D03*
%TD*%
D10*
%TO.C,SW45*%
X91598750Y-109696250D03*
D11*
X96678750Y-109696250D03*
D10*
X101758750Y-109696250D03*
D12*
X99218750Y-104616250D03*
X92868750Y-107156250D03*
%TD*%
D13*
%TO.C,REF\u002A\u002A*%
X30000000Y-165000000D03*
%TD*%
D10*
%TO.C,SW2*%
X63023750Y-47783750D03*
D11*
X68103750Y-47783750D03*
D10*
X73183750Y-47783750D03*
D12*
X70643750Y-42703750D03*
X64293750Y-45243750D03*
%TD*%
D10*
%TO.C,SW8*%
X182086250Y-47783750D03*
D11*
X187166250Y-47783750D03*
D10*
X192246250Y-47783750D03*
D12*
X189706250Y-42703750D03*
X183356250Y-45243750D03*
%TD*%
D10*
%TO.C,SW23*%
X191611250Y-71596250D03*
D11*
X196691250Y-71596250D03*
D10*
X201771250Y-71596250D03*
D12*
X199231250Y-66516250D03*
X192881250Y-69056250D03*
%TD*%
D10*
%TO.C,SW9*%
X201136250Y-47783750D03*
D11*
X206216250Y-47783750D03*
D10*
X211296250Y-47783750D03*
D12*
X208756250Y-42703750D03*
X202406250Y-45243750D03*
%TD*%
D15*
%TO.C,SW81*%
X367500000Y-43500000D03*
D16*
X367500000Y-48500000D03*
X367500000Y-46000000D03*
D17*
X375000000Y-40400000D03*
X375000000Y-51600000D03*
D16*
X382000000Y-48500000D03*
X382000000Y-43500000D03*
%TD*%
D13*
%TO.C,REF\u002A\u002A*%
X385000000Y-35000000D03*
%TD*%
D10*
%TO.C,SW74*%
X255905000Y-147796250D03*
D11*
X260985000Y-147796250D03*
D10*
X266065000Y-147796250D03*
D12*
X263525000Y-142716250D03*
X257175000Y-145256250D03*
%TD*%
D10*
%TO.C,SW57*%
X82073750Y-128746250D03*
D11*
X87153750Y-128746250D03*
D10*
X92233750Y-128746250D03*
D12*
X89693750Y-123666250D03*
X83343750Y-126206250D03*
%TD*%
D10*
%TO.C,SW42*%
X301148750Y-90646250D03*
D11*
X306228750Y-90646250D03*
D10*
X311308750Y-90646250D03*
D12*
X308768750Y-85566250D03*
X302418750Y-88106250D03*
%TD*%
D10*
%TO.C,SW52*%
X224948750Y-109696250D03*
D11*
X230028750Y-109696250D03*
D10*
X235108750Y-109696250D03*
D12*
X232568750Y-104616250D03*
X226218750Y-107156250D03*
%TD*%
D14*
%TO.C,SW56*%
X44297500Y-121746250D03*
D11*
X44297500Y-136986250D03*
D10*
X51117500Y-128746250D03*
D11*
X56197500Y-128746250D03*
D10*
X61277500Y-128746250D03*
D14*
X68097500Y-121746250D03*
D11*
X68097500Y-136986250D03*
D12*
X58737500Y-123666250D03*
X52387500Y-126206250D03*
%TD*%
D10*
%TO.C,SW10*%
X224948750Y-47783750D03*
D11*
X230028750Y-47783750D03*
D10*
X235108750Y-47783750D03*
D12*
X232568750Y-42703750D03*
X226218750Y-45243750D03*
%TD*%
D10*
%TO.C,SW19*%
X115411250Y-71596250D03*
D11*
X120491250Y-71596250D03*
D10*
X125571250Y-71596250D03*
D12*
X123031250Y-66516250D03*
X116681250Y-69056250D03*
%TD*%
D10*
%TO.C,SW68*%
X348773750Y-128746250D03*
D11*
X353853750Y-128746250D03*
D10*
X358933750Y-128746250D03*
D12*
X356393750Y-123666250D03*
X350043750Y-126206250D03*
%TD*%
D10*
%TO.C,SW7*%
X163036250Y-47783750D03*
D11*
X168116250Y-47783750D03*
D10*
X173196250Y-47783750D03*
D12*
X170656250Y-42703750D03*
X164306250Y-45243750D03*
%TD*%
D10*
%TO.C,SW18*%
X96361250Y-71596250D03*
D11*
X101441250Y-71596250D03*
D10*
X106521250Y-71596250D03*
D12*
X103981250Y-66516250D03*
X97631250Y-69056250D03*
%TD*%
D10*
%TO.C,SW29*%
X43973750Y-90646250D03*
D11*
X49053750Y-90646250D03*
D10*
X54133750Y-90646250D03*
D12*
X51593750Y-85566250D03*
X45243750Y-88106250D03*
%TD*%
D10*
%TO.C,SW78*%
X348773750Y-147796250D03*
D11*
X353853750Y-147796250D03*
D10*
X358933750Y-147796250D03*
D12*
X356393750Y-142716250D03*
X350043750Y-145256250D03*
%TD*%
D10*
%TO.C,SW50*%
X186848750Y-109696250D03*
D11*
X191928750Y-109696250D03*
D10*
X197008750Y-109696250D03*
D12*
X194468750Y-104616250D03*
X188118750Y-107156250D03*
%TD*%
D10*
%TO.C,SW34*%
X143986250Y-90646250D03*
D11*
X149066250Y-90646250D03*
D10*
X154146250Y-90646250D03*
D12*
X151606250Y-85566250D03*
X145256250Y-88106250D03*
%TD*%
D10*
%TO.C,SW20*%
X134461250Y-71596250D03*
D11*
X139541250Y-71596250D03*
D10*
X144621250Y-71596250D03*
D12*
X142081250Y-66516250D03*
X135731250Y-69056250D03*
%TD*%
D10*
%TO.C,SW65*%
X234473750Y-128746250D03*
D11*
X239553750Y-128746250D03*
D10*
X244633750Y-128746250D03*
D12*
X242093750Y-123666250D03*
X235743750Y-126206250D03*
%TD*%
D10*
%TO.C,SW17*%
X77311250Y-71596250D03*
D11*
X82391250Y-71596250D03*
D10*
X87471250Y-71596250D03*
D12*
X84931250Y-66516250D03*
X78581250Y-69056250D03*
%TD*%
D10*
%TO.C,SW35*%
X163036250Y-90646250D03*
D11*
X168116250Y-90646250D03*
D10*
X173196250Y-90646250D03*
D12*
X170656250Y-85566250D03*
X164306250Y-88106250D03*
%TD*%
D14*
%TO.C,SW28*%
X289566250Y-64596250D03*
D11*
X289566250Y-79836250D03*
D10*
X296386250Y-71596250D03*
D11*
X301466250Y-71596250D03*
D10*
X306546250Y-71596250D03*
D14*
X313366250Y-64596250D03*
D11*
X313366250Y-79836250D03*
D12*
X304006250Y-66516250D03*
X297656250Y-69056250D03*
%TD*%
D10*
%TO.C,SW75*%
X279717500Y-147796250D03*
D11*
X284797500Y-147796250D03*
D10*
X289877500Y-147796250D03*
D12*
X287337500Y-142716250D03*
X280987500Y-145256250D03*
%TD*%
D10*
%TO.C,SW59*%
X120173750Y-128746250D03*
D11*
X125253750Y-128746250D03*
D10*
X130333750Y-128746250D03*
D12*
X127793750Y-123666250D03*
X121443750Y-126206250D03*
%TD*%
D10*
%TO.C,SW22*%
X172561250Y-71596250D03*
D11*
X177641250Y-71596250D03*
D10*
X182721250Y-71596250D03*
D12*
X180181250Y-66516250D03*
X173831250Y-69056250D03*
%TD*%
D10*
%TO.C,SW15*%
X39211250Y-71596250D03*
D11*
X44291250Y-71596250D03*
D10*
X49371250Y-71596250D03*
D12*
X46831250Y-66516250D03*
X40481250Y-69056250D03*
%TD*%
D10*
%TO.C,SW47*%
X129698750Y-109696250D03*
D11*
X134778750Y-109696250D03*
D10*
X139858750Y-109696250D03*
D12*
X137318750Y-104616250D03*
X130968750Y-107156250D03*
%TD*%
D10*
%TO.C,SW12*%
X263048750Y-47783750D03*
D11*
X268128750Y-47783750D03*
D10*
X273208750Y-47783750D03*
D12*
X270668750Y-42703750D03*
X264318750Y-45243750D03*
%TD*%
D10*
%TO.C,SW37*%
X201136250Y-90646250D03*
D11*
X206216250Y-90646250D03*
D10*
X211296250Y-90646250D03*
D12*
X208756250Y-85566250D03*
X202406250Y-88106250D03*
%TD*%
D10*
%TO.C,SW51*%
X205898750Y-109696250D03*
D11*
X210978750Y-109696250D03*
D10*
X216058750Y-109696250D03*
D12*
X213518750Y-104616250D03*
X207168750Y-107156250D03*
%TD*%
D10*
%TO.C,SW70*%
X65405000Y-147796250D03*
D11*
X70485000Y-147796250D03*
D10*
X75565000Y-147796250D03*
D12*
X73025000Y-142716250D03*
X66675000Y-145256250D03*
%TD*%
D10*
%TO.C,SW48*%
X148748750Y-109696250D03*
D11*
X153828750Y-109696250D03*
D10*
X158908750Y-109696250D03*
D12*
X156368750Y-104616250D03*
X150018750Y-107156250D03*
%TD*%
D10*
%TO.C,SW63*%
X196373750Y-128746250D03*
D11*
X201453750Y-128746250D03*
D10*
X206533750Y-128746250D03*
D12*
X203993750Y-123666250D03*
X197643750Y-126206250D03*
%TD*%
D10*
%TO.C,SW53*%
X243998750Y-109696250D03*
D11*
X249078750Y-109696250D03*
D10*
X254158750Y-109696250D03*
D12*
X251618750Y-104616250D03*
X245268750Y-107156250D03*
%TD*%
D10*
%TO.C,SW13*%
X282098750Y-47783750D03*
D11*
X287178750Y-47783750D03*
D10*
X292258750Y-47783750D03*
D12*
X289718750Y-42703750D03*
X283368750Y-45243750D03*
%TD*%
D10*
%TO.C,SW44*%
X72548750Y-109696250D03*
D11*
X77628750Y-109696250D03*
D10*
X82708750Y-109696250D03*
D12*
X80168750Y-104616250D03*
X73818750Y-107156250D03*
%TD*%
D10*
%TO.C,SW54*%
X263048750Y-109696250D03*
D11*
X268128750Y-109696250D03*
D10*
X273208750Y-109696250D03*
D12*
X270668750Y-104616250D03*
X264318750Y-107156250D03*
%TD*%
D10*
%TO.C,SW69*%
X41592500Y-147796250D03*
D11*
X46672500Y-147796250D03*
D10*
X51752500Y-147796250D03*
D12*
X49212500Y-142716250D03*
X42862500Y-145256250D03*
%TD*%
D10*
%TO.C,SW4*%
X101123750Y-47783750D03*
D11*
X106203750Y-47783750D03*
D10*
X111283750Y-47783750D03*
D12*
X108743750Y-42703750D03*
X102393750Y-45243750D03*
%TD*%
D18*
%TO.C,J1*%
X350233750Y-91900000D03*
X352773750Y-91900000D03*
X355313750Y-91900000D03*
X357853750Y-91900000D03*
%TD*%
D10*
%TO.C,SW79*%
X367823750Y-147796250D03*
D11*
X372903750Y-147796250D03*
D10*
X377983750Y-147796250D03*
D12*
X375443750Y-142716250D03*
X369093750Y-145256250D03*
%TD*%
D10*
%TO.C,SW49*%
X167798750Y-109696250D03*
D11*
X172878750Y-109696250D03*
D10*
X177958750Y-109696250D03*
D12*
X175418750Y-104616250D03*
X169068750Y-107156250D03*
%TD*%
D10*
%TO.C,SW77*%
X329723750Y-147796250D03*
D11*
X334803750Y-147796250D03*
D10*
X339883750Y-147796250D03*
D12*
X337343750Y-142716250D03*
X330993750Y-145256250D03*
%TD*%
D10*
%TO.C,SW32*%
X105886250Y-90646250D03*
D11*
X110966250Y-90646250D03*
D10*
X116046250Y-90646250D03*
D12*
X113506250Y-85566250D03*
X107156250Y-88106250D03*
%TD*%
D10*
%TO.C,SW25*%
X229711250Y-71596250D03*
D11*
X234791250Y-71596250D03*
D10*
X239871250Y-71596250D03*
D12*
X237331250Y-66516250D03*
X230981250Y-69056250D03*
%TD*%
D19*
%TO.C,U2*%
X376901250Y-69347500D03*
D20*
X373871250Y-69647500D03*
X373871250Y-74497500D03*
D19*
X376901250Y-74797500D03*
D21*
X377031250Y-63182500D03*
X374491250Y-63182500D03*
D22*
X371951250Y-63182500D03*
D21*
X369411250Y-63182500D03*
X366871250Y-63182500D03*
X364331250Y-63182500D03*
X361791250Y-63182500D03*
D22*
X359251250Y-63182500D03*
D21*
X356711250Y-63182500D03*
X354171250Y-63182500D03*
X351631250Y-63182500D03*
X349091250Y-63182500D03*
D22*
X346551250Y-63182500D03*
D21*
X344011250Y-63182500D03*
X341471250Y-63182500D03*
X338931250Y-63182500D03*
X336391250Y-63182500D03*
D22*
X333851250Y-63182500D03*
D21*
X331311250Y-63182500D03*
X328771250Y-63182500D03*
X328771250Y-80962500D03*
X331311250Y-80962500D03*
D22*
X333851250Y-80962500D03*
D21*
X336391250Y-80962500D03*
X338931250Y-80962500D03*
X341471250Y-80962500D03*
X344011250Y-80962500D03*
D22*
X346551250Y-80962500D03*
D21*
X349091250Y-80962500D03*
X351631250Y-80962500D03*
X354171250Y-80962500D03*
X356711250Y-80962500D03*
D22*
X359251250Y-80962500D03*
D21*
X361791250Y-80962500D03*
X364331250Y-80962500D03*
X366871250Y-80962500D03*
X369411250Y-80962500D03*
D22*
X371951250Y-80962500D03*
D21*
X374491250Y-80962500D03*
X377031250Y-80962500D03*
X329001250Y-69532500D03*
D22*
X329001250Y-72072500D03*
D21*
X329001250Y-74612500D03*
%TD*%
D10*
%TO.C,SW62*%
X177323750Y-128746250D03*
D11*
X182403750Y-128746250D03*
D10*
X187483750Y-128746250D03*
D12*
X184943750Y-123666250D03*
X178593750Y-126206250D03*
%TD*%
D10*
%TO.C,SW61*%
X158273750Y-128746250D03*
D11*
X163353750Y-128746250D03*
D10*
X168433750Y-128746250D03*
D12*
X165893750Y-123666250D03*
X159543750Y-126206250D03*
%TD*%
D14*
%TO.C,SW67*%
X282422500Y-121746250D03*
D11*
X282422500Y-136986250D03*
D10*
X289242500Y-128746250D03*
D11*
X294322500Y-128746250D03*
D10*
X299402500Y-128746250D03*
D14*
X306222500Y-121746250D03*
D11*
X306222500Y-136986250D03*
D12*
X296862500Y-123666250D03*
X290512500Y-126206250D03*
%TD*%
D23*
%TO.C,U1*%
X326670000Y-37850000D03*
X326670000Y-40390000D03*
X326670000Y-42930000D03*
X326670000Y-45470000D03*
X326670000Y-48010000D03*
X326670000Y-50550000D03*
X326670000Y-53090000D03*
X341910000Y-53090000D03*
X341910000Y-50550000D03*
X341910000Y-48010000D03*
X341910000Y-45470000D03*
X341910000Y-42930000D03*
X341910000Y-40390000D03*
X341910000Y-37850000D03*
%TD*%
D15*
%TO.C,SW80*%
X350000000Y-43500000D03*
D16*
X350000000Y-48500000D03*
X350000000Y-46000000D03*
D17*
X357500000Y-40400000D03*
X357500000Y-51600000D03*
D16*
X364500000Y-48500000D03*
X364500000Y-43500000D03*
%TD*%
D10*
%TO.C,SW58*%
X101123750Y-128746250D03*
D11*
X106203750Y-128746250D03*
D10*
X111283750Y-128746250D03*
D12*
X108743750Y-123666250D03*
X102393750Y-126206250D03*
%TD*%
D24*
%TO.C,D101*%
X179391250Y-75325000D03*
X179391250Y-77075000D03*
X175891250Y-77075000D03*
X175891250Y-75325000D03*
%TD*%
D25*
%TO.C,D61*%
X172878750Y-124936250D03*
D26*
X172878750Y-132556250D03*
%TD*%
D25*
%TO.C,D44*%
X87153750Y-105886250D03*
D26*
X87153750Y-113506250D03*
%TD*%
D25*
%TO.C,D29*%
X63341250Y-86836250D03*
D26*
X63341250Y-94456250D03*
%TD*%
D25*
%TO.C,D28*%
X320516250Y-67786250D03*
D26*
X320516250Y-75406250D03*
%TD*%
D25*
%TO.C,D56*%
X77628750Y-124936250D03*
D26*
X77628750Y-132556250D03*
%TD*%
D24*
%TO.C,D84*%
X127003750Y-51512500D03*
X127003750Y-53262500D03*
X123503750Y-53262500D03*
X123503750Y-51512500D03*
%TD*%
%TO.C,D126*%
X136528750Y-113425000D03*
X136528750Y-115175000D03*
X133028750Y-115175000D03*
X133028750Y-113425000D03*
%TD*%
%TO.C,D158*%
X374653750Y-151525000D03*
X374653750Y-153275000D03*
X371153750Y-153275000D03*
X371153750Y-151525000D03*
%TD*%
%TO.C,D88*%
X207966250Y-51512500D03*
X207966250Y-53262500D03*
X204466250Y-53262500D03*
X204466250Y-51512500D03*
%TD*%
D25*
%TO.C,D25*%
X244316250Y-67786250D03*
D26*
X244316250Y-75406250D03*
%TD*%
D25*
%TO.C,D10*%
X239553750Y-43973750D03*
D26*
X239553750Y-51593750D03*
%TD*%
D24*
%TO.C,D105*%
X255591250Y-75325000D03*
X255591250Y-77075000D03*
X252091250Y-77075000D03*
X252091250Y-75325000D03*
%TD*%
D25*
%TO.C,D60*%
X153828750Y-124936250D03*
D26*
X153828750Y-132556250D03*
%TD*%
D24*
%TO.C,D145*%
X260353750Y-132475000D03*
X260353750Y-134225000D03*
X256853750Y-134225000D03*
X256853750Y-132475000D03*
%TD*%
D25*
%TO.C,D79*%
X382428750Y-143986250D03*
D26*
X382428750Y-151606250D03*
%TD*%
D25*
%TO.C,D23*%
X206216250Y-67786250D03*
D26*
X206216250Y-75406250D03*
%TD*%
D24*
%TO.C,D90*%
X250828750Y-51512500D03*
X250828750Y-53262500D03*
X247328750Y-53262500D03*
X247328750Y-51512500D03*
%TD*%
D25*
%TO.C,D14*%
X320516250Y-43973750D03*
D26*
X320516250Y-51593750D03*
%TD*%
D25*
%TO.C,D34*%
X158591250Y-86836250D03*
D26*
X158591250Y-94456250D03*
%TD*%
D24*
%TO.C,D92*%
X288928750Y-51512500D03*
X288928750Y-53262500D03*
X285428750Y-53262500D03*
X285428750Y-51512500D03*
%TD*%
D25*
%TO.C,D12*%
X277653750Y-43973750D03*
D26*
X277653750Y-51593750D03*
%TD*%
D24*
%TO.C,D132*%
X250828750Y-113425000D03*
X250828750Y-115175000D03*
X247328750Y-115175000D03*
X247328750Y-113425000D03*
%TD*%
%TO.C,D114*%
X169866250Y-94375000D03*
X169866250Y-96125000D03*
X166366250Y-96125000D03*
X166366250Y-94375000D03*
%TD*%
%TO.C,D106*%
X274641250Y-75325000D03*
X274641250Y-77075000D03*
X271141250Y-77075000D03*
X271141250Y-75325000D03*
%TD*%
D25*
%TO.C,D16*%
X72866250Y-67786250D03*
D26*
X72866250Y-75406250D03*
%TD*%
D24*
%TO.C,D91*%
X269878750Y-51512500D03*
X269878750Y-53262500D03*
X266378750Y-53262500D03*
X266378750Y-51512500D03*
%TD*%
D25*
%TO.C,D4*%
X115728750Y-43973750D03*
D26*
X115728750Y-51593750D03*
%TD*%
D24*
%TO.C,D82*%
X88903750Y-51512500D03*
X88903750Y-53262500D03*
X85403750Y-53262500D03*
X85403750Y-51512500D03*
%TD*%
D25*
%TO.C,D57*%
X96678750Y-124936250D03*
D26*
X96678750Y-132556250D03*
%TD*%
D25*
%TO.C,D33*%
X139541250Y-86836250D03*
D26*
X139541250Y-94456250D03*
%TD*%
D25*
%TO.C,D22*%
X187166250Y-67786250D03*
D26*
X187166250Y-75406250D03*
%TD*%
D24*
%TO.C,D119*%
X265116250Y-94375000D03*
X265116250Y-96125000D03*
X261616250Y-96125000D03*
X261616250Y-94375000D03*
%TD*%
%TO.C,D93*%
X312741250Y-51512500D03*
X312741250Y-53262500D03*
X309241250Y-53262500D03*
X309241250Y-51512500D03*
%TD*%
%TO.C,D130*%
X212728750Y-113425000D03*
X212728750Y-115175000D03*
X209228750Y-115175000D03*
X209228750Y-113425000D03*
%TD*%
D25*
%TO.C,D13*%
X296703750Y-43973750D03*
D26*
X296703750Y-51593750D03*
%TD*%
D25*
%TO.C,D43*%
X68103750Y-105886250D03*
D26*
X68103750Y-113506250D03*
%TD*%
D25*
%TO.C,D73*%
X249078750Y-143986250D03*
D26*
X249078750Y-151606250D03*
%TD*%
D24*
%TO.C,D146*%
X296100756Y-132475000D03*
X296100756Y-134225000D03*
X292600756Y-134225000D03*
X292600756Y-132475000D03*
%TD*%
D25*
%TO.C,D27*%
X282416250Y-67786250D03*
D26*
X282416250Y-75406250D03*
%TD*%
D25*
%TO.C,D26*%
X263366250Y-67786250D03*
D26*
X263366250Y-75406250D03*
%TD*%
D25*
%TO.C,D54*%
X277653750Y-105886250D03*
D26*
X277653750Y-113506250D03*
%TD*%
D24*
%TO.C,D129*%
X193678750Y-113425000D03*
X193678750Y-115175000D03*
X190178750Y-115175000D03*
X190178750Y-113425000D03*
%TD*%
%TO.C,D152*%
X238922500Y-151525000D03*
X238922500Y-153275000D03*
X235422500Y-153275000D03*
X235422500Y-151525000D03*
%TD*%
D25*
%TO.C,D41*%
X291941250Y-86836250D03*
D26*
X291941250Y-94456250D03*
%TD*%
D24*
%TO.C,D125*%
X117478750Y-113425000D03*
X117478750Y-115175000D03*
X113978750Y-115175000D03*
X113978750Y-113425000D03*
%TD*%
D25*
%TO.C,D51*%
X220503750Y-105886250D03*
D26*
X220503750Y-113506250D03*
%TD*%
D24*
%TO.C,D124*%
X98428750Y-113425000D03*
X98428750Y-115175000D03*
X94928750Y-115175000D03*
X94928750Y-113425000D03*
%TD*%
D25*
%TO.C,D77*%
X344328750Y-143986250D03*
D26*
X344328750Y-151606250D03*
%TD*%
D25*
%TO.C,D74*%
X272891250Y-143986250D03*
D26*
X272891250Y-151606250D03*
%TD*%
D25*
%TO.C,D76*%
X320516250Y-143986250D03*
D26*
X320516250Y-151606250D03*
%TD*%
D24*
%TO.C,D95*%
X65091250Y-75325000D03*
X65091250Y-77075000D03*
X61591250Y-77075000D03*
X61591250Y-75325000D03*
%TD*%
D25*
%TO.C,D63*%
X210978750Y-124936250D03*
D26*
X210978750Y-132556250D03*
%TD*%
D25*
%TO.C,D20*%
X149066250Y-67786250D03*
D26*
X149066250Y-75406250D03*
%TD*%
D25*
%TO.C,D3*%
X96678750Y-43973750D03*
D26*
X96678750Y-51593750D03*
%TD*%
D25*
%TO.C,D11*%
X258603750Y-43973750D03*
D26*
X258603750Y-51593750D03*
%TD*%
D24*
%TO.C,D140*%
X165103750Y-132475000D03*
X165103750Y-134225000D03*
X161603750Y-134225000D03*
X161603750Y-132475000D03*
%TD*%
D25*
%TO.C,D15*%
X53816250Y-67786250D03*
D26*
X53816250Y-75406250D03*
%TD*%
D24*
%TO.C,D155*%
X310360000Y-151525000D03*
X310360000Y-153275000D03*
X306860000Y-153275000D03*
X306860000Y-151525000D03*
%TD*%
%TO.C,D127*%
X155578750Y-113425000D03*
X155578750Y-115175000D03*
X152078750Y-115175000D03*
X152078750Y-113425000D03*
%TD*%
%TO.C,D96*%
X84141250Y-75325000D03*
X84141250Y-77075000D03*
X80641250Y-77075000D03*
X80641250Y-75325000D03*
%TD*%
%TO.C,D156*%
X336553750Y-151525000D03*
X336553750Y-153275000D03*
X333053750Y-153275000D03*
X333053750Y-151525000D03*
%TD*%
D25*
%TO.C,D38*%
X234791250Y-86836250D03*
D26*
X234791250Y-94456250D03*
%TD*%
D25*
%TO.C,D36*%
X196691250Y-86836250D03*
D26*
X196691250Y-94456250D03*
%TD*%
D24*
%TO.C,D147*%
X355603750Y-132475000D03*
X355603750Y-134225000D03*
X352103750Y-134225000D03*
X352103750Y-132475000D03*
%TD*%
%TO.C,D112*%
X131766250Y-94375000D03*
X131766250Y-96125000D03*
X128266250Y-96125000D03*
X128266250Y-94375000D03*
%TD*%
%TO.C,D99*%
X141291250Y-75325000D03*
X141291250Y-77075000D03*
X137791250Y-77075000D03*
X137791250Y-75325000D03*
%TD*%
D25*
%TO.C,D78*%
X363378750Y-143986250D03*
D26*
X363378750Y-151606250D03*
%TD*%
D25*
%TO.C,D59*%
X134778750Y-124936250D03*
D26*
X134778750Y-132556250D03*
%TD*%
D24*
%TO.C,D113*%
X150816250Y-94375000D03*
X150816250Y-96125000D03*
X147316250Y-96125000D03*
X147316250Y-94375000D03*
%TD*%
D25*
%TO.C,D8*%
X196691250Y-43973750D03*
D26*
X196691250Y-51593750D03*
%TD*%
D25*
%TO.C,D64*%
X230028750Y-124936250D03*
D26*
X230028750Y-132556250D03*
%TD*%
D24*
%TO.C,D115*%
X188916250Y-94375000D03*
X188916250Y-96125000D03*
X185416250Y-96125000D03*
X185416250Y-94375000D03*
%TD*%
%TO.C,D87*%
X188916250Y-51512500D03*
X188916250Y-53262500D03*
X185416250Y-53262500D03*
X185416250Y-51512500D03*
%TD*%
%TO.C,D138*%
X127003750Y-132475000D03*
X127003750Y-134225000D03*
X123503750Y-134225000D03*
X123503750Y-132475000D03*
%TD*%
D25*
%TO.C,D2*%
X77628750Y-43973750D03*
D26*
X77628750Y-51593750D03*
%TD*%
D24*
%TO.C,D142*%
X203203750Y-132475000D03*
X203203750Y-134225000D03*
X199703750Y-134225000D03*
X199703750Y-132475000D03*
%TD*%
%TO.C,D100*%
X160341250Y-75325000D03*
X160341250Y-77075000D03*
X156841250Y-77075000D03*
X156841250Y-75325000D03*
%TD*%
%TO.C,D153*%
X262735000Y-151525000D03*
X262735000Y-153275000D03*
X259235000Y-153275000D03*
X259235000Y-151525000D03*
%TD*%
%TO.C,D151*%
X167500332Y-151525000D03*
X167500332Y-153275000D03*
X164000332Y-153275000D03*
X164000332Y-151525000D03*
%TD*%
%TO.C,D98*%
X122241250Y-75325000D03*
X122241250Y-77075000D03*
X118741250Y-77075000D03*
X118741250Y-75325000D03*
%TD*%
D25*
%TO.C,D70*%
X82391250Y-143986250D03*
D26*
X82391250Y-151606250D03*
%TD*%
D25*
%TO.C,D7*%
X177641250Y-43973750D03*
D26*
X177641250Y-51593750D03*
%TD*%
D24*
%TO.C,D117*%
X227016250Y-94375000D03*
X227016250Y-96125000D03*
X223516250Y-96125000D03*
X223516250Y-94375000D03*
%TD*%
%TO.C,D144*%
X241303750Y-132475000D03*
X241303750Y-134225000D03*
X237803750Y-134225000D03*
X237803750Y-132475000D03*
%TD*%
D25*
%TO.C,D55*%
X320516250Y-105886250D03*
D26*
X320516250Y-113506250D03*
%TD*%
D25*
%TO.C,D46*%
X125253750Y-105886250D03*
D26*
X125253750Y-113506250D03*
%TD*%
D25*
%TO.C,D35*%
X177641250Y-86836250D03*
D26*
X177641250Y-94456250D03*
%TD*%
D24*
%TO.C,D141*%
X184153750Y-132475000D03*
X184153750Y-134225000D03*
X180653750Y-134225000D03*
X180653750Y-132475000D03*
%TD*%
%TO.C,D97*%
X103191250Y-75325000D03*
X103191250Y-77075000D03*
X99691250Y-77075000D03*
X99691250Y-75325000D03*
%TD*%
D25*
%TO.C,D24*%
X225266250Y-67786250D03*
D26*
X225266250Y-75406250D03*
%TD*%
D24*
%TO.C,D116*%
X207966250Y-94375000D03*
X207966250Y-96125000D03*
X204466250Y-96125000D03*
X204466250Y-94375000D03*
%TD*%
%TO.C,D123*%
X79378750Y-113425000D03*
X79378750Y-115175000D03*
X75878750Y-115175000D03*
X75878750Y-113425000D03*
%TD*%
%TO.C,D136*%
X88903750Y-132475000D03*
X88903750Y-134225000D03*
X85403750Y-134225000D03*
X85403750Y-132475000D03*
%TD*%
%TO.C,D139*%
X146053750Y-132475000D03*
X146053750Y-134225000D03*
X142553750Y-134225000D03*
X142553750Y-132475000D03*
%TD*%
D25*
%TO.C,D18*%
X110966250Y-67786250D03*
D26*
X110966250Y-75406250D03*
%TD*%
D25*
%TO.C,D45*%
X106203750Y-105886250D03*
D26*
X106203750Y-113506250D03*
%TD*%
D25*
%TO.C,D67*%
X320516250Y-124936250D03*
D26*
X320516250Y-132556250D03*
%TD*%
D25*
%TO.C,D71*%
X106203750Y-143986250D03*
D26*
X106203750Y-151606250D03*
%TD*%
D25*
%TO.C,D1*%
X53816250Y-43973750D03*
D26*
X53816250Y-51593750D03*
%TD*%
D25*
%TO.C,D58*%
X115728750Y-124936250D03*
D26*
X115728750Y-132556250D03*
%TD*%
D24*
%TO.C,D149*%
X72235000Y-151525000D03*
X72235000Y-153275000D03*
X68735000Y-153275000D03*
X68735000Y-151525000D03*
%TD*%
%TO.C,D109*%
X74616250Y-94375000D03*
X74616250Y-96125000D03*
X71116250Y-96125000D03*
X71116250Y-94375000D03*
%TD*%
D25*
%TO.C,D52*%
X239553750Y-105886250D03*
D26*
X239553750Y-113506250D03*
%TD*%
D24*
%TO.C,D94*%
X46041250Y-75325000D03*
X46041250Y-77075000D03*
X42541250Y-77075000D03*
X42541250Y-75325000D03*
%TD*%
D25*
%TO.C,D42*%
X320516250Y-86836250D03*
D26*
X320516250Y-94456250D03*
%TD*%
D25*
%TO.C,D5*%
X134778750Y-43973750D03*
D26*
X134778750Y-51593750D03*
%TD*%
D24*
%TO.C,D81*%
X69853750Y-51512500D03*
X69853750Y-53262500D03*
X66353750Y-53262500D03*
X66353750Y-51512500D03*
%TD*%
D25*
%TO.C,D30*%
X82391250Y-86836250D03*
D26*
X82391250Y-94456250D03*
%TD*%
D24*
%TO.C,D154*%
X286547500Y-151525000D03*
X286547500Y-153275000D03*
X283047500Y-153275000D03*
X283047500Y-151525000D03*
%TD*%
%TO.C,D150*%
X96047500Y-151525000D03*
X96047500Y-153275000D03*
X92547500Y-153275000D03*
X92547500Y-151525000D03*
%TD*%
D25*
%TO.C,D39*%
X253841250Y-86836250D03*
D26*
X253841250Y-94456250D03*
%TD*%
D24*
%TO.C,D103*%
X217491250Y-75325000D03*
X217491250Y-77075000D03*
X213991250Y-77075000D03*
X213991250Y-75325000D03*
%TD*%
D25*
%TO.C,D17*%
X91916250Y-67786250D03*
D26*
X91916250Y-75406250D03*
%TD*%
D25*
%TO.C,D62*%
X191928750Y-124936250D03*
D26*
X191928750Y-132556250D03*
%TD*%
D24*
%TO.C,D118*%
X246066250Y-94375000D03*
X246066250Y-96125000D03*
X242566250Y-96125000D03*
X242566250Y-94375000D03*
%TD*%
D25*
%TO.C,D72*%
X225266250Y-143986250D03*
D26*
X225266250Y-151606250D03*
%TD*%
D24*
%TO.C,D131*%
X231778750Y-113425000D03*
X231778750Y-115175000D03*
X228278750Y-115175000D03*
X228278750Y-113425000D03*
%TD*%
%TO.C,D128*%
X174628750Y-113425000D03*
X174628750Y-115175000D03*
X171128750Y-115175000D03*
X171128750Y-113425000D03*
%TD*%
D25*
%TO.C,D21*%
X168116250Y-67786250D03*
D26*
X168116250Y-75406250D03*
%TD*%
D24*
%TO.C,D121*%
X307978750Y-94375000D03*
X307978750Y-96125000D03*
X304478750Y-96125000D03*
X304478750Y-94375000D03*
%TD*%
D25*
%TO.C,D37*%
X215741250Y-86836250D03*
D26*
X215741250Y-94456250D03*
%TD*%
D25*
%TO.C,D49*%
X182403750Y-105886250D03*
D26*
X182403750Y-113506250D03*
%TD*%
D25*
%TO.C,D6*%
X158591250Y-43973750D03*
D26*
X158591250Y-51593750D03*
%TD*%
D24*
%TO.C,D111*%
X112716250Y-94375000D03*
X112716250Y-96125000D03*
X109216250Y-96125000D03*
X109216250Y-94375000D03*
%TD*%
D25*
%TO.C,D69*%
X58578750Y-143986250D03*
D26*
X58578750Y-151606250D03*
%TD*%
D25*
%TO.C,D68*%
X363378750Y-124936250D03*
D26*
X363378750Y-132556250D03*
%TD*%
D24*
%TO.C,D89*%
X231778750Y-51512500D03*
X231778750Y-53262500D03*
X228278750Y-53262500D03*
X228278750Y-51512500D03*
%TD*%
D25*
%TO.C,D75*%
X296703750Y-143986250D03*
D26*
X296703750Y-151606250D03*
%TD*%
D25*
%TO.C,D50*%
X201453750Y-105886250D03*
D26*
X201453750Y-113506250D03*
%TD*%
D24*
%TO.C,D122*%
X53185000Y-113425000D03*
X53185000Y-115175000D03*
X49685000Y-115175000D03*
X49685000Y-113425000D03*
%TD*%
%TO.C,D137*%
X107953750Y-132475000D03*
X107953750Y-134225000D03*
X104453750Y-134225000D03*
X104453750Y-132475000D03*
%TD*%
D25*
%TO.C,D53*%
X258603750Y-105886250D03*
D26*
X258603750Y-113506250D03*
%TD*%
D24*
%TO.C,D157*%
X355603750Y-151525000D03*
X355603750Y-153275000D03*
X352103750Y-153275000D03*
X352103750Y-151525000D03*
%TD*%
%TO.C,D143*%
X222253750Y-132475000D03*
X222253750Y-134225000D03*
X218753750Y-134225000D03*
X218753750Y-132475000D03*
%TD*%
D25*
%TO.C,D66*%
X268128750Y-124936250D03*
D26*
X268128750Y-132556250D03*
%TD*%
D24*
%TO.C,D102*%
X198441250Y-75325000D03*
X198441250Y-77075000D03*
X194941250Y-77075000D03*
X194941250Y-75325000D03*
%TD*%
%TO.C,D107*%
X303238121Y-75325000D03*
X303238121Y-77075000D03*
X299738121Y-77075000D03*
X299738121Y-75325000D03*
%TD*%
D25*
%TO.C,D48*%
X163353750Y-105886250D03*
D26*
X163353750Y-113506250D03*
%TD*%
D24*
%TO.C,D80*%
X46041250Y-51512500D03*
X46041250Y-53262500D03*
X42541250Y-53262500D03*
X42541250Y-51512500D03*
%TD*%
%TO.C,D133*%
X269878750Y-113425000D03*
X269878750Y-115175000D03*
X266378750Y-115175000D03*
X266378750Y-113425000D03*
%TD*%
%TO.C,D108*%
X50803750Y-94375000D03*
X50803750Y-96125000D03*
X47303750Y-96125000D03*
X47303750Y-94375000D03*
%TD*%
%TO.C,D104*%
X236541250Y-75325000D03*
X236541250Y-77075000D03*
X233041250Y-77075000D03*
X233041250Y-75325000D03*
%TD*%
%TO.C,D120*%
X284166250Y-94375000D03*
X284166250Y-96125000D03*
X280666250Y-96125000D03*
X280666250Y-94375000D03*
%TD*%
%TO.C,D83*%
X107953750Y-51512500D03*
X107953750Y-53262500D03*
X104453750Y-53262500D03*
X104453750Y-51512500D03*
%TD*%
%TO.C,D134*%
X300837623Y-113425000D03*
X300837623Y-115175000D03*
X297337623Y-115175000D03*
X297337623Y-113425000D03*
%TD*%
D25*
%TO.C,D40*%
X272891250Y-86836250D03*
D26*
X272891250Y-94456250D03*
%TD*%
D24*
%TO.C,D148*%
X48422500Y-151525000D03*
X48422500Y-153275000D03*
X44922500Y-153275000D03*
X44922500Y-151525000D03*
%TD*%
D25*
%TO.C,D32*%
X120491250Y-86836250D03*
D26*
X120491250Y-94456250D03*
%TD*%
D24*
%TO.C,D86*%
X169866250Y-51512500D03*
X169866250Y-53262500D03*
X166366250Y-53262500D03*
X166366250Y-51512500D03*
%TD*%
D25*
%TO.C,D47*%
X144303750Y-105886250D03*
D26*
X144303750Y-113506250D03*
%TD*%
D24*
%TO.C,D110*%
X93666250Y-94375000D03*
X93666250Y-96125000D03*
X90166250Y-96125000D03*
X90166250Y-94375000D03*
%TD*%
D25*
%TO.C,D9*%
X215741250Y-43973750D03*
D26*
X215741250Y-51593750D03*
%TD*%
D25*
%TO.C,D65*%
X249078750Y-124936250D03*
D26*
X249078750Y-132556250D03*
%TD*%
D25*
%TO.C,D31*%
X101441250Y-86836250D03*
D26*
X101441250Y-94456250D03*
%TD*%
D24*
%TO.C,D85*%
X150816250Y-51512500D03*
X150816250Y-53262500D03*
X147316250Y-53262500D03*
X147316250Y-51512500D03*
%TD*%
%TO.C,D135*%
X57949541Y-132475000D03*
X57949541Y-134225000D03*
X54449541Y-134225000D03*
X54449541Y-132475000D03*
%TD*%
D25*
%TO.C,D19*%
X130016250Y-67786250D03*
D26*
X130016250Y-75406250D03*
%TD*%
M02*
