%TF.GenerationSoftware,KiCad,Pcbnew,9.0.6*%
%TF.CreationDate,2026-03-21T22:50:52-04:00*%
%TF.ProjectId,CapyBoard,43617079-426f-4617-9264-2e6b69636164,rev?*%
%TF.SameCoordinates,Original*%
%TF.FileFunction,Copper,L2,Bot*%
%TF.FilePolarity,Positive*%
%FSLAX46Y46*%
G04 Gerber Fmt 4.6, Leading zero omitted, Abs format (unit mm)*
G04 Created by KiCad (PCBNEW 9.0.6) date 2026-03-21 22:50:52*
%MOMM*%
%LPD*%
G01*
G04 APERTURE LIST*
G04 Aperture macros list*
%AMRoundRect*
0 Rectangle with rounded corners*
0 $1 Rounding radius*
0 $2 $3 $4 $5 $6 $7 $8 $9 X,Y pos of 4 corners*
0 Add a 4 corners polygon primitive as box body*
4,1,4,$2,$3,$4,$5,$6,$7,$8,$9,$2,$3,0*
0 Add four circle primitives for the rounded corners*
1,1,$1+$1,$2,$3*
1,1,$1+$1,$4,$5*
1,1,$1+$1,$6,$7*
1,1,$1+$1,$8,$9*
0 Add four rect primitives between the rounded corners*
20,1,$1+$1,$2,$3,$4,$5,0*
20,1,$1+$1,$4,$5,$6,$7,0*
20,1,$1+$1,$6,$7,$8,$9,0*
20,1,$1+$1,$8,$9,$2,$3,0*%
G04 Aperture macros list end*
%TA.AperFunction,ComponentPad*%
%ADD10C,2.200000*%
%TD*%
%TA.AperFunction,ComponentPad*%
%ADD11C,3.800000*%
%TD*%
%TA.AperFunction,ComponentPad*%
%ADD12R,2.000000X2.000000*%
%TD*%
%TA.AperFunction,ComponentPad*%
%ADD13C,2.000000*%
%TD*%
%TA.AperFunction,ComponentPad*%
%ADD14C,3.200000*%
%TD*%
%TA.AperFunction,ComponentPad*%
%ADD15O,1.600000X2.000000*%
%TD*%
%TA.AperFunction,ComponentPad*%
%ADD16O,1.700000X1.700000*%
%TD*%
%TA.AperFunction,ComponentPad*%
%ADD17R,1.700000X1.700000*%
%TD*%
%TA.AperFunction,ComponentPad*%
%ADD18C,1.524000*%
%TD*%
%TA.AperFunction,SMDPad,CuDef*%
%ADD19R,1.600000X0.850000*%
%TD*%
%TA.AperFunction,ComponentPad*%
%ADD20RoundRect,0.250000X-0.550000X0.550000X-0.550000X-0.550000X0.550000X-0.550000X0.550000X0.550000X0*%
%TD*%
%TA.AperFunction,ComponentPad*%
%ADD21C,1.600000*%
%TD*%
%TA.AperFunction,ViaPad*%
%ADD22C,0.600000*%
%TD*%
%TA.AperFunction,Conductor*%
%ADD23C,0.200000*%
%TD*%
G04 APERTURE END LIST*
D10*
%TO.P,SW3,1,1*%
%TO.N,Column 3*%
X89693750Y-42703750D03*
%TO.P,SW3,2,2*%
%TO.N,Net-(D3-A)*%
X83343750Y-45243750D03*
%TD*%
%TO.P,SW71,1,1*%
%TO.N,Column 3*%
X96837500Y-142716250D03*
%TO.P,SW71,2,2*%
%TO.N,Net-(D71-A)*%
X90487500Y-145256250D03*
%TD*%
%TO.P,SW11,1,1*%
%TO.N,Column 11*%
X251618750Y-42703750D03*
%TO.P,SW11,2,2*%
%TO.N,Net-(D11-A)*%
X245268750Y-45243750D03*
%TD*%
%TO.P,SW66,1,1*%
%TO.N,Column 11*%
X261143750Y-123666250D03*
%TO.P,SW66,2,2*%
%TO.N,Net-(D66-A)*%
X254793750Y-126206250D03*
%TD*%
%TO.P,SW46,1,1*%
%TO.N,Column 4*%
X118268750Y-104616250D03*
%TO.P,SW46,2,2*%
%TO.N,Net-(D46-A)*%
X111918750Y-107156250D03*
%TD*%
%TO.P,SW36,1,1*%
%TO.N,Column 8*%
X189706250Y-85566250D03*
%TO.P,SW36,2,2*%
%TO.N,Net-(D36-A)*%
X183356250Y-88106250D03*
%TD*%
%TO.P,SW14,1,1*%
%TO.N,Column 14*%
X313531250Y-42703750D03*
%TO.P,SW14,2,2*%
%TO.N,Net-(D14-A)*%
X307181250Y-45243750D03*
%TD*%
D11*
%TO.P,REF\u002A\u002A,1*%
%TO.N,N/C*%
X30000000Y-35000000D03*
%TD*%
D10*
%TO.P,SW5,1,1*%
%TO.N,Column 5*%
X127793750Y-42703750D03*
%TO.P,SW5,2,2*%
%TO.N,Net-(D5-A)*%
X121443750Y-45243750D03*
%TD*%
%TO.P,SW6,1,1*%
%TO.N,Column 6*%
X151606250Y-42703750D03*
%TO.P,SW6,2,2*%
%TO.N,Net-(D6-A)*%
X145256250Y-45243750D03*
%TD*%
%TO.P,SW40,1,1*%
%TO.N,Column 12*%
X265906250Y-85566250D03*
%TO.P,SW40,2,2*%
%TO.N,Net-(D40-A)*%
X259556250Y-88106250D03*
%TD*%
%TO.P,SW73,1,1*%
%TO.N,Column 8*%
X239712500Y-142716250D03*
%TO.P,SW73,2,2*%
%TO.N,Net-(D73-A)*%
X233362500Y-145256250D03*
%TD*%
%TO.P,SW21,1,1*%
%TO.N,Column 7*%
X161131250Y-66516250D03*
%TO.P,SW21,2,2*%
%TO.N,Net-(D21-A)*%
X154781250Y-69056250D03*
%TD*%
%TO.P,SW16,1,1*%
%TO.N,Column 2*%
X65881250Y-66516250D03*
%TO.P,SW16,2,2*%
%TO.N,Net-(D16-A)*%
X59531250Y-69056250D03*
%TD*%
%TO.P,SW55,1,1*%
%TO.N,Column 13*%
X301625000Y-104616250D03*
%TO.P,SW55,2,2*%
%TO.N,Net-(D55-A)*%
X295275000Y-107156250D03*
%TD*%
%TO.P,SW30,1,1*%
%TO.N,Column 2*%
X75406250Y-85566250D03*
%TO.P,SW30,2,2*%
%TO.N,Net-(D30-A)*%
X69056250Y-88106250D03*
%TD*%
%TO.P,SW43,1,1*%
%TO.N,Column 1*%
X53975000Y-104616250D03*
%TO.P,SW43,2,2*%
%TO.N,Net-(D43-A)*%
X47625000Y-107156250D03*
%TD*%
%TO.P,SW24,1,1*%
%TO.N,Column 10*%
X218281250Y-66516250D03*
%TO.P,SW24,2,2*%
%TO.N,Net-(D24-A)*%
X211931250Y-69056250D03*
%TD*%
%TO.P,SW41,1,1*%
%TO.N,Column 13*%
X284956250Y-85566250D03*
%TO.P,SW41,2,2*%
%TO.N,Net-(D41-A)*%
X278606250Y-88106250D03*
%TD*%
%TO.P,SW1,1,1*%
%TO.N,Column 1*%
X46831250Y-42703750D03*
%TO.P,SW1,2,2*%
%TO.N,Net-(D1-A)*%
X40481250Y-45243750D03*
%TD*%
%TO.P,SW60,1,1*%
%TO.N,Column 5*%
X146843750Y-123666250D03*
%TO.P,SW60,2,2*%
%TO.N,Net-(D60-A)*%
X140493750Y-126206250D03*
%TD*%
%TO.P,SW76,1,1*%
%TO.N,Column 11*%
X311150000Y-142716250D03*
%TO.P,SW76,2,2*%
%TO.N,Net-(D76-A)*%
X304800000Y-145256250D03*
%TD*%
%TO.P,SW31,1,1*%
%TO.N,Column 3*%
X94456250Y-85566250D03*
%TO.P,SW31,2,2*%
%TO.N,Net-(D31-A)*%
X88106250Y-88106250D03*
%TD*%
%TO.P,SW27,1,1*%
%TO.N,Column 13*%
X275431250Y-66516250D03*
%TO.P,SW27,2,2*%
%TO.N,Net-(D27-A)*%
X269081250Y-69056250D03*
%TD*%
%TO.P,SW64,1,1*%
%TO.N,Column 9*%
X223043750Y-123666250D03*
%TO.P,SW64,2,2*%
%TO.N,Net-(D64-A)*%
X216693750Y-126206250D03*
%TD*%
%TO.P,SW26,1,1*%
%TO.N,Column 12*%
X256381250Y-66516250D03*
%TO.P,SW26,2,2*%
%TO.N,Net-(D26-A)*%
X250031250Y-69056250D03*
%TD*%
%TO.P,SW72,1,1*%
%TO.N,Column 4*%
X168275000Y-142716250D03*
%TO.P,SW72,2,2*%
%TO.N,Net-(D72-A)*%
X161925000Y-145256250D03*
%TD*%
%TO.P,SW33,1,1*%
%TO.N,Column 5*%
X132556250Y-85566250D03*
%TO.P,SW33,2,2*%
%TO.N,Net-(D33-A)*%
X126206250Y-88106250D03*
%TD*%
D11*
%TO.P,REF\u002A\u002A,1*%
%TO.N,N/C*%
X385000000Y-165000000D03*
%TD*%
D10*
%TO.P,SW38,1,1*%
%TO.N,Column 10*%
X227806250Y-85566250D03*
%TO.P,SW38,2,2*%
%TO.N,Net-(D38-A)*%
X221456250Y-88106250D03*
%TD*%
%TO.P,SW39,1,1*%
%TO.N,Column 11*%
X246856250Y-85566250D03*
%TO.P,SW39,2,2*%
%TO.N,Net-(D39-A)*%
X240506250Y-88106250D03*
%TD*%
%TO.P,SW45,1,1*%
%TO.N,Column 3*%
X99218750Y-104616250D03*
%TO.P,SW45,2,2*%
%TO.N,Net-(D45-A)*%
X92868750Y-107156250D03*
%TD*%
D11*
%TO.P,REF\u002A\u002A,1*%
%TO.N,N/C*%
X30000000Y-165000000D03*
%TD*%
D10*
%TO.P,SW2,1,1*%
%TO.N,Column 2*%
X70643750Y-42703750D03*
%TO.P,SW2,2,2*%
%TO.N,Net-(D2-A)*%
X64293750Y-45243750D03*
%TD*%
%TO.P,SW8,1,1*%
%TO.N,Column 8*%
X189706250Y-42703750D03*
%TO.P,SW8,2,2*%
%TO.N,Net-(D8-A)*%
X183356250Y-45243750D03*
%TD*%
%TO.P,SW23,1,1*%
%TO.N,Column 9*%
X199231250Y-66516250D03*
%TO.P,SW23,2,2*%
%TO.N,Net-(D23-A)*%
X192881250Y-69056250D03*
%TD*%
%TO.P,SW9,1,1*%
%TO.N,Column 9*%
X208756250Y-42703750D03*
%TO.P,SW9,2,2*%
%TO.N,Net-(D9-A)*%
X202406250Y-45243750D03*
%TD*%
D12*
%TO.P,SW81,A,A*%
%TO.N,E2_A*%
X367500000Y-43500000D03*
D13*
%TO.P,SW81,B,B*%
%TO.N,E2_B*%
X367500000Y-48500000D03*
%TO.P,SW81,C,C*%
%TO.N,GND*%
X367500000Y-46000000D03*
D14*
%TO.P,SW81,MP*%
X375000000Y-40400000D03*
X375000000Y-51600000D03*
D13*
%TO.P,SW81,S1,S1*%
%TO.N,E2_SW*%
X382000000Y-48500000D03*
%TO.P,SW81,S2,S2*%
%TO.N,GND*%
X382000000Y-43500000D03*
%TD*%
D11*
%TO.P,REF\u002A\u002A,1*%
%TO.N,N/C*%
X385000000Y-35000000D03*
%TD*%
D10*
%TO.P,SW74,1,1*%
%TO.N,Column 9*%
X263525000Y-142716250D03*
%TO.P,SW74,2,2*%
%TO.N,Net-(D74-A)*%
X257175000Y-145256250D03*
%TD*%
%TO.P,SW57,1,1*%
%TO.N,Column 2*%
X89693750Y-123666250D03*
%TO.P,SW57,2,2*%
%TO.N,Net-(D57-A)*%
X83343750Y-126206250D03*
%TD*%
%TO.P,SW42,1,1*%
%TO.N,Column 14*%
X308768750Y-85566250D03*
%TO.P,SW42,2,2*%
%TO.N,Net-(D42-A)*%
X302418750Y-88106250D03*
%TD*%
%TO.P,SW52,1,1*%
%TO.N,Column 10*%
X232568750Y-104616250D03*
%TO.P,SW52,2,2*%
%TO.N,Net-(D52-A)*%
X226218750Y-107156250D03*
%TD*%
%TO.P,SW56,1,1*%
%TO.N,Column 1*%
X58737500Y-123666250D03*
%TO.P,SW56,2,2*%
%TO.N,Net-(D56-A)*%
X52387500Y-126206250D03*
%TD*%
%TO.P,SW10,1,1*%
%TO.N,Column 10*%
X232568750Y-42703750D03*
%TO.P,SW10,2,2*%
%TO.N,Net-(D10-A)*%
X226218750Y-45243750D03*
%TD*%
%TO.P,SW19,1,1*%
%TO.N,Column 5*%
X123031250Y-66516250D03*
%TO.P,SW19,2,2*%
%TO.N,Net-(D19-A)*%
X116681250Y-69056250D03*
%TD*%
%TO.P,SW68,1,1*%
%TO.N,Column 13*%
X356393750Y-123666250D03*
%TO.P,SW68,2,2*%
%TO.N,Net-(D68-A)*%
X350043750Y-126206250D03*
%TD*%
%TO.P,SW7,1,1*%
%TO.N,Column 7*%
X170656250Y-42703750D03*
%TO.P,SW7,2,2*%
%TO.N,Net-(D7-A)*%
X164306250Y-45243750D03*
%TD*%
%TO.P,SW18,1,1*%
%TO.N,Column 4*%
X103981250Y-66516250D03*
%TO.P,SW18,2,2*%
%TO.N,Net-(D18-A)*%
X97631250Y-69056250D03*
%TD*%
%TO.P,SW29,1,1*%
%TO.N,Column 1*%
X51593750Y-85566250D03*
%TO.P,SW29,2,2*%
%TO.N,Net-(D29-A)*%
X45243750Y-88106250D03*
%TD*%
%TO.P,SW78,1,1*%
%TO.N,Column 13*%
X356393750Y-142716250D03*
%TO.P,SW78,2,2*%
%TO.N,Net-(D78-A)*%
X350043750Y-145256250D03*
%TD*%
%TO.P,SW50,1,1*%
%TO.N,Column 8*%
X194468750Y-104616250D03*
%TO.P,SW50,2,2*%
%TO.N,Net-(D50-A)*%
X188118750Y-107156250D03*
%TD*%
%TO.P,SW34,1,1*%
%TO.N,Column 6*%
X151606250Y-85566250D03*
%TO.P,SW34,2,2*%
%TO.N,Net-(D34-A)*%
X145256250Y-88106250D03*
%TD*%
%TO.P,SW20,1,1*%
%TO.N,Column 6*%
X142081250Y-66516250D03*
%TO.P,SW20,2,2*%
%TO.N,Net-(D20-A)*%
X135731250Y-69056250D03*
%TD*%
%TO.P,SW65,1,1*%
%TO.N,Column 10*%
X242093750Y-123666250D03*
%TO.P,SW65,2,2*%
%TO.N,Net-(D65-A)*%
X235743750Y-126206250D03*
%TD*%
%TO.P,SW17,1,1*%
%TO.N,Column 3*%
X84931250Y-66516250D03*
%TO.P,SW17,2,2*%
%TO.N,Net-(D17-A)*%
X78581250Y-69056250D03*
%TD*%
%TO.P,SW35,1,1*%
%TO.N,Column 7*%
X170656250Y-85566250D03*
%TO.P,SW35,2,2*%
%TO.N,Net-(D35-A)*%
X164306250Y-88106250D03*
%TD*%
%TO.P,SW28,1,1*%
%TO.N,Column 14*%
X304006250Y-66516250D03*
%TO.P,SW28,2,2*%
%TO.N,Net-(D28-A)*%
X297656250Y-69056250D03*
%TD*%
%TO.P,SW75,1,1*%
%TO.N,Column 10*%
X287337500Y-142716250D03*
%TO.P,SW75,2,2*%
%TO.N,Net-(D75-A)*%
X280987500Y-145256250D03*
%TD*%
%TO.P,SW59,1,1*%
%TO.N,Column 4*%
X127793750Y-123666250D03*
%TO.P,SW59,2,2*%
%TO.N,Net-(D59-A)*%
X121443750Y-126206250D03*
%TD*%
%TO.P,SW22,1,1*%
%TO.N,Column 8*%
X180181250Y-66516250D03*
%TO.P,SW22,2,2*%
%TO.N,Net-(D22-A)*%
X173831250Y-69056250D03*
%TD*%
%TO.P,SW15,1,1*%
%TO.N,Column 1*%
X46831250Y-66516250D03*
%TO.P,SW15,2,2*%
%TO.N,Net-(D15-A)*%
X40481250Y-69056250D03*
%TD*%
%TO.P,SW47,1,1*%
%TO.N,Column 5*%
X137318750Y-104616250D03*
%TO.P,SW47,2,2*%
%TO.N,Net-(D47-A)*%
X130968750Y-107156250D03*
%TD*%
%TO.P,SW12,1,1*%
%TO.N,Column 12*%
X270668750Y-42703750D03*
%TO.P,SW12,2,2*%
%TO.N,Net-(D12-A)*%
X264318750Y-45243750D03*
%TD*%
%TO.P,SW37,1,1*%
%TO.N,Column 9*%
X208756250Y-85566250D03*
%TO.P,SW37,2,2*%
%TO.N,Net-(D37-A)*%
X202406250Y-88106250D03*
%TD*%
%TO.P,SW51,1,1*%
%TO.N,Column 9*%
X213518750Y-104616250D03*
%TO.P,SW51,2,2*%
%TO.N,Net-(D51-A)*%
X207168750Y-107156250D03*
%TD*%
%TO.P,SW70,1,1*%
%TO.N,Column 2*%
X73025000Y-142716250D03*
%TO.P,SW70,2,2*%
%TO.N,Net-(D70-A)*%
X66675000Y-145256250D03*
%TD*%
%TO.P,SW48,1,1*%
%TO.N,Column 6*%
X156368750Y-104616250D03*
%TO.P,SW48,2,2*%
%TO.N,Net-(D48-A)*%
X150018750Y-107156250D03*
%TD*%
%TO.P,SW63,1,1*%
%TO.N,Column 8*%
X203993750Y-123666250D03*
%TO.P,SW63,2,2*%
%TO.N,Net-(D63-A)*%
X197643750Y-126206250D03*
%TD*%
%TO.P,SW53,1,1*%
%TO.N,Column 11*%
X251618750Y-104616250D03*
%TO.P,SW53,2,2*%
%TO.N,Net-(D53-A)*%
X245268750Y-107156250D03*
%TD*%
%TO.P,SW13,1,1*%
%TO.N,Column 13*%
X289718750Y-42703750D03*
%TO.P,SW13,2,2*%
%TO.N,Net-(D13-A)*%
X283368750Y-45243750D03*
%TD*%
%TO.P,SW44,1,1*%
%TO.N,Column 2*%
X80168750Y-104616250D03*
%TO.P,SW44,2,2*%
%TO.N,Net-(D44-A)*%
X73818750Y-107156250D03*
%TD*%
%TO.P,SW54,1,1*%
%TO.N,Column 12*%
X270668750Y-104616250D03*
%TO.P,SW54,2,2*%
%TO.N,Net-(D54-A)*%
X264318750Y-107156250D03*
%TD*%
%TO.P,SW69,1,1*%
%TO.N,Column 1*%
X49212500Y-142716250D03*
%TO.P,SW69,2,2*%
%TO.N,Net-(D69-A)*%
X42862500Y-145256250D03*
%TD*%
%TO.P,SW4,1,1*%
%TO.N,Column 4*%
X108743750Y-42703750D03*
%TO.P,SW4,2,2*%
%TO.N,Net-(D4-A)*%
X102393750Y-45243750D03*
%TD*%
D15*
%TO.P,J1,1,Pin_1*%
%TO.N,GND*%
X350233750Y-91900000D03*
%TO.P,J1,2,Pin_2*%
%TO.N,+3.3V*%
X352773750Y-91900000D03*
%TO.P,J1,3,Pin_3*%
%TO.N,I2C_SCL*%
X355313750Y-91900000D03*
%TO.P,J1,4,Pin_4*%
%TO.N,I2C_SDA*%
X357853750Y-91900000D03*
%TD*%
D10*
%TO.P,SW79,1,1*%
%TO.N,Column 14*%
X375443750Y-142716250D03*
%TO.P,SW79,2,2*%
%TO.N,Net-(D79-A)*%
X369093750Y-145256250D03*
%TD*%
%TO.P,SW49,1,1*%
%TO.N,Column 7*%
X175418750Y-104616250D03*
%TO.P,SW49,2,2*%
%TO.N,Net-(D49-A)*%
X169068750Y-107156250D03*
%TD*%
%TO.P,SW77,1,1*%
%TO.N,Column 12*%
X337343750Y-142716250D03*
%TO.P,SW77,2,2*%
%TO.N,Net-(D77-A)*%
X330993750Y-145256250D03*
%TD*%
%TO.P,SW32,1,1*%
%TO.N,Column 4*%
X113506250Y-85566250D03*
%TO.P,SW32,2,2*%
%TO.N,Net-(D32-A)*%
X107156250Y-88106250D03*
%TD*%
%TO.P,SW25,1,1*%
%TO.N,Column 11*%
X237331250Y-66516250D03*
%TO.P,SW25,2,2*%
%TO.N,Net-(D25-A)*%
X230981250Y-69056250D03*
%TD*%
D16*
%TO.P,U2,1,GPIO0*%
%TO.N,I2C_SDA*%
X377031250Y-63182500D03*
%TO.P,U2,2,GPIO1*%
%TO.N,I2C_SCL*%
X374491250Y-63182500D03*
D17*
%TO.P,U2,3,GND*%
%TO.N,GND*%
X371951250Y-63182500D03*
D16*
%TO.P,U2,4,GPIO2*%
%TO.N,Column 14*%
X369411250Y-63182500D03*
%TO.P,U2,5,GPIO3*%
%TO.N,Column 13*%
X366871250Y-63182500D03*
%TO.P,U2,6,GPIO4*%
%TO.N,Column 12*%
X364331250Y-63182500D03*
%TO.P,U2,7,GPIO5*%
%TO.N,Column 11*%
X361791250Y-63182500D03*
D17*
%TO.P,U2,8,GND*%
%TO.N,GND*%
X359251250Y-63182500D03*
D16*
%TO.P,U2,9,GPIO6*%
%TO.N,Column 10*%
X356711250Y-63182500D03*
%TO.P,U2,10,GPIO7*%
%TO.N,Column 9*%
X354171250Y-63182500D03*
%TO.P,U2,11,GPIO8*%
%TO.N,Column 8*%
X351631250Y-63182500D03*
%TO.P,U2,12,GPIO9*%
%TO.N,Column 7*%
X349091250Y-63182500D03*
D17*
%TO.P,U2,13,GND*%
%TO.N,GND*%
X346551250Y-63182500D03*
D16*
%TO.P,U2,14,GPIO10*%
%TO.N,Column 6*%
X344011250Y-63182500D03*
%TO.P,U2,15,GPIO11*%
%TO.N,Column 5*%
X341471250Y-63182500D03*
%TO.P,U2,16,GPIO12*%
%TO.N,Column 4*%
X338931250Y-63182500D03*
%TO.P,U2,17,GPIO13*%
%TO.N,Column 3*%
X336391250Y-63182500D03*
D17*
%TO.P,U2,18,GND*%
%TO.N,GND*%
X333851250Y-63182500D03*
D16*
%TO.P,U2,19,GPIO14*%
%TO.N,Column 2*%
X331311250Y-63182500D03*
%TO.P,U2,20,GPIO15*%
%TO.N,Column 1*%
X328771250Y-63182500D03*
%TO.P,U2,21,GPIO16*%
%TO.N,Row 1*%
X328771250Y-80962500D03*
%TO.P,U2,22,GPIO17*%
%TO.N,Row 2*%
X331311250Y-80962500D03*
D17*
%TO.P,U2,23,GND*%
%TO.N,GND*%
X333851250Y-80962500D03*
D16*
%TO.P,U2,24,GPIO18*%
%TO.N,Row 3*%
X336391250Y-80962500D03*
%TO.P,U2,25,GPIO19*%
%TO.N,Row 4*%
X338931250Y-80962500D03*
%TO.P,U2,26,GPIO20*%
%TO.N,Row 5*%
X341471250Y-80962500D03*
%TO.P,U2,27,GPIO21*%
%TO.N,Row 6*%
X344011250Y-80962500D03*
D17*
%TO.P,U2,28,GND*%
%TO.N,GND*%
X346551250Y-80962500D03*
D16*
%TO.P,U2,29,GPIO22*%
%TO.N,unconnected-(U2-GPIO22-Pad29)*%
X349091250Y-80962500D03*
%TO.P,U2,30,RUN*%
%TO.N,unconnected-(U2-RUN-Pad30)_1*%
X351631250Y-80962500D03*
%TO.P,U2,31,GPIO26_ADC0*%
%TO.N,unconnected-(U2-GPIO26_ADC0-Pad31)*%
X354171250Y-80962500D03*
%TO.P,U2,32,GPIO27_ADC1*%
%TO.N,unconnected-(U2-GPIO27_ADC1-Pad32)_1*%
X356711250Y-80962500D03*
D17*
%TO.P,U2,33,AGND*%
%TO.N,GND*%
X359251250Y-80962500D03*
D16*
%TO.P,U2,34,GPIO28_ADC2*%
%TO.N,unconnected-(U2-GPIO28_ADC2-Pad34)*%
X361791250Y-80962500D03*
%TO.P,U2,35,ADC_VREF*%
%TO.N,unconnected-(U2-ADC_VREF-Pad35)*%
X364331250Y-80962500D03*
%TO.P,U2,36,3V3*%
%TO.N,+3.3V*%
X366871250Y-80962500D03*
%TO.P,U2,37,3V3_EN*%
%TO.N,unconnected-(U2-3V3_EN-Pad37)*%
X369411250Y-80962500D03*
D17*
%TO.P,U2,38,GND*%
%TO.N,GND*%
X371951250Y-80962500D03*
D16*
%TO.P,U2,39,VSYS*%
%TO.N,unconnected-(U2-VSYS-Pad39)*%
X374491250Y-80962500D03*
%TO.P,U2,40,VBUS*%
%TO.N,+5V*%
X377031250Y-80962500D03*
%TO.P,U2,41,SWCLK*%
%TO.N,unconnected-(U2-SWCLK-Pad41)*%
X329001250Y-69532500D03*
D17*
%TO.P,U2,42,GND*%
%TO.N,unconnected-(U2-GND-Pad42)*%
X329001250Y-72072500D03*
D16*
%TO.P,U2,43,SWDIO*%
%TO.N,unconnected-(U2-SWDIO-Pad43)*%
X329001250Y-74612500D03*
%TD*%
D10*
%TO.P,SW62,1,1*%
%TO.N,Column 7*%
X184943750Y-123666250D03*
%TO.P,SW62,2,2*%
%TO.N,Net-(D62-A)*%
X178593750Y-126206250D03*
%TD*%
%TO.P,SW61,1,1*%
%TO.N,Column 6*%
X165893750Y-123666250D03*
%TO.P,SW61,2,2*%
%TO.N,Net-(D61-A)*%
X159543750Y-126206250D03*
%TD*%
%TO.P,SW67,1,1*%
%TO.N,Column 12*%
X296862500Y-123666250D03*
%TO.P,SW67,2,2*%
%TO.N,Net-(D67-A)*%
X290512500Y-126206250D03*
%TD*%
D18*
%TO.P,U1,1,P26_A0_D0*%
%TO.N,E1_A*%
X326670000Y-37850000D03*
%TO.P,U1,2,P27_A1_D1*%
%TO.N,E1_B*%
X326670000Y-40390000D03*
%TO.P,U1,3,P28_A2_D2*%
%TO.N,E1_SW*%
X326670000Y-42930000D03*
%TO.P,U1,4,P29_A3_D3*%
%TO.N,LED*%
X326670000Y-45470000D03*
%TO.P,U1,5,P6_SDA_D4*%
%TO.N,I2C_SDA*%
X326670000Y-48010000D03*
%TO.P,U1,6,P7_SCL_D5*%
%TO.N,I2C_SCL*%
X326670000Y-50550000D03*
%TO.P,U1,7,P0_D6_TX*%
%TO.N,unconnected-(U1-P0_D6_TX-Pad7)_1*%
X326670000Y-53090000D03*
%TO.P,U1,8,P1_D7_RX*%
%TO.N,E2_SW*%
X341910000Y-53090000D03*
%TO.P,U1,9,P2_D8_SCK*%
%TO.N,E2_B*%
X341910000Y-50550000D03*
%TO.P,U1,10,P4_D9_MISO*%
%TO.N,E2_A*%
X341910000Y-48010000D03*
%TO.P,U1,11,P3_D10_MOSI*%
%TO.N,unconnected-(U1-P3_D10_MOSI-Pad11)*%
X341910000Y-45470000D03*
%TO.P,U1,12,3V3*%
%TO.N,+3.3V*%
X341910000Y-42930000D03*
%TO.P,U1,13,GND*%
%TO.N,GND*%
X341910000Y-40390000D03*
%TO.P,U1,14,VBUS*%
%TO.N,+5V*%
X341910000Y-37850000D03*
%TD*%
D12*
%TO.P,SW80,A,A*%
%TO.N,E1_A*%
X350000000Y-43500000D03*
D13*
%TO.P,SW80,B,B*%
%TO.N,E1_B*%
X350000000Y-48500000D03*
%TO.P,SW80,C,C*%
%TO.N,GND*%
X350000000Y-46000000D03*
D14*
%TO.P,SW80,MP*%
X357500000Y-40400000D03*
X357500000Y-51600000D03*
D13*
%TO.P,SW80,S1,S1*%
%TO.N,E1_SW*%
X364500000Y-48500000D03*
%TO.P,SW80,S2,S2*%
%TO.N,GND*%
X364500000Y-43500000D03*
%TD*%
D10*
%TO.P,SW58,1,1*%
%TO.N,Column 3*%
X108743750Y-123666250D03*
%TO.P,SW58,2,2*%
%TO.N,Net-(D58-A)*%
X102393750Y-126206250D03*
%TD*%
D19*
%TO.P,D101,1,DOUT*%
%TO.N,Net-(D101-DOUT)*%
X179391250Y-75325000D03*
%TO.P,D101,2,VSS*%
%TO.N,GND*%
X179391250Y-77075000D03*
%TO.P,D101,3,DIN*%
%TO.N,Net-(D100-DOUT)*%
X175891250Y-77075000D03*
%TO.P,D101,4,VDD*%
%TO.N,+5V*%
X175891250Y-75325000D03*
%TD*%
D20*
%TO.P,D61,1,K*%
%TO.N,Row 5*%
X172878750Y-124936250D03*
D21*
%TO.P,D61,2,A*%
%TO.N,Net-(D61-A)*%
X172878750Y-132556250D03*
%TD*%
D20*
%TO.P,D44,1,K*%
%TO.N,Row 4*%
X87153750Y-105886250D03*
D21*
%TO.P,D44,2,A*%
%TO.N,Net-(D44-A)*%
X87153750Y-113506250D03*
%TD*%
D20*
%TO.P,D29,1,K*%
%TO.N,Row 3*%
X63341250Y-86836250D03*
D21*
%TO.P,D29,2,A*%
%TO.N,Net-(D29-A)*%
X63341250Y-94456250D03*
%TD*%
D20*
%TO.P,D28,1,K*%
%TO.N,Row 2*%
X320516250Y-67786250D03*
D21*
%TO.P,D28,2,A*%
%TO.N,Net-(D28-A)*%
X320516250Y-75406250D03*
%TD*%
D20*
%TO.P,D56,1,K*%
%TO.N,Row 5*%
X77628750Y-124936250D03*
D21*
%TO.P,D56,2,A*%
%TO.N,Net-(D56-A)*%
X77628750Y-132556250D03*
%TD*%
D19*
%TO.P,D84,1,DOUT*%
%TO.N,Net-(D84-DOUT)*%
X127003750Y-51512500D03*
%TO.P,D84,2,VSS*%
%TO.N,GND*%
X127003750Y-53262500D03*
%TO.P,D84,3,DIN*%
%TO.N,Net-(D83-DOUT)*%
X123503750Y-53262500D03*
%TO.P,D84,4,VDD*%
%TO.N,+5V*%
X123503750Y-51512500D03*
%TD*%
%TO.P,D126,1,DOUT*%
%TO.N,Net-(D126-DOUT)*%
X136528750Y-113425000D03*
%TO.P,D126,2,VSS*%
%TO.N,GND*%
X136528750Y-115175000D03*
%TO.P,D126,3,DIN*%
%TO.N,Net-(D125-DOUT)*%
X133028750Y-115175000D03*
%TO.P,D126,4,VDD*%
%TO.N,+5V*%
X133028750Y-113425000D03*
%TD*%
%TO.P,D158,1,DOUT*%
%TO.N,unconnected-(D158-DOUT-Pad1)*%
X374653750Y-151525000D03*
%TO.P,D158,2,VSS*%
%TO.N,GND*%
X374653750Y-153275000D03*
%TO.P,D158,3,DIN*%
%TO.N,Net-(D157-DOUT)*%
X371153750Y-153275000D03*
%TO.P,D158,4,VDD*%
%TO.N,+5V*%
X371153750Y-151525000D03*
%TD*%
%TO.P,D88,1,DOUT*%
%TO.N,Net-(D88-DOUT)*%
X207966250Y-51512500D03*
%TO.P,D88,2,VSS*%
%TO.N,GND*%
X207966250Y-53262500D03*
%TO.P,D88,3,DIN*%
%TO.N,Net-(D87-DOUT)*%
X204466250Y-53262500D03*
%TO.P,D88,4,VDD*%
%TO.N,+5V*%
X204466250Y-51512500D03*
%TD*%
D20*
%TO.P,D25,1,K*%
%TO.N,Row 2*%
X244316250Y-67786250D03*
D21*
%TO.P,D25,2,A*%
%TO.N,Net-(D25-A)*%
X244316250Y-75406250D03*
%TD*%
D20*
%TO.P,D10,1,K*%
%TO.N,Row 1*%
X239553750Y-43973750D03*
D21*
%TO.P,D10,2,A*%
%TO.N,Net-(D10-A)*%
X239553750Y-51593750D03*
%TD*%
D19*
%TO.P,D105,1,DOUT*%
%TO.N,Net-(D105-DOUT)*%
X255591250Y-75325000D03*
%TO.P,D105,2,VSS*%
%TO.N,GND*%
X255591250Y-77075000D03*
%TO.P,D105,3,DIN*%
%TO.N,Net-(D104-DOUT)*%
X252091250Y-77075000D03*
%TO.P,D105,4,VDD*%
%TO.N,+5V*%
X252091250Y-75325000D03*
%TD*%
D20*
%TO.P,D60,1,K*%
%TO.N,Row 5*%
X153828750Y-124936250D03*
D21*
%TO.P,D60,2,A*%
%TO.N,Net-(D60-A)*%
X153828750Y-132556250D03*
%TD*%
D19*
%TO.P,D145,1,DOUT*%
%TO.N,Net-(D145-DOUT)*%
X260353750Y-132475000D03*
%TO.P,D145,2,VSS*%
%TO.N,GND*%
X260353750Y-134225000D03*
%TO.P,D145,3,DIN*%
%TO.N,Net-(D144-DOUT)*%
X256853750Y-134225000D03*
%TO.P,D145,4,VDD*%
%TO.N,+5V*%
X256853750Y-132475000D03*
%TD*%
D20*
%TO.P,D79,1,K*%
%TO.N,Row 6*%
X382428750Y-143986250D03*
D21*
%TO.P,D79,2,A*%
%TO.N,Net-(D79-A)*%
X382428750Y-151606250D03*
%TD*%
D20*
%TO.P,D23,1,K*%
%TO.N,Row 2*%
X206216250Y-67786250D03*
D21*
%TO.P,D23,2,A*%
%TO.N,Net-(D23-A)*%
X206216250Y-75406250D03*
%TD*%
D19*
%TO.P,D90,1,DOUT*%
%TO.N,Net-(D90-DOUT)*%
X250828750Y-51512500D03*
%TO.P,D90,2,VSS*%
%TO.N,GND*%
X250828750Y-53262500D03*
%TO.P,D90,3,DIN*%
%TO.N,Net-(D89-DOUT)*%
X247328750Y-53262500D03*
%TO.P,D90,4,VDD*%
%TO.N,+5V*%
X247328750Y-51512500D03*
%TD*%
D20*
%TO.P,D14,1,K*%
%TO.N,Row 1*%
X320516250Y-43973750D03*
D21*
%TO.P,D14,2,A*%
%TO.N,Net-(D14-A)*%
X320516250Y-51593750D03*
%TD*%
D20*
%TO.P,D34,1,K*%
%TO.N,Row 3*%
X158591250Y-86836250D03*
D21*
%TO.P,D34,2,A*%
%TO.N,Net-(D34-A)*%
X158591250Y-94456250D03*
%TD*%
D19*
%TO.P,D92,1,DOUT*%
%TO.N,Net-(D92-DOUT)*%
X288928750Y-51512500D03*
%TO.P,D92,2,VSS*%
%TO.N,GND*%
X288928750Y-53262500D03*
%TO.P,D92,3,DIN*%
%TO.N,Net-(D91-DOUT)*%
X285428750Y-53262500D03*
%TO.P,D92,4,VDD*%
%TO.N,+5V*%
X285428750Y-51512500D03*
%TD*%
D20*
%TO.P,D12,1,K*%
%TO.N,Row 1*%
X277653750Y-43973750D03*
D21*
%TO.P,D12,2,A*%
%TO.N,Net-(D12-A)*%
X277653750Y-51593750D03*
%TD*%
D19*
%TO.P,D132,1,DOUT*%
%TO.N,Net-(D132-DOUT)*%
X250828750Y-113425000D03*
%TO.P,D132,2,VSS*%
%TO.N,GND*%
X250828750Y-115175000D03*
%TO.P,D132,3,DIN*%
%TO.N,Net-(D131-DOUT)*%
X247328750Y-115175000D03*
%TO.P,D132,4,VDD*%
%TO.N,+5V*%
X247328750Y-113425000D03*
%TD*%
%TO.P,D114,1,DOUT*%
%TO.N,Net-(D114-DOUT)*%
X169866250Y-94375000D03*
%TO.P,D114,2,VSS*%
%TO.N,GND*%
X169866250Y-96125000D03*
%TO.P,D114,3,DIN*%
%TO.N,Net-(D113-DOUT)*%
X166366250Y-96125000D03*
%TO.P,D114,4,VDD*%
%TO.N,+5V*%
X166366250Y-94375000D03*
%TD*%
%TO.P,D106,1,DOUT*%
%TO.N,Net-(D106-DOUT)*%
X274641250Y-75325000D03*
%TO.P,D106,2,VSS*%
%TO.N,GND*%
X274641250Y-77075000D03*
%TO.P,D106,3,DIN*%
%TO.N,Net-(D105-DOUT)*%
X271141250Y-77075000D03*
%TO.P,D106,4,VDD*%
%TO.N,+5V*%
X271141250Y-75325000D03*
%TD*%
D20*
%TO.P,D16,1,K*%
%TO.N,Row 2*%
X72866250Y-67786250D03*
D21*
%TO.P,D16,2,A*%
%TO.N,Net-(D16-A)*%
X72866250Y-75406250D03*
%TD*%
D19*
%TO.P,D91,1,DOUT*%
%TO.N,Net-(D91-DOUT)*%
X269878750Y-51512500D03*
%TO.P,D91,2,VSS*%
%TO.N,GND*%
X269878750Y-53262500D03*
%TO.P,D91,3,DIN*%
%TO.N,Net-(D90-DOUT)*%
X266378750Y-53262500D03*
%TO.P,D91,4,VDD*%
%TO.N,+5V*%
X266378750Y-51512500D03*
%TD*%
D20*
%TO.P,D4,1,K*%
%TO.N,Row 1*%
X115728750Y-43973750D03*
D21*
%TO.P,D4,2,A*%
%TO.N,Net-(D4-A)*%
X115728750Y-51593750D03*
%TD*%
D19*
%TO.P,D82,1,DOUT*%
%TO.N,Net-(D82-DOUT)*%
X88903750Y-51512500D03*
%TO.P,D82,2,VSS*%
%TO.N,GND*%
X88903750Y-53262500D03*
%TO.P,D82,3,DIN*%
%TO.N,Net-(D81-DOUT)*%
X85403750Y-53262500D03*
%TO.P,D82,4,VDD*%
%TO.N,+5V*%
X85403750Y-51512500D03*
%TD*%
D20*
%TO.P,D57,1,K*%
%TO.N,Row 5*%
X96678750Y-124936250D03*
D21*
%TO.P,D57,2,A*%
%TO.N,Net-(D57-A)*%
X96678750Y-132556250D03*
%TD*%
D20*
%TO.P,D33,1,K*%
%TO.N,Row 3*%
X139541250Y-86836250D03*
D21*
%TO.P,D33,2,A*%
%TO.N,Net-(D33-A)*%
X139541250Y-94456250D03*
%TD*%
D20*
%TO.P,D22,1,K*%
%TO.N,Row 2*%
X187166250Y-67786250D03*
D21*
%TO.P,D22,2,A*%
%TO.N,Net-(D22-A)*%
X187166250Y-75406250D03*
%TD*%
D19*
%TO.P,D119,1,DOUT*%
%TO.N,Net-(D119-DOUT)*%
X265116250Y-94375000D03*
%TO.P,D119,2,VSS*%
%TO.N,GND*%
X265116250Y-96125000D03*
%TO.P,D119,3,DIN*%
%TO.N,Net-(D118-DOUT)*%
X261616250Y-96125000D03*
%TO.P,D119,4,VDD*%
%TO.N,+5V*%
X261616250Y-94375000D03*
%TD*%
%TO.P,D93,1,DOUT*%
%TO.N,Net-(D93-DOUT)*%
X312741250Y-51512500D03*
%TO.P,D93,2,VSS*%
%TO.N,GND*%
X312741250Y-53262500D03*
%TO.P,D93,3,DIN*%
%TO.N,Net-(D92-DOUT)*%
X309241250Y-53262500D03*
%TO.P,D93,4,VDD*%
%TO.N,+5V*%
X309241250Y-51512500D03*
%TD*%
%TO.P,D130,1,DOUT*%
%TO.N,Net-(D130-DOUT)*%
X212728750Y-113425000D03*
%TO.P,D130,2,VSS*%
%TO.N,GND*%
X212728750Y-115175000D03*
%TO.P,D130,3,DIN*%
%TO.N,Net-(D129-DOUT)*%
X209228750Y-115175000D03*
%TO.P,D130,4,VDD*%
%TO.N,+5V*%
X209228750Y-113425000D03*
%TD*%
D20*
%TO.P,D13,1,K*%
%TO.N,Row 1*%
X296703750Y-43973750D03*
D21*
%TO.P,D13,2,A*%
%TO.N,Net-(D13-A)*%
X296703750Y-51593750D03*
%TD*%
D20*
%TO.P,D43,1,K*%
%TO.N,Row 4*%
X68103750Y-105886250D03*
D21*
%TO.P,D43,2,A*%
%TO.N,Net-(D43-A)*%
X68103750Y-113506250D03*
%TD*%
D20*
%TO.P,D73,1,K*%
%TO.N,Row 6*%
X249078750Y-143986250D03*
D21*
%TO.P,D73,2,A*%
%TO.N,Net-(D73-A)*%
X249078750Y-151606250D03*
%TD*%
D19*
%TO.P,D146,1,DOUT*%
%TO.N,Net-(D146-DOUT)*%
X296100756Y-132475000D03*
%TO.P,D146,2,VSS*%
%TO.N,GND*%
X296100756Y-134225000D03*
%TO.P,D146,3,DIN*%
%TO.N,Net-(D145-DOUT)*%
X292600756Y-134225000D03*
%TO.P,D146,4,VDD*%
%TO.N,+5V*%
X292600756Y-132475000D03*
%TD*%
D20*
%TO.P,D27,1,K*%
%TO.N,Row 2*%
X282416250Y-67786250D03*
D21*
%TO.P,D27,2,A*%
%TO.N,Net-(D27-A)*%
X282416250Y-75406250D03*
%TD*%
D20*
%TO.P,D26,1,K*%
%TO.N,Row 2*%
X263366250Y-67786250D03*
D21*
%TO.P,D26,2,A*%
%TO.N,Net-(D26-A)*%
X263366250Y-75406250D03*
%TD*%
D20*
%TO.P,D54,1,K*%
%TO.N,Row 4*%
X277653750Y-105886250D03*
D21*
%TO.P,D54,2,A*%
%TO.N,Net-(D54-A)*%
X277653750Y-113506250D03*
%TD*%
D19*
%TO.P,D129,1,DOUT*%
%TO.N,Net-(D129-DOUT)*%
X193678750Y-113425000D03*
%TO.P,D129,2,VSS*%
%TO.N,GND*%
X193678750Y-115175000D03*
%TO.P,D129,3,DIN*%
%TO.N,Net-(D128-DOUT)*%
X190178750Y-115175000D03*
%TO.P,D129,4,VDD*%
%TO.N,+5V*%
X190178750Y-113425000D03*
%TD*%
%TO.P,D152,1,DOUT*%
%TO.N,Net-(D152-DOUT)*%
X238922500Y-151525000D03*
%TO.P,D152,2,VSS*%
%TO.N,GND*%
X238922500Y-153275000D03*
%TO.P,D152,3,DIN*%
%TO.N,Net-(D151-DOUT)*%
X235422500Y-153275000D03*
%TO.P,D152,4,VDD*%
%TO.N,+5V*%
X235422500Y-151525000D03*
%TD*%
D20*
%TO.P,D41,1,K*%
%TO.N,Row 3*%
X291941250Y-86836250D03*
D21*
%TO.P,D41,2,A*%
%TO.N,Net-(D41-A)*%
X291941250Y-94456250D03*
%TD*%
D19*
%TO.P,D125,1,DOUT*%
%TO.N,Net-(D125-DOUT)*%
X117478750Y-113425000D03*
%TO.P,D125,2,VSS*%
%TO.N,GND*%
X117478750Y-115175000D03*
%TO.P,D125,3,DIN*%
%TO.N,Net-(D124-DOUT)*%
X113978750Y-115175000D03*
%TO.P,D125,4,VDD*%
%TO.N,+5V*%
X113978750Y-113425000D03*
%TD*%
D20*
%TO.P,D51,1,K*%
%TO.N,Row 4*%
X220503750Y-105886250D03*
D21*
%TO.P,D51,2,A*%
%TO.N,Net-(D51-A)*%
X220503750Y-113506250D03*
%TD*%
D19*
%TO.P,D124,1,DOUT*%
%TO.N,Net-(D124-DOUT)*%
X98428750Y-113425000D03*
%TO.P,D124,2,VSS*%
%TO.N,GND*%
X98428750Y-115175000D03*
%TO.P,D124,3,DIN*%
%TO.N,Net-(D123-DOUT)*%
X94928750Y-115175000D03*
%TO.P,D124,4,VDD*%
%TO.N,+5V*%
X94928750Y-113425000D03*
%TD*%
D20*
%TO.P,D77,1,K*%
%TO.N,Row 6*%
X344328750Y-143986250D03*
D21*
%TO.P,D77,2,A*%
%TO.N,Net-(D77-A)*%
X344328750Y-151606250D03*
%TD*%
D20*
%TO.P,D74,1,K*%
%TO.N,Row 6*%
X272891250Y-143986250D03*
D21*
%TO.P,D74,2,A*%
%TO.N,Net-(D74-A)*%
X272891250Y-151606250D03*
%TD*%
D20*
%TO.P,D76,1,K*%
%TO.N,Row 6*%
X320516250Y-143986250D03*
D21*
%TO.P,D76,2,A*%
%TO.N,Net-(D76-A)*%
X320516250Y-151606250D03*
%TD*%
D19*
%TO.P,D95,1,DOUT*%
%TO.N,Net-(D95-DOUT)*%
X65091250Y-75325000D03*
%TO.P,D95,2,VSS*%
%TO.N,GND*%
X65091250Y-77075000D03*
%TO.P,D95,3,DIN*%
%TO.N,Net-(D94-DOUT)*%
X61591250Y-77075000D03*
%TO.P,D95,4,VDD*%
%TO.N,+5V*%
X61591250Y-75325000D03*
%TD*%
D20*
%TO.P,D63,1,K*%
%TO.N,Row 5*%
X210978750Y-124936250D03*
D21*
%TO.P,D63,2,A*%
%TO.N,Net-(D63-A)*%
X210978750Y-132556250D03*
%TD*%
D20*
%TO.P,D20,1,K*%
%TO.N,Row 2*%
X149066250Y-67786250D03*
D21*
%TO.P,D20,2,A*%
%TO.N,Net-(D20-A)*%
X149066250Y-75406250D03*
%TD*%
D20*
%TO.P,D3,1,K*%
%TO.N,Row 1*%
X96678750Y-43973750D03*
D21*
%TO.P,D3,2,A*%
%TO.N,Net-(D3-A)*%
X96678750Y-51593750D03*
%TD*%
D20*
%TO.P,D11,1,K*%
%TO.N,Row 1*%
X258603750Y-43973750D03*
D21*
%TO.P,D11,2,A*%
%TO.N,Net-(D11-A)*%
X258603750Y-51593750D03*
%TD*%
D19*
%TO.P,D140,1,DOUT*%
%TO.N,Net-(D140-DOUT)*%
X165103750Y-132475000D03*
%TO.P,D140,2,VSS*%
%TO.N,GND*%
X165103750Y-134225000D03*
%TO.P,D140,3,DIN*%
%TO.N,Net-(D139-DOUT)*%
X161603750Y-134225000D03*
%TO.P,D140,4,VDD*%
%TO.N,+5V*%
X161603750Y-132475000D03*
%TD*%
D20*
%TO.P,D15,1,K*%
%TO.N,Row 2*%
X53816250Y-67786250D03*
D21*
%TO.P,D15,2,A*%
%TO.N,Net-(D15-A)*%
X53816250Y-75406250D03*
%TD*%
D19*
%TO.P,D155,1,DOUT*%
%TO.N,Net-(D155-DOUT)*%
X310360000Y-151525000D03*
%TO.P,D155,2,VSS*%
%TO.N,GND*%
X310360000Y-153275000D03*
%TO.P,D155,3,DIN*%
%TO.N,Net-(D154-DOUT)*%
X306860000Y-153275000D03*
%TO.P,D155,4,VDD*%
%TO.N,+5V*%
X306860000Y-151525000D03*
%TD*%
%TO.P,D127,1,DOUT*%
%TO.N,Net-(D127-DOUT)*%
X155578750Y-113425000D03*
%TO.P,D127,2,VSS*%
%TO.N,GND*%
X155578750Y-115175000D03*
%TO.P,D127,3,DIN*%
%TO.N,Net-(D126-DOUT)*%
X152078750Y-115175000D03*
%TO.P,D127,4,VDD*%
%TO.N,+5V*%
X152078750Y-113425000D03*
%TD*%
%TO.P,D96,1,DOUT*%
%TO.N,Net-(D96-DOUT)*%
X84141250Y-75325000D03*
%TO.P,D96,2,VSS*%
%TO.N,GND*%
X84141250Y-77075000D03*
%TO.P,D96,3,DIN*%
%TO.N,Net-(D95-DOUT)*%
X80641250Y-77075000D03*
%TO.P,D96,4,VDD*%
%TO.N,+5V*%
X80641250Y-75325000D03*
%TD*%
%TO.P,D156,1,DOUT*%
%TO.N,Net-(D156-DOUT)*%
X336553750Y-151525000D03*
%TO.P,D156,2,VSS*%
%TO.N,GND*%
X336553750Y-153275000D03*
%TO.P,D156,3,DIN*%
%TO.N,Net-(D155-DOUT)*%
X333053750Y-153275000D03*
%TO.P,D156,4,VDD*%
%TO.N,+5V*%
X333053750Y-151525000D03*
%TD*%
D20*
%TO.P,D38,1,K*%
%TO.N,Row 3*%
X234791250Y-86836250D03*
D21*
%TO.P,D38,2,A*%
%TO.N,Net-(D38-A)*%
X234791250Y-94456250D03*
%TD*%
D20*
%TO.P,D36,1,K*%
%TO.N,Row 3*%
X196691250Y-86836250D03*
D21*
%TO.P,D36,2,A*%
%TO.N,Net-(D36-A)*%
X196691250Y-94456250D03*
%TD*%
D19*
%TO.P,D147,1,DOUT*%
%TO.N,Net-(D147-DOUT)*%
X355603750Y-132475000D03*
%TO.P,D147,2,VSS*%
%TO.N,GND*%
X355603750Y-134225000D03*
%TO.P,D147,3,DIN*%
%TO.N,Net-(D146-DOUT)*%
X352103750Y-134225000D03*
%TO.P,D147,4,VDD*%
%TO.N,+5V*%
X352103750Y-132475000D03*
%TD*%
%TO.P,D112,1,DOUT*%
%TO.N,Net-(D112-DOUT)*%
X131766250Y-94375000D03*
%TO.P,D112,2,VSS*%
%TO.N,GND*%
X131766250Y-96125000D03*
%TO.P,D112,3,DIN*%
%TO.N,Net-(D111-DOUT)*%
X128266250Y-96125000D03*
%TO.P,D112,4,VDD*%
%TO.N,+5V*%
X128266250Y-94375000D03*
%TD*%
%TO.P,D99,1,DOUT*%
%TO.N,Net-(D100-DIN)*%
X141291250Y-75325000D03*
%TO.P,D99,2,VSS*%
%TO.N,GND*%
X141291250Y-77075000D03*
%TO.P,D99,3,DIN*%
%TO.N,Net-(D98-DOUT)*%
X137791250Y-77075000D03*
%TO.P,D99,4,VDD*%
%TO.N,+5V*%
X137791250Y-75325000D03*
%TD*%
D20*
%TO.P,D78,1,K*%
%TO.N,Row 6*%
X363378750Y-143986250D03*
D21*
%TO.P,D78,2,A*%
%TO.N,Net-(D78-A)*%
X363378750Y-151606250D03*
%TD*%
D20*
%TO.P,D59,1,K*%
%TO.N,Row 5*%
X134778750Y-124936250D03*
D21*
%TO.P,D59,2,A*%
%TO.N,Net-(D59-A)*%
X134778750Y-132556250D03*
%TD*%
D19*
%TO.P,D113,1,DOUT*%
%TO.N,Net-(D113-DOUT)*%
X150816250Y-94375000D03*
%TO.P,D113,2,VSS*%
%TO.N,GND*%
X150816250Y-96125000D03*
%TO.P,D113,3,DIN*%
%TO.N,Net-(D112-DOUT)*%
X147316250Y-96125000D03*
%TO.P,D113,4,VDD*%
%TO.N,+5V*%
X147316250Y-94375000D03*
%TD*%
D20*
%TO.P,D8,1,K*%
%TO.N,Row 1*%
X196691250Y-43973750D03*
D21*
%TO.P,D8,2,A*%
%TO.N,Net-(D8-A)*%
X196691250Y-51593750D03*
%TD*%
D20*
%TO.P,D64,1,K*%
%TO.N,Row 5*%
X230028750Y-124936250D03*
D21*
%TO.P,D64,2,A*%
%TO.N,Net-(D64-A)*%
X230028750Y-132556250D03*
%TD*%
D19*
%TO.P,D115,1,DOUT*%
%TO.N,Net-(D115-DOUT)*%
X188916250Y-94375000D03*
%TO.P,D115,2,VSS*%
%TO.N,GND*%
X188916250Y-96125000D03*
%TO.P,D115,3,DIN*%
%TO.N,Net-(D114-DOUT)*%
X185416250Y-96125000D03*
%TO.P,D115,4,VDD*%
%TO.N,+5V*%
X185416250Y-94375000D03*
%TD*%
%TO.P,D87,1,DOUT*%
%TO.N,Net-(D87-DOUT)*%
X188916250Y-51512500D03*
%TO.P,D87,2,VSS*%
%TO.N,GND*%
X188916250Y-53262500D03*
%TO.P,D87,3,DIN*%
%TO.N,Net-(D86-DOUT)*%
X185416250Y-53262500D03*
%TO.P,D87,4,VDD*%
%TO.N,+5V*%
X185416250Y-51512500D03*
%TD*%
%TO.P,D138,1,DOUT*%
%TO.N,Net-(D138-DOUT)*%
X127003750Y-132475000D03*
%TO.P,D138,2,VSS*%
%TO.N,GND*%
X127003750Y-134225000D03*
%TO.P,D138,3,DIN*%
%TO.N,Net-(D137-DOUT)*%
X123503750Y-134225000D03*
%TO.P,D138,4,VDD*%
%TO.N,+5V*%
X123503750Y-132475000D03*
%TD*%
D20*
%TO.P,D2,1,K*%
%TO.N,Row 1*%
X77628750Y-43973750D03*
D21*
%TO.P,D2,2,A*%
%TO.N,Net-(D2-A)*%
X77628750Y-51593750D03*
%TD*%
D19*
%TO.P,D142,1,DOUT*%
%TO.N,Net-(D142-DOUT)*%
X203203750Y-132475000D03*
%TO.P,D142,2,VSS*%
%TO.N,GND*%
X203203750Y-134225000D03*
%TO.P,D142,3,DIN*%
%TO.N,Net-(D141-DOUT)*%
X199703750Y-134225000D03*
%TO.P,D142,4,VDD*%
%TO.N,+5V*%
X199703750Y-132475000D03*
%TD*%
%TO.P,D100,1,DOUT*%
%TO.N,Net-(D100-DOUT)*%
X160341250Y-75325000D03*
%TO.P,D100,2,VSS*%
%TO.N,GND*%
X160341250Y-77075000D03*
%TO.P,D100,3,DIN*%
%TO.N,Net-(D100-DIN)*%
X156841250Y-77075000D03*
%TO.P,D100,4,VDD*%
%TO.N,+5V*%
X156841250Y-75325000D03*
%TD*%
%TO.P,D153,1,DOUT*%
%TO.N,Net-(D153-DOUT)*%
X262735000Y-151525000D03*
%TO.P,D153,2,VSS*%
%TO.N,GND*%
X262735000Y-153275000D03*
%TO.P,D153,3,DIN*%
%TO.N,Net-(D152-DOUT)*%
X259235000Y-153275000D03*
%TO.P,D153,4,VDD*%
%TO.N,+5V*%
X259235000Y-151525000D03*
%TD*%
%TO.P,D151,1,DOUT*%
%TO.N,Net-(D151-DOUT)*%
X167500332Y-151525000D03*
%TO.P,D151,2,VSS*%
%TO.N,GND*%
X167500332Y-153275000D03*
%TO.P,D151,3,DIN*%
%TO.N,Net-(D150-DOUT)*%
X164000332Y-153275000D03*
%TO.P,D151,4,VDD*%
%TO.N,+5V*%
X164000332Y-151525000D03*
%TD*%
%TO.P,D98,1,DOUT*%
%TO.N,Net-(D98-DOUT)*%
X122241250Y-75325000D03*
%TO.P,D98,2,VSS*%
%TO.N,GND*%
X122241250Y-77075000D03*
%TO.P,D98,3,DIN*%
%TO.N,Net-(D97-DOUT)*%
X118741250Y-77075000D03*
%TO.P,D98,4,VDD*%
%TO.N,+5V*%
X118741250Y-75325000D03*
%TD*%
D20*
%TO.P,D70,1,K*%
%TO.N,Row 6*%
X82391250Y-143986250D03*
D21*
%TO.P,D70,2,A*%
%TO.N,Net-(D70-A)*%
X82391250Y-151606250D03*
%TD*%
D20*
%TO.P,D7,1,K*%
%TO.N,Row 1*%
X177641250Y-43973750D03*
D21*
%TO.P,D7,2,A*%
%TO.N,Net-(D7-A)*%
X177641250Y-51593750D03*
%TD*%
D19*
%TO.P,D117,1,DOUT*%
%TO.N,Net-(D117-DOUT)*%
X227016250Y-94375000D03*
%TO.P,D117,2,VSS*%
%TO.N,GND*%
X227016250Y-96125000D03*
%TO.P,D117,3,DIN*%
%TO.N,Net-(D116-DOUT)*%
X223516250Y-96125000D03*
%TO.P,D117,4,VDD*%
%TO.N,+5V*%
X223516250Y-94375000D03*
%TD*%
%TO.P,D144,1,DOUT*%
%TO.N,Net-(D144-DOUT)*%
X241303750Y-132475000D03*
%TO.P,D144,2,VSS*%
%TO.N,GND*%
X241303750Y-134225000D03*
%TO.P,D144,3,DIN*%
%TO.N,Net-(D143-DOUT)*%
X237803750Y-134225000D03*
%TO.P,D144,4,VDD*%
%TO.N,+5V*%
X237803750Y-132475000D03*
%TD*%
D20*
%TO.P,D55,1,K*%
%TO.N,Row 4*%
X320516250Y-105886250D03*
D21*
%TO.P,D55,2,A*%
%TO.N,Net-(D55-A)*%
X320516250Y-113506250D03*
%TD*%
D20*
%TO.P,D46,1,K*%
%TO.N,Row 4*%
X125253750Y-105886250D03*
D21*
%TO.P,D46,2,A*%
%TO.N,Net-(D46-A)*%
X125253750Y-113506250D03*
%TD*%
D20*
%TO.P,D35,1,K*%
%TO.N,Row 3*%
X177641250Y-86836250D03*
D21*
%TO.P,D35,2,A*%
%TO.N,Net-(D35-A)*%
X177641250Y-94456250D03*
%TD*%
D19*
%TO.P,D141,1,DOUT*%
%TO.N,Net-(D141-DOUT)*%
X184153750Y-132475000D03*
%TO.P,D141,2,VSS*%
%TO.N,GND*%
X184153750Y-134225000D03*
%TO.P,D141,3,DIN*%
%TO.N,Net-(D140-DOUT)*%
X180653750Y-134225000D03*
%TO.P,D141,4,VDD*%
%TO.N,+5V*%
X180653750Y-132475000D03*
%TD*%
%TO.P,D97,1,DOUT*%
%TO.N,Net-(D97-DOUT)*%
X103191250Y-75325000D03*
%TO.P,D97,2,VSS*%
%TO.N,GND*%
X103191250Y-77075000D03*
%TO.P,D97,3,DIN*%
%TO.N,Net-(D96-DOUT)*%
X99691250Y-77075000D03*
%TO.P,D97,4,VDD*%
%TO.N,+5V*%
X99691250Y-75325000D03*
%TD*%
D20*
%TO.P,D24,1,K*%
%TO.N,Row 2*%
X225266250Y-67786250D03*
D21*
%TO.P,D24,2,A*%
%TO.N,Net-(D24-A)*%
X225266250Y-75406250D03*
%TD*%
D19*
%TO.P,D116,1,DOUT*%
%TO.N,Net-(D116-DOUT)*%
X207966250Y-94375000D03*
%TO.P,D116,2,VSS*%
%TO.N,GND*%
X207966250Y-96125000D03*
%TO.P,D116,3,DIN*%
%TO.N,Net-(D115-DOUT)*%
X204466250Y-96125000D03*
%TO.P,D116,4,VDD*%
%TO.N,+5V*%
X204466250Y-94375000D03*
%TD*%
%TO.P,D123,1,DOUT*%
%TO.N,Net-(D123-DOUT)*%
X79378750Y-113425000D03*
%TO.P,D123,2,VSS*%
%TO.N,GND*%
X79378750Y-115175000D03*
%TO.P,D123,3,DIN*%
%TO.N,Net-(D122-DOUT)*%
X75878750Y-115175000D03*
%TO.P,D123,4,VDD*%
%TO.N,+5V*%
X75878750Y-113425000D03*
%TD*%
%TO.P,D136,1,DOUT*%
%TO.N,Net-(D136-DOUT)*%
X88903750Y-132475000D03*
%TO.P,D136,2,VSS*%
%TO.N,GND*%
X88903750Y-134225000D03*
%TO.P,D136,3,DIN*%
%TO.N,Net-(D135-DOUT)*%
X85403750Y-134225000D03*
%TO.P,D136,4,VDD*%
%TO.N,+5V*%
X85403750Y-132475000D03*
%TD*%
%TO.P,D139,1,DOUT*%
%TO.N,Net-(D139-DOUT)*%
X146053750Y-132475000D03*
%TO.P,D139,2,VSS*%
%TO.N,GND*%
X146053750Y-134225000D03*
%TO.P,D139,3,DIN*%
%TO.N,Net-(D138-DOUT)*%
X142553750Y-134225000D03*
%TO.P,D139,4,VDD*%
%TO.N,+5V*%
X142553750Y-132475000D03*
%TD*%
D20*
%TO.P,D18,1,K*%
%TO.N,Row 2*%
X110966250Y-67786250D03*
D21*
%TO.P,D18,2,A*%
%TO.N,Net-(D18-A)*%
X110966250Y-75406250D03*
%TD*%
D20*
%TO.P,D45,1,K*%
%TO.N,Row 4*%
X106203750Y-105886250D03*
D21*
%TO.P,D45,2,A*%
%TO.N,Net-(D45-A)*%
X106203750Y-113506250D03*
%TD*%
D20*
%TO.P,D67,1,K*%
%TO.N,Row 5*%
X320516250Y-124936250D03*
D21*
%TO.P,D67,2,A*%
%TO.N,Net-(D67-A)*%
X320516250Y-132556250D03*
%TD*%
D20*
%TO.P,D71,1,K*%
%TO.N,Row 6*%
X106203750Y-143986250D03*
D21*
%TO.P,D71,2,A*%
%TO.N,Net-(D71-A)*%
X106203750Y-151606250D03*
%TD*%
D20*
%TO.P,D1,1,K*%
%TO.N,Row 1*%
X53816250Y-43973750D03*
D21*
%TO.P,D1,2,A*%
%TO.N,Net-(D1-A)*%
X53816250Y-51593750D03*
%TD*%
D20*
%TO.P,D58,1,K*%
%TO.N,Row 5*%
X115728750Y-124936250D03*
D21*
%TO.P,D58,2,A*%
%TO.N,Net-(D58-A)*%
X115728750Y-132556250D03*
%TD*%
D19*
%TO.P,D149,1,DOUT*%
%TO.N,Net-(D149-DOUT)*%
X72235000Y-151525000D03*
%TO.P,D149,2,VSS*%
%TO.N,GND*%
X72235000Y-153275000D03*
%TO.P,D149,3,DIN*%
%TO.N,Net-(D148-DOUT)*%
X68735000Y-153275000D03*
%TO.P,D149,4,VDD*%
%TO.N,+5V*%
X68735000Y-151525000D03*
%TD*%
%TO.P,D109,1,DOUT*%
%TO.N,Net-(D109-DOUT)*%
X74616250Y-94375000D03*
%TO.P,D109,2,VSS*%
%TO.N,GND*%
X74616250Y-96125000D03*
%TO.P,D109,3,DIN*%
%TO.N,Net-(D108-DOUT)*%
X71116250Y-96125000D03*
%TO.P,D109,4,VDD*%
%TO.N,+5V*%
X71116250Y-94375000D03*
%TD*%
D20*
%TO.P,D52,1,K*%
%TO.N,Row 4*%
X239553750Y-105886250D03*
D21*
%TO.P,D52,2,A*%
%TO.N,Net-(D52-A)*%
X239553750Y-113506250D03*
%TD*%
D19*
%TO.P,D94,1,DOUT*%
%TO.N,Net-(D94-DOUT)*%
X46041250Y-75325000D03*
%TO.P,D94,2,VSS*%
%TO.N,GND*%
X46041250Y-77075000D03*
%TO.P,D94,3,DIN*%
%TO.N,Net-(D93-DOUT)*%
X42541250Y-77075000D03*
%TO.P,D94,4,VDD*%
%TO.N,+5V*%
X42541250Y-75325000D03*
%TD*%
D20*
%TO.P,D42,1,K*%
%TO.N,Row 3*%
X320516250Y-86836250D03*
D21*
%TO.P,D42,2,A*%
%TO.N,Net-(D42-A)*%
X320516250Y-94456250D03*
%TD*%
D20*
%TO.P,D5,1,K*%
%TO.N,Row 1*%
X134778750Y-43973750D03*
D21*
%TO.P,D5,2,A*%
%TO.N,Net-(D5-A)*%
X134778750Y-51593750D03*
%TD*%
D19*
%TO.P,D81,1,DOUT*%
%TO.N,Net-(D81-DOUT)*%
X69853750Y-51512500D03*
%TO.P,D81,2,VSS*%
%TO.N,GND*%
X69853750Y-53262500D03*
%TO.P,D81,3,DIN*%
%TO.N,Net-(D80-DOUT)*%
X66353750Y-53262500D03*
%TO.P,D81,4,VDD*%
%TO.N,+5V*%
X66353750Y-51512500D03*
%TD*%
D20*
%TO.P,D30,1,K*%
%TO.N,Row 3*%
X82391250Y-86836250D03*
D21*
%TO.P,D30,2,A*%
%TO.N,Net-(D30-A)*%
X82391250Y-94456250D03*
%TD*%
D19*
%TO.P,D154,1,DOUT*%
%TO.N,Net-(D154-DOUT)*%
X286547500Y-151525000D03*
%TO.P,D154,2,VSS*%
%TO.N,GND*%
X286547500Y-153275000D03*
%TO.P,D154,3,DIN*%
%TO.N,Net-(D153-DOUT)*%
X283047500Y-153275000D03*
%TO.P,D154,4,VDD*%
%TO.N,+5V*%
X283047500Y-151525000D03*
%TD*%
%TO.P,D150,1,DOUT*%
%TO.N,Net-(D150-DOUT)*%
X96047500Y-151525000D03*
%TO.P,D150,2,VSS*%
%TO.N,GND*%
X96047500Y-153275000D03*
%TO.P,D150,3,DIN*%
%TO.N,Net-(D149-DOUT)*%
X92547500Y-153275000D03*
%TO.P,D150,4,VDD*%
%TO.N,+5V*%
X92547500Y-151525000D03*
%TD*%
D20*
%TO.P,D39,1,K*%
%TO.N,Row 3*%
X253841250Y-86836250D03*
D21*
%TO.P,D39,2,A*%
%TO.N,Net-(D39-A)*%
X253841250Y-94456250D03*
%TD*%
D19*
%TO.P,D103,1,DOUT*%
%TO.N,Net-(D103-DOUT)*%
X217491250Y-75325000D03*
%TO.P,D103,2,VSS*%
%TO.N,GND*%
X217491250Y-77075000D03*
%TO.P,D103,3,DIN*%
%TO.N,Net-(D102-DOUT)*%
X213991250Y-77075000D03*
%TO.P,D103,4,VDD*%
%TO.N,+5V*%
X213991250Y-75325000D03*
%TD*%
D20*
%TO.P,D17,1,K*%
%TO.N,Row 2*%
X91916250Y-67786250D03*
D21*
%TO.P,D17,2,A*%
%TO.N,Net-(D17-A)*%
X91916250Y-75406250D03*
%TD*%
D20*
%TO.P,D62,1,K*%
%TO.N,Row 5*%
X191928750Y-124936250D03*
D21*
%TO.P,D62,2,A*%
%TO.N,Net-(D62-A)*%
X191928750Y-132556250D03*
%TD*%
D19*
%TO.P,D118,1,DOUT*%
%TO.N,Net-(D118-DOUT)*%
X246066250Y-94375000D03*
%TO.P,D118,2,VSS*%
%TO.N,GND*%
X246066250Y-96125000D03*
%TO.P,D118,3,DIN*%
%TO.N,Net-(D117-DOUT)*%
X242566250Y-96125000D03*
%TO.P,D118,4,VDD*%
%TO.N,+5V*%
X242566250Y-94375000D03*
%TD*%
D20*
%TO.P,D72,1,K*%
%TO.N,Row 6*%
X225266250Y-143986250D03*
D21*
%TO.P,D72,2,A*%
%TO.N,Net-(D72-A)*%
X225266250Y-151606250D03*
%TD*%
D19*
%TO.P,D131,1,DOUT*%
%TO.N,Net-(D131-DOUT)*%
X231778750Y-113425000D03*
%TO.P,D131,2,VSS*%
%TO.N,GND*%
X231778750Y-115175000D03*
%TO.P,D131,3,DIN*%
%TO.N,Net-(D130-DOUT)*%
X228278750Y-115175000D03*
%TO.P,D131,4,VDD*%
%TO.N,+5V*%
X228278750Y-113425000D03*
%TD*%
%TO.P,D128,1,DOUT*%
%TO.N,Net-(D128-DOUT)*%
X174628750Y-113425000D03*
%TO.P,D128,2,VSS*%
%TO.N,GND*%
X174628750Y-115175000D03*
%TO.P,D128,3,DIN*%
%TO.N,Net-(D127-DOUT)*%
X171128750Y-115175000D03*
%TO.P,D128,4,VDD*%
%TO.N,+5V*%
X171128750Y-113425000D03*
%TD*%
D20*
%TO.P,D21,1,K*%
%TO.N,Row 2*%
X168116250Y-67786250D03*
D21*
%TO.P,D21,2,A*%
%TO.N,Net-(D21-A)*%
X168116250Y-75406250D03*
%TD*%
D19*
%TO.P,D121,1,DOUT*%
%TO.N,Net-(D121-DOUT)*%
X307978750Y-94375000D03*
%TO.P,D121,2,VSS*%
%TO.N,GND*%
X307978750Y-96125000D03*
%TO.P,D121,3,DIN*%
%TO.N,Net-(D120-DOUT)*%
X304478750Y-96125000D03*
%TO.P,D121,4,VDD*%
%TO.N,+5V*%
X304478750Y-94375000D03*
%TD*%
D20*
%TO.P,D37,1,K*%
%TO.N,Row 3*%
X215741250Y-86836250D03*
D21*
%TO.P,D37,2,A*%
%TO.N,Net-(D37-A)*%
X215741250Y-94456250D03*
%TD*%
D20*
%TO.P,D49,1,K*%
%TO.N,Row 4*%
X182403750Y-105886250D03*
D21*
%TO.P,D49,2,A*%
%TO.N,Net-(D49-A)*%
X182403750Y-113506250D03*
%TD*%
D20*
%TO.P,D6,1,K*%
%TO.N,Row 1*%
X158591250Y-43973750D03*
D21*
%TO.P,D6,2,A*%
%TO.N,Net-(D6-A)*%
X158591250Y-51593750D03*
%TD*%
D19*
%TO.P,D111,1,DOUT*%
%TO.N,Net-(D111-DOUT)*%
X112716250Y-94375000D03*
%TO.P,D111,2,VSS*%
%TO.N,GND*%
X112716250Y-96125000D03*
%TO.P,D111,3,DIN*%
%TO.N,Net-(D110-DOUT)*%
X109216250Y-96125000D03*
%TO.P,D111,4,VDD*%
%TO.N,+5V*%
X109216250Y-94375000D03*
%TD*%
D20*
%TO.P,D69,1,K*%
%TO.N,Row 6*%
X58578750Y-143986250D03*
D21*
%TO.P,D69,2,A*%
%TO.N,Net-(D69-A)*%
X58578750Y-151606250D03*
%TD*%
D20*
%TO.P,D68,1,K*%
%TO.N,Row 5*%
X363378750Y-124936250D03*
D21*
%TO.P,D68,2,A*%
%TO.N,Net-(D68-A)*%
X363378750Y-132556250D03*
%TD*%
D19*
%TO.P,D89,1,DOUT*%
%TO.N,Net-(D89-DOUT)*%
X231778750Y-51512500D03*
%TO.P,D89,2,VSS*%
%TO.N,GND*%
X231778750Y-53262500D03*
%TO.P,D89,3,DIN*%
%TO.N,Net-(D88-DOUT)*%
X228278750Y-53262500D03*
%TO.P,D89,4,VDD*%
%TO.N,+5V*%
X228278750Y-51512500D03*
%TD*%
D20*
%TO.P,D75,1,K*%
%TO.N,Row 6*%
X296703750Y-143986250D03*
D21*
%TO.P,D75,2,A*%
%TO.N,Net-(D75-A)*%
X296703750Y-151606250D03*
%TD*%
D20*
%TO.P,D50,1,K*%
%TO.N,Row 4*%
X201453750Y-105886250D03*
D21*
%TO.P,D50,2,A*%
%TO.N,Net-(D50-A)*%
X201453750Y-113506250D03*
%TD*%
D19*
%TO.P,D122,1,DOUT*%
%TO.N,Net-(D122-DOUT)*%
X53185000Y-113425000D03*
%TO.P,D122,2,VSS*%
%TO.N,GND*%
X53185000Y-115175000D03*
%TO.P,D122,3,DIN*%
%TO.N,Net-(D121-DOUT)*%
X49685000Y-115175000D03*
%TO.P,D122,4,VDD*%
%TO.N,+5V*%
X49685000Y-113425000D03*
%TD*%
%TO.P,D137,1,DOUT*%
%TO.N,Net-(D137-DOUT)*%
X107953750Y-132475000D03*
%TO.P,D137,2,VSS*%
%TO.N,GND*%
X107953750Y-134225000D03*
%TO.P,D137,3,DIN*%
%TO.N,Net-(D136-DOUT)*%
X104453750Y-134225000D03*
%TO.P,D137,4,VDD*%
%TO.N,+5V*%
X104453750Y-132475000D03*
%TD*%
D20*
%TO.P,D53,1,K*%
%TO.N,Row 4*%
X258603750Y-105886250D03*
D21*
%TO.P,D53,2,A*%
%TO.N,Net-(D53-A)*%
X258603750Y-113506250D03*
%TD*%
D19*
%TO.P,D157,1,DOUT*%
%TO.N,Net-(D157-DOUT)*%
X355603750Y-151525000D03*
%TO.P,D157,2,VSS*%
%TO.N,GND*%
X355603750Y-153275000D03*
%TO.P,D157,3,DIN*%
%TO.N,Net-(D156-DOUT)*%
X352103750Y-153275000D03*
%TO.P,D157,4,VDD*%
%TO.N,+5V*%
X352103750Y-151525000D03*
%TD*%
%TO.P,D143,1,DOUT*%
%TO.N,Net-(D143-DOUT)*%
X222253750Y-132475000D03*
%TO.P,D143,2,VSS*%
%TO.N,GND*%
X222253750Y-134225000D03*
%TO.P,D143,3,DIN*%
%TO.N,Net-(D142-DOUT)*%
X218753750Y-134225000D03*
%TO.P,D143,4,VDD*%
%TO.N,+5V*%
X218753750Y-132475000D03*
%TD*%
D20*
%TO.P,D66,1,K*%
%TO.N,Row 5*%
X268128750Y-124936250D03*
D21*
%TO.P,D66,2,A*%
%TO.N,Net-(D66-A)*%
X268128750Y-132556250D03*
%TD*%
D19*
%TO.P,D102,1,DOUT*%
%TO.N,Net-(D102-DOUT)*%
X198441250Y-75325000D03*
%TO.P,D102,2,VSS*%
%TO.N,GND*%
X198441250Y-77075000D03*
%TO.P,D102,3,DIN*%
%TO.N,Net-(D101-DOUT)*%
X194941250Y-77075000D03*
%TO.P,D102,4,VDD*%
%TO.N,+5V*%
X194941250Y-75325000D03*
%TD*%
%TO.P,D107,1,DOUT*%
%TO.N,Net-(D107-DOUT)*%
X303238121Y-75325000D03*
%TO.P,D107,2,VSS*%
%TO.N,GND*%
X303238121Y-77075000D03*
%TO.P,D107,3,DIN*%
%TO.N,Net-(D106-DOUT)*%
X299738121Y-77075000D03*
%TO.P,D107,4,VDD*%
%TO.N,+5V*%
X299738121Y-75325000D03*
%TD*%
D20*
%TO.P,D48,1,K*%
%TO.N,Row 4*%
X163353750Y-105886250D03*
D21*
%TO.P,D48,2,A*%
%TO.N,Net-(D48-A)*%
X163353750Y-113506250D03*
%TD*%
D19*
%TO.P,D80,1,DOUT*%
%TO.N,Net-(D80-DOUT)*%
X46041250Y-51512500D03*
%TO.P,D80,2,VSS*%
%TO.N,GND*%
X46041250Y-53262500D03*
%TO.P,D80,3,DIN*%
%TO.N,LED*%
X42541250Y-53262500D03*
%TO.P,D80,4,VDD*%
%TO.N,+5V*%
X42541250Y-51512500D03*
%TD*%
%TO.P,D133,1,DOUT*%
%TO.N,Net-(D133-DOUT)*%
X269878750Y-113425000D03*
%TO.P,D133,2,VSS*%
%TO.N,GND*%
X269878750Y-115175000D03*
%TO.P,D133,3,DIN*%
%TO.N,Net-(D132-DOUT)*%
X266378750Y-115175000D03*
%TO.P,D133,4,VDD*%
%TO.N,+5V*%
X266378750Y-113425000D03*
%TD*%
%TO.P,D108,1,DOUT*%
%TO.N,Net-(D108-DOUT)*%
X50803750Y-94375000D03*
%TO.P,D108,2,VSS*%
%TO.N,GND*%
X50803750Y-96125000D03*
%TO.P,D108,3,DIN*%
%TO.N,Net-(D107-DOUT)*%
X47303750Y-96125000D03*
%TO.P,D108,4,VDD*%
%TO.N,+5V*%
X47303750Y-94375000D03*
%TD*%
%TO.P,D104,1,DOUT*%
%TO.N,Net-(D104-DOUT)*%
X236541250Y-75325000D03*
%TO.P,D104,2,VSS*%
%TO.N,GND*%
X236541250Y-77075000D03*
%TO.P,D104,3,DIN*%
%TO.N,Net-(D103-DOUT)*%
X233041250Y-77075000D03*
%TO.P,D104,4,VDD*%
%TO.N,+5V*%
X233041250Y-75325000D03*
%TD*%
%TO.P,D120,1,DOUT*%
%TO.N,Net-(D120-DOUT)*%
X284166250Y-94375000D03*
%TO.P,D120,2,VSS*%
%TO.N,GND*%
X284166250Y-96125000D03*
%TO.P,D120,3,DIN*%
%TO.N,Net-(D119-DOUT)*%
X280666250Y-96125000D03*
%TO.P,D120,4,VDD*%
%TO.N,+5V*%
X280666250Y-94375000D03*
%TD*%
%TO.P,D83,1,DOUT*%
%TO.N,Net-(D83-DOUT)*%
X107953750Y-51512500D03*
%TO.P,D83,2,VSS*%
%TO.N,GND*%
X107953750Y-53262500D03*
%TO.P,D83,3,DIN*%
%TO.N,Net-(D82-DOUT)*%
X104453750Y-53262500D03*
%TO.P,D83,4,VDD*%
%TO.N,+5V*%
X104453750Y-51512500D03*
%TD*%
%TO.P,D134,1,DOUT*%
%TO.N,Net-(D134-DOUT)*%
X300837623Y-113425000D03*
%TO.P,D134,2,VSS*%
%TO.N,GND*%
X300837623Y-115175000D03*
%TO.P,D134,3,DIN*%
%TO.N,Net-(D133-DOUT)*%
X297337623Y-115175000D03*
%TO.P,D134,4,VDD*%
%TO.N,+5V*%
X297337623Y-113425000D03*
%TD*%
D20*
%TO.P,D40,1,K*%
%TO.N,Row 3*%
X272891250Y-86836250D03*
D21*
%TO.P,D40,2,A*%
%TO.N,Net-(D40-A)*%
X272891250Y-94456250D03*
%TD*%
D19*
%TO.P,D148,1,DOUT*%
%TO.N,Net-(D148-DOUT)*%
X48422500Y-151525000D03*
%TO.P,D148,2,VSS*%
%TO.N,GND*%
X48422500Y-153275000D03*
%TO.P,D148,3,DIN*%
%TO.N,Net-(D147-DOUT)*%
X44922500Y-153275000D03*
%TO.P,D148,4,VDD*%
%TO.N,+5V*%
X44922500Y-151525000D03*
%TD*%
D20*
%TO.P,D32,1,K*%
%TO.N,Row 3*%
X120491250Y-86836250D03*
D21*
%TO.P,D32,2,A*%
%TO.N,Net-(D32-A)*%
X120491250Y-94456250D03*
%TD*%
D19*
%TO.P,D86,1,DOUT*%
%TO.N,Net-(D86-DOUT)*%
X169866250Y-51512500D03*
%TO.P,D86,2,VSS*%
%TO.N,GND*%
X169866250Y-53262500D03*
%TO.P,D86,3,DIN*%
%TO.N,Net-(D85-DOUT)*%
X166366250Y-53262500D03*
%TO.P,D86,4,VDD*%
%TO.N,+5V*%
X166366250Y-51512500D03*
%TD*%
D20*
%TO.P,D47,1,K*%
%TO.N,Row 4*%
X144303750Y-105886250D03*
D21*
%TO.P,D47,2,A*%
%TO.N,Net-(D47-A)*%
X144303750Y-113506250D03*
%TD*%
D19*
%TO.P,D110,1,DOUT*%
%TO.N,Net-(D110-DOUT)*%
X93666250Y-94375000D03*
%TO.P,D110,2,VSS*%
%TO.N,GND*%
X93666250Y-96125000D03*
%TO.P,D110,3,DIN*%
%TO.N,Net-(D109-DOUT)*%
X90166250Y-96125000D03*
%TO.P,D110,4,VDD*%
%TO.N,+5V*%
X90166250Y-94375000D03*
%TD*%
D20*
%TO.P,D9,1,K*%
%TO.N,Row 1*%
X215741250Y-43973750D03*
D21*
%TO.P,D9,2,A*%
%TO.N,Net-(D9-A)*%
X215741250Y-51593750D03*
%TD*%
D20*
%TO.P,D65,1,K*%
%TO.N,Row 5*%
X249078750Y-124936250D03*
D21*
%TO.P,D65,2,A*%
%TO.N,Net-(D65-A)*%
X249078750Y-132556250D03*
%TD*%
D20*
%TO.P,D31,1,K*%
%TO.N,Row 3*%
X101441250Y-86836250D03*
D21*
%TO.P,D31,2,A*%
%TO.N,Net-(D31-A)*%
X101441250Y-94456250D03*
%TD*%
D19*
%TO.P,D85,1,DOUT*%
%TO.N,Net-(D85-DOUT)*%
X150816250Y-51512500D03*
%TO.P,D85,2,VSS*%
%TO.N,GND*%
X150816250Y-53262500D03*
%TO.P,D85,3,DIN*%
%TO.N,Net-(D84-DOUT)*%
X147316250Y-53262500D03*
%TO.P,D85,4,VDD*%
%TO.N,+5V*%
X147316250Y-51512500D03*
%TD*%
%TO.P,D135,1,DOUT*%
%TO.N,Net-(D135-DOUT)*%
X57949541Y-132475000D03*
%TO.P,D135,2,VSS*%
%TO.N,GND*%
X57949541Y-134225000D03*
%TO.P,D135,3,DIN*%
%TO.N,Net-(D134-DOUT)*%
X54449541Y-134225000D03*
%TO.P,D135,4,VDD*%
%TO.N,+5V*%
X54449541Y-132475000D03*
%TD*%
D20*
%TO.P,D19,1,K*%
%TO.N,Row 2*%
X130016250Y-67786250D03*
D21*
%TO.P,D19,2,A*%
%TO.N,Net-(D19-A)*%
X130016250Y-75406250D03*
%TD*%
D22*
%TO.N,Row 2*%
X198400000Y-61912500D03*
X255370000Y-61912500D03*
X238040000Y-61912500D03*
X84331250Y-61912500D03*
X236590000Y-61912500D03*
X179040000Y-61912500D03*
X85531250Y-61912500D03*
X160330000Y-61912500D03*
X180910000Y-61912500D03*
X66570000Y-61912500D03*
X123670000Y-61912500D03*
X199980000Y-61912500D03*
X302890000Y-61912500D03*
X217530000Y-61912500D03*
X104581250Y-61914521D03*
X141180000Y-61912500D03*
X274340000Y-61912500D03*
X142780000Y-61912500D03*
X103300000Y-61912500D03*
X257170000Y-61912500D03*
X122280000Y-61912500D03*
X276090000Y-61912500D03*
X161740000Y-61912500D03*
X65170000Y-61912500D03*
X219110000Y-61912500D03*
X305340000Y-61912500D03*
%TO.N,Row 3*%
X209540000Y-80962500D03*
X152310000Y-80962500D03*
X171410000Y-80962500D03*
X74480000Y-81000000D03*
X264910000Y-80962500D03*
X247510000Y-80962500D03*
X133170000Y-80962500D03*
X190490000Y-80962500D03*
X285580000Y-80962500D03*
X228560000Y-80962500D03*
X188980000Y-80962500D03*
X112560000Y-80962500D03*
X284270000Y-80962500D03*
X150760000Y-80962500D03*
X309550000Y-80962500D03*
X266550000Y-80962500D03*
X169850000Y-80962500D03*
X307990000Y-80962500D03*
X245970000Y-80962500D03*
X207940000Y-80962500D03*
X93640000Y-80962500D03*
X95110000Y-80962500D03*
X76080000Y-80962500D03*
X131640000Y-80962500D03*
X227020000Y-80962500D03*
X114140000Y-80962500D03*
%TO.N,Row 4*%
X119040000Y-100012500D03*
X300810000Y-100012500D03*
X269580000Y-100012500D03*
X233300000Y-100012500D03*
X231500000Y-100012500D03*
X136330000Y-100012500D03*
X176140000Y-100012500D03*
X252320000Y-100012500D03*
X80880000Y-100012500D03*
X138060000Y-100012500D03*
X250410000Y-100012500D03*
X157100000Y-100012500D03*
X302380000Y-100012500D03*
X79280000Y-100012500D03*
X271390000Y-100012500D03*
X195210000Y-100012500D03*
X155240000Y-100012500D03*
X98450000Y-100012500D03*
X193530000Y-100012500D03*
X214260000Y-100012500D03*
X117510000Y-100012500D03*
X99900000Y-100012500D03*
X212290000Y-100012500D03*
X174330000Y-100012500D03*
%TO.N,Row 5*%
X88550000Y-119062500D03*
X333825000Y-117225000D03*
X295840000Y-119062500D03*
X259900000Y-119062500D03*
X164860000Y-119062500D03*
X90390000Y-119062500D03*
X183860000Y-119062500D03*
X261820000Y-119062500D03*
X147570000Y-119062500D03*
X357070000Y-119062500D03*
X145930000Y-119062500D03*
X355120000Y-119062500D03*
X128450000Y-119062500D03*
X204720000Y-119062500D03*
X297630000Y-119062500D03*
X241030000Y-119062500D03*
X126820000Y-119062500D03*
X223760000Y-119062500D03*
X242800000Y-119062500D03*
X331380000Y-119670000D03*
X222150000Y-119062500D03*
X202990000Y-119062500D03*
X185610000Y-119062500D03*
X107690000Y-119062500D03*
X109420000Y-119062500D03*
X166580000Y-119062500D03*
%TO.N,Row 6*%
X262520000Y-138112500D03*
X97700000Y-138112500D03*
X312150000Y-138112500D03*
X310270000Y-138112500D03*
X288230000Y-138112500D03*
X374170000Y-138112500D03*
X96030000Y-138112500D03*
X74810000Y-138112500D03*
X338030000Y-138112500D03*
X72380000Y-138112500D03*
X264540000Y-138112500D03*
X238760000Y-138112500D03*
X171790000Y-138112500D03*
X286590000Y-138112500D03*
X240670000Y-138112500D03*
X336320000Y-138112500D03*
X357140000Y-138112500D03*
X167410000Y-138112500D03*
X376130000Y-138112500D03*
X355460000Y-138112500D03*
%TO.N,+5V*%
X352150000Y-87260000D03*
X59650000Y-95070000D03*
X346620000Y-40190000D03*
X373736875Y-85816875D03*
X64750000Y-133180000D03*
X339620000Y-115780000D03*
X52320000Y-61870000D03*
X54860000Y-143760000D03*
X40080000Y-58010000D03*
X59650000Y-105860000D03*
%TO.N,GND*%
X300650000Y-39840000D03*
X350233750Y-88293677D03*
X349068566Y-87128493D03*
X300650000Y-48130000D03*
X300650000Y-52380000D03*
X359540000Y-85000000D03*
X327610000Y-57190000D03*
%TO.N,LED*%
X322990000Y-42940000D03*
%TO.N,+3.3V*%
X352773750Y-88226250D03*
X380000000Y-78000000D03*
X357000000Y-86500000D03*
X354000000Y-87000000D03*
X364000000Y-84541250D03*
X345883815Y-45826185D03*
%TO.N,Column 1*%
X387000000Y-162000000D03*
X40392500Y-162000000D03*
%TO.N,Column 9*%
X354171250Y-57858750D03*
X383210000Y-159340000D03*
%TO.N,Column 10*%
X382440000Y-158740000D03*
X356711250Y-57891250D03*
%TO.N,Column 11*%
X361790000Y-57890000D03*
X381640000Y-158140000D03*
%TO.N,Column 12*%
X380850000Y-157540000D03*
X364331250Y-57838750D03*
%TO.N,Column 13*%
X380050000Y-156940000D03*
X366871250Y-57948750D03*
%TO.N,Column 14*%
X324790000Y-105120000D03*
X369411250Y-57941250D03*
X379310000Y-156340000D03*
X324790000Y-106550000D03*
%TO.N,I2C_SDA*%
X358133125Y-89133125D03*
X347850000Y-86650000D03*
X323410000Y-54970000D03*
%TO.N,I2C_SCL*%
X322400000Y-53950000D03*
X350790000Y-86250000D03*
X355313750Y-88000000D03*
%TD*%
D23*
%TO.N,Row 2*%
X236590000Y-61912500D02*
X238040000Y-61912500D01*
X160330000Y-61912500D02*
X161740000Y-61912500D01*
X302890000Y-61912500D02*
X305340000Y-61912500D01*
X255370000Y-61912500D02*
X257170000Y-61912500D01*
X274340000Y-61912500D02*
X276090000Y-61912500D01*
X84331250Y-61912500D02*
X85531250Y-61912500D01*
X122280000Y-61912500D02*
X123670000Y-61912500D01*
X103300000Y-61912500D02*
X104579229Y-61912500D01*
X217530000Y-61912500D02*
X219110000Y-61912500D01*
X198400000Y-61912500D02*
X199980000Y-61912500D01*
X179040000Y-61912500D02*
X180910000Y-61912500D01*
X141180000Y-61912500D02*
X142780000Y-61912500D01*
X65170000Y-61912500D02*
X66570000Y-61912500D01*
X104579229Y-61912500D02*
X104581250Y-61914521D01*
%TO.N,Row 3*%
X227020000Y-80962500D02*
X228560000Y-80962500D01*
X169850000Y-80962500D02*
X171410000Y-80962500D01*
X264910000Y-80962500D02*
X266550000Y-80962500D01*
X307990000Y-80962500D02*
X309550000Y-80962500D01*
X150760000Y-80962500D02*
X152310000Y-80962500D01*
X131640000Y-80962500D02*
X133170000Y-80962500D01*
X188980000Y-80962500D02*
X190490000Y-80962500D01*
X207940000Y-80962500D02*
X209540000Y-80962500D01*
X245970000Y-80962500D02*
X247510000Y-80962500D01*
X76042500Y-81000000D02*
X76080000Y-80962500D01*
X74480000Y-81000000D02*
X76042500Y-81000000D01*
X93640000Y-80962500D02*
X95110000Y-80962500D01*
X284270000Y-80962500D02*
X285580000Y-80962500D01*
X112560000Y-80962500D02*
X114140000Y-80962500D01*
%TO.N,Row 4*%
X136330000Y-100012500D02*
X138060000Y-100012500D01*
X117510000Y-100012500D02*
X119040000Y-100012500D01*
X79280000Y-100012500D02*
X80880000Y-100012500D01*
X269580000Y-100012500D02*
X271390000Y-100012500D01*
X174330000Y-100012500D02*
X176140000Y-100012500D01*
X212290000Y-100012500D02*
X214260000Y-100012500D01*
X98450000Y-100012500D02*
X99900000Y-100012500D01*
X231500000Y-100012500D02*
X233300000Y-100012500D01*
X300810000Y-100012500D02*
X302380000Y-100012500D01*
X193530000Y-100012500D02*
X195210000Y-100012500D01*
X155240000Y-100012500D02*
X157100000Y-100012500D01*
X250410000Y-100012500D02*
X252320000Y-100012500D01*
%TO.N,Row 5*%
X259900000Y-119062500D02*
X261820000Y-119062500D01*
X333825000Y-117225000D02*
X331380000Y-119670000D01*
X295840000Y-119062500D02*
X297630000Y-119062500D01*
X202990000Y-119062500D02*
X204720000Y-119062500D01*
X126820000Y-119062500D02*
X128450000Y-119062500D01*
X88550000Y-119062500D02*
X90390000Y-119062500D01*
X145930000Y-119062500D02*
X147570000Y-119062500D01*
X355120000Y-119062500D02*
X357070000Y-119062500D01*
X241030000Y-119062500D02*
X242800000Y-119062500D01*
X107690000Y-119062500D02*
X109420000Y-119062500D01*
X222150000Y-119062500D02*
X223760000Y-119062500D01*
X183860000Y-119062500D02*
X185610000Y-119062500D01*
X164860000Y-119062500D02*
X166580000Y-119062500D01*
%TO.N,Row 6*%
X355460000Y-138112500D02*
X357140000Y-138112500D01*
X96030000Y-138112500D02*
X97700000Y-138112500D01*
X238760000Y-138112500D02*
X240670000Y-138112500D01*
X374170000Y-138112500D02*
X376130000Y-138112500D01*
X262520000Y-138112500D02*
X264540000Y-138112500D01*
X167410000Y-138112500D02*
X171790000Y-138112500D01*
X336320000Y-138112500D02*
X338030000Y-138112500D01*
X286590000Y-138112500D02*
X288230000Y-138112500D01*
X72380000Y-138112500D02*
X74810000Y-138112500D01*
X310270000Y-138112500D02*
X312150000Y-138112500D01*
%TO.N,+5V*%
X110235000Y-93356250D02*
X127247500Y-93356250D01*
X299738121Y-75325000D02*
X300463121Y-74600000D01*
X41920968Y-70643130D02*
X41920968Y-74704718D01*
X259235000Y-151525000D02*
X260253750Y-150506250D01*
X160585000Y-131456250D02*
X161603750Y-132475000D01*
X93910000Y-112406250D02*
X94928750Y-113425000D01*
X70097500Y-93356250D02*
X71116250Y-94375000D01*
X189160000Y-112406250D02*
X190178750Y-113425000D01*
X81660000Y-74306250D02*
X98672500Y-74306250D01*
X161603750Y-132475000D02*
X162622500Y-131456250D01*
X248347500Y-50493750D02*
X265360000Y-50493750D01*
X71116250Y-94375000D02*
X72135000Y-93356250D01*
X89147500Y-93356250D02*
X90166250Y-94375000D01*
X260253750Y-150506250D02*
X282028750Y-150506250D01*
X205485000Y-93356250D02*
X222497500Y-93356250D01*
X222497500Y-93356250D02*
X223516250Y-94375000D01*
X108197500Y-93356250D02*
X109216250Y-94375000D01*
X279647500Y-93356250D02*
X280666250Y-94375000D01*
X41920968Y-74704718D02*
X42541250Y-75325000D01*
X300463121Y-74600000D02*
X304338121Y-74600000D01*
X252091250Y-75325000D02*
X253110000Y-74306250D01*
X298719371Y-74306250D02*
X299738121Y-75325000D01*
X46726250Y-144116250D02*
X43870000Y-146972500D01*
X266378750Y-51512500D02*
X267397500Y-50493750D01*
X310300000Y-80561879D02*
X310300000Y-89898402D01*
X229297500Y-112406250D02*
X246310000Y-112406250D01*
X305841250Y-150506250D02*
X306860000Y-151525000D01*
X265360000Y-112406250D02*
X266378750Y-113425000D01*
X185416250Y-51512500D02*
X186435000Y-50493750D01*
X302360000Y-113122377D02*
X302360000Y-124032152D01*
X267397500Y-112406250D02*
X296318873Y-112406250D01*
X209228750Y-113425000D02*
X210247500Y-112406250D01*
X91528750Y-150506250D02*
X92547500Y-151525000D01*
X204466250Y-94375000D02*
X205485000Y-93356250D01*
X265360000Y-50493750D02*
X266378750Y-51512500D01*
X45941250Y-150506250D02*
X67716250Y-150506250D01*
X94928750Y-113425000D02*
X95947500Y-112406250D01*
X48028750Y-93650000D02*
X58230000Y-93650000D01*
X44922500Y-151525000D02*
X45941250Y-150506250D01*
X256853750Y-132475000D02*
X257872500Y-131456250D01*
X67716250Y-150506250D02*
X68735000Y-151525000D01*
X60572500Y-74306250D02*
X61591250Y-75325000D01*
X162981582Y-150506250D02*
X164000332Y-151525000D01*
X59650000Y-105860000D02*
X59493750Y-106016250D01*
X229297500Y-50493750D02*
X246310000Y-50493750D01*
X242566250Y-94375000D02*
X243585000Y-93356250D01*
X43317848Y-69246250D02*
X41920968Y-70643130D01*
X52320000Y-61870000D02*
X52320000Y-63110000D01*
X186435000Y-50493750D02*
X203447500Y-50493750D01*
X55174541Y-131750000D02*
X63320000Y-131750000D01*
X172147500Y-112406250D02*
X189160000Y-112406250D01*
X112960000Y-112406250D02*
X113978750Y-113425000D01*
X123503750Y-51512500D02*
X124522500Y-50493750D01*
X49030000Y-112770000D02*
X49685000Y-113425000D01*
X148335000Y-50493750D02*
X165347500Y-50493750D01*
X212972500Y-74306250D02*
X213991250Y-75325000D01*
X52320000Y-63110000D02*
X46183750Y-69246250D01*
X284066250Y-150506250D02*
X305841250Y-150506250D01*
X42166250Y-51512500D02*
X40080000Y-53598750D01*
X103435000Y-50493750D02*
X104453750Y-51512500D01*
X147316250Y-51512500D02*
X148335000Y-50493750D01*
X305823402Y-94375000D02*
X304478750Y-94375000D01*
X224535000Y-93356250D02*
X241547500Y-93356250D01*
X165347500Y-50493750D02*
X166366250Y-51512500D01*
X133028750Y-113425000D02*
X134047500Y-112406250D01*
X236441250Y-150506250D02*
X258216250Y-150506250D01*
X147316250Y-94375000D02*
X148335000Y-93356250D01*
X227260000Y-50493750D02*
X228278750Y-51512500D01*
X138836250Y-74280000D02*
X155796250Y-74280000D01*
X91185000Y-93356250D02*
X108197500Y-93356250D01*
X241547500Y-93356250D02*
X242566250Y-94375000D01*
X339620000Y-115780000D02*
X339620000Y-121330000D01*
X54860000Y-143760000D02*
X54503750Y-144116250D01*
X223516250Y-94375000D02*
X224535000Y-93356250D01*
X49030000Y-108777848D02*
X49030000Y-112770000D01*
X79622500Y-74306250D02*
X80641250Y-75325000D01*
X205485000Y-50493750D02*
X227260000Y-50493750D01*
X332035000Y-150506250D02*
X333053750Y-151525000D01*
X86422500Y-131456250D02*
X103435000Y-131456250D01*
X59493750Y-106016250D02*
X51791598Y-106016250D01*
X166366250Y-51512500D02*
X167385000Y-50493750D01*
X46183750Y-69246250D02*
X43317848Y-69246250D01*
X90166250Y-94375000D02*
X91185000Y-93356250D01*
X203447500Y-50493750D02*
X204466250Y-51512500D01*
X255835000Y-131456250D02*
X256853750Y-132475000D01*
X117722500Y-74306250D02*
X118741250Y-75325000D01*
X351085000Y-150506250D02*
X352103750Y-151525000D01*
X74860000Y-112406250D02*
X75878750Y-113425000D01*
X80641250Y-75325000D02*
X81660000Y-74306250D01*
X307878750Y-150506250D02*
X332035000Y-150506250D01*
X251072500Y-74306250D02*
X252091250Y-75325000D01*
X174872500Y-74306250D02*
X175891250Y-75325000D01*
X176910000Y-74306250D02*
X193922500Y-74306250D01*
X69753750Y-150506250D02*
X91528750Y-150506250D01*
X238822500Y-131456250D02*
X255835000Y-131456250D01*
X152078750Y-113425000D02*
X153097500Y-112406250D01*
X310413750Y-50340000D02*
X309241250Y-51512500D01*
X353122500Y-150506250D02*
X370135000Y-150506250D01*
X190178750Y-113425000D02*
X191197500Y-112406250D01*
X50703750Y-112406250D02*
X74860000Y-112406250D01*
X293349098Y-126396250D02*
X291972500Y-127772848D01*
X54449541Y-132475000D02*
X55468291Y-131456250D01*
X142553750Y-132475000D02*
X143572500Y-131456250D01*
X333053750Y-151525000D02*
X334072500Y-150506250D01*
X54503750Y-144116250D02*
X46726250Y-144116250D01*
X84385000Y-131456250D02*
X85403750Y-132475000D01*
X246310000Y-112406250D02*
X247328750Y-113425000D01*
X303460000Y-93356250D02*
X304478750Y-94375000D01*
X84385000Y-50493750D02*
X85403750Y-51512500D01*
X85403750Y-51512500D02*
X86422500Y-50493750D01*
X114997500Y-112406250D02*
X132010000Y-112406250D01*
X85403750Y-132475000D02*
X86422500Y-131456250D01*
X92547500Y-151525000D02*
X93566250Y-150506250D01*
X175891250Y-75325000D02*
X176910000Y-74306250D01*
X316350000Y-50340000D02*
X310413750Y-50340000D01*
X119760000Y-74306250D02*
X136772500Y-74306250D01*
X346620000Y-40190000D02*
X342402000Y-44408000D01*
X283047500Y-151525000D02*
X284066250Y-150506250D01*
X99691250Y-75325000D02*
X100710000Y-74306250D01*
X301937623Y-112700000D02*
X302360000Y-113122377D01*
X181672500Y-131456250D02*
X198685000Y-131456250D01*
X47303750Y-94375000D02*
X48322500Y-93356250D01*
X86422500Y-50493750D02*
X103435000Y-50493750D01*
X282028750Y-150506250D02*
X283047500Y-151525000D01*
X141535000Y-131456250D02*
X142553750Y-132475000D01*
X308222500Y-50493750D02*
X309241250Y-51512500D01*
X51791598Y-106016250D02*
X49030000Y-108777848D01*
X191197500Y-112406250D02*
X208210000Y-112406250D01*
X217735000Y-131456250D02*
X218753750Y-132475000D01*
X210247500Y-112406250D02*
X227260000Y-112406250D01*
X285428750Y-51512500D02*
X286447500Y-50493750D01*
X155796250Y-74280000D02*
X156841250Y-75325000D01*
X109216250Y-94375000D02*
X110235000Y-93356250D01*
X291582006Y-131456250D02*
X292600756Y-132475000D01*
X247328750Y-113425000D02*
X248347500Y-112406250D01*
X260597500Y-93356250D02*
X261616250Y-94375000D01*
X165347500Y-93356250D02*
X166366250Y-94375000D01*
X284410000Y-50493750D02*
X285428750Y-51512500D01*
X132010000Y-112406250D02*
X133028750Y-113425000D01*
X113978750Y-113425000D02*
X114997500Y-112406250D01*
X42541250Y-51512500D02*
X43560000Y-50493750D01*
X232022500Y-74306250D02*
X233041250Y-75325000D01*
X124522500Y-50493750D02*
X146297500Y-50493750D01*
X342402000Y-44408000D02*
X322282000Y-44408000D01*
X292600756Y-132475000D02*
X293619506Y-131456250D01*
X122485000Y-131456250D02*
X123503750Y-132475000D01*
X148335000Y-93356250D02*
X165347500Y-93356250D01*
X179635000Y-131456250D02*
X180653750Y-132475000D01*
X243585000Y-93356250D02*
X260597500Y-93356250D01*
X291972500Y-127772848D02*
X291972500Y-131846744D01*
X302360000Y-124032152D02*
X299995902Y-126396250D01*
X266378750Y-113425000D02*
X267397500Y-112406250D01*
X146297500Y-93356250D02*
X147316250Y-94375000D01*
X75878750Y-113425000D02*
X76897500Y-112406250D01*
X247328750Y-51512500D02*
X248347500Y-50493750D01*
X199703750Y-132475000D02*
X200722500Y-131456250D01*
X204466250Y-51512500D02*
X205485000Y-50493750D01*
X40080000Y-53598750D02*
X40080000Y-58010000D01*
X185416250Y-94375000D02*
X186435000Y-93356250D01*
X299995902Y-126396250D02*
X293349098Y-126396250D01*
X218753750Y-132475000D02*
X219772500Y-131456250D01*
X213991250Y-75325000D02*
X215010000Y-74306250D01*
X237803750Y-132475000D02*
X238822500Y-131456250D01*
X42541250Y-51512500D02*
X42166250Y-51512500D01*
X233041250Y-75325000D02*
X234060000Y-74306250D01*
X47303750Y-94375000D02*
X48028750Y-93650000D01*
X228278750Y-51512500D02*
X229297500Y-50493750D01*
X63320000Y-131750000D02*
X64750000Y-133180000D01*
X43870000Y-146972500D02*
X43870000Y-150472500D01*
X208210000Y-112406250D02*
X209228750Y-113425000D01*
X98672500Y-74306250D02*
X99691250Y-75325000D01*
X49685000Y-113425000D02*
X50703750Y-112406250D01*
X43870000Y-150472500D02*
X44922500Y-151525000D01*
X105472500Y-50493750D02*
X122485000Y-50493750D01*
X146297500Y-50493750D02*
X147316250Y-51512500D01*
X105472500Y-131456250D02*
X122485000Y-131456250D01*
X62610000Y-74306250D02*
X79622500Y-74306250D01*
X68735000Y-151525000D02*
X69753750Y-150506250D01*
X228278750Y-113425000D02*
X229297500Y-112406250D01*
X48322500Y-93356250D02*
X70097500Y-93356250D01*
X353593125Y-85816875D02*
X373736875Y-85816875D01*
X162622500Y-131456250D02*
X179635000Y-131456250D01*
X293619506Y-131456250D02*
X351085000Y-131456250D01*
X236785000Y-131456250D02*
X237803750Y-132475000D01*
X93566250Y-150506250D02*
X162981582Y-150506250D01*
X286447500Y-50493750D02*
X308222500Y-50493750D01*
X281685000Y-93356250D02*
X303460000Y-93356250D01*
X194941250Y-75325000D02*
X195960000Y-74306250D01*
X248347500Y-112406250D02*
X265360000Y-112406250D01*
X351085000Y-131456250D02*
X352103750Y-132475000D01*
X54449541Y-132475000D02*
X55174541Y-131750000D01*
X200722500Y-131456250D02*
X217735000Y-131456250D01*
X72135000Y-93356250D02*
X89147500Y-93356250D01*
X166366250Y-94375000D02*
X167385000Y-93356250D01*
X304338121Y-74600000D02*
X310300000Y-80561879D01*
X100710000Y-74306250D02*
X117722500Y-74306250D01*
X257872500Y-131456250D02*
X291582006Y-131456250D01*
X104453750Y-132475000D02*
X105472500Y-131456250D01*
X157860000Y-74306250D02*
X174872500Y-74306250D01*
X143572500Y-131456250D02*
X160585000Y-131456250D01*
X61591250Y-75325000D02*
X62610000Y-74306250D01*
X195960000Y-74306250D02*
X212972500Y-74306250D01*
X339620000Y-121330000D02*
X350765000Y-132475000D01*
X306860000Y-151525000D02*
X307878750Y-150506250D01*
X137791250Y-75325000D02*
X138836250Y-74280000D01*
X262635000Y-93356250D02*
X279647500Y-93356250D01*
X234403750Y-150506250D02*
X235422500Y-151525000D01*
X297337623Y-113425000D02*
X298062623Y-112700000D01*
X234060000Y-74306250D02*
X251072500Y-74306250D01*
X198685000Y-131456250D02*
X199703750Y-132475000D01*
X235422500Y-151525000D02*
X236441250Y-150506250D01*
X186435000Y-93356250D02*
X203447500Y-93356250D01*
X127247500Y-93356250D02*
X128266250Y-94375000D01*
X165019082Y-150506250D02*
X234403750Y-150506250D01*
X350765000Y-132475000D02*
X352103750Y-132475000D01*
X203447500Y-93356250D02*
X204466250Y-94375000D01*
X43560000Y-50493750D02*
X65335000Y-50493750D01*
X128266250Y-94375000D02*
X129285000Y-93356250D01*
X104453750Y-51512500D02*
X105472500Y-50493750D01*
X118741250Y-75325000D02*
X119760000Y-74306250D01*
X280666250Y-94375000D02*
X281685000Y-93356250D01*
X272160000Y-74306250D02*
X298719371Y-74306250D01*
X253110000Y-74306250D02*
X270122500Y-74306250D01*
X170110000Y-112406250D02*
X171128750Y-113425000D01*
X167385000Y-50493750D02*
X184397500Y-50493750D01*
X370135000Y-150506250D02*
X371153750Y-151525000D01*
X267397500Y-50493750D02*
X284410000Y-50493750D01*
X164000332Y-151525000D02*
X165019082Y-150506250D01*
X271141250Y-75325000D02*
X272160000Y-74306250D01*
X55468291Y-131456250D02*
X84385000Y-131456250D01*
X151060000Y-112406250D02*
X152078750Y-113425000D01*
X129285000Y-93356250D02*
X146297500Y-93356250D01*
X184397500Y-93356250D02*
X185416250Y-94375000D01*
X352150000Y-87260000D02*
X353593125Y-85816875D01*
X103435000Y-131456250D02*
X104453750Y-132475000D01*
X123503750Y-132475000D02*
X124522500Y-131456250D01*
X167385000Y-93356250D02*
X184397500Y-93356250D01*
X66353750Y-51512500D02*
X67372500Y-50493750D01*
X261616250Y-94375000D02*
X262635000Y-93356250D01*
X193922500Y-74306250D02*
X194941250Y-75325000D01*
X180653750Y-132475000D02*
X181672500Y-131456250D01*
X95947500Y-112406250D02*
X112960000Y-112406250D01*
X291972500Y-131846744D02*
X292600756Y-132475000D01*
X296318873Y-112406250D02*
X297337623Y-113425000D01*
X153097500Y-112406250D02*
X170110000Y-112406250D01*
X58230000Y-93650000D02*
X59650000Y-95070000D01*
X246310000Y-50493750D02*
X247328750Y-51512500D01*
X184397500Y-50493750D02*
X185416250Y-51512500D01*
X215010000Y-74306250D02*
X232022500Y-74306250D01*
X76897500Y-112406250D02*
X93910000Y-112406250D01*
X67372500Y-50493750D02*
X84385000Y-50493750D01*
X227260000Y-112406250D02*
X228278750Y-113425000D01*
X134047500Y-112406250D02*
X151060000Y-112406250D01*
X156841250Y-75325000D02*
X157860000Y-74306250D01*
X171128750Y-113425000D02*
X172147500Y-112406250D01*
X298062623Y-112700000D02*
X301937623Y-112700000D01*
X136772500Y-74306250D02*
X137791250Y-75325000D01*
X43560000Y-74306250D02*
X60572500Y-74306250D01*
X42541250Y-75325000D02*
X43560000Y-74306250D01*
X310300000Y-89898402D02*
X305823402Y-94375000D01*
X334072500Y-150506250D02*
X351085000Y-150506250D01*
X219772500Y-131456250D02*
X236785000Y-131456250D01*
X322282000Y-44408000D02*
X316350000Y-50340000D01*
X352103750Y-151525000D02*
X353122500Y-150506250D01*
X122485000Y-50493750D02*
X123503750Y-51512500D01*
X258216250Y-150506250D02*
X259235000Y-151525000D01*
X124522500Y-131456250D02*
X141535000Y-131456250D01*
X270122500Y-74306250D02*
X271141250Y-75325000D01*
X65335000Y-50493750D02*
X66353750Y-51512500D01*
%TO.N,GND*%
X127003750Y-134225000D02*
X127728750Y-134950000D01*
X259628750Y-134950000D02*
X260353750Y-134225000D01*
X150091250Y-96850000D02*
X150816250Y-96125000D01*
X238197500Y-154000000D02*
X238922500Y-153275000D01*
X89628750Y-134950000D02*
X107228750Y-134950000D01*
X311540000Y-52061250D02*
X312741250Y-53262500D01*
X284166250Y-96125000D02*
X284891250Y-96850000D01*
X51528750Y-96850000D02*
X73891250Y-96850000D01*
X83416250Y-77800000D02*
X84141250Y-77075000D01*
X313841250Y-50787500D02*
X311641250Y-50787500D01*
X184878750Y-134950000D02*
X202478750Y-134950000D01*
X53185000Y-115175000D02*
X49517500Y-118842500D01*
X166775332Y-154000000D02*
X167500332Y-153275000D01*
X150091250Y-53987500D02*
X150816250Y-53262500D01*
X355603750Y-134225000D02*
X354878750Y-134950000D01*
X43950000Y-154000000D02*
X47697500Y-154000000D01*
X263460000Y-154000000D02*
X285822500Y-154000000D01*
X238922500Y-153275000D02*
X239647500Y-154000000D01*
X298324371Y-77486250D02*
X298648121Y-77810000D01*
X274641250Y-77075000D02*
X275052500Y-77486250D01*
X189641250Y-53987500D02*
X207241250Y-53987500D01*
X122966250Y-77800000D02*
X140566250Y-77800000D01*
X208691250Y-96850000D02*
X226291250Y-96850000D01*
X96458750Y-153686250D02*
X162586582Y-153686250D01*
X251553750Y-115900000D02*
X269153750Y-115900000D01*
X180120000Y-77800000D02*
X197716250Y-77800000D01*
X165828750Y-134950000D02*
X183428750Y-134950000D01*
X227016250Y-96125000D02*
X227741250Y-96850000D01*
X183428750Y-134950000D02*
X184153750Y-134225000D01*
X71510000Y-154000000D02*
X72235000Y-153275000D01*
X118203750Y-115900000D02*
X135803750Y-115900000D01*
X46766250Y-77800000D02*
X64366250Y-77800000D01*
X307580000Y-134625000D02*
X296500756Y-134625000D01*
X179395000Y-77075000D02*
X180120000Y-77800000D01*
X112716250Y-96125000D02*
X113441250Y-96850000D01*
X131041250Y-96850000D02*
X131766250Y-96125000D01*
X270603750Y-53987500D02*
X288203750Y-53987500D01*
X107228750Y-53987500D02*
X107953750Y-53262500D01*
X222978750Y-134950000D02*
X240578750Y-134950000D01*
X354878750Y-134950000D02*
X307905000Y-134950000D01*
X212728750Y-115175000D02*
X213453750Y-115900000D01*
X213453750Y-115900000D02*
X231053750Y-115900000D01*
X73891250Y-96850000D02*
X74616250Y-96125000D01*
X49517500Y-118842500D02*
X49517500Y-131117959D01*
X287272500Y-154000000D02*
X309635000Y-154000000D01*
X335828750Y-154000000D02*
X336553750Y-153275000D01*
X264391250Y-96850000D02*
X265116250Y-96125000D01*
X311641250Y-50787500D02*
X311540000Y-50888750D01*
X97703750Y-115900000D02*
X98428750Y-115175000D01*
X39930000Y-149980000D02*
X43950000Y-154000000D01*
X41580000Y-77800000D02*
X45316250Y-77800000D01*
X58360791Y-134636250D02*
X83990000Y-134636250D01*
X255591250Y-77075000D02*
X256316250Y-77800000D01*
X207966250Y-96125000D02*
X208691250Y-96850000D01*
X353561471Y-85000000D02*
X359540000Y-85000000D01*
X260353750Y-134225000D02*
X260765000Y-134636250D01*
X155578750Y-115175000D02*
X156303750Y-115900000D01*
X84141250Y-77075000D02*
X84866250Y-77800000D01*
X57949541Y-134225000D02*
X51344541Y-140830000D01*
X116753750Y-115900000D02*
X117478750Y-115175000D01*
X262735000Y-153275000D02*
X263460000Y-154000000D01*
X93666250Y-96125000D02*
X94391250Y-96850000D01*
X44743165Y-140830000D02*
X39930000Y-145643165D01*
X107953750Y-134225000D02*
X108678750Y-134950000D01*
X270290000Y-115586250D02*
X295923873Y-115586250D01*
X69853750Y-53262500D02*
X70578750Y-53987500D01*
X89628750Y-53987500D02*
X107228750Y-53987500D01*
X273916250Y-77800000D02*
X274641250Y-77075000D01*
X146778750Y-134950000D02*
X164378750Y-134950000D01*
X156303750Y-115900000D02*
X173903750Y-115900000D01*
X300112623Y-115900000D02*
X300837623Y-115175000D01*
X265116250Y-96125000D02*
X265841250Y-96850000D01*
X65816250Y-77800000D02*
X83416250Y-77800000D01*
X103916250Y-77800000D02*
X121516250Y-77800000D01*
X231778750Y-53262500D02*
X232503750Y-53987500D01*
X245341250Y-96850000D02*
X246066250Y-96125000D01*
X295375756Y-134950000D02*
X296100756Y-134225000D01*
X284891250Y-96850000D02*
X307253750Y-96850000D01*
X145328750Y-134950000D02*
X146053750Y-134225000D01*
X295923873Y-115586250D02*
X296237623Y-115900000D01*
X48585000Y-115900000D02*
X52460000Y-115900000D01*
X296237623Y-115900000D02*
X300112623Y-115900000D01*
X88903750Y-53262500D02*
X89628750Y-53987500D01*
X298648121Y-77810000D02*
X302503121Y-77810000D01*
X80103750Y-115900000D02*
X97703750Y-115900000D01*
X198441250Y-77075000D02*
X199166250Y-77800000D01*
X75341250Y-96850000D02*
X92941250Y-96850000D01*
X154853750Y-115900000D02*
X155578750Y-115175000D01*
X174628750Y-115175000D02*
X175353750Y-115900000D01*
X288203750Y-53987500D02*
X288928750Y-53262500D01*
X350233750Y-88293677D02*
X350233750Y-91900000D01*
X207966250Y-53262500D02*
X208691250Y-53987500D01*
X188916250Y-96125000D02*
X189641250Y-96850000D01*
X46766250Y-53987500D02*
X69128750Y-53987500D01*
X221528750Y-134950000D02*
X222253750Y-134225000D01*
X146053750Y-134225000D02*
X146778750Y-134950000D01*
X178666250Y-77800000D02*
X179391250Y-77075000D01*
X127003750Y-53262500D02*
X127728750Y-53987500D01*
X111991250Y-96850000D02*
X112716250Y-96125000D01*
X336553750Y-153275000D02*
X337278750Y-154000000D01*
X50803750Y-96125000D02*
X44755000Y-102173750D01*
X234322500Y-154000000D02*
X238197500Y-154000000D01*
X269878750Y-53262500D02*
X270603750Y-53987500D01*
X311066250Y-53262500D02*
X312741250Y-53262500D01*
X46203750Y-96850000D02*
X50078750Y-96850000D01*
X355603750Y-153275000D02*
X356328750Y-154000000D01*
X127728750Y-53987500D02*
X150091250Y-53987500D01*
X52460000Y-115900000D02*
X53185000Y-115175000D01*
X167911582Y-153686250D02*
X234008750Y-153686250D01*
X202478750Y-134950000D02*
X203203750Y-134225000D01*
X203928750Y-134950000D02*
X221528750Y-134950000D01*
X212003750Y-115900000D02*
X212728750Y-115175000D01*
X169141250Y-96850000D02*
X169866250Y-96125000D01*
X51344541Y-140830000D02*
X44743165Y-140830000D01*
X117478750Y-115175000D02*
X118203750Y-115900000D01*
X42373750Y-93020000D02*
X46203750Y-96850000D01*
X50803750Y-96125000D02*
X51528750Y-96850000D01*
X320243750Y-57190000D02*
X313841250Y-50787500D01*
X53349541Y-134950000D02*
X57224541Y-134950000D01*
X95322500Y-154000000D02*
X96047500Y-153275000D01*
X285822500Y-154000000D02*
X286547500Y-153275000D01*
X235816250Y-77800000D02*
X236541250Y-77075000D01*
X113441250Y-96850000D02*
X131041250Y-96850000D01*
X132491250Y-96850000D02*
X150091250Y-96850000D01*
X136528750Y-115175000D02*
X137253750Y-115900000D01*
X142016250Y-77800000D02*
X159616250Y-77800000D01*
X242028750Y-134950000D02*
X259628750Y-134950000D01*
X260765000Y-134636250D02*
X291187006Y-134636250D01*
X240578750Y-134950000D02*
X241303750Y-134225000D01*
X46041250Y-53262500D02*
X46041250Y-58138750D01*
X70578750Y-53987500D02*
X88178750Y-53987500D01*
X269878750Y-115175000D02*
X270290000Y-115586250D01*
X310360000Y-153275000D02*
X311085000Y-154000000D01*
X150816250Y-53262500D02*
X151541250Y-53987500D01*
X203203750Y-134225000D02*
X203928750Y-134950000D01*
X251553750Y-53987500D02*
X269153750Y-53987500D01*
X197716250Y-77800000D02*
X198441250Y-77075000D01*
X184153750Y-134225000D02*
X184878750Y-134950000D01*
X250103750Y-53987500D02*
X250828750Y-53262500D01*
X96047500Y-153275000D02*
X96458750Y-153686250D01*
X39930000Y-145643165D02*
X39930000Y-149980000D01*
X179391250Y-77075000D02*
X179395000Y-77075000D01*
X57949541Y-134225000D02*
X58360791Y-134636250D01*
X269153750Y-115900000D02*
X269878750Y-115175000D01*
X300650000Y-39840000D02*
X300650000Y-48130000D01*
X309635000Y-154000000D02*
X310360000Y-153275000D01*
X337278750Y-154000000D02*
X354878750Y-154000000D01*
X250828750Y-115175000D02*
X251553750Y-115900000D01*
X227741250Y-96850000D02*
X245341250Y-96850000D01*
X46041250Y-53262500D02*
X46766250Y-53987500D01*
X107228750Y-134950000D02*
X107953750Y-134225000D01*
X72235000Y-153275000D02*
X72960000Y-154000000D01*
X135803750Y-115900000D02*
X136528750Y-115175000D01*
X141291250Y-77075000D02*
X142016250Y-77800000D01*
X307905000Y-134950000D02*
X307580000Y-134625000D01*
X188191250Y-53987500D02*
X188916250Y-53262500D01*
X275052500Y-77486250D02*
X298324371Y-77486250D01*
X283441250Y-96850000D02*
X284166250Y-96125000D01*
X354878750Y-154000000D02*
X355603750Y-153275000D01*
X269153750Y-53987500D02*
X269878750Y-53262500D01*
X169141250Y-53987500D02*
X169866250Y-53262500D01*
X307253750Y-96850000D02*
X307978750Y-96125000D01*
X69128750Y-53987500D02*
X69853750Y-53262500D01*
X108678750Y-53987500D02*
X126278750Y-53987500D01*
X327610000Y-57190000D02*
X320243750Y-57190000D01*
X65091250Y-77075000D02*
X65816250Y-77800000D01*
X42373750Y-80742500D02*
X42373750Y-93020000D01*
X46041250Y-77075000D02*
X42373750Y-80742500D01*
X262010000Y-154000000D02*
X262735000Y-153275000D01*
X239647500Y-154000000D02*
X262010000Y-154000000D01*
X92941250Y-96850000D02*
X93666250Y-96125000D01*
X188916250Y-53262500D02*
X189641250Y-53987500D01*
X159616250Y-77800000D02*
X160341250Y-77075000D01*
X78653750Y-115900000D02*
X79378750Y-115175000D01*
X74616250Y-96125000D02*
X75341250Y-96850000D01*
X84866250Y-77800000D02*
X102466250Y-77800000D01*
X241303750Y-134225000D02*
X242028750Y-134950000D01*
X291500756Y-134950000D02*
X295375756Y-134950000D01*
X57224541Y-134950000D02*
X57949541Y-134225000D01*
X170591250Y-96850000D02*
X188191250Y-96850000D01*
X250828750Y-53262500D02*
X251553750Y-53987500D01*
X286547500Y-153275000D02*
X287272500Y-154000000D01*
X72960000Y-154000000D02*
X95322500Y-154000000D01*
X122241250Y-77075000D02*
X122966250Y-77800000D01*
X373928750Y-154000000D02*
X374653750Y-153275000D01*
X50078750Y-96850000D02*
X50803750Y-96125000D01*
X189641250Y-96850000D02*
X207241250Y-96850000D01*
X108678750Y-134950000D02*
X126278750Y-134950000D01*
X246066250Y-96125000D02*
X246791250Y-96850000D01*
X246791250Y-96850000D02*
X264391250Y-96850000D01*
X98428750Y-115175000D02*
X99153750Y-115900000D01*
X311540000Y-50888750D02*
X311540000Y-52061250D01*
X88903750Y-134225000D02*
X89628750Y-134950000D01*
X151541250Y-53987500D02*
X169141250Y-53987500D01*
X88178750Y-53987500D02*
X88903750Y-53262500D01*
X160341250Y-77075000D02*
X161066250Y-77800000D01*
X37611250Y-66568750D02*
X37611250Y-73831250D01*
X126278750Y-134950000D02*
X127003750Y-134225000D01*
X46041250Y-77075000D02*
X46766250Y-77800000D01*
X250103750Y-115900000D02*
X250828750Y-115175000D01*
X217491250Y-77075000D02*
X218216250Y-77800000D01*
X222253750Y-134225000D02*
X222978750Y-134950000D01*
X162586582Y-153686250D02*
X162900332Y-154000000D01*
X226291250Y-96850000D02*
X227016250Y-96125000D01*
X161066250Y-77800000D02*
X178666250Y-77800000D01*
X169866250Y-96125000D02*
X170591250Y-96850000D01*
X44755000Y-112070000D02*
X48585000Y-115900000D01*
X254866250Y-77800000D02*
X255591250Y-77075000D01*
X302503121Y-77810000D02*
X303238121Y-77075000D01*
X194403750Y-115900000D02*
X212003750Y-115900000D01*
X349068566Y-87128493D02*
X351432978Y-87128493D01*
X310183750Y-52380000D02*
X311066250Y-53262500D01*
X165103750Y-134225000D02*
X165828750Y-134950000D01*
X232503750Y-53987500D02*
X250103750Y-53987500D01*
X131766250Y-96125000D02*
X132491250Y-96850000D01*
X83990000Y-134636250D02*
X84313750Y-134960000D01*
X48422500Y-153275000D02*
X49147500Y-154000000D01*
X207241250Y-96850000D02*
X207966250Y-96125000D01*
X192953750Y-115900000D02*
X193678750Y-115175000D01*
X256316250Y-77800000D02*
X273916250Y-77800000D01*
X175353750Y-115900000D02*
X192953750Y-115900000D01*
X37611250Y-73831250D02*
X41580000Y-77800000D01*
X49517500Y-131117959D02*
X53349541Y-134950000D01*
X289653750Y-53987500D02*
X312016250Y-53987500D01*
X265841250Y-96850000D02*
X283441250Y-96850000D01*
X103191250Y-77075000D02*
X103916250Y-77800000D01*
X231053750Y-53987500D02*
X231778750Y-53262500D01*
X207241250Y-53987500D02*
X207966250Y-53262500D01*
X237266250Y-77800000D02*
X254866250Y-77800000D01*
X173903750Y-115900000D02*
X174628750Y-115175000D01*
X311085000Y-154000000D02*
X335828750Y-154000000D01*
X169866250Y-53262500D02*
X170591250Y-53987500D01*
X47697500Y-154000000D02*
X48422500Y-153275000D01*
X137253750Y-115900000D02*
X154853750Y-115900000D01*
X351432978Y-87128493D02*
X353561471Y-85000000D01*
X167500332Y-153275000D02*
X167911582Y-153686250D01*
X216766250Y-77800000D02*
X217491250Y-77075000D01*
X53185000Y-115175000D02*
X53910000Y-115900000D01*
X64366250Y-77800000D02*
X65091250Y-77075000D01*
X208691250Y-53987500D02*
X231053750Y-53987500D01*
X199166250Y-77800000D02*
X216766250Y-77800000D01*
X121516250Y-77800000D02*
X122241250Y-77075000D01*
X94391250Y-96850000D02*
X111991250Y-96850000D01*
X46041250Y-58138750D02*
X37611250Y-66568750D01*
X49147500Y-154000000D02*
X71510000Y-154000000D01*
X45316250Y-77800000D02*
X46041250Y-77075000D01*
X79378750Y-115175000D02*
X80103750Y-115900000D01*
X218216250Y-77800000D02*
X235816250Y-77800000D01*
X164378750Y-134950000D02*
X165103750Y-134225000D01*
X288928750Y-53262500D02*
X289653750Y-53987500D01*
X231778750Y-115175000D02*
X232503750Y-115900000D01*
X126278750Y-53987500D02*
X127003750Y-53262500D01*
X312016250Y-53987500D02*
X312741250Y-53262500D01*
X99153750Y-115900000D02*
X116753750Y-115900000D01*
X234008750Y-153686250D02*
X234322500Y-154000000D01*
X162900332Y-154000000D02*
X166775332Y-154000000D01*
X300650000Y-52380000D02*
X310183750Y-52380000D01*
X296500756Y-134625000D02*
X296100756Y-134225000D01*
X193678750Y-115175000D02*
X194403750Y-115900000D01*
X291187006Y-134636250D02*
X291500756Y-134950000D01*
X150816250Y-96125000D02*
X151541250Y-96850000D01*
X140566250Y-77800000D02*
X141291250Y-77075000D01*
X151541250Y-96850000D02*
X169141250Y-96850000D01*
X231053750Y-115900000D02*
X231778750Y-115175000D01*
X84313750Y-134960000D02*
X88168750Y-134960000D01*
X102466250Y-77800000D02*
X103191250Y-77075000D01*
X356328750Y-154000000D02*
X373928750Y-154000000D01*
X188191250Y-96850000D02*
X188916250Y-96125000D01*
X170591250Y-53987500D02*
X188191250Y-53987500D01*
X127728750Y-134950000D02*
X145328750Y-134950000D01*
X232503750Y-115900000D02*
X250103750Y-115900000D01*
X107953750Y-53262500D02*
X108678750Y-53987500D01*
X236541250Y-77075000D02*
X237266250Y-77800000D01*
X44755000Y-102173750D02*
X44755000Y-112070000D01*
X88168750Y-134960000D02*
X88903750Y-134225000D01*
X53910000Y-115900000D02*
X78653750Y-115900000D01*
%TO.N,Net-(D80-DOUT)*%
X48166250Y-53262500D02*
X66353750Y-53262500D01*
X46041250Y-51512500D02*
X46416250Y-51512500D01*
X46416250Y-51512500D02*
X48166250Y-53262500D01*
%TO.N,LED*%
X34310000Y-37950000D02*
X318000000Y-37950000D01*
X42541250Y-56397279D02*
X40328529Y-58610000D01*
X34300000Y-58610000D02*
X34300000Y-37960000D01*
X42541250Y-53262500D02*
X42541250Y-56397279D01*
X40328529Y-58610000D02*
X34300000Y-58610000D01*
X318000000Y-37950000D02*
X322990000Y-42940000D01*
X34300000Y-37960000D02*
X34310000Y-37950000D01*
%TO.N,Net-(D81-DOUT)*%
X71603750Y-53262500D02*
X85403750Y-53262500D01*
X69853750Y-51512500D02*
X71603750Y-53262500D01*
%TO.N,Net-(D82-DOUT)*%
X91028750Y-53262500D02*
X104453750Y-53262500D01*
X88903750Y-51512500D02*
X89278750Y-51512500D01*
X89278750Y-51512500D02*
X91028750Y-53262500D01*
%TO.N,Net-(D83-DOUT)*%
X107953750Y-51512500D02*
X109703750Y-53262500D01*
X109703750Y-53262500D02*
X123503750Y-53262500D01*
%TO.N,Net-(D84-DOUT)*%
X127003750Y-51512500D02*
X128753750Y-53262500D01*
X128753750Y-53262500D02*
X147316250Y-53262500D01*
%TO.N,Net-(D85-DOUT)*%
X150816250Y-51512500D02*
X152566250Y-53262500D01*
X152566250Y-53262500D02*
X166366250Y-53262500D01*
%TO.N,Net-(D86-DOUT)*%
X171616250Y-53262500D02*
X185416250Y-53262500D01*
X169866250Y-51512500D02*
X171616250Y-53262500D01*
%TO.N,Net-(D87-DOUT)*%
X188916250Y-51512500D02*
X190666250Y-53262500D01*
X190666250Y-53262500D02*
X204466250Y-53262500D01*
%TO.N,Net-(D88-DOUT)*%
X209716250Y-53262500D02*
X228278750Y-53262500D01*
X207966250Y-51512500D02*
X209716250Y-53262500D01*
%TO.N,Net-(D89-DOUT)*%
X233528750Y-53262500D02*
X247328750Y-53262500D01*
X231778750Y-51512500D02*
X233528750Y-53262500D01*
%TO.N,Net-(D90-DOUT)*%
X252578750Y-53262500D02*
X266378750Y-53262500D01*
X250828750Y-51512500D02*
X252578750Y-53262500D01*
%TO.N,Net-(D91-DOUT)*%
X269878750Y-51512500D02*
X271628750Y-53262500D01*
X271628750Y-53262500D02*
X285428750Y-53262500D01*
%TO.N,Net-(D92-DOUT)*%
X288928750Y-51512500D02*
X290678750Y-53262500D01*
X290678750Y-53262500D02*
X309241250Y-53262500D01*
%TO.N,Net-(D93-DOUT)*%
X313841250Y-52612500D02*
X313841250Y-53987500D01*
X46287601Y-61270000D02*
X38011250Y-69546351D01*
X38011250Y-69546351D02*
X38011250Y-72545000D01*
X313841250Y-53987500D02*
X306558750Y-61270000D01*
X306558750Y-61270000D02*
X46287601Y-61270000D01*
X38011250Y-72545000D02*
X42541250Y-77075000D01*
X312741250Y-51512500D02*
X313841250Y-52612500D01*
%TO.N,Net-(D94-DOUT)*%
X46041250Y-75325000D02*
X47791250Y-77075000D01*
X47791250Y-77075000D02*
X61591250Y-77075000D01*
%TO.N,Net-(D95-DOUT)*%
X66841250Y-77075000D02*
X80641250Y-77075000D01*
X65091250Y-75325000D02*
X66841250Y-77075000D01*
%TO.N,Net-(D96-DOUT)*%
X85891250Y-77075000D02*
X99691250Y-77075000D01*
X84141250Y-75325000D02*
X85891250Y-77075000D01*
%TO.N,Net-(D97-DOUT)*%
X103191250Y-75325000D02*
X104941250Y-77075000D01*
X104941250Y-77075000D02*
X118741250Y-77075000D01*
%TO.N,Net-(D98-DOUT)*%
X122241250Y-75325000D02*
X123991250Y-77075000D01*
X123991250Y-77075000D02*
X137791250Y-77075000D01*
%TO.N,Net-(D100-DIN)*%
X143041250Y-77075000D02*
X156841250Y-77075000D01*
X141291250Y-75325000D02*
X143041250Y-77075000D01*
%TO.N,Net-(D100-DOUT)*%
X160341250Y-75325000D02*
X162091250Y-77075000D01*
X162091250Y-77075000D02*
X175891250Y-77075000D01*
%TO.N,Net-(D101-DOUT)*%
X179391250Y-75325000D02*
X181141250Y-77075000D01*
X181141250Y-77075000D02*
X194941250Y-77075000D01*
%TO.N,Net-(D102-DOUT)*%
X198441250Y-75325000D02*
X200191250Y-77075000D01*
X200191250Y-77075000D02*
X213991250Y-77075000D01*
%TO.N,Net-(D103-DOUT)*%
X219241250Y-77075000D02*
X233041250Y-77075000D01*
X217491250Y-75325000D02*
X219241250Y-77075000D01*
%TO.N,Net-(D104-DOUT)*%
X236541250Y-75371250D02*
X238245000Y-77075000D01*
X238245000Y-77075000D02*
X252091250Y-77075000D01*
X236541250Y-75325000D02*
X236541250Y-75371250D01*
%TO.N,Net-(D105-DOUT)*%
X257341250Y-77075000D02*
X271141250Y-77075000D01*
X255591250Y-75325000D02*
X257341250Y-77075000D01*
%TO.N,Net-(D106-DOUT)*%
X276391250Y-77075000D02*
X299738121Y-77075000D01*
X274641250Y-75325000D02*
X276391250Y-77075000D01*
%TO.N,Net-(D107-DOUT)*%
X42773750Y-87976250D02*
X42773750Y-91595000D01*
X303238121Y-75325000D02*
X304338121Y-76425000D01*
X304338121Y-77800000D02*
X297971871Y-84166250D01*
X42773750Y-91595000D02*
X47303750Y-96125000D01*
X297971871Y-84166250D02*
X46583750Y-84166250D01*
X304338121Y-76425000D02*
X304338121Y-77800000D01*
X46583750Y-84166250D02*
X42773750Y-87976250D01*
%TO.N,Net-(D108-DOUT)*%
X50803750Y-94375000D02*
X52553750Y-96125000D01*
X52553750Y-96125000D02*
X71116250Y-96125000D01*
%TO.N,Net-(D109-DOUT)*%
X74616250Y-94375000D02*
X76366250Y-96125000D01*
X76366250Y-96125000D02*
X90166250Y-96125000D01*
%TO.N,Net-(D110-DOUT)*%
X95416250Y-96125000D02*
X109216250Y-96125000D01*
X93666250Y-94375000D02*
X95416250Y-96125000D01*
%TO.N,Net-(D111-DOUT)*%
X114466250Y-96125000D02*
X128266250Y-96125000D01*
X112716250Y-94375000D02*
X114466250Y-96125000D01*
%TO.N,Net-(D112-DOUT)*%
X133516250Y-96125000D02*
X147316250Y-96125000D01*
X131766250Y-94375000D02*
X133516250Y-96125000D01*
%TO.N,Net-(D113-DOUT)*%
X152566250Y-96125000D02*
X166366250Y-96125000D01*
X150816250Y-94375000D02*
X152566250Y-96125000D01*
%TO.N,Net-(D114-DOUT)*%
X171616250Y-96125000D02*
X185416250Y-96125000D01*
X169866250Y-94375000D02*
X171616250Y-96125000D01*
%TO.N,Net-(D115-DOUT)*%
X190666250Y-96125000D02*
X204466250Y-96125000D01*
X188916250Y-94375000D02*
X190666250Y-96125000D01*
%TO.N,Net-(D116-DOUT)*%
X209716250Y-96125000D02*
X223516250Y-96125000D01*
X207966250Y-94375000D02*
X209716250Y-96125000D01*
%TO.N,Net-(D117-DOUT)*%
X228766250Y-96125000D02*
X242566250Y-96125000D01*
X227016250Y-94375000D02*
X228766250Y-96125000D01*
%TO.N,Net-(D118-DOUT)*%
X246066250Y-94375000D02*
X247816250Y-96125000D01*
X247816250Y-96125000D02*
X261616250Y-96125000D01*
%TO.N,Net-(D119-DOUT)*%
X265116250Y-94375000D02*
X266866250Y-96125000D01*
X266866250Y-96125000D02*
X280666250Y-96125000D01*
%TO.N,Net-(D120-DOUT)*%
X285916250Y-96125000D02*
X304478750Y-96125000D01*
X284166250Y-94375000D02*
X285916250Y-96125000D01*
%TO.N,Net-(D121-DOUT)*%
X305208750Y-100720000D02*
X52081351Y-100720000D01*
X309078750Y-96850000D02*
X305208750Y-100720000D01*
X52081351Y-100720000D02*
X45155000Y-107646351D01*
X309078750Y-95475000D02*
X309078750Y-96850000D01*
X45155000Y-107646351D02*
X45155000Y-110645000D01*
X307978750Y-94375000D02*
X309078750Y-95475000D01*
X45155000Y-110645000D02*
X49685000Y-115175000D01*
%TO.N,Net-(D122-DOUT)*%
X53185000Y-113425000D02*
X54935000Y-115175000D01*
X54935000Y-115175000D02*
X75878750Y-115175000D01*
%TO.N,Net-(D123-DOUT)*%
X81128750Y-115175000D02*
X94928750Y-115175000D01*
X79378750Y-113425000D02*
X81128750Y-115175000D01*
%TO.N,Net-(D124-DOUT)*%
X100178750Y-115175000D02*
X113978750Y-115175000D01*
X98428750Y-113425000D02*
X100178750Y-115175000D01*
%TO.N,Net-(D125-DOUT)*%
X119228750Y-115175000D02*
X133028750Y-115175000D01*
X117478750Y-113425000D02*
X119228750Y-115175000D01*
%TO.N,Net-(D126-DOUT)*%
X136528750Y-113425000D02*
X138278750Y-115175000D01*
X138278750Y-115175000D02*
X152078750Y-115175000D01*
%TO.N,Net-(D127-DOUT)*%
X157328750Y-115175000D02*
X171128750Y-115175000D01*
X155578750Y-113425000D02*
X157328750Y-115175000D01*
%TO.N,Net-(D128-DOUT)*%
X176378750Y-115175000D02*
X190178750Y-115175000D01*
X174628750Y-113425000D02*
X176378750Y-115175000D01*
%TO.N,Net-(D129-DOUT)*%
X195428750Y-115175000D02*
X209228750Y-115175000D01*
X193678750Y-113425000D02*
X195428750Y-115175000D01*
%TO.N,Net-(D130-DOUT)*%
X212728750Y-113425000D02*
X214478750Y-115175000D01*
X214478750Y-115175000D02*
X228278750Y-115175000D01*
%TO.N,Net-(D131-DOUT)*%
X233528750Y-115175000D02*
X247328750Y-115175000D01*
X231778750Y-113425000D02*
X233528750Y-115175000D01*
%TO.N,Net-(D132-DOUT)*%
X250828750Y-113425000D02*
X252578750Y-115175000D01*
X252578750Y-115175000D02*
X266378750Y-115175000D01*
%TO.N,Net-(D133-DOUT)*%
X271628750Y-115175000D02*
X297337623Y-115175000D01*
X269878750Y-113425000D02*
X271628750Y-115175000D01*
%TO.N,Net-(D134-DOUT)*%
X56742601Y-119871250D02*
X49917500Y-126696351D01*
X301937623Y-115900000D02*
X297517623Y-120320000D01*
X49917500Y-129692959D02*
X54449541Y-134225000D01*
X301937623Y-114525000D02*
X301937623Y-115900000D01*
X300837623Y-113425000D02*
X301937623Y-114525000D01*
X297517623Y-120320000D02*
X283930000Y-120320000D01*
X49917500Y-126696351D02*
X49917500Y-129692959D01*
X283481250Y-119871250D02*
X56742601Y-119871250D01*
X283930000Y-120320000D02*
X283481250Y-119871250D01*
%TO.N,Net-(D135-DOUT)*%
X57949541Y-132475000D02*
X59699541Y-134225000D01*
X59699541Y-134225000D02*
X85403750Y-134225000D01*
%TO.N,Net-(D136-DOUT)*%
X88903750Y-132475000D02*
X90653750Y-134225000D01*
X90653750Y-134225000D02*
X104453750Y-134225000D01*
%TO.N,Net-(D137-DOUT)*%
X109703750Y-134225000D02*
X123503750Y-134225000D01*
X107953750Y-132475000D02*
X109703750Y-134225000D01*
%TO.N,Net-(D138-DOUT)*%
X127003750Y-132475000D02*
X128753750Y-134225000D01*
X128753750Y-134225000D02*
X142553750Y-134225000D01*
%TO.N,Net-(D139-DOUT)*%
X147803750Y-134225000D02*
X161603750Y-134225000D01*
X146053750Y-132475000D02*
X147803750Y-134225000D01*
%TO.N,Net-(D140-DOUT)*%
X166853750Y-134225000D02*
X180653750Y-134225000D01*
X165103750Y-132475000D02*
X166853750Y-134225000D01*
%TO.N,Net-(D141-DOUT)*%
X185903750Y-134225000D02*
X199703750Y-134225000D01*
X184153750Y-132475000D02*
X185903750Y-134225000D01*
%TO.N,Net-(D142-DOUT)*%
X203203750Y-132475000D02*
X204953750Y-134225000D01*
X204953750Y-134225000D02*
X218753750Y-134225000D01*
%TO.N,Net-(D143-DOUT)*%
X222253750Y-132475000D02*
X224003750Y-134225000D01*
X224003750Y-134225000D02*
X237803750Y-134225000D01*
%TO.N,Net-(D144-DOUT)*%
X241303750Y-132475000D02*
X243053750Y-134225000D01*
X243053750Y-134225000D02*
X256853750Y-134225000D01*
%TO.N,Net-(D145-DOUT)*%
X260353750Y-132475000D02*
X262103750Y-134225000D01*
X262103750Y-134225000D02*
X292600756Y-134225000D01*
%TO.N,Net-(D146-DOUT)*%
X297850756Y-134225000D02*
X352103750Y-134225000D01*
X296100756Y-132475000D02*
X297850756Y-134225000D01*
%TO.N,Net-(D147-DOUT)*%
X355603750Y-132475000D02*
X356703750Y-133575000D01*
X216821250Y-138921250D02*
X70828750Y-138921250D01*
X356703750Y-135006250D02*
X352373750Y-139336250D01*
X68520000Y-141230000D02*
X44908851Y-141230000D01*
X40350000Y-145788851D02*
X40350000Y-148702500D01*
X217236250Y-139336250D02*
X216821250Y-138921250D01*
X70828750Y-138921250D02*
X68520000Y-141230000D01*
X352373750Y-139336250D02*
X217236250Y-139336250D01*
X40350000Y-148702500D02*
X44922500Y-153275000D01*
X44908851Y-141230000D02*
X40350000Y-145788851D01*
X356703750Y-133575000D02*
X356703750Y-135006250D01*
%TO.N,Net-(D148-DOUT)*%
X50172500Y-153275000D02*
X68735000Y-153275000D01*
X48422500Y-151525000D02*
X50172500Y-153275000D01*
%TO.N,Net-(D149-DOUT)*%
X72235000Y-151525000D02*
X73985000Y-153275000D01*
X73985000Y-153275000D02*
X92547500Y-153275000D01*
%TO.N,Net-(D150-DOUT)*%
X96047500Y-151525000D02*
X97797500Y-153275000D01*
X97797500Y-153275000D02*
X164000332Y-153275000D01*
%TO.N,Net-(D151-DOUT)*%
X169250332Y-153275000D02*
X235422500Y-153275000D01*
X167500332Y-151525000D02*
X169250332Y-153275000D01*
%TO.N,Net-(D152-DOUT)*%
X240672500Y-153275000D02*
X259235000Y-153275000D01*
X238922500Y-151525000D02*
X240672500Y-153275000D01*
%TO.N,Net-(D153-DOUT)*%
X264485000Y-153275000D02*
X283047500Y-153275000D01*
X262735000Y-151525000D02*
X264485000Y-153275000D01*
%TO.N,Net-(D154-DOUT)*%
X286547500Y-151525000D02*
X288297500Y-153275000D01*
X288297500Y-153275000D02*
X306860000Y-153275000D01*
%TO.N,Net-(D155-DOUT)*%
X310360000Y-151525000D02*
X312110000Y-153275000D01*
X312110000Y-153275000D02*
X333053750Y-153275000D01*
%TO.N,Net-(D156-DOUT)*%
X338303750Y-153275000D02*
X352103750Y-153275000D01*
X336553750Y-151525000D02*
X338303750Y-153275000D01*
%TO.N,Net-(D157-DOUT)*%
X357353750Y-153275000D02*
X371153750Y-153275000D01*
X355603750Y-151525000D02*
X357353750Y-153275000D01*
%TO.N,+3.3V*%
X363181250Y-83722500D02*
X363181250Y-79641250D01*
X380000000Y-78000000D02*
X369833750Y-78000000D01*
X347701250Y-47643620D02*
X345883815Y-45826185D01*
X369833750Y-78000000D02*
X366871250Y-80962500D01*
X364000000Y-84541250D02*
X363181250Y-83722500D01*
X352773750Y-88226250D02*
X352773750Y-91900000D01*
X354500000Y-86500000D02*
X354000000Y-87000000D01*
X357000000Y-86500000D02*
X354500000Y-86500000D01*
X363181250Y-79641250D02*
X347701250Y-64161250D01*
X347701250Y-64161250D02*
X347701250Y-47643620D01*
%TO.N,Column 1*%
X40392500Y-162000000D02*
X387000000Y-162000000D01*
%TO.N,Column 9*%
X386420000Y-159340000D02*
X383210000Y-159340000D01*
X354171250Y-54590000D02*
X386420000Y-54590000D01*
X386420000Y-54590000D02*
X386420000Y-159340000D01*
X354171250Y-57858750D02*
X354171250Y-54590000D01*
%TO.N,Column 10*%
X356711250Y-57891250D02*
X356711250Y-54990000D01*
X386020000Y-158740000D02*
X382440000Y-158740000D01*
X386020000Y-54990000D02*
X386020000Y-158740000D01*
X356711250Y-54990000D02*
X386020000Y-54990000D01*
%TO.N,Column 11*%
X361790000Y-55390000D02*
X385620000Y-55390000D01*
X385620000Y-158140000D02*
X381640000Y-158140000D01*
X361790000Y-57890000D02*
X361790000Y-55390000D01*
X385620000Y-55390000D02*
X385620000Y-158140000D01*
%TO.N,Column 12*%
X385220000Y-157540000D02*
X380850000Y-157540000D01*
X364331250Y-55790000D02*
X385220000Y-55790000D01*
X385220000Y-55790000D02*
X385220000Y-157540000D01*
X364331250Y-57838750D02*
X364331250Y-55790000D01*
%TO.N,Column 13*%
X366871250Y-57948750D02*
X366871250Y-56190000D01*
X366871250Y-56190000D02*
X384820000Y-56190000D01*
X384820000Y-156940000D02*
X380050000Y-156940000D01*
X384820000Y-56190000D02*
X384820000Y-156940000D01*
%TO.N,Column 14*%
X369411250Y-56590000D02*
X384410000Y-56590000D01*
X384410000Y-56590000D02*
X384410000Y-156340000D01*
X369411250Y-57941250D02*
X369411250Y-56590000D01*
X324790000Y-105120000D02*
X324790000Y-106550000D01*
X384410000Y-156340000D02*
X379310000Y-156340000D01*
%TO.N,I2C_SDA*%
X335220000Y-62251250D02*
X327938750Y-54970000D01*
X357853750Y-89412500D02*
X357853750Y-91900000D01*
X327938750Y-54970000D02*
X323410000Y-54970000D01*
X347850000Y-77181250D02*
X335220000Y-64551250D01*
X358133125Y-89133125D02*
X357853750Y-89412500D01*
X335220000Y-64551250D02*
X335220000Y-62251250D01*
X347850000Y-86650000D02*
X347850000Y-77181250D01*
%TO.N,I2C_SCL*%
X348098529Y-87250000D02*
X346315615Y-87250000D01*
X345401250Y-86335635D02*
X345401250Y-78343750D01*
X328067500Y-56390000D02*
X322400000Y-56390000D01*
X355313750Y-88000000D02*
X355313750Y-91900000D01*
X346315615Y-87250000D02*
X345401250Y-86335635D01*
X322400000Y-56390000D02*
X322400000Y-53950000D01*
X349098529Y-86250000D02*
X348098529Y-87250000D01*
X345401250Y-78343750D02*
X332701250Y-65643750D01*
X332701250Y-61023750D02*
X328067500Y-56390000D01*
X332701250Y-65643750D02*
X332701250Y-61023750D01*
X350790000Y-86250000D02*
X349098529Y-86250000D01*
%TD*%
M02*
